<svg width="1064" height="907" viewBox="0 0 1064 907" fill="none" xmlns="http://www.w3.org/2000/svg">
<g style="mix-blend-mode:multiply" opacity="0.58">
<path d="M531.5 906.103C763.657 906.103 951.856 892.381 951.856 875.455C951.856 858.528 763.657 844.807 531.5 844.807C299.344 844.807 111.145 858.528 111.145 875.455C111.145 892.381 299.344 906.103 531.5 906.103Z" fill="#F0B33B"/>
</g>
<g opacity="0.5">
<g style="mix-blend-mode:screen" opacity="0.5">
<g style="mix-blend-mode:screen" opacity="0.5">
<path d="M355.636 26.8144C410.761 -0.905624 481.086 -5.70563 542.292 5.88637C622.7 21.1024 662.625 19.6384 743.033 34.8544C790.457 43.8304 832.004 101.526 875.704 121.11C928.194 144.654 938.91 165.918 968.804 213.102C978.405 228.27 1014.4 275.142 1016.46 292.686C1020.13 322.518 1012.5 339.174 1016.28 368.982C1020.56 403.038 1024.18 423.99 1028.54 458.046C1034.85 507.366 1003.79 533.022 1006.3 582.654C1007.39 603.87 992.617 631.854 990.312 652.974C988.589 668.79 923.888 709.23 914.312 722.238C871.574 779.838 874.133 792.966 806.366 821.934C777.562 834.246 767.581 859.326 736.37 864.054C709.188 868.182 681.422 866.286 654.012 863.934C599.697 859.254 566.409 874.878 512.601 866.502C467.001 859.302 408.076 864.102 361.842 866.502C340.284 867.558 303.88 860.118 282.726 855.894C264.056 852.15 213.516 831.894 197.125 822.51C161.937 802.59 126.014 767.31 110.637 731.31C105.57 719.454 104.101 667.398 67.5703 618.246C34.0543 573.222 40.337 573.798 28.329 476.406C21.565 421.686 34.941 351.606 68.457 306.486C90.7756 276.51 99.1863 248.646 103.746 212.214C105.469 198.606 102.657 184.71 104.937 171.15C111.65 131.502 156.744 110.334 196.137 95.5504C235.53 80.7664 273.53 63.5824 313.684 51.4624C343.78 42.3664 332.912 38.2624 355.636 26.8144ZM83.7076 199.134C81.1743 183.894 55.0556 184.542 51.889 199.134C50.7996 204.174 45.961 209.67 43.377 214.374C39.9992 220.518 36.4272 226.55 32.661 232.47C25.4156 243.798 17.689 254.646 12.1156 266.838C8.16363 275.526 8.06229 285.054 15.5863 292.182C21.8943 298.158 34.6876 301.014 42.3383 295.446C57.8676 284.094 71.345 270.774 79.5023 253.566C83.7892 245.123 86.6039 236.078 87.837 226.782C89.0783 216.318 85.4049 209.07 83.7076 199.134V199.134ZM210.704 60.8944C210.704 70.9024 203.104 76.0864 193.958 79.1104C187.401 81.0779 180.416 81.3922 173.692 80.0224C167.054 78.9424 164.369 69.2944 169.562 65.2384C174.376 61.5184 177.998 58.4464 182.508 55.3504C183.068 54.9518 183.652 54.5832 184.256 54.2464C186.364 52.4714 188.828 51.1165 191.501 50.2624C194.944 49.2665 198.622 49.2665 202.065 50.2624C204.519 50.9214 206.683 52.311 208.239 54.2257C209.795 56.1404 210.659 58.4785 210.704 60.8944V60.8944ZM255.848 46.7824C254.809 48.3359 253.657 49.8194 252.402 51.2224C250.11 53.1964 247.287 54.5334 244.245 55.0864C242.286 55.6258 240.201 55.5928 238.263 54.9915C236.324 54.3902 234.623 53.2487 233.38 51.7163C232.137 50.1839 231.412 48.3319 231.298 46.4025C231.185 44.4731 231.689 42.5561 232.744 40.9024C234.087 38.7328 236.267 37.1413 238.824 36.4624C241.901 35.7272 245.114 35.6616 248.222 36.2704C250.151 36.9221 251.982 37.8096 253.669 38.9104C255.048 39.6904 256.05 40.9523 256.457 42.4244C256.864 43.8966 256.646 45.4615 255.848 46.7824V46.7824ZM19.9943 613.398C11.761 609.942 6.6183 599.598 3.8823 591.798C1.4315 584.441 0.125782 576.785 0.00630392 569.07C-0.475029 552.894 26.7583 549.126 30.0263 565.23C31.0265 570.493 32.8181 575.593 35.3463 580.374C38.9436 587.118 42.9463 592.686 43.7823 600.414C45.125 612.99 29.7476 617.526 19.9943 613.398V613.398ZM65.341 639.798C65.3797 641.52 64.9523 643.222 64.0996 644.742C62.9489 647.524 60.8428 649.857 58.121 651.366C55.6105 652.721 52.7319 653.34 49.85 653.143C46.9681 652.947 44.2127 651.944 41.933 650.262C38.8117 648.198 36.5316 645.182 35.473 641.718C35.0116 639.786 34.7402 637.818 34.6623 635.838C34.6623 632.019 36.2637 628.356 39.1143 625.656C41.9648 622.955 45.831 621.438 49.8623 621.438C53.724 621.43 57.4442 622.815 60.2673 625.311C63.0905 627.807 64.8048 631.228 65.0623 634.878C65.2561 635.885 65.3663 636.904 65.3916 637.926C65.4566 638.581 65.4566 639.24 65.3916 639.894L65.341 639.798ZM1055.54 425.718C1055.5 427.361 1054.83 428.933 1053.67 430.155C1052.51 431.377 1050.93 432.169 1049.22 432.391C1047.5 432.613 1045.75 432.25 1044.29 431.366C1042.83 430.483 1041.74 429.136 1041.23 427.566C1034.72 411.078 1032.97 393.438 1028.92 376.302C1027.17 368.934 1039.05 363.342 1042.45 370.902C1050.55 388.494 1057.72 406.47 1055.54 425.814V425.718ZM1044.93 491.526V491.646V491.526ZM1063.04 485.382C1062.76 489.2 1060.94 492.77 1057.98 495.366C1057.22 496.054 1056.3 496.571 1055.3 496.88C1054.31 497.19 1053.25 497.284 1052.2 497.155C1051.16 497.026 1050.16 496.678 1049.28 496.136C1048.4 495.594 1047.66 494.872 1047.11 494.022C1048.1 495.294 1045.13 491.502 1045.06 491.622C1044.31 490.349 1043.74 488.984 1043.38 487.566C1043.05 485.986 1042.86 484.379 1042.83 482.766C1042.83 482.31 1042.83 481.854 1042.83 481.398C1042.83 480.942 1042.83 481.086 1042.83 480.846C1042.22 478.469 1042.59 475.96 1043.86 473.832C1045.14 471.704 1047.22 470.118 1049.69 469.398C1052.2 468.782 1054.87 469.116 1057.13 470.331C1059.38 471.545 1061.05 473.543 1061.78 475.902C1062.71 479.007 1063.14 482.228 1063.04 485.454V485.382ZM984.51 694.422C969.817 713.454 955.529 729.726 934.477 742.638C928.98 746.022 922.114 739.326 925.534 734.166C938.936 713.79 956.441 700.566 977.696 687.99C981.749 685.662 987.525 690.726 984.536 694.494L984.51 694.422ZM863.772 88.6624C848.8 89.7664 837.248 79.4944 827.874 69.7264C818.072 59.3816 809.57 47.9934 802.541 35.7904C794.941 22.7584 814.524 12.4144 823.264 24.2944C830.774 34.4142 839.496 43.676 849.256 51.8944C858.528 59.8144 868.458 66.2944 872.258 78.2944C872.575 79.5196 872.596 80.7967 872.318 82.0305C872.041 83.2643 871.474 84.4229 870.658 85.4197C869.842 86.4165 868.799 87.2259 867.606 87.7874C866.414 88.3489 865.103 88.648 863.772 88.6624V88.6624ZM906.458 115.974C903.722 113.454 901.113 110.814 898.377 108.27C898.377 108.27 897.288 107.31 897.085 107.094C896.034 106.409 895.035 105.655 894.096 104.838C892.818 103.606 891.825 102.135 891.182 100.518C890.22 98.9444 889.946 97.076 890.419 95.3131C890.893 93.5503 892.076 92.0331 893.716 91.0864C892.398 92.1184 892.753 91.8784 894.754 90.3664C895.631 89.8461 896.616 89.5105 897.642 89.3824C899.763 88.8784 901.982 88.8784 904.102 89.3824C906.84 90.0497 909.466 91.0756 911.905 92.4304C914.768 93.9162 917.271 95.9515 919.256 98.4063C921.241 100.861 922.663 103.681 923.432 106.686C923.917 108.71 923.706 110.828 922.829 112.731C921.952 114.633 920.456 116.219 918.558 117.257C916.661 118.295 914.463 118.731 912.286 118.5C910.109 118.269 908.066 117.384 906.458 115.974V115.974ZM960.292 158.598C958.539 159.871 956.43 160.628 954.227 160.773C952.024 160.918 949.825 160.445 947.904 159.414C942.114 156.207 936.968 152.055 932.704 147.15C930.252 144.725 928.884 141.496 928.884 138.138C928.884 134.78 930.252 131.552 932.704 129.126C937.34 124.326 947.169 124.014 951.754 129.126C954.512 131.873 957.052 134.809 959.354 137.91C961.387 140.937 963.085 144.154 964.421 147.51C964.99 149.533 964.905 151.671 964.178 153.647C963.451 155.624 962.115 157.349 960.342 158.598H960.292Z" fill="#FFDE66"/>
</g>
</g>
<g style="mix-blend-mode:multiply" opacity="0.33">
<g style="mix-blend-mode:multiply" opacity="0.33">
<g style="mix-blend-mode:multiply" opacity="0.45">
<path d="M667.667 244.566L667.49 244.902C667.536 244.784 667.596 244.672 667.667 244.566Z" fill="#FABD3C"/>
<path d="M667.692 244.542L669.314 241.398L673.114 233.766L669.644 240.746C669.83 240.397 670.175 240.231 670.175 240.414C670.052 240.847 669.967 241.288 669.922 241.734C669.291 242.31 668.745 242.964 668.3 243.678L667.692 244.542Z" fill="#FABD3C"/>
<path d="M880.847 232.662C881.126 232.518 880.974 232.806 881.126 232.806C881.126 232.974 880.872 233.094 880.847 233.214V232.662Z" fill="#FABD3C"/>
<path d="M722.564 242.838C721.298 241.878 722.463 240.15 723.831 241.326H723.704C723.777 241.498 723.802 241.684 723.779 241.868C723.755 242.051 723.684 242.227 723.57 242.377C723.457 242.528 723.305 242.649 723.13 242.729C722.954 242.81 722.759 242.847 722.564 242.838Z" fill="#FABD3C"/>
<path d="M758.835 300.92C758.874 301.258 758.842 301.6 758.74 301.926C758.561 302.011 758.361 302.052 758.161 302.044C757.96 302.037 757.765 301.981 757.593 301.883C757.421 301.785 757.278 301.647 757.178 301.483C757.077 301.318 757.022 301.132 757.018 300.942C757.013 300.771 757.053 300.602 757.135 300.449C757.217 300.297 757.337 300.166 757.485 300.068C757.633 299.971 757.805 299.91 757.984 299.89C758.163 299.871 758.345 299.894 758.512 299.958C758.686 300.255 758.795 300.583 758.835 300.92Z" fill="#FABD3C"/>
<path d="M772.674 320.382L772.192 319.686L772.674 319.974V320.382Z" fill="#FABD3C"/>
<path d="M783.238 329.286C783.247 329.276 783.256 329.266 783.265 329.256C783.322 329.174 783.44 329.094 783.44 329.094C783.846 328.686 784.631 328.518 785.062 328.062V328.086C785.619 329.142 783.972 328.854 783.44 329.094C783.377 329.143 783.319 329.197 783.265 329.256C783.252 329.274 783.242 329.292 783.238 329.31V329.286Z" fill="#FABD3C"/>
<path d="M794.84 352.854C793.624 354.294 794.384 355.878 795.702 357.246V357.27C791.851 355.974 788.938 357.438 785.771 358.35L786.05 359.166C785.416 358.278 783.491 357.726 782.883 356.91C780.02 358.686 776.448 352.158 773.256 352.95C773.122 351.37 772.394 349.889 771.204 348.774C769.947 347.506 768.803 346.141 767.784 344.694L767.607 344.886C766.103 342.641 765.559 339.937 766.087 337.326C766.739 335.043 766.894 332.659 766.543 330.318C769.659 331.758 769.938 328.23 773.459 329.886L774.346 327.486C775.688 328.302 774.042 329.982 776.448 330.462C777.31 330.558 777.588 329.574 777.588 328.782C778.602 331.902 781.287 329.79 782.959 329.934C783.926 331.754 785.332 333.332 787.063 334.542C788.927 335.719 790.689 337.035 792.332 338.478C792.054 340.878 794.688 343.278 795.854 345.678C793.346 344.382 794.891 347.262 795.22 348.246C797.247 348.006 799.527 349.878 800.667 350.814L797.804 349.758C796.816 350.598 794.866 350.454 794.992 352.038C795.387 352.122 795.747 352.315 796.027 352.593C796.306 352.87 796.493 353.22 796.563 353.598C795.917 353.54 795.31 353.278 794.84 352.854Z" fill="#FABD3C"/>
<path d="M792.459 337.734C792.423 337.965 792.423 338.199 792.459 338.43C792.788 338.334 792.459 337.926 792.459 337.734Z" fill="#FABD3C"/>
<path d="M786.075 359.07L786.092 359.114C786.28 359.322 786.382 359.587 786.379 359.862L786.092 359.114C786.078 359.099 786.064 359.085 786.05 359.07H786.075Z" fill="#FABD3C"/>
<path d="M677.319 311.478H677.142L677.395 309.63H677.572L677.319 311.478Z" fill="#FABD3C"/>
<path d="M691.886 316.758C691.658 317.118 690.847 316.974 690.239 316.47H690.138C690.011 315.246 691.404 316.134 691.886 316.758Z" fill="#FABD3C"/>
<path d="M802.82 351.942C802.83 351.95 802.839 351.957 802.848 351.965C803.255 352.049 803.626 352.25 803.91 352.542C803.934 352.561 803.958 352.581 803.981 352.6C804.89 352.898 805.815 353.085 806.291 354.078C805.455 354.171 804.763 353.247 803.981 352.6C803.924 352.581 803.866 352.562 803.808 352.542H803.91C803.522 352.412 803.162 352.216 802.848 351.965C802.805 351.956 802.762 351.948 802.719 351.942H802.82Z" fill="#FABD3C"/>
<path d="M800.616 354.678L799.78 354.102L800.388 354.078L800.616 354.678Z" fill="#FABD3C"/>
<path d="M819.844 354.318C820.098 353.886 820.883 353.19 821.44 354.102H821.339C821.694 355.638 820.326 355.014 819.844 354.318Z" fill="#FABD3C"/>
<path d="M810.167 355.83L810.826 355.974L811.94 356.646L810.167 355.83Z" fill="#FABD3C"/>
<path d="M837.299 396.15C834.405 394.993 831.701 393.449 829.268 391.566H829.167C828.34 390.38 832.225 389.232 829.517 387.38C829.342 387.281 829.172 387.169 828.993 387.059C828.724 386.91 828.412 386.756 828.052 386.598C828.421 386.72 828.718 386.889 828.993 387.059C829.19 387.168 829.364 387.275 829.517 387.38C829.866 387.577 830.236 387.726 830.738 387.726C829.294 385.518 835.703 388.542 832.764 386.022C833.927 385.948 835.096 386.029 836.235 386.262C837.502 386.454 838.819 386.742 840.212 386.982C843.357 387.644 846.622 387.586 849.738 386.814C849.003 387.558 850.827 388.182 852.955 388.326C855.083 388.47 857.464 388.038 857.464 387.342C861.188 389.958 867.344 389.766 869.878 391.782C867.595 393.01 865.225 394.084 862.784 394.998C860.732 395.934 859.719 396.75 862.784 397.398C856.882 398.214 847.559 398.022 848.471 399.558C844.64 398.764 840.899 397.623 837.299 396.15Z" fill="#FABD3C"/>
<path d="M708.048 391.062C708.631 393.222 708.454 393.894 709.315 396.654H709.214C707.846 397.926 705.338 394.686 704.071 396.006C702.407 394.453 700.858 392.793 699.435 391.038C698.391 389.63 697.818 387.958 697.788 386.238C698.067 385.086 699.688 385.71 700.448 385.23C701.816 385.23 703.108 386.382 704.35 387.63C705.452 388.894 706.692 390.044 708.048 391.062Z" fill="#FABD3C"/>
<path d="M869.447 385.278C868.611 385.662 867.775 386.07 866.914 386.406H866.812C867.344 386.07 867.876 385.686 868.459 385.278H869.447Z" fill="#FABD3C"/>
<path d="M761.628 409.446C762.236 408.798 762.439 407.31 763.706 407.526C766.036 408.294 768.57 408.726 770.014 410.766C770.571 411.846 770.419 412.494 770.875 413.358C769.33 414.438 768.012 415.542 764.415 413.142C763.655 412.062 761.426 410.958 761.628 409.446Z" fill="#FABD3C"/>
<path d="M810.243 423.678C809.684 423.564 809.105 423.564 808.546 423.678V423.558C805.84 421.324 803.723 418.522 802.364 415.374L802.947 415.902C804.593 415.76 806.252 415.99 807.786 416.574C809.829 417.22 811.91 417.757 814.018 418.182C818.4 421.086 821.82 422.382 824.48 424.662C827.14 426.942 823.366 426.582 819.135 425.646C816.855 425.166 814.702 424.59 812.776 424.158C811.943 423.95 811.097 423.79 810.243 423.678Z" fill="#FABD3C"/>
<path d="M887.309 284.353C886.959 284.113 886.679 283.793 886.496 283.422V283.302C887.256 282.27 888.27 283.638 888.498 284.79C888.069 284.743 887.66 284.592 887.309 284.353Z" fill="#FABD3C"/>
<path d="M873.855 280.398L874.184 278.622L874.868 277.998L873.855 280.398Z" fill="#FABD3C"/>
<path d="M851.258 271.422C851.256 271.419 851.253 271.416 851.251 271.413C851.203 271.521 851.123 271.615 851.021 271.682C850.915 271.753 850.788 271.792 850.658 271.794C850.528 271.797 850.4 271.763 850.29 271.697C850.181 271.63 850.094 271.535 850.042 271.422C850.109 271.328 850.2 271.251 850.306 271.198C850.412 271.145 850.53 271.117 850.65 271.117C850.77 271.117 850.888 271.145 850.994 271.198C851.096 271.249 851.185 271.323 851.251 271.413C851.253 271.408 851.256 271.403 851.258 271.398V271.422Z" fill="#FABD3C"/>
<path d="M939.924 291.918C939.925 291.914 939.926 291.909 939.927 291.905C939.035 291.961 937.644 289.316 936.732 288.102C935.922 285.558 937.036 285.558 937.974 285.558C938.84 286.549 939.455 287.715 939.772 288.966C940.037 289.925 940.089 290.926 939.927 291.905C939.951 291.904 939.976 291.9 940 291.894L939.924 291.918Z" fill="#FABD3C"/>
<path d="M896.883 268.59C896.452 268.734 896.579 268.47 896.452 268.326L896.579 268.062L896.883 268.59Z" fill="#FABD3C"/>
<path d="M896.452 265.782L896.655 265.638L896.452 266.454C896.072 266.31 896.452 265.902 896.452 265.782Z" fill="#FABD3C"/>
<path d="M906.079 264.606C905.338 265.376 904.313 265.849 903.216 265.926C902.507 265.374 899.467 264.918 901.848 263.838L901.57 262.35C903.723 262.686 904.027 261.846 906.256 261.846C905.851 262.71 907.371 263.07 906.079 264.606Z" fill="#FABD3C"/>
<path d="M900.556 264.246L901.088 264.102L901.038 264.246H900.556Z" fill="#FABD3C"/>
<path d="M907.548 255.798C906.864 255.918 906.383 255.678 906.535 255.222L906.459 255.246C907.852 253.926 908.764 255.39 907.548 255.798Z" fill="#FABD3C"/>
<path d="M903.976 255.438C903.774 255.198 903.267 255.054 903.774 254.598V254.622C904.939 254.118 904.99 255.174 903.976 255.438Z" fill="#FABD3C"/>
<path d="M910.335 253.614C910.208 253.398 909.347 253.71 909.98 253.062V253.086C911.07 252.678 910.436 253.302 910.335 253.614Z" fill="#FABD3C"/>
<path d="M922.875 248.262C923.204 248.742 923.863 248.934 925.256 248.694C926.016 247.614 923.584 248.646 922.875 248.262Z" fill="#FABD3C"/>
<path d="M925.383 247.662C925.712 247.518 926.219 247.326 925.712 247.662H925.383C925.383 247.662 925.256 247.614 925.383 247.566V247.662Z" fill="#FABD3C"/>
<path d="M922.444 244.134C923.128 243.822 923.66 243.99 922.976 244.302V244.326C922.596 244.326 922.647 244.182 922.444 244.134Z" fill="#FABD3C"/>
<path d="M773.864 178.614C774.8 178.239 775.832 178.138 776.828 178.326V178.302C778.019 179.838 775.156 180.87 773.94 181.518C773.256 181.278 772.547 181.062 771.787 180.846C771.889 180.331 772.135 179.852 772.501 179.459C772.867 179.066 773.338 178.774 773.864 178.614Z" fill="#FABD3C"/>
<path d="M826.963 148.854C828.483 150.534 823.239 149.31 823.695 147.678V147.654C824.146 147.179 825.638 148.066 826.92 148.829L826.963 148.854Z" fill="#FABD3C"/>
<path d="M102.556 333.102C101.391 334.182 100.2 335.838 98.8576 335.838L98.7319 335.772C97.299 335.025 95.8017 334.245 96.1216 332.286C97.4136 329.646 97.5149 327.582 100.58 326.742C103.646 325.902 105.09 330.054 102.556 333.102Z" fill="#FABD3C"/>
<path d="M75.703 333.198C78.439 332.478 78.3123 335.718 78.4389 338.766C78.5656 341.814 78.8949 344.502 81.6816 342.51C80.7725 343.37 80.1166 344.441 79.7789 345.615C79.4412 346.79 79.4334 348.028 79.7563 349.206C78.5481 352.182 77.5743 355.238 76.843 358.35C73.9296 361.086 70.8136 356.598 69.243 358.158C69.2512 356.879 69.3698 355.603 69.5976 354.342C69.8651 353.006 70.1558 351.604 70.4252 350.305L70.4589 350.142C71.0416 347.55 71.295 345.366 69.8003 344.982C70.1698 340.5 72.2715 336.304 75.703 333.198Z" fill="#FABD3C"/>
<path d="M58.7803 415.566C58.8253 415.641 58.8703 415.719 58.9154 415.797C61.1211 417.633 64.988 421.722 65.0376 423.438C62.0369 422.786 60.4212 418.423 58.9154 415.797C58.8697 415.759 58.8246 415.722 58.7803 415.686V415.566Z" fill="#FABD3C"/>
<path d="M248.071 438.318C249.287 437.718 250.3 438.534 249.566 439.566V439.734C247.59 441.366 245.791 440.31 248.071 438.318Z" fill="#FABD3C"/>
<path d="M307.462 369.74C307.391 369.955 307.276 370.154 307.123 370.326V370.494C306.439 370.974 305.755 370.638 305.527 369.486C305.618 369.149 305.785 368.836 306.017 368.566C306.249 368.297 306.54 368.078 306.87 367.926C307.056 368.066 307.21 368.24 307.324 368.437C307.438 368.634 307.509 368.851 307.532 369.075C307.556 369.299 307.532 369.525 307.462 369.74Z" fill="#FABD3C"/>
<path d="M312.215 343.038L312.519 342.726L312.215 343.638V343.038Z" fill="#FABD3C"/>
<path d="M313.38 327.246H313.127C313.127 327.246 313.304 327.294 313.38 327.246Z" fill="#FABD3C"/>
<path d="M311.303 326.334C311.936 326.454 312.544 327.078 313.127 327.198C312.57 326.862 311.886 325.182 311.303 326.334Z" fill="#FABD3C"/>
<path d="M316.395 313.494C316.177 313.599 315.948 313.679 315.711 313.734C315.863 313.614 316.04 313.182 316.395 313.35C316.383 313.397 316.383 313.447 316.395 313.494Z" fill="#FABD3C"/>
<path d="M338.714 309.75L338.08 310.182C338.143 310.068 338.232 309.969 338.342 309.894C338.452 309.819 338.58 309.77 338.714 309.75Z" fill="#FABD3C"/>
<path d="M338.764 316.614C338.615 317.406 338.539 318.209 338.536 319.014C338.581 319.856 338.89 320.667 339.423 321.342C336.307 323.91 336.814 327.774 335.243 331.902H335.496C334.955 333.433 334.094 334.846 332.963 336.054C333.647 337.038 334.382 337.998 333.647 338.91C332.836 338.766 331.392 338.838 330.607 337.854C328.125 338.851 325.903 340.35 324.096 342.246C323.362 338.43 320.372 340.374 319.536 336.03L317.13 336.678C316.978 334.902 319.258 335.358 318.295 332.838C317.864 331.998 316.927 332.406 316.218 332.838C318.27 329.934 314.926 328.782 314.09 327.174C315.082 325.057 315.608 322.77 315.635 320.454C315.711 319.182 315.914 318.03 315.914 316.782C315.964 316.158 316.04 315.414 316.116 314.934C316.192 314.454 316.319 313.974 316.446 313.494C318.7 312.486 319.435 309.318 321.234 307.494C321.208 309.342 322.323 308.478 323.184 307.686C321.614 306.702 319.714 304.782 318.726 307.062C318.042 305.19 316.42 302.166 315.002 303.006C314.82 299.708 315.136 296.403 315.939 293.19C316.674 292.23 320.398 293.694 319.714 290.55C320.068 291.15 319.587 291.63 320.068 292.11C321.411 290.55 321.664 294.318 322.602 292.11C324.932 293.622 324.299 296.958 327.668 298.758C326.376 298.758 326.579 300.438 327.238 301.302L327.542 301.11V301.518C327.646 301.639 327.787 301.726 327.945 301.769C328.104 301.812 328.272 301.808 328.428 301.758C327.407 302.934 326.555 304.233 325.895 305.622C326.127 305.814 326.412 305.941 326.716 305.988C327.021 306.035 327.333 305.999 327.618 305.886C327.504 305.582 327.513 305.249 327.644 304.952C327.776 304.655 328.019 304.415 328.327 304.278C328.531 304.747 328.531 305.273 328.327 305.742C328.858 305.875 329.417 305.875 329.948 305.742L329.315 305.166L330.252 305.526V305.646C331.024 305.32 331.645 304.74 332 304.014C332.583 306.99 335.218 308.646 337.523 310.542L338.08 310.158C337.65 310.878 338.055 312.294 337.65 312.918C339.17 313.59 338.992 314.934 338.764 316.614Z" fill="#FABD3C"/>
<path d="M350.874 446.118L348.467 447.486V447.198L350.874 445.83V446.118Z" fill="#FABD3C"/>
<path d="M352.748 427.158C353.052 426.126 352.875 425.166 352.419 425.19C351.912 426.102 351.659 428.286 352.748 427.158Z" fill="#FABD3C"/>
<path d="M321.259 285.126C321.816 284.406 322.247 283.158 320.727 283.71C319.916 284.43 320.778 285.126 321.259 285.126Z" fill="#FABD3C"/>
<path d="M325.211 293.286V292.71L325.236 292.782C325.248 292.728 325.26 292.676 325.272 292.627C325.326 292.299 325.404 291.968 325.464 291.654C325.442 292.013 325.361 292.261 325.272 292.627C325.236 292.85 325.211 293.072 325.211 293.286Z" fill="#FABD3C"/>
<path d="M358.524 294.582C358.068 295.23 357.612 297.846 355.079 297.63L355.104 297.702C354.59 297.745 354.074 297.648 353.616 297.422C353.158 297.196 352.777 296.851 352.519 296.428C352.261 296.004 352.136 295.52 352.159 295.031C352.181 294.543 352.351 294.07 352.647 293.67C353.103 292.398 354.826 292.422 355.991 292.854C357.156 293.286 357.207 295.038 358.524 294.582Z" fill="#FABD3C"/>
<path d="M363.515 273.39C363.211 275.67 360.754 279.822 364.199 279.03L364.326 279.102C363.645 279.706 363.002 280.347 362.4 281.022C361.792 281.91 361.539 283.038 362.527 283.614L359.183 284.742C358.034 285.183 356.836 285.497 355.611 285.678C354.593 285.549 353.293 283.107 351.837 283.745C351.79 283.77 351.742 283.793 351.693 283.818C351.564 283.892 351.435 283.991 351.304 284.118C351.402 283.97 351.549 283.889 351.693 283.818C351.741 283.79 351.789 283.766 351.837 283.745C352.005 283.654 352.14 283.545 352.14 283.302C350.215 282.99 352.647 281.334 350.519 281.574C350.451 281.071 350.493 280.561 350.641 280.074C350.789 279.587 351.041 279.134 351.38 278.742C351.764 278.256 352.041 277.701 352.193 277.112C352.345 276.522 352.37 275.909 352.267 275.31C353.103 276.414 354.598 275.358 354.598 274.494C354.664 274.361 354.687 274.213 354.665 274.068C354.642 273.923 354.575 273.787 354.471 273.678C357.891 274.158 360.703 272.454 363.515 273.39Z" fill="#FABD3C"/>
<path d="M277.128 334.518C278.648 332.454 279.358 332.19 281.182 329.43L281.207 329.406C283.107 329.838 281.739 334.566 283.588 335.046C282.372 341.694 281.916 345.318 278.902 347.718C277.762 348.222 277.356 346.23 276.52 345.822C274.975 343.11 277.128 337.998 277.128 334.518Z" fill="#FABD3C"/>
<path d="M358.727 268.878L358.119 270.294L358.22 269.094L358.727 268.878Z" fill="#FABD3C"/>
<path d="M395.41 320.478C395.411 320.471 395.413 320.464 395.414 320.456C394.959 320.52 395.134 321.12 393.662 320.742C392.774 320.501 391.923 320.155 391.128 319.71C390.698 319.062 390.039 317.982 390.698 317.982C391.356 317.982 391.964 318.198 392.446 318.198C394.102 319.006 395.559 319.72 395.414 320.456C395.421 320.456 395.428 320.455 395.435 320.454L395.41 320.478Z" fill="#FABD3C"/>
<path d="M380.742 303.75C382.211 303.726 382.464 303.27 384.187 304.038L384.212 304.014C387.252 305.286 384.998 306.582 386.746 308.166C384.961 307.763 383.209 307.241 381.502 306.606H381.78C380.615 305.55 381.071 304.71 380.742 303.75Z" fill="#FABD3C"/>
<path d="M284.678 305.382C284.12 305.166 282.879 304.71 283.715 304.878L283.74 304.854C284.913 305.13 286.064 305.483 287.186 305.91C287.603 306.022 288.01 306.167 288.402 306.342C287.819 306.15 285.919 305.814 284.678 305.382Z" fill="#FABD3C"/>
<path d="M388.899 214.566C388.291 214.566 387.455 213.894 387.126 214.422C386.528 211.404 385.629 208.447 384.44 205.59C383.294 203.565 382.62 201.331 382.464 199.038C385.955 201.992 388.293 205.974 389.102 210.342C390.014 213.87 389.507 214.566 388.899 214.566Z" fill="#FABD3C"/>
<path d="M404.758 233.43C403.314 236.406 403.111 229.806 402.883 225.222L402.908 225.126C403.01 221.79 403.516 220.806 403.972 220.518C404.851 222.394 405.324 224.418 405.366 226.47C405.465 228.805 405.261 231.142 404.758 233.43Z" fill="#FABD3C"/>
<path d="M388.747 197.91C387.252 194.982 388.848 196.806 389.051 196.638H389.076C390.723 198.462 392.598 203.526 391.052 202.494C390.032 201.092 389.254 199.544 388.747 197.91Z" fill="#FABD3C"/>
<path d="M293.164 181.926C294.485 181.667 295.693 181.04 296.635 180.126C294.786 180.054 292.05 180.942 293.164 181.926Z" fill="#FABD3C"/>
<path d="M280.244 195.894H277.711L276.951 195.198L280.244 195.894Z" fill="#FABD3C"/>
<path d="M268.377 220.098C268.298 220.203 268.187 220.283 268.059 220.326C267.527 220.326 267.4 219.75 268.059 219.15C268.187 219.193 268.298 219.273 268.377 219.378C268.455 219.483 268.497 219.609 268.497 219.738C268.497 219.867 268.455 219.993 268.377 220.098Z" fill="#FABD3C"/>
<path d="M268.92 173.646L270.339 173.022L270.238 173.118C270.263 173.526 269.706 173.55 269.427 173.646H268.92Z" fill="#FABD3C"/>
<path d="M263.778 174.678H265.272L265.171 174.726C264.715 175.158 264.082 174.966 263.93 174.87L263.778 174.678Z" fill="#FABD3C"/>
<path d="M126.826 226.086C125.635 227.19 124.292 228.486 124.672 229.11C126.192 229.926 129.03 224.838 126.826 226.086Z" fill="#FABD3C"/>
<path d="M120.34 274.014C120.594 272.958 120.948 271.926 121.278 270.918C121.126 272.022 121.126 273.126 120.974 274.206L120.34 274.014Z" fill="#FABD3C"/>
</g>
</g>
</g>
</g>
<path d="M899.315 254.094C897.415 244.854 883.558 222.894 874.894 218.334C866.23 213.774 838.92 209.526 833.879 205.206C821.846 194.862 815.056 174.006 831.346 173.286C846.546 172.71 859.212 159.822 859.744 154.566C860.276 149.31 865.115 136.326 833.879 112.326C842.644 131.526 844.595 144.174 838.946 156.39C833.296 168.606 795.094 172.278 802.06 183.822C805.227 189.078 802.668 214.206 807.279 218.43C820.604 230.67 848.268 237.846 848.167 242.958C848.066 248.07 841.226 271.062 831.599 271.398C821.972 271.734 814.955 265.446 813.866 260.262C813.496 258.602 813.477 256.889 813.81 255.222C814.143 253.555 814.821 251.967 815.806 250.55C816.791 249.133 818.062 247.915 819.547 246.966C821.031 246.017 822.699 245.357 824.455 245.022C816.551 234.318 792.839 241.398 790.863 247.206C788.887 253.014 790.458 276.894 800.996 285.342C811.535 293.79 823.214 291.078 836.944 292.35C850.675 293.622 857.211 302.358 869.194 296.358C881.176 290.358 901.899 266.718 899.315 254.094Z" fill="#61376B"/>
<g style="mix-blend-mode:multiply" opacity="0.48">
<g style="mix-blend-mode:multiply" opacity="0.48">
<path d="M899.313 254.095C897.413 244.855 883.556 222.895 874.892 218.335C874.335 218.047 873.727 217.759 873.043 217.471C873.528 219.648 874.562 221.682 876.058 223.399C878.16 225.799 880.795 227.887 882.923 230.335C885.481 233.505 887.301 237.152 888.266 241.035C889.231 244.919 889.318 248.953 888.521 252.871C886.84 260.708 883.004 267.985 877.4 273.967C872.562 279.439 865.874 284.455 858.35 283.927C862.389 278.589 865.112 272.461 866.318 265.993C867.524 259.526 867.181 252.884 865.316 246.559C862.987 253.36 859.94 259.921 856.222 266.143C852.459 272.38 846.8 277.398 839.983 280.543C827.975 285.655 812.876 281.767 804.086 272.479C800.539 268.498 797.9 263.866 796.334 258.872C794.769 253.878 794.312 248.632 794.991 243.463C793.322 244.24 791.975 245.524 791.166 247.111C789.164 252.919 790.76 276.799 801.299 285.247C811.838 293.695 823.516 290.983 837.247 292.255C850.978 293.527 857.514 302.263 869.496 296.263C881.479 290.263 901.897 266.719 899.313 254.095Z" fill="#84529C"/>
</g>
<g style="mix-blend-mode:multiply" opacity="0.48">
<path d="M807.353 218.334C813.332 223.83 822.198 228.294 830.153 232.038C826.961 229.638 823.82 227.046 820.83 224.382C816.591 221.156 813.395 216.864 811.609 211.998C809.962 205.878 812.521 199.302 811.051 193.158C810.443 190.494 809.101 188.046 808.316 185.406C807.823 184.124 807.631 182.756 807.753 181.396C807.876 180.037 808.31 178.719 809.025 177.534C811.204 174.534 815.536 174.006 819.158 172.854C824.189 171.239 828.476 168.026 831.293 163.758L831.647 163.11C818.981 170.31 796.637 174.654 802.109 183.726C805.301 188.982 802.742 214.11 807.353 218.334Z" fill="#84529C"/>
</g>
</g>
<path d="M130.878 438.726C132.576 430.566 144.964 411.222 152.69 407.142C160.417 403.062 178.252 397.734 182.736 393.918C193.502 384.774 199.608 369.51 185.117 368.958C171.513 368.454 166.801 355.446 166.294 350.79C165.788 346.134 161.912 328.542 189.348 313.398C181.52 330.366 179.772 341.55 184.737 352.326C189.702 363.102 223.928 366.366 217.67 376.566C214.833 381.198 217.138 403.422 213.009 407.142C205.029 414.342 191.248 419.646 183.09 423.678C179.088 425.646 179.442 434.142 179.468 435.678C179.468 440.19 182.685 453.678 191.298 453.99C199.912 454.302 206.169 448.71 207.03 444.126C207.355 442.654 207.367 441.135 207.066 439.658C206.766 438.18 206.158 436.774 205.279 435.522C204.4 434.269 203.266 433.194 201.945 432.36C200.623 431.526 199.14 430.949 197.581 430.662C204.624 421.206 225.802 427.47 227.576 432.606C229.349 437.742 227.93 458.838 218.532 466.206C209.133 473.574 198.696 471.294 186.434 472.422C174.173 473.55 168.346 481.254 157.605 475.95C146.864 470.646 128.573 449.862 130.878 438.726Z" fill="#61376B"/>
<g style="mix-blend-mode:multiply" opacity="0.48">
<g style="mix-blend-mode:multiply" opacity="0.48">
<path d="M130.879 438.726C132.576 430.566 144.964 411.222 152.691 407.142C153.197 406.878 153.755 406.638 154.363 406.374C153.927 408.303 152.996 410.1 151.652 411.606C149.777 413.79 147.421 415.566 145.547 417.75C143.246 420.528 141.602 423.743 140.728 427.176C139.854 430.609 139.769 434.179 140.48 437.646C141.982 444.588 145.41 451.025 150.411 456.294C154.743 461.094 160.721 465.534 167.435 465.078C163.83 460.382 161.396 454.972 160.317 449.256C159.237 443.541 159.54 437.667 161.203 432.078C163.28 438.087 166.005 443.878 169.335 449.358C172.704 454.9 177.752 459.357 183.825 462.15C189.315 464.177 195.325 464.574 201.058 463.288C206.791 462.002 211.976 459.094 215.923 454.95C219.104 451.447 221.479 447.354 222.897 442.932C224.314 438.511 224.743 433.858 224.156 429.27C225.637 429.95 226.833 431.083 227.551 432.486C229.349 437.622 227.905 458.718 218.507 466.086C209.108 473.454 198.671 471.174 186.409 472.302C174.148 473.43 168.321 481.134 157.58 475.83C146.839 470.526 128.573 449.862 130.879 438.726Z" fill="#84529C"/>
</g>
<g style="mix-blend-mode:multiply" opacity="0.48">
<path d="M213.035 407.118C206.887 412.034 200.017 416.076 192.642 419.118C195.504 416.958 198.291 414.726 200.976 412.374C204.749 409.529 207.602 405.737 209.21 401.43C210.679 396.03 208.399 390.222 209.691 384.774C210.248 382.374 211.464 380.238 212.224 377.934C212.666 376.802 212.838 375.59 212.728 374.387C212.619 373.184 212.231 372.019 211.591 370.974C209.666 368.334 205.79 367.854 202.522 366.846C198.048 365.423 194.229 362.584 191.704 358.806L191.4 358.23C202.623 364.686 222.662 368.43 217.772 376.446C214.859 381.126 217.164 403.398 213.035 407.118Z" fill="#84529C"/>
</g>
</g>
<path d="M124.671 790.303C125.23 787.584 124.958 784.769 123.886 782.191" stroke="#268E26" stroke-width="0.63" stroke-linecap="round" stroke-linejoin="round"/>
<path d="M123.077 790.878C123.077 790.878 122.215 784.614 118.542 783.942" stroke="white" stroke-width="0.63" stroke-linecap="round" stroke-linejoin="round"/>
<path d="M121.125 791.047C121.125 791.047 119.301 785.767 115.603 786.247" stroke="#0032D0" stroke-width="0.63" stroke-linecap="round" stroke-linejoin="round"/>
<path d="M127.279 791.311C127.279 791.311 126.671 784.663 130.319 782.719" stroke="#D30000" stroke-width="0.63" stroke-linecap="round" stroke-linejoin="round"/>
<path d="M128.927 787.999L119.072 790.231C119.452 791.743 128.8 827.479 162.139 844.951C184.027 856.399 210.83 857.167 241.812 847.231C334.304 817.567 448.026 841.855 449.166 842.095L451.446 832.759C446.708 831.703 333.823 807.607 238.646 838.135C210.5 847.159 186.484 846.631 167.206 836.575C137.718 821.215 129.028 788.335 128.927 787.999Z" fill="#2B232D"/>
<path d="M119.071 790.231C119.04 789.832 118.911 789.444 118.696 789.098C118.481 788.753 118.184 788.459 117.83 788.24C120.363 788.744 120.363 789.247 120.363 789.247L121.377 786.247L122.415 788.647C122.415 788.647 124.569 785.264 126.646 784.688C126.499 785.683 126.499 786.692 126.646 787.688L130.218 785.047C129.715 785.376 129.318 785.83 129.072 786.36C128.826 786.89 128.74 787.474 128.825 788.047C128.825 790.447 127.811 791.48 127.153 791.696C125.521 792.002 123.871 792.218 122.213 792.344C122.035 792.248 119.071 790.231 119.071 790.231Z" fill="#2B232D"/>
<g style="mix-blend-mode:multiply" opacity="0.5">
<path d="M244.471 844.734C213.489 854.67 186.686 853.902 164.798 842.334C138.071 828.342 126.798 802.59 123.125 792.15C122.745 791.046 122.441 790.134 122.238 789.414C122.035 788.694 121.782 787.806 121.731 787.638C121.705 787.253 121.574 786.88 121.351 786.558L120.465 789.15C120.465 789.15 120.465 789.006 120.059 788.814C119.359 788.479 118.606 788.252 117.83 788.142C118.179 788.366 118.472 788.662 118.686 789.006C118.901 789.35 119.032 789.735 119.071 790.134C119.477 791.646 128.825 827.382 162.138 844.854C184.026 856.302 210.829 857.07 241.811 847.134C334.303 817.494 448.05 841.758 449.19 842.022L449.899 839.118C434.573 836.166 330.351 817.182 244.471 844.734Z" fill="#140716"/>
</g>
<path d="M101.947 767.526C106.576 768.942 110.485 771.936 112.917 775.926" stroke="white" stroke-width="0.63" stroke-linecap="round" stroke-linejoin="round"/>
<path d="M115.122 761.791C115.122 761.791 115.122 771.079 117.833 775.087" stroke="white" stroke-width="0.63" stroke-linecap="round" stroke-linejoin="round"/>
<path d="M129.131 762.246C129.131 762.246 122.949 768.246 123.076 774.774" stroke="white" stroke-width="0.63" stroke-linecap="round" stroke-linejoin="round"/>
<path d="M764.591 846.727L764.464 837.127C831.699 836.359 879.832 818.479 896.577 788.047C906.457 770.071 904.177 748.639 890.193 729.271C857.437 683.671 778.727 723.847 777.967 724.255L773.102 715.855C776.649 714.007 860.705 671.215 898.579 723.871C914.691 746.263 917.224 771.271 905.571 792.487C894.677 812.359 861.896 845.719 764.591 846.727Z" fill="#2B232D"/>
<g style="mix-blend-mode:multiply" opacity="0.5">
<g style="mix-blend-mode:multiply" opacity="0.5">
<path d="M900.023 800.958C884.975 820.542 849.153 845.862 764.591 846.822L764.464 837.222H767.479V843.27C847 842.31 883.429 819.918 900.023 800.958Z" fill="#140716"/>
</g>
<g style="mix-blend-mode:multiply" opacity="0.5">
<path d="M777.967 724.326L773.078 715.902C773.483 715.71 774.851 715.014 777.03 714.006L780.906 720.726C781.717 720.318 860.402 680.214 893.133 725.742C907.092 745.11 909.397 766.542 899.517 784.518C897.407 788.354 894.858 791.96 891.917 795.27C893.665 792.983 895.232 790.576 896.603 788.07C906.509 770.094 904.203 748.662 890.245 729.294C857.438 683.838 778.753 723.942 777.967 724.326Z" fill="#140716"/>
</g>
</g>
<path d="M660.724 612.63C654.948 637.038 621.001 644.934 522.252 643.518C423.452 644.934 389.556 637.038 383.805 612.63C378.08 581.214 392.064 546.39 414.053 508.038C420.429 496.788 425.752 485.031 429.963 472.902C433.129 463.854 435.612 455.166 437.563 447.342C438.753 442.542 439.665 438.054 440.451 433.998C440.957 431.166 441.413 428.574 441.793 426.222C441.793 425.694 441.971 425.19 442.021 424.662C442.224 423.486 442.376 422.262 442.528 421.326C442.68 420.39 442.781 419.31 442.883 418.446C443.415 414.198 443.567 411.774 443.567 411.774L454.967 411.414L460.033 411.222L471.611 410.838L511.815 409.47C511.815 409.014 511.815 408.75 511.815 408.75L522.353 409.134L532.892 408.75C532.892 408.75 532.892 409.014 532.892 409.47L591.361 411.462L598.48 411.702H601.013C601.013 411.702 601.013 412.23 601.14 413.142C601.14 413.598 601.14 414.198 601.292 414.894C601.419 416.214 601.596 417.942 601.849 420.054C601.849 420.894 602.052 421.806 602.179 422.79C602.533 425.718 602.989 429.15 603.572 433.014C603.775 434.286 603.977 435.63 604.205 436.998C604.661 439.862 605.193 442.91 605.801 446.142C607.22 453.846 609.044 462.534 611.349 471.846C611.349 472.134 611.527 472.47 611.603 472.782C612.025 474.51 612.481 476.262 612.971 478.038C615.504 487.638 618.569 497.646 622.217 507.918C635.213 544.326 666.272 582.486 660.724 612.63Z" fill="#61376B"/>
<path d="M378.131 289.255C373.774 278.935 372.482 267.127 370.531 249.007C367.669 222.223 366.275 200.023 364.983 186.343C363.311 168.751 373.495 172.207 380.766 175.015C393.787 180.055 412.204 191.815 421.578 198.271C436.17 208.231 459.071 236.503 458.463 249.607C443.972 266.887 417.828 284.575 378.131 289.255Z" fill="#61376B"/>
<g style="mix-blend-mode:multiply" opacity="0.5">
<path d="M458.463 249.607C457.754 250.455 457.019 251.295 456.259 252.127C451.42 237.727 433.003 216.127 420.589 207.583C411.241 201.175 392.723 189.367 379.777 184.327C374.432 182.263 367.592 179.839 364.932 185.599C363.589 168.799 373.571 172.231 380.765 175.015C393.787 180.055 412.204 191.815 421.577 198.271C436.169 208.327 459.046 236.527 458.463 249.607Z" fill="#61376B"/>
</g>
<path d="M390.672 287.263C387.48 279.319 388.595 268.951 386.796 255.151C384.136 234.703 382.565 217.807 381.324 207.367C379.728 193.951 386.568 196.831 391.457 199.159C400.223 203.335 412.763 212.791 419.147 217.879C429.103 225.823 449.141 249.295 449.116 259.231C440.021 271.999 416.816 284.719 390.672 287.263Z" fill="#A62E3A"/>
<g style="mix-blend-mode:multiply" opacity="0.35">
<path d="M448.939 257.551C442.544 248.285 434.953 239.812 426.341 232.327C419.957 227.239 407.417 217.784 398.652 213.632C393.763 211.232 386.923 208.399 388.519 221.815C389.76 232.255 391.305 249.175 393.991 269.599C394.827 276.031 395.029 281.599 395.333 286.735C393.788 286.975 392.217 287.167 390.672 287.311C387.48 279.367 388.595 268.999 386.796 255.175C384.136 234.752 382.565 217.855 381.324 207.415C379.728 194 386.568 196.88 391.457 199.208C400.248 203.36 412.763 212.84 419.172 217.928C428.571 225.416 447.039 246.847 448.939 257.551Z" fill="#A62E3A"/>
</g>
<path d="M597.747 232.735C603.371 254.335 673.088 292.735 682.842 284.719C689.91 278.983 690.796 244.567 691.05 235.807C691.835 208.951 688.212 190.207 690.746 180.127C693.279 170.047 685.02 160.351 667.008 170.887C648.996 181.423 617.456 204.031 597.747 232.735Z" fill="#3D243E"/>
<path d="M597.747 232.735C603.371 254.335 673.088 292.735 682.842 284.719C689.91 278.983 690.796 244.567 691.05 235.807C691.835 208.951 688.212 190.207 690.746 180.127C693.279 170.047 685.02 160.351 667.008 170.887C648.996 181.423 617.456 204.031 597.747 232.735Z" fill="#3D243E"/>
<path d="M597.747 232.735C603.371 254.335 673.088 292.735 682.842 284.719C689.91 278.983 690.796 244.567 691.05 235.807C691.835 208.951 688.212 190.207 690.746 180.127C693.279 170.047 685.02 160.351 667.008 170.887C648.996 181.423 617.456 204.031 597.747 232.735Z" fill="#61376B"/>
<g style="mix-blend-mode:multiply" opacity="0.5">
<path d="M682.84 284.717C681.355 285.669 679.536 286.031 677.773 285.725C682.232 274.445 682.84 248.789 683.093 241.397C683.878 214.541 680.281 195.797 682.789 185.741C685.297 175.685 677.064 165.941 659.052 176.477C654.998 178.877 650.286 181.829 645.169 185.333C652.125 180.164 659.372 175.357 666.88 170.933C684.892 160.397 693.125 170.093 690.617 180.173C688.109 190.253 691.706 208.973 690.921 235.853C690.794 244.565 689.908 278.981 682.84 284.717Z" fill="#61376B"/>
</g>
<path d="M605.194 244.471C608.538 257.311 654.442 285.391 660.269 280.663C664.474 277.231 672.936 249.031 674.886 229.303C676.533 213.367 673.189 202.135 674.709 196.135C676.229 190.135 671.289 184.351 660.548 190.615C649.806 196.879 616.924 227.359 605.194 244.471Z" fill="#A62E3A"/>
<g style="mix-blend-mode:multiply" opacity="0.35">
<path d="M674.886 229.302C672.834 249.054 664.474 277.302 660.269 280.662C659.875 280.954 659.399 281.13 658.901 281.166C663.092 268.479 666.01 255.445 667.616 242.238C669.262 226.302 665.918 215.07 667.413 209.046C668.908 203.022 664.018 197.262 653.277 203.55C644.537 208.662 620.952 229.95 606.208 246.894C605.784 246.129 605.445 245.325 605.194 244.494C616.924 227.382 649.832 196.926 660.573 190.638C671.314 184.35 676.204 190.134 674.709 196.158C673.214 202.182 676.558 213.366 674.886 229.302Z" fill="#A62E3A"/>
</g>
<path d="M705.082 346.47C705.743 362.514 701.189 378.364 692.035 391.878C686.39 400.225 679.475 407.738 671.515 414.174C669.945 415.446 668.374 416.694 666.727 417.894C665.081 419.094 663.459 420.294 661.661 421.422C660.394 422.262 659.127 423.126 657.785 423.822C656.442 424.518 655.251 425.454 653.807 426.222C649.653 428.67 645.371 430.926 640.963 432.99L640.229 433.302L638.683 433.926L637.594 434.31L636.581 434.646C635.533 434.982 634.393 435.318 633.161 435.654L630.627 436.302L628.55 436.806L627.182 437.118L623.255 437.934L618.189 438.87C615.934 439.302 613.578 439.686 611.121 440.07L608.866 440.406L604.838 440.982H604.534H604.255L600.734 441.462L596.427 442.014H595.895H595.718L589.233 442.758L585.407 443.19L581.709 443.55L578.821 443.838L573.146 444.366L568.206 444.774L565.673 444.966L558.073 445.518L553.006 445.854L546.065 446.262L542.923 446.43L540.162 446.55L535.577 446.742L531.853 446.886L527.293 447.006H524.075H520.123C499.805 447.648 479.466 446.66 459.323 444.054L456.79 443.67L454.434 443.358L448.354 442.614H448.151L447.239 442.494L443.287 442.062L439.107 441.582L435.054 441.102L431.457 440.622H431.001C429.658 440.43 428.315 440.238 426.973 439.998C425.63 439.758 424.287 439.566 422.945 439.302L419.094 438.486H418.841C417.726 438.222 416.611 437.958 415.497 437.646L415.015 437.526C406.832 435.305 399.045 431.94 391.911 427.542C390.746 426.822 389.581 426.078 388.466 425.31C387.351 424.542 386.287 423.75 385.223 422.91C383.957 421.998 382.69 421.014 381.525 419.982L380.841 419.382C376.054 415.297 371.709 410.771 367.87 405.87C365.509 402.853 363.6 399.541 362.195 396.03C356.014 380.982 357.737 362.43 359.51 347.214C360.346 339.894 361.511 332.67 362.651 325.398C364.763 311.337 369.553 297.757 376.787 285.318C379.982 279.867 383.75 274.737 388.035 270.006C389.726 268.112 391.519 266.301 393.406 264.582C398.01 260.259 403.108 256.435 408.606 253.182C417.108 248.354 426.023 244.212 435.257 240.798L439.006 239.382C441.843 238.326 444.757 237.318 447.721 236.358C449.57 235.758 451.47 235.158 453.395 234.606C468.428 230.16 483.837 226.948 499.451 225.006V225.006C513.56 223.249 527.782 222.447 542.011 222.606C548.851 222.606 555.717 222.798 562.557 223.086C575.678 223.501 588.747 224.873 601.646 227.19V227.19C606.586 228.133 611.473 229.311 616.289 230.718C617.606 231.078 618.822 231.486 620.215 231.894C633.504 236.062 645.839 242.577 656.569 251.094C659.389 253.366 662.133 255.822 664.802 258.462C665.587 259.23 666.347 260.022 667.107 260.862C667.107 260.862 667.107 260.862 667.234 260.982C667.361 261.102 667.766 261.558 668.019 261.87C668.273 262.182 668.678 262.566 668.982 262.926C669.793 263.79 670.553 264.678 671.338 265.614C672.174 266.598 672.985 267.582 673.871 268.638L675.138 270.294L675.543 270.822C676.05 271.494 676.506 272.19 677.013 272.886C677.519 273.582 677.975 274.23 678.431 274.926C678.887 275.622 678.989 275.718 679.242 276.126L679.951 277.158L680.711 278.406C681.319 279.366 681.927 280.302 682.51 281.286L683.751 283.398C686.082 287.382 688.185 291.27 690.11 295.062C691.605 298.038 692.973 300.966 694.214 303.822C694.847 305.262 695.43 306.678 696.013 308.094C696.595 309.51 697.127 310.902 697.634 312.27C698.141 313.638 698.622 315.054 699.078 316.398C699.534 317.742 700.142 319.758 700.623 321.414C701.105 323.07 701.561 324.702 701.941 326.334C702.726 329.55 703.334 332.718 703.815 335.79C703.815 336.462 704.018 337.11 704.094 337.806C704.094 338.454 704.271 339.15 704.322 339.822V340.374V340.95C704.322 341.238 704.322 341.502 704.322 341.766V342.606C704.778 343.934 705.031 345.222 705.082 346.47Z" fill="#61376B"/>
<path d="M497.985 338.863L497.275 331.663C497.047 327.847 494.387 327.439 492.943 331.375L492.513 333.151C491.499 338.407 489.523 339.847 483.722 338.839L377.322 323.935C372.838 323.047 372.838 330.847 376.207 331.135L489.979 346.063C494.438 346.783 498.01 344.503 497.985 338.863Z" fill="#1D111E"/>
<path d="M493.525 346.639C488.762 422.046 369.138 410.646 378.182 331.519L493.525 346.639Z" fill="#FABD3C"/>
<g style="mix-blend-mode:multiply" opacity="0.9">
<path d="M493.095 351.031C484.177 420.439 372.837 409.447 377.828 335.095C382.363 397.423 476.172 406.999 493.095 351.031Z" fill="#FABD3C"/>
</g>
<path d="M477.287 343.975C473.867 398.287 387.709 390.079 394.219 333.103L477.287 343.975Z" fill="#1D111E"/>
<path d="M408.887 347.358C393.687 352.542 387.227 363.006 393.864 364.494C400.501 365.982 411.116 355.062 413.472 352.926C418.26 348.582 416.968 344.622 408.887 347.358Z" fill="white"/>
<path d="M412.787 362.814C402.324 366.342 397.966 373.518 402.526 374.502C407.087 375.486 414.307 368.07 415.928 366.606C419.196 363.63 418.309 360.942 412.787 362.814Z" fill="white"/>
<path d="M667.641 330.51L553.919 345.414C546.775 346.278 544.039 344.094 544.419 336.822C544.419 335.358 544.977 330.942 544.977 330.942C545.255 326.55 548.701 328.398 549.258 330.654C550.297 338.55 555.389 338.718 560.607 337.998L667.007 323.118C672.733 322.422 673.062 329.958 667.641 330.51Z" fill="#1D111E"/>
<path d="M548.955 346.086C553.718 421.47 673.342 410.07 664.298 330.966L548.955 346.086Z" fill="#FABD3C"/>
<g style="mix-blend-mode:multiply" opacity="0.9">
<path d="M550.297 355.926C570.209 408.102 661.13 397.23 664.677 335.454C668.578 406.95 564.154 418.974 550.297 355.926Z" fill="#FABD3C"/>
</g>
<path d="M565.142 343.422C568.587 397.71 654.746 389.502 648.235 332.526L565.142 343.422Z" fill="#1D111E"/>
<path d="M633.569 346.806C648.895 351.99 655.229 362.454 648.591 363.918C641.954 365.382 631.339 354.486 628.983 352.35C624.195 348.006 625.487 344.046 633.569 346.806Z" fill="white"/>
<path d="M629.667 362.239C640.13 365.791 644.462 372.943 639.927 373.951C635.392 374.959 628.147 367.495 626.526 366.031C623.258 363.079 624.119 360.367 629.667 362.239Z" fill="white"/>
<path d="M532.36 366.222C530.992 363.03 509.788 363.03 507.61 367.062C505.912 370.206 514.652 381.27 519.972 381.246C524.076 381.126 534.184 370.422 532.36 366.222Z" fill="#A62E3A"/>
<g style="mix-blend-mode:multiply" opacity="0.28">
<path d="M520 381.247C515.769 381.247 509.41 374.335 507.789 369.895C510.474 373.351 514.35 376.591 517.238 376.567C520.532 376.567 527.676 369.607 529.449 364.687C531.02 365.071 531.982 365.575 532.362 366.223C534.186 370.423 524.078 381.127 520 381.247Z" fill="#A62E3A"/>
</g>
<g style="mix-blend-mode:multiply" opacity="0.5">
<path d="M593.517 425.982H593.795C595.645 426.342 597.798 426.702 600.154 427.062L604.815 427.758L613.682 429.054L620.269 430.11C626.564 431.067 632.791 432.389 638.914 434.07V434.07C641.079 434.677 643.196 435.431 645.247 436.326C650.466 438.726 655.786 441.702 661.587 441.366C664.678 441.198 667.718 440.046 670.783 440.454C674.887 440.982 678.231 444.174 682.361 444.582C685.629 444.87 688.846 443.358 692.114 443.598C694.348 444.007 696.555 444.536 698.726 445.182C702.83 445.926 708.074 445.014 710.278 448.35C711.139 449.622 711.266 451.23 712.077 452.526C712.822 453.618 713.875 454.491 715.117 455.046C721.121 458.094 728.417 457.278 735.155 456.39C737.005 456.15 739.183 455.67 739.918 453.99C740.157 453.194 740.077 452.342 739.694 451.598C739.31 450.853 738.65 450.27 737.841 449.958C736.18 449.415 734.361 449.51 732.774 450.222M760.818 390.342C757.727 389.862 754.105 387.798 754.713 384.894C754.965 384.079 755.469 383.353 756.159 382.81C756.85 382.267 757.696 381.931 758.589 381.846C760.379 381.735 762.173 382.014 763.833 382.662C767.987 384.006 772.674 386.886 772.218 391.038C772.024 392.158 771.541 393.215 770.811 394.115C770.082 395.015 769.129 395.731 768.038 396.198C765.847 397.118 763.51 397.686 761.122 397.878C755.118 398.694 748.227 399.246 743.819 395.31C742.717 393.977 741.359 392.854 739.817 391.998C736.397 390.726 733.078 393.942 730.874 396.798C728.67 399.654 725.123 402.702 721.804 401.142C719.55 400.086 718.866 397.398 717.321 395.526C716.132 394.139 714.471 393.187 712.622 392.832C710.773 392.478 708.852 392.743 707.187 393.582C705.895 394.278 704.831 395.286 703.514 395.982C702.886 396.355 702.154 396.541 701.413 396.516C700.672 396.49 699.957 396.254 699.359 395.838C698.882 395.305 698.466 394.726 698.118 394.11C697.413 393.306 696.503 392.686 695.475 392.308C694.446 391.93 693.333 391.807 692.241 391.95H692.063C689.953 392.274 687.893 392.847 685.933 393.654C681.566 395.062 677.058 396.043 672.481 396.582C668.833 397.038 665.134 397.326 661.435 397.59C658.547 397.83 655.659 398.022 652.822 398.31C631.567 400.35 617.837 408.15 596.911 404.19L760.818 390.342ZM755.827 427.926C758.459 428.182 761.11 427.672 763.427 426.462C764.524 425.823 765.323 424.813 765.662 423.636C766.001 422.459 765.854 421.204 765.251 420.126C764.305 419.093 763.021 418.392 761.603 418.134C754.315 416.185 746.525 416.842 739.715 419.982C737.296 421.467 734.564 422.434 731.71 422.814C727.783 422.814 724.363 419.982 720.437 419.814C716.51 419.646 713.622 421.758 710.303 422.886C707.342 423.854 704.174 424.115 701.081 423.646C697.988 423.177 695.065 421.993 692.57 420.198C690.949 418.998 689.201 417.462 687.174 417.798C686.451 417.965 685.77 418.267 685.173 418.686C681.778 420.894 678.738 424.086 674.659 424.566C671.677 424.656 668.718 424.046 666.046 422.79C664.779 422.334 663.513 421.878 661.967 421.47C659.434 420.726 656.47 420.03 653.354 419.406C650.821 418.878 648.085 418.398 645.273 417.966C629.37 415.47 613.254 414.401 597.139 414.774L755.827 427.926Z" stroke="#1D111E" stroke-width="0.68" stroke-linecap="round" stroke-linejoin="round"/>
</g>
<g style="mix-blend-mode:screen" opacity="0.65">
<path d="M522 365.526C517.799 364.553 513.361 365.2 509.663 367.326C509.03 367.734 509.232 368.958 510.094 368.982C511.967 368.845 513.819 368.515 515.616 367.998C517.629 367.695 519.66 367.511 521.696 367.446C522.684 367.374 523.014 365.814 522 365.526Z" fill="#A62E3A"/>
</g>
<path style="mix-blend-mode:color-dodge" d="M430.801 434.718C454.376 434.718 473.488 422.297 473.488 406.974C473.488 391.652 454.376 379.23 430.801 379.23C407.226 379.23 388.114 391.652 388.114 406.974C388.114 422.297 407.226 434.718 430.801 434.718Z" fill="url(#paint0_radial)"/>
<path style="mix-blend-mode:color-dodge" d="M619.381 430.087C642.956 430.087 662.068 417.665 662.068 402.343C662.068 387.02 642.956 374.599 619.381 374.599C595.806 374.599 576.694 387.02 576.694 402.343C576.694 417.665 595.806 430.087 619.381 430.087Z" fill="url(#paint1_radial)"/>
<g style="mix-blend-mode:screen" opacity="0.43">
<path d="M487.419 333.558C477.438 333.558 467.33 330.582 457.602 328.614C448.254 326.718 438.804 324.39 429.304 323.262C427.987 323.118 427.81 325.062 429 325.398C438.982 328.326 449.52 329.958 459.73 332.022L474.398 334.999C478.679 335.863 483.442 337.398 487.774 336.078C488.073 335.982 488.328 335.789 488.495 335.535C488.662 335.28 488.73 334.978 488.688 334.681C488.646 334.383 488.497 334.109 488.265 333.904C488.034 333.7 487.735 333.578 487.419 333.558V333.558Z" fill="#3D243E"/>
</g>
<g style="mix-blend-mode:screen" opacity="0.43">
<path d="M665.614 318.727C647.298 319.231 628.88 322.831 610.792 325.279L582.926 329.047C577.859 329.743 553.336 335.191 553.539 326.647C553.539 325.207 551.006 324.799 550.803 326.311C549.511 334.687 561.088 334.303 566.788 333.895C577.504 333.127 588.17 331.231 598.784 329.791C620.976 326.767 643.219 323.023 665.588 321.535C667.514 321.439 667.564 318.727 665.614 318.727Z" fill="#3D243E"/>
</g>
<path d="M492.941 232.494C500.972 221.622 521.112 205.95 526.609 210.03C528.104 211.35 521.061 217.422 520.099 221.814C527.699 216.75 544.799 205.014 544.621 209.958C544.799 212.358 541.125 217.038 539.377 220.59C543.38 217.038 562.177 206.622 562.937 211.734C563.621 216.878 563.216 222.099 561.747 227.094L520.605 231.894L492.941 232.494Z" fill="#61376B"/>
<g style="mix-blend-mode:multiply" opacity="0.5">
<path d="M705.082 346.471C705.743 362.516 701.189 378.366 692.035 391.879C686.39 400.227 679.475 407.739 671.515 414.175C669.945 415.447 668.374 416.695 666.727 417.895C665.081 419.095 663.434 420.295 661.661 421.399C660.394 422.263 659.127 423.103 657.81 423.943C656.493 424.783 655.277 425.575 653.833 426.343C649.678 428.775 645.397 431.023 640.989 433.087L640.254 433.423L638.709 434.047L637.619 434.431L636.606 434.767C635.559 435.103 634.419 435.439 633.186 435.775L630.653 436.423L628.575 436.927L627.207 437.239L623.281 438.055L618.214 438.991C615.275 439.519 612.159 440.023 608.866 440.527L604.838 441.103H604.534H604.179L600.658 441.583L596.351 442.135H595.819H595.642L589.157 442.879L585.331 443.311L581.633 443.671L578.745 443.959L573.07 444.487L568.13 444.895L565.597 445.087L557.997 445.639L552.93 445.975L545.989 446.383L542.847 446.551L540.086 446.671L535.501 446.863L531.777 447.007L527.217 447.127H523.999H520.047C499.729 447.769 479.39 446.782 459.247 444.175L454.409 443.479L448.329 442.735H448.126L443.262 442.183L439.082 441.703L435.029 441.223L431.431 440.743H430.975C429.633 440.551 428.29 440.359 426.947 440.119C425.605 439.879 424.262 439.687 422.919 439.423L419.069 438.607H418.815C417.701 438.343 416.586 438.079 415.471 437.767L414.99 437.647C406.807 435.427 399.02 432.062 391.886 427.663C390.721 426.943 389.555 426.199 388.441 425.431C387.326 424.663 386.186 423.871 385.097 423.031C391.776 425.995 398.824 428.148 406.073 429.439V429.439C412.279 430.783 419.474 432.031 427.429 433.159C429.962 433.543 432.749 433.903 435.535 434.263C439.69 434.791 443.997 435.271 448.455 435.727H449.393C452.914 436.063 456.537 436.399 460.21 436.687C501.554 440.047 552.094 440.071 594.046 432.727L596.022 432.367C599.797 431.695 603.47 430.951 607.067 430.135C608.385 429.847 609.601 429.559 610.969 429.223L613.198 428.671C624.123 426.078 634.709 422.343 644.763 417.535C650.593 414.743 656.046 411.294 661.002 407.263V407.263C665.065 403.886 668.796 400.167 672.149 396.151C701.763 360.559 690.338 312.151 680.23 285.271C679.749 284.023 679.267 282.871 678.811 281.671C676.591 276.058 674.054 270.562 671.211 265.207C672.047 266.191 672.858 267.175 673.745 268.231L675.011 269.887L675.417 270.415C675.923 271.087 676.379 271.783 676.886 272.479C677.393 273.175 677.849 273.823 678.305 274.519C678.761 275.215 678.862 275.311 679.115 275.719L679.825 276.751L680.585 277.999C681.193 278.959 681.801 279.895 682.383 280.879L683.625 282.991C685.955 286.975 688.058 290.863 689.983 294.655C691.478 297.631 692.846 300.559 694.087 303.415C694.721 304.855 695.303 306.271 695.886 307.687C696.469 309.103 697.001 310.495 697.507 311.863C698.014 313.231 698.495 314.647 698.926 315.991C699.357 317.335 700.015 319.351 700.497 321.007C700.978 322.663 701.434 324.295 701.814 325.927C702.599 329.143 703.207 332.311 703.689 335.383C703.689 336.055 703.891 336.703 703.967 337.399C703.967 338.047 704.145 338.743 704.195 339.415V339.967C704.208 340.159 704.208 340.351 704.195 340.543V341.359V342.199C704.736 343.799 705.031 345.223 705.082 346.471Z" fill="#61376B"/>
</g>
<g style="mix-blend-mode:multiply" opacity="0.5">
<path d="M331.798 450.295C330.211 449.583 328.392 449.488 326.731 450.031C325.918 450.338 325.254 450.921 324.87 451.667C324.486 452.412 324.409 453.267 324.654 454.063C325.363 455.719 327.542 456.199 329.417 456.463C336.155 457.351 343.451 458.167 349.43 455.119C350.684 454.572 351.747 453.698 352.495 452.599C353.306 451.303 353.433 449.695 354.269 448.423C356.498 445.087 361.869 446.023 365.821 445.255C368.001 444.612 370.216 444.083 372.458 443.671C375.726 443.431 378.943 444.943 382.211 444.655C386.341 444.247 389.685 441.055 393.789 440.527C396.854 440.119 399.894 441.271 402.985 441.439C407.441 441.368 411.804 440.211 415.651 438.079L419.223 436.399C420.867 435.663 422.559 435.029 424.29 434.503C425.379 434.167 426.494 433.831 427.685 433.519C435.25 431.685 442.911 430.227 450.637 429.151L455.703 428.383L458.794 427.927C463.43 427.279 467.61 426.631 470.903 426.007M467.382 404.119C446.431 408.079 432.701 400.279 411.471 398.239C404.758 397.591 397.969 397.327 391.205 396.439C386.8 395.898 382.463 394.941 378.259 393.583C376.24 392.739 374.11 392.158 371.926 391.855C370.837 391.712 369.727 391.835 368.703 392.213C367.679 392.591 366.773 393.212 366.074 394.015C365.726 394.631 365.309 395.21 364.833 395.743C364.454 396.041 364.007 396.251 363.527 396.355C363.048 396.459 362.549 396.455 362.071 396.343C361.575 396.268 361.095 396.113 360.653 395.887C359.361 395.215 358.271 394.207 357.005 393.487C355.337 392.657 353.419 392.397 351.573 392.751C349.727 393.105 348.066 394.052 346.871 395.431C345.351 397.303 344.642 399.991 342.387 401.047C339.094 402.607 335.547 399.511 333.343 396.703C331.139 393.895 327.821 390.703 324.375 391.903C322.729 392.527 321.69 394.063 320.373 395.215C315.99 399.151 309.074 398.599 303.095 397.783C300.707 397.594 298.369 397.026 296.179 396.103C295.088 395.632 294.135 394.916 293.402 394.017C292.669 393.117 292.179 392.062 291.974 390.943C291.543 386.791 296.205 383.911 300.385 382.567C302.043 381.917 303.838 381.638 305.629 381.751C306.518 381.838 307.36 382.174 308.046 382.717C308.732 383.26 309.231 383.985 309.479 384.799C310.113 387.703 306.49 389.767 303.399 390.247L467.382 404.119ZM467.382 414.727C449.902 413.911 414.739 416.767 398.425 422.767L396.499 423.487C394.397 424.331 392.114 424.692 389.837 424.543C386.391 424.135 383.681 421.783 380.843 419.743C380.337 419.383 379.83 419.023 379.298 418.687C378.703 418.263 378.022 417.961 377.297 417.799C375.295 417.439 373.522 418.975 371.901 420.199C369.408 421.998 366.484 423.184 363.39 423.653C360.296 424.122 357.128 423.859 354.167 422.887C350.773 421.759 347.555 419.647 344.034 419.815C340.513 419.983 336.687 422.863 332.735 422.815C329.889 422.435 327.165 421.469 324.755 419.983C317.945 416.846 310.156 416.188 302.867 418.135C301.447 418.386 300.16 419.088 299.219 420.127C298.614 421.202 298.464 422.455 298.798 423.632C299.132 424.808 299.925 425.821 301.018 426.463C303.338 427.665 305.987 428.176 308.618 427.927L467.382 414.727Z" stroke="#1D111E" stroke-width="0.68" stroke-linecap="round" stroke-linejoin="round"/>
</g>
<g style="mix-blend-mode:multiply" opacity="0.5">
<path d="M604.18 441.126C601.721 438.175 599.091 435.354 596.302 432.678C595.567 431.958 594.807 431.262 594.047 430.566C591.013 427.773 587.807 425.153 584.446 422.718C572.6 413.685 558.739 407.324 543.913 404.118C543.533 405.654 542.975 406.854 542.19 407.094C540.518 407.574 538.035 405.198 536.085 402.942C526.72 401.955 517.241 402.771 508.218 405.342C507.002 407.142 505.685 408.606 504.367 408.486C503.785 408.486 503.253 407.886 502.746 407.118C500.197 408.074 497.702 409.156 495.273 410.358C489.739 413.072 484.496 416.287 479.617 419.958C478.603 420.702 477.615 421.47 476.627 422.358C468.565 429.027 461.03 436.247 454.081 443.958C447.139 451.422 440.021 458.862 433.814 466.878C433.724 466.973 433.647 467.077 433.586 467.19C434.65 462.87 440.375 447.342 441.186 443.694C441.186 443.694 443.719 442.806 443.719 442.782C442.098 442.614 445.341 442.974 443.719 442.782C445.442 440.574 447.215 438.414 449.065 436.254L450.205 434.934C451.497 433.47 452.738 432.03 454.157 430.59L456.107 428.55C457.982 426.654 459.882 424.782 461.858 422.982C465.253 419.807 468.821 416.803 472.549 413.982L473.917 412.926C481.405 407.299 489.684 402.687 498.515 399.222C495.247 396.51 495.45 394.422 495.45 394.422L548.878 392.022C548.95 393.399 548.626 394.767 547.941 395.982C558.41 398.358 568.432 402.244 577.657 407.502C587.719 413.13 596.902 420.061 604.941 428.094C605.245 428.358 605.523 428.646 605.802 428.934C606.081 429.222 607.069 430.206 607.677 430.854C610.007 433.254 612.211 435.846 614.238 438.414C618.498 437.024 623.073 436.743 627.487 437.598L623.56 438.414L618.494 439.35C616.239 439.782 613.883 440.166 611.401 440.55L609.146 440.886L605.118 441.462H604.814L604.18 441.126Z" fill="#61376B"/>
</g>
<path d="M819.261 881.286H229.4C220.209 881.286 211.394 877.827 204.895 871.67C198.395 865.513 194.744 857.162 194.744 848.454H853.917C853.917 857.162 850.266 865.513 843.767 871.67C837.268 877.827 828.453 881.286 819.261 881.286V881.286Z" fill="#5E2600"/>
<path d="M834.765 525.127V813.991C834.765 826.441 829.544 838.382 820.251 847.185C810.958 855.989 798.355 860.935 785.213 860.935H263.346C256.842 860.935 250.402 859.721 244.393 857.363C238.384 855.005 232.924 851.549 228.325 847.192C223.726 842.836 220.078 837.663 217.589 831.971C215.1 826.278 213.819 820.177 213.819 814.015V525.127C213.819 518.965 215.1 512.864 217.589 507.171C220.078 501.479 223.726 496.306 228.325 491.95C232.924 487.593 238.384 484.136 244.393 481.779C250.402 479.421 256.842 478.207 263.346 478.207H785.213C791.719 478.204 798.162 479.415 804.174 481.772C810.185 484.128 815.648 487.584 820.25 491.941C824.851 496.298 828.502 501.472 830.992 507.166C833.483 512.86 834.765 518.963 834.765 525.127V525.127Z" fill="#5E2600"/>
<path d="M780.247 490.639H268.412C249.482 490.639 234.136 505.177 234.136 523.111V815.983C234.136 833.916 249.482 848.455 268.412 848.455H780.247C799.177 848.455 814.523 833.916 814.523 815.983V523.111C814.523 505.177 799.177 490.639 780.247 490.639Z" fill="#FFC33B"/>
<g style="mix-blend-mode:multiply">
<path d="M814.522 513.343V815.983C814.505 821.021 813.254 825.986 810.867 830.488C808.48 834.991 805.022 838.906 800.766 841.927C805.171 836.389 807.586 829.66 807.657 822.727V519.967C807.66 516.984 807.043 514.031 805.839 511.275C804.636 508.519 802.871 506.014 800.645 503.905C798.419 501.797 795.776 500.124 792.867 498.984C789.957 497.845 786.84 497.26 783.691 497.263H261.419C254.035 497.257 246.846 499.514 240.925 503.695C244.118 499.642 248.266 496.352 253.037 494.085C257.809 491.819 263.074 490.639 268.411 490.639H790.557C793.705 490.636 796.823 491.221 799.732 492.36C802.641 493.5 805.284 495.173 807.51 497.281C809.736 499.39 811.501 501.895 812.705 504.651C813.908 507.407 814.525 510.36 814.522 513.343V513.343Z" fill="#FFD47D"/>
</g>
<g style="mix-blend-mode:multiply" opacity="0.78">
<g style="mix-blend-mode:multiply" opacity="0.78">
<path d="M841.225 848.454C788.701 849.846 736.185 850.782 683.677 851.262C657.432 851.598 631.161 851.646 604.916 851.862L526.155 852.03L447.368 851.838C421.123 851.646 394.852 851.574 368.607 851.238C316.082 850.758 263.566 849.83 211.059 848.454H841.225Z" fill="#E17022"/>
</g>
</g>
<g style="mix-blend-mode:multiply" opacity="0.2">
<g style="mix-blend-mode:multiply" opacity="0.2">
<path d="M722.207 526.135H318.191C312.816 526.135 307.661 528.158 303.861 531.758C300.06 535.359 297.925 540.243 297.925 545.335V801.631C297.925 806.723 300.06 811.606 303.861 815.207C307.661 818.808 312.816 820.831 318.191 820.831H722.207C727.583 820.831 732.737 818.808 736.538 815.207C740.339 811.606 742.474 806.723 742.474 801.631V545.287C742.461 540.203 740.32 535.332 736.52 531.741C732.721 528.151 727.574 526.135 722.207 526.135V526.135Z" fill="#E4640A"/>
</g>
<g style="mix-blend-mode:multiply" opacity="0.2">
<path d="M325.538 554.431C328.42 554.431 330.757 552.217 330.757 549.487C330.757 546.756 328.42 544.543 325.538 544.543C322.656 544.543 320.319 546.756 320.319 549.487C320.319 552.217 322.656 554.431 325.538 554.431Z" fill="black"/>
</g>
<g style="mix-blend-mode:multiply" opacity="0.2">
<path d="M350.188 554.431C353.07 554.431 355.406 552.217 355.406 549.487C355.406 546.756 353.07 544.543 350.188 544.543C347.305 544.543 344.969 546.756 344.969 549.487C344.969 552.217 347.305 554.431 350.188 554.431Z" fill="black"/>
</g>
<g style="mix-blend-mode:multiply" opacity="0.2">
<path d="M374.863 554.431C377.745 554.431 380.082 552.217 380.082 549.487C380.082 546.756 377.745 544.543 374.863 544.543C371.981 544.543 369.645 546.756 369.645 549.487C369.645 552.217 371.981 554.431 374.863 554.431Z" fill="black"/>
</g>
</g>
<path d="M750.66 537.462V793.926C750.66 799.018 748.525 803.901 744.724 807.502C740.923 811.103 735.768 813.126 730.393 813.126H326.453C321.078 813.126 315.923 811.103 312.123 807.502C308.322 803.901 306.187 799.018 306.187 793.926V537.462C306.187 532.37 308.322 527.486 312.123 523.885C315.923 520.285 321.078 518.262 326.453 518.262H730.469C735.831 518.281 740.966 520.312 744.751 523.911C748.535 527.509 750.66 532.382 750.66 537.462Z" fill="white"/>
<path d="M750.659 537.462V565.038H306.236V537.462C306.236 532.37 308.372 527.486 312.172 523.885C315.973 520.285 321.128 518.262 326.503 518.262H730.468C735.83 518.281 740.966 520.312 744.75 523.911C748.534 527.509 750.659 532.382 750.659 537.462Z" fill="#E4640A"/>
<path d="M333.799 546.607C336.681 546.607 339.017 544.393 339.017 541.663C339.017 538.932 336.681 536.719 333.799 536.719C330.917 536.719 328.58 538.932 328.58 541.663C328.58 544.393 330.917 546.607 333.799 546.607Z" fill="white"/>
<path d="M358.446 546.607C361.328 546.607 363.665 544.393 363.665 541.663C363.665 538.932 361.328 536.719 358.446 536.719C355.564 536.719 353.228 538.932 353.228 541.663C353.228 544.393 355.564 546.607 358.446 546.607Z" fill="white"/>
<path d="M383.097 546.607C385.979 546.607 388.315 544.393 388.315 541.663C388.315 538.932 385.979 536.719 383.097 536.719C380.214 536.719 377.878 538.932 377.878 541.663C377.878 544.393 380.214 546.607 383.097 546.607Z" fill="white"/>
<path d="M447.261 684.927C446.443 684.927 445.707 684.64 445.053 684.068C444.48 683.413 444.194 682.677 444.194 681.859V667.992H406.029C405.129 667.992 404.393 667.706 403.82 667.133C403.248 666.56 402.961 665.824 402.961 664.924V653.266C402.961 652.039 403.411 650.771 404.311 649.462L440.021 601.113C441.167 599.722 442.68 599.026 444.562 599.026H462.478C463.378 599.026 464.114 599.313 464.687 599.885C465.26 600.458 465.546 601.194 465.546 602.094V649.708H476.345C477.326 649.708 478.104 650.035 478.676 650.689C479.249 651.262 479.535 651.957 479.535 652.776V664.924C479.535 665.824 479.249 666.56 478.676 667.133C478.104 667.706 477.367 667.992 476.467 667.992H465.546V681.859C465.546 682.677 465.26 683.413 464.687 684.068C464.114 684.64 463.378 684.927 462.478 684.927H447.261ZM444.684 650.567V621.606L424.068 650.567H444.684ZM524.893 686.154C513.603 686.072 505.054 683.086 499.245 677.196C493.437 671.224 490.287 663.411 489.796 653.757C489.633 649.34 489.551 645.413 489.551 641.977C489.551 638.459 489.633 634.409 489.796 629.828C490.124 623.692 491.596 618.252 494.214 613.507C496.914 608.68 500.841 604.876 505.995 602.094C511.149 599.231 517.448 597.799 524.893 597.799C535.937 597.881 544.445 600.867 550.417 606.758C556.39 612.648 559.621 620.338 560.112 629.828C560.276 634.409 560.357 638.459 560.357 641.977C560.357 645.413 560.276 649.34 560.112 653.757C559.539 663.411 556.349 671.224 550.54 677.196C544.732 683.086 536.183 686.072 524.893 686.154ZM524.893 668.36C528.901 668.36 531.888 667.051 533.851 664.433C535.896 661.734 537.001 657.97 537.164 653.144C537.328 650.771 537.41 646.967 537.41 641.731C537.41 636.495 537.328 632.773 537.164 630.564C537.001 625.901 535.937 622.22 533.974 619.52C532.01 616.82 528.983 615.429 524.893 615.348C520.884 615.429 517.857 616.82 515.812 619.52C513.848 622.22 512.785 625.901 512.621 630.564C512.54 632.773 512.499 636.495 512.499 641.731C512.499 646.967 512.54 650.771 512.621 653.144C513.03 663.288 517.121 668.36 524.893 668.36ZM600.692 684.927C599.874 684.927 599.138 684.64 598.483 684.068C597.911 683.413 597.624 682.677 597.624 681.859V623.447L580.812 636.332C580.24 636.823 579.626 637.068 578.972 637.068C578.072 637.068 577.254 636.577 576.517 635.595L569.277 626.146C568.868 625.492 568.664 624.878 568.664 624.306C568.664 623.16 569.154 622.301 570.136 621.729L598.361 599.885C599.26 599.313 600.242 599.026 601.306 599.026H616.645C617.545 599.026 618.281 599.313 618.854 599.885C619.427 600.458 619.713 601.194 619.713 602.094V681.859C619.713 682.677 619.427 683.413 618.854 684.068C618.281 684.64 617.545 684.927 616.645 684.927H600.692Z" fill="#E4640A"/>
<path d="M316.728 765C316.301 765 315.938 764.872 315.64 764.616C315.384 764.317 315.256 763.955 315.256 763.528V721.736C315.256 721.267 315.384 720.904 315.64 720.648C315.938 720.349 316.301 720.2 316.728 720.2H334.264C338.829 720.2 342.264 721.288 344.568 723.464C346.872 725.64 348.024 728.499 348.024 732.04C348.024 734.429 347.469 736.413 346.36 737.992C345.293 739.571 344.013 740.723 342.52 741.448C344.312 742.344 345.826 743.731 347.064 745.608C348.301 747.485 348.92 749.64 348.92 752.072C348.92 754.461 348.365 756.637 347.256 758.6C346.189 760.563 344.589 762.12 342.456 763.272C340.322 764.424 337.762 765 334.776 765H316.728ZM333.304 739.144C335.992 739.144 338.04 738.525 339.448 737.288C340.898 736.051 341.624 734.323 341.624 732.104C341.624 729.928 340.92 728.264 339.512 727.112C338.104 725.96 336.034 725.384 333.304 725.384H321.528V739.144H333.304ZM333.944 759.816C336.632 759.816 338.722 759.091 340.216 757.64C341.752 756.189 342.52 754.333 342.52 752.072C342.52 749.725 341.752 747.848 340.216 746.44C338.722 744.989 336.632 744.264 333.944 744.264H321.528V759.816H333.944ZM354.498 765C354.156 765 353.858 764.872 353.602 764.616C353.346 764.36 353.218 764.061 353.218 763.72C353.218 763.379 353.239 763.144 353.282 763.016L369.154 721.608C369.495 720.669 370.178 720.2 371.202 720.2H375.554C376.578 720.2 377.26 720.669 377.602 721.608L393.41 763.016L393.538 763.72C393.538 764.061 393.41 764.36 393.154 764.616C392.898 764.872 392.599 765 392.258 765H388.994C388.524 765 388.162 764.893 387.906 764.68C387.65 764.424 387.479 764.168 387.394 763.912L383.874 754.824H362.882L359.362 763.912C359.276 764.168 359.084 764.424 358.786 764.68C358.53 764.893 358.188 765 357.762 765H354.498ZM382.018 749.32L373.378 726.6L364.738 749.32H382.018ZM401.853 765C401.426 765 401.063 764.872 400.765 764.616C400.509 764.317 400.381 763.955 400.381 763.528V721.736C400.381 721.267 400.509 720.904 400.765 720.648C401.063 720.349 401.426 720.2 401.853 720.2H416.381C422.823 720.2 427.474 721.651 430.333 724.552C433.191 727.411 434.685 731.741 434.812 737.544C434.855 738.781 434.877 740.445 434.877 742.536C434.877 744.627 434.855 746.312 434.812 747.592C434.685 751.645 434.002 754.952 432.765 757.512C431.57 760.029 429.671 761.907 427.069 763.144C424.466 764.381 421.01 765 416.701 765H401.853ZM416.381 759.56C419.325 759.56 421.65 759.155 423.357 758.344C425.106 757.533 426.365 756.253 427.132 754.504C427.943 752.712 428.391 750.323 428.477 747.336C428.562 744.776 428.604 743.176 428.604 742.536C428.604 741.853 428.562 740.275 428.477 737.8C428.391 733.576 427.389 730.504 425.469 728.584C423.549 726.621 420.413 725.64 416.061 725.64H406.653V759.56H416.381ZM461.665 765C461.238 765 460.876 764.872 460.577 764.616C460.321 764.317 460.193 763.955 460.193 763.528V721.736C460.193 721.267 460.321 720.904 460.577 720.648C460.876 720.349 461.238 720.2 461.665 720.2H477.281C482.188 720.2 486.028 721.352 488.801 723.656C491.574 725.96 492.961 729.288 492.961 733.64C492.961 736.883 492.15 739.549 490.529 741.64C488.95 743.731 486.71 745.181 483.809 745.992L493.665 763.016C493.793 763.272 493.857 763.507 493.857 763.72C493.857 764.061 493.708 764.36 493.409 764.616C493.153 764.872 492.854 765 492.513 765H489.441C488.801 765 488.289 764.851 487.905 764.552C487.564 764.253 487.244 763.827 486.945 763.272L477.665 747.016H466.465V763.528C466.465 763.955 466.316 764.317 466.017 764.616C465.718 764.872 465.356 765 464.929 765H461.665ZM477.025 741.576C483.382 741.576 486.561 738.909 486.561 733.576C486.561 728.243 483.382 725.576 477.025 725.576H466.465V741.576H477.025ZM503.603 765C503.176 765 502.813 764.872 502.515 764.616C502.259 764.317 502.131 763.955 502.131 763.528V721.736C502.131 721.267 502.259 720.904 502.515 720.648C502.813 720.349 503.176 720.2 503.603 720.2H530.035C530.461 720.2 530.803 720.349 531.059 720.648C531.357 720.904 531.507 721.267 531.507 721.736V724.168C531.507 724.595 531.379 724.957 531.123 725.256C530.867 725.512 530.504 725.64 530.035 725.64H508.275V739.656H528.627C529.053 739.656 529.395 739.805 529.651 740.104C529.949 740.36 530.099 740.723 530.099 741.192V743.56C530.099 743.987 529.949 744.349 529.651 744.648C529.395 744.904 529.053 745.032 528.627 745.032H508.275V759.56H530.547C531.016 759.56 531.379 759.688 531.635 759.944C531.891 760.2 532.019 760.563 532.019 761.032V763.528C532.019 763.955 531.869 764.317 531.571 764.616C531.315 764.872 530.973 765 530.547 765H503.603ZM569.37 769.16C568.9 769.16 568.495 769.011 568.154 768.712C567.812 768.456 567.492 768.115 567.194 767.688L564.57 764.104C562.351 765.128 559.684 765.64 556.57 765.64C551.023 765.64 546.714 764.189 543.642 761.288C540.612 758.344 539.012 753.928 538.842 748.04C538.799 746.76 538.778 744.947 538.778 742.6C538.778 740.253 538.799 738.461 538.842 737.224C539.012 731.464 540.676 727.091 543.834 724.104C546.991 721.075 551.236 719.56 556.57 719.56C561.946 719.56 566.191 721.075 569.306 724.104C572.463 727.091 574.127 731.464 574.298 737.224C574.383 739.699 574.426 741.491 574.426 742.6C574.426 743.667 574.383 745.48 574.298 748.04C574.127 753.885 572.591 758.259 569.69 761.16L573.914 767.176C574.042 767.432 574.106 767.667 574.106 767.88V768.008C574.106 768.307 573.978 768.563 573.722 768.776C573.466 769.032 573.167 769.16 572.826 769.16H569.37ZM556.57 760.2C559.94 760.2 562.628 759.176 564.634 757.128C566.682 755.08 567.791 751.944 567.962 747.72C568.047 745.16 568.09 743.453 568.09 742.6C568.09 741.661 568.047 739.955 567.962 737.48C567.791 733.256 566.682 730.12 564.634 728.072C562.628 726.024 559.94 725 556.57 725C553.199 725 550.511 726.024 548.506 728.072C546.5 730.12 545.412 733.256 545.242 737.48C545.199 738.717 545.178 740.424 545.178 742.6C545.178 744.733 545.199 746.44 545.242 747.72C545.412 751.944 546.5 755.08 548.506 757.128C550.511 759.176 553.199 760.2 556.57 760.2ZM600.714 765.64C595.21 765.64 590.943 764.168 587.914 761.224C584.927 758.237 583.434 753.736 583.434 747.72V721.736C583.434 721.267 583.562 720.904 583.818 720.648C584.117 720.349 584.479 720.2 584.906 720.2H588.17C588.639 720.2 589.002 720.349 589.258 720.648C589.557 720.904 589.706 721.267 589.706 721.736V747.848C589.706 751.944 590.666 755.016 592.586 757.064C594.506 759.112 597.215 760.136 600.714 760.136C604.213 760.136 606.922 759.112 608.842 757.064C610.762 755.016 611.722 751.944 611.722 747.848V721.736C611.722 721.267 611.85 720.904 612.106 720.648C612.405 720.349 612.767 720.2 613.194 720.2H616.522C616.949 720.2 617.29 720.349 617.546 720.648C617.845 720.947 617.994 721.309 617.994 721.736V747.72C617.994 753.736 616.479 758.237 613.45 761.224C610.463 764.168 606.218 765.64 600.714 765.64ZM630.165 765C629.738 765 629.376 764.872 629.077 764.616C628.821 764.317 628.693 763.955 628.693 763.528V721.736C628.693 721.267 628.821 720.904 629.077 720.648C629.376 720.349 629.738 720.2 630.165 720.2H656.597C657.024 720.2 657.365 720.349 657.621 720.648C657.92 720.904 658.069 721.267 658.069 721.736V724.168C658.069 724.595 657.941 724.957 657.685 725.256C657.429 725.512 657.066 725.64 656.597 725.64H634.837V739.656H655.189C655.616 739.656 655.957 739.805 656.213 740.104C656.512 740.36 656.661 740.723 656.661 741.192V743.56C656.661 743.987 656.512 744.349 656.213 744.648C655.957 744.904 655.616 745.032 655.189 745.032H634.837V759.56H657.109C657.578 759.56 657.941 759.688 658.197 759.944C658.453 760.2 658.581 760.563 658.581 761.032V763.528C658.581 763.955 658.432 764.317 658.133 764.616C657.877 764.872 657.536 765 657.109 765H630.165ZM681.906 765.64C678.364 765.64 675.292 765.085 672.69 763.976C670.13 762.867 668.167 761.416 666.802 759.624C665.436 757.789 664.711 755.827 664.626 753.736C664.626 753.395 664.754 753.096 665.01 752.84C665.308 752.541 665.65 752.392 666.034 752.392H669.298C670.108 752.392 670.663 752.819 670.962 753.672C671.346 755.464 672.434 757 674.226 758.28C676.06 759.56 678.62 760.2 681.906 760.2C685.447 760.2 688.114 759.581 689.906 758.344C691.698 757.064 692.594 755.293 692.594 753.032C692.594 751.581 692.146 750.408 691.25 749.512C690.396 748.616 689.116 747.827 687.41 747.144C685.703 746.461 683.143 745.608 679.73 744.584C676.402 743.645 673.756 742.643 671.794 741.576C669.831 740.509 668.359 739.187 667.378 737.608C666.396 736.029 665.906 734.045 665.906 731.656C665.906 729.352 666.524 727.283 667.762 725.448C669.042 723.613 670.855 722.184 673.202 721.16C675.548 720.093 678.343 719.56 681.586 719.56C684.914 719.56 687.772 720.157 690.162 721.352C692.551 722.504 694.364 723.976 695.602 725.768C696.839 727.56 697.5 729.352 697.586 731.144C697.586 731.485 697.458 731.784 697.201 732.04C696.988 732.296 696.668 732.424 696.242 732.424H692.85C691.954 732.424 691.399 732.019 691.186 731.208C690.93 729.416 689.927 727.944 688.178 726.792C686.428 725.597 684.231 725 681.586 725C678.684 725 676.402 725.555 674.738 726.664C673.074 727.773 672.242 729.416 672.242 731.592C672.242 733.043 672.626 734.237 673.394 735.176C674.204 736.115 675.42 736.947 677.042 737.672C678.663 738.355 681.031 739.144 684.146 740.04C687.772 741.021 690.631 742.045 692.722 743.112C694.812 744.136 696.37 745.437 697.394 747.016C698.418 748.552 698.93 750.515 698.93 752.904C698.93 756.872 697.394 759.987 694.322 762.248C691.25 764.509 687.111 765.64 681.906 765.64ZM718.082 765C717.655 765 717.293 764.872 716.994 764.616C716.738 764.317 716.61 763.955 716.61 763.528V725.896H704.322C703.895 725.896 703.533 725.768 703.234 725.512C702.978 725.213 702.85 724.851 702.85 724.424V721.736C702.85 721.309 702.978 720.947 703.234 720.648C703.533 720.349 703.895 720.2 704.322 720.2H735.17C735.639 720.2 736.002 720.349 736.258 720.648C736.557 720.904 736.706 721.267 736.706 721.736V724.424C736.706 724.851 736.557 725.213 736.258 725.512C735.959 725.768 735.597 725.896 735.17 725.896H722.946V763.528C722.946 763.955 722.797 764.317 722.498 764.616C722.199 764.872 721.837 765 721.41 765H718.082Z" fill="#E4640A"/>
<g style="mix-blend-mode:multiply" opacity="0.5">
<path d="M420.437 478.158H431.356C428.822 482.718 426.416 487.206 424.212 491.55L421.957 496.062C419.094 501.87 416.282 507.63 413.546 513.39C406.504 528.174 399.968 542.958 394.597 558.006C393.027 562.446 391.506 566.91 390.138 571.422C390.026 572.041 389.958 572.667 389.936 573.294C389.924 573.446 389.924 573.598 389.936 573.75V574.83C389.936 574.974 389.936 575.118 389.936 575.262C389.936 575.406 389.936 575.814 389.936 576.054V576.366C389.977 576.586 390.036 576.803 390.113 577.014C390.102 577.078 390.102 577.143 390.113 577.206C390.269 577.649 390.519 578.058 390.848 578.406V578.406L390.645 578.262C389.705 577.653 388.8 576.996 387.935 576.294C387.935 576.294 387.934 576.294 387.757 576.294L389.632 581.094C388.842 580.708 388.185 580.117 387.737 579.391C387.288 578.664 387.067 577.831 387.098 576.99C386.938 577.494 386.811 578.007 386.718 578.526C386.522 577.591 386.116 576.707 385.528 575.934L386.06 581.838C384.16 580.47 384.388 577.542 384.793 575.598C384.595 575.638 384.417 575.74 384.287 575.886C384.287 575.886 382.766 576.942 382.209 576.894L380.436 581.094C380.477 579.344 380.992 577.634 381.931 576.126C381.779 575.262 381.322 573.966 380.613 573.726C379.448 575.526 377.472 577.83 374.964 577.926L379.042 574.134C376.99 574.998 376.205 574.446 376.205 574.446C378.384 573.654 380.436 569.862 380.436 569.862C388.39 543.27 400.398 517.974 413.065 492.294C415.421 487.686 417.802 482.982 420.437 478.158Z" fill="#61376B"/>
</g>
<g style="mix-blend-mode:multiply" opacity="0.5">
<path d="M656.519 489.63L655.86 490.038C655.52 490.24 655.141 490.376 654.744 490.439C654.348 490.501 653.943 490.488 653.552 490.401C653.161 490.314 652.792 490.154 652.466 489.932C652.141 489.709 651.865 489.427 651.655 489.102L646.791 481.734L634.96 488.742L639.799 496.11C640.017 496.43 640.165 496.789 640.234 497.164C640.304 497.539 640.293 497.923 640.203 498.294C640.114 498.666 639.947 499.016 639.712 499.325C639.477 499.634 639.179 499.896 638.836 500.094L638.178 500.502C637.837 500.704 637.458 500.84 637.062 500.903C636.665 500.965 636.26 500.952 635.869 500.865C635.478 500.778 635.109 500.618 634.783 500.396C634.458 500.173 634.182 499.891 633.972 499.566L629.108 492.198L621.66 496.59C621.065 496.944 620.402 497.183 619.709 497.293C619.016 497.404 618.307 497.384 617.622 497.234C616.938 497.085 616.291 496.809 615.719 496.423C615.147 496.036 614.661 495.547 614.288 494.982L603.572 478.758L603.167 478.158H652.846L652.643 478.278L657.507 485.646C657.72 485.969 657.864 486.328 657.93 486.704C657.995 487.079 657.982 487.463 657.89 487.833C657.798 488.204 657.63 488.553 657.394 488.862C657.159 489.17 656.861 489.431 656.519 489.63V489.63Z" fill="#61376B"/>
</g>
<path d="M383.731 566.55C381.931 568.732 380.824 571.354 380.539 574.11" stroke="#268E26" stroke-width="0.63" stroke-linecap="round" stroke-linejoin="round"/>
<path d="M385.426 566.719C385.426 566.719 383.197 572.671 386.161 574.855" stroke="white" stroke-width="0.63" stroke-linecap="round" stroke-linejoin="round"/>
<path d="M387.253 567.415C387.253 567.415 386.341 572.911 389.786 574.111" stroke="#0032D0" stroke-width="0.63" stroke-linecap="round" stroke-linejoin="round"/>
<path d="M381.906 564.511C381.906 564.511 379.246 570.703 375.066 570.871" stroke="#D30000" stroke-width="0.63" stroke-linecap="round" stroke-linejoin="round"/>
<path d="M614.01 431.215C589.741 400.639 543.482 375.199 499.2 391.615C489.986 395.109 481.358 399.855 473.588 405.703C444.049 427.591 425.809 459.703 413.193 485.239C400.577 510.775 388.518 536.215 380.564 562.807C380.564 562.807 378.512 566.575 376.333 567.391C376.333 567.391 377.296 568.063 379.956 566.695C381.4 565.903 382.134 568.879 382.134 569.671C382.134 570.463 384.414 568.879 384.414 568.879C384.414 568.879 385.63 567.271 386.948 571.495C387.302 569.551 387.682 568.759 388.265 569.335C388.848 569.911 391.305 571.495 391.305 571.495C391.305 571.495 389.354 570.295 390.266 564.439C398.018 538.807 409.722 514.159 422.085 489.103C434.245 464.503 451.75 433.591 479.668 412.903C486.707 407.608 494.514 403.3 502.848 400.111C542.418 385.447 584.269 408.799 606.385 436.687C608.918 439.975 611.452 443.503 613.985 447.175L622.193 442.375C619.482 438.439 616.772 434.695 614.01 431.215Z" fill="#2B232D"/>
<g style="mix-blend-mode:multiply" opacity="0.5">
<path d="M622.041 442.35L613.833 447.15C611.299 443.478 608.766 439.95 606.233 436.662C584.117 408.774 542.266 385.422 502.721 400.11C494.368 403.267 486.55 407.569 479.515 412.878C451.649 433.566 434.093 464.478 421.933 489.078C409.57 514.11 397.891 538.757 390.114 564.413C389.329 569.429 390.646 571.038 391.051 571.422C390.722 571.182 389.759 570.558 389.025 570.006C388.987 569.334 388.987 568.661 389.025 567.989C389.225 564.253 389.94 560.558 391.153 556.997C392.166 553.805 393.23 550.661 394.319 547.517C396.549 541.229 399.006 534.989 401.565 528.797C404.123 522.605 406.935 516.366 409.773 510.222C412.61 504.078 415.625 497.814 418.614 491.67C419.754 489.39 420.869 487.086 422.009 484.782C434.169 460.182 451.674 429.294 479.591 408.606C486.625 403.29 494.443 398.98 502.797 395.814C542.342 381.15 584.193 404.502 606.309 432.39C608.842 435.678 611.375 439.206 613.909 442.854L620.065 439.23L622.041 442.35Z" fill="#140716"/>
</g>
<path d="M544.673 389.622C544.673 389.622 544.547 399.486 542.14 400.182C539.075 401.07 533.197 392.31 533.197 392.31L544.673 389.622Z" fill="white"/>
<path d="M499.605 391.662C499.605 391.662 501.733 401.262 504.292 401.55C507.459 401.862 511.436 392.166 511.436 392.166L499.605 391.662Z" fill="white"/>
<path d="M493.348 385.927C493.348 385.927 502.189 404.335 520.961 390.055C531.094 400.879 549.258 393.775 548.549 384.631" fill="#61376B"/>
<path d="M626.077 477.884L629.386 475.926C629.722 475.727 630.128 475.662 630.514 475.747C630.901 475.832 631.236 476.058 631.446 476.377L639.807 489.058C640.238 489.711 640.377 490.5 640.194 491.25C640.011 492.001 639.52 492.651 638.831 493.059L638.294 493.377C637.604 493.785 636.772 493.917 635.98 493.744C635.188 493.57 634.501 493.106 634.07 492.453L625.709 479.771C625.509 479.47 625.436 479.109 625.504 478.759C625.572 478.41 625.777 478.097 626.077 477.884V477.884Z" fill="white"/>
<g style="mix-blend-mode:multiply" opacity="0.5">
<path d="M613.049 478.158H603.067L597.519 469.734C594.072 464.498 592.852 458.217 594.108 452.162C595.364 446.106 599.001 440.729 604.283 437.118C604.739 439.982 605.271 443.03 605.879 446.262C607.298 453.966 609.122 462.654 611.427 471.966C611.427 472.254 611.605 472.59 611.681 472.902C612.12 474.63 612.576 476.382 613.049 478.158Z" fill="#61376B"/>
</g>
<path d="M645.737 466.26L645.092 466.641C643.656 467.491 643.219 469.282 644.116 470.643L651.645 482.062C652.542 483.422 654.433 483.836 655.869 482.987L656.514 482.605C657.949 481.755 658.386 479.964 657.489 478.604L649.96 467.184C649.063 465.824 647.172 465.41 645.737 466.26Z" fill="white"/>
<path d="M656.901 468.798L620.877 490.11C619.879 490.698 618.675 490.887 617.53 490.635C616.385 490.383 615.393 489.711 614.771 488.766L600.407 466.998C598.609 464.284 597.394 461.261 596.833 458.102C596.271 454.943 596.373 451.709 597.133 448.588C597.893 445.466 599.297 442.517 601.263 439.91C603.229 437.304 605.719 435.09 608.59 433.398V433.398C611.454 431.694 614.645 430.543 617.98 430.011C621.315 429.479 624.727 429.576 628.023 430.296C631.318 431.016 634.43 432.346 637.182 434.208C639.933 436.071 642.27 438.43 644.057 441.15L658.395 462.918C658.712 463.395 658.925 463.927 659.021 464.483C659.118 465.039 659.096 465.608 658.956 466.156C658.817 466.704 658.563 467.22 658.21 467.674C657.857 468.127 657.412 468.509 656.901 468.798Z" fill="#6BB1A2"/>
<g style="mix-blend-mode:multiply" opacity="0.3">
<path d="M612.033 431.814C607.394 435.585 604.333 440.803 603.404 446.526C602.475 452.249 603.738 458.098 606.966 463.014L623.661 488.334L620.672 490.086C620.198 490.369 619.67 490.561 619.118 490.65C618.566 490.739 618 490.724 617.454 490.606C616.908 490.488 616.392 490.269 615.936 489.962C615.48 489.654 615.092 489.264 614.794 488.814L600.431 467.022C596.846 461.53 595.695 454.92 597.228 448.628C598.76 442.336 602.851 436.872 608.613 433.422C609.691 432.775 610.837 432.236 612.033 431.814V431.814Z" fill="#583929"/>
</g>
<defs>
<radialGradient id="paint0_radial" cx="0" cy="0" r="1" gradientUnits="userSpaceOnUse" gradientTransform="translate(430.752 404.608) rotate(-1.75269) scale(38.6313 25.2553)">
<stop offset="0.17" stop-color="#662346"/>
<stop offset="1" stop-color="#662346" stop-opacity="0"/>
</radialGradient>
<radialGradient id="paint1_radial" cx="0" cy="0" r="1" gradientUnits="userSpaceOnUse" gradientTransform="translate(35875.2 9332.22) rotate(-1.75269) scale(1301.88 583.904)">
<stop offset="0.17" stop-color="#662346"/>
<stop offset="1" stop-color="#662346" stop-opacity="0"/>
</radialGradient>
</defs>
</svg>
