<svg width="1064" height="907" viewBox="0 0 1064 907" fill="none" xmlns="http://www.w3.org/2000/svg">
<g style="mix-blend-mode:multiply" opacity="0.58">
<path d="M531.5 906.103C763.657 906.103 951.856 892.381 951.856 875.455C951.856 858.528 763.657 844.807 531.5 844.807C299.344 844.807 111.145 858.528 111.145 875.455C111.145 892.381 299.344 906.103 531.5 906.103Z" fill="#F0B33B"/>
</g>
<g opacity="0.5">
<g style="mix-blend-mode:screen" opacity="0.5">
<g style="mix-blend-mode:screen" opacity="0.5">
<path d="M355.636 26.8144C410.761 -0.905624 481.086 -5.70563 542.292 5.88637C622.7 21.1024 662.625 19.6384 743.033 34.8544C790.457 43.8304 832.004 101.526 875.704 121.11C928.194 144.654 938.91 165.918 968.804 213.102C978.405 228.27 1014.4 275.142 1016.46 292.686C1020.13 322.518 1012.5 339.174 1016.28 368.982C1020.56 403.038 1024.18 423.99 1028.54 458.046C1034.85 507.366 1003.79 533.022 1006.3 582.654C1007.39 603.87 992.617 631.854 990.312 652.974C988.589 668.79 923.888 709.23 914.312 722.238C871.574 779.838 874.133 792.966 806.366 821.934C777.562 834.246 767.581 859.326 736.37 864.054C709.188 868.182 681.422 866.286 654.012 863.934C599.697 859.254 566.409 874.878 512.601 866.502C467.001 859.302 408.076 864.102 361.842 866.502C340.284 867.558 303.88 860.118 282.726 855.894C264.056 852.15 213.516 831.894 197.125 822.51C161.937 802.59 126.014 767.31 110.637 731.31C105.57 719.454 104.101 667.398 67.5703 618.246C34.0543 573.222 40.337 573.798 28.329 476.406C21.565 421.686 34.941 351.606 68.457 306.486C90.7756 276.51 99.1863 248.646 103.746 212.214C105.469 198.606 102.657 184.71 104.937 171.15C111.65 131.502 156.744 110.334 196.137 95.5504C235.53 80.7664 273.53 63.5824 313.684 51.4624C343.78 42.3664 332.912 38.2624 355.636 26.8144ZM83.7076 199.134C81.1743 183.894 55.0556 184.542 51.889 199.134C50.7996 204.174 45.961 209.67 43.377 214.374C39.9992 220.518 36.4272 226.55 32.661 232.47C25.4156 243.798 17.689 254.646 12.1156 266.838C8.16363 275.526 8.06229 285.054 15.5863 292.182C21.8943 298.158 34.6876 301.014 42.3383 295.446C57.8676 284.094 71.345 270.774 79.5023 253.566C83.7892 245.123 86.6039 236.078 87.837 226.782C89.0783 216.318 85.4049 209.07 83.7076 199.134V199.134ZM210.704 60.8944C210.704 70.9024 203.104 76.0864 193.958 79.1104C187.401 81.0779 180.416 81.3922 173.692 80.0224C167.054 78.9424 164.369 69.2944 169.562 65.2384C174.376 61.5184 177.998 58.4464 182.508 55.3504C183.068 54.9518 183.652 54.5832 184.256 54.2464C186.364 52.4714 188.828 51.1165 191.501 50.2624C194.944 49.2665 198.622 49.2665 202.065 50.2624C204.519 50.9214 206.683 52.311 208.239 54.2257C209.795 56.1404 210.659 58.4785 210.704 60.8944V60.8944ZM255.848 46.7824C254.809 48.3359 253.657 49.8194 252.402 51.2224C250.11 53.1964 247.287 54.5334 244.245 55.0864C242.286 55.6258 240.201 55.5928 238.263 54.9915C236.324 54.3902 234.623 53.2487 233.38 51.7163C232.137 50.1839 231.412 48.3319 231.298 46.4025C231.185 44.4731 231.689 42.5561 232.744 40.9024C234.087 38.7328 236.267 37.1413 238.824 36.4624C241.901 35.7272 245.114 35.6616 248.222 36.2704C250.151 36.9221 251.982 37.8096 253.669 38.9104C255.048 39.6904 256.05 40.9523 256.457 42.4244C256.864 43.8966 256.646 45.4615 255.848 46.7824V46.7824ZM19.9943 613.398C11.761 609.942 6.6183 599.598 3.8823 591.798C1.4315 584.441 0.125782 576.785 0.00630392 569.07C-0.475029 552.894 26.7583 549.126 30.0263 565.23C31.0265 570.493 32.8181 575.593 35.3463 580.374C38.9436 587.118 42.9463 592.686 43.7823 600.414C45.125 612.99 29.7476 617.526 19.9943 613.398V613.398ZM65.341 639.798C65.3797 641.52 64.9523 643.222 64.0996 644.742C62.9489 647.524 60.8428 649.857 58.121 651.366C55.6105 652.721 52.7319 653.34 49.85 653.143C46.9681 652.947 44.2127 651.944 41.933 650.262C38.8117 648.198 36.5316 645.182 35.473 641.718C35.0116 639.786 34.7402 637.818 34.6623 635.838C34.6623 632.019 36.2637 628.356 39.1143 625.656C41.9648 622.955 45.831 621.438 49.8623 621.438C53.724 621.43 57.4442 622.815 60.2673 625.311C63.0905 627.807 64.8048 631.228 65.0623 634.878C65.2561 635.885 65.3663 636.904 65.3916 637.926C65.4566 638.581 65.4566 639.24 65.3916 639.894L65.341 639.798ZM1055.54 425.718C1055.5 427.361 1054.83 428.933 1053.67 430.155C1052.51 431.377 1050.93 432.169 1049.22 432.391C1047.5 432.613 1045.75 432.25 1044.29 431.366C1042.83 430.483 1041.74 429.136 1041.23 427.566C1034.72 411.078 1032.97 393.438 1028.92 376.302C1027.17 368.934 1039.05 363.342 1042.45 370.902C1050.55 388.494 1057.72 406.47 1055.54 425.814V425.718ZM1044.93 491.526V491.646V491.526ZM1063.04 485.382C1062.76 489.2 1060.94 492.77 1057.98 495.366C1057.22 496.054 1056.3 496.571 1055.3 496.88C1054.31 497.19 1053.25 497.284 1052.2 497.155C1051.16 497.026 1050.16 496.678 1049.28 496.136C1048.4 495.594 1047.66 494.872 1047.11 494.022C1048.1 495.294 1045.13 491.502 1045.06 491.622C1044.31 490.349 1043.74 488.984 1043.38 487.566C1043.05 485.986 1042.86 484.379 1042.83 482.766C1042.83 482.31 1042.83 481.854 1042.83 481.398C1042.83 480.942 1042.83 481.086 1042.83 480.846C1042.22 478.469 1042.59 475.96 1043.86 473.832C1045.14 471.704 1047.22 470.118 1049.69 469.398C1052.2 468.782 1054.87 469.116 1057.13 470.331C1059.38 471.545 1061.05 473.543 1061.78 475.902C1062.71 479.007 1063.14 482.228 1063.04 485.454V485.382ZM984.51 694.422C969.817 713.454 955.529 729.726 934.477 742.638C928.98 746.022 922.114 739.326 925.534 734.166C938.936 713.79 956.441 700.566 977.696 687.99C981.749 685.662 987.525 690.726 984.536 694.494L984.51 694.422ZM863.772 88.6624C848.8 89.7664 837.248 79.4944 827.874 69.7264C818.072 59.3816 809.57 47.9934 802.541 35.7904C794.941 22.7584 814.524 12.4144 823.264 24.2944C830.774 34.4142 839.496 43.676 849.256 51.8944C858.528 59.8144 868.458 66.2944 872.258 78.2944C872.575 79.5196 872.596 80.7967 872.318 82.0305C872.041 83.2643 871.474 84.4229 870.658 85.4197C869.842 86.4165 868.799 87.2259 867.606 87.7874C866.414 88.3489 865.103 88.648 863.772 88.6624V88.6624ZM906.458 115.974C903.722 113.454 901.113 110.814 898.377 108.27C898.377 108.27 897.288 107.31 897.085 107.094C896.034 106.409 895.035 105.655 894.096 104.838C892.818 103.606 891.825 102.135 891.182 100.518C890.22 98.9444 889.946 97.076 890.419 95.3131C890.893 93.5503 892.076 92.0331 893.716 91.0864C892.398 92.1184 892.753 91.8784 894.754 90.3664C895.631 89.8461 896.616 89.5105 897.642 89.3824C899.763 88.8784 901.982 88.8784 904.102 89.3824C906.84 90.0497 909.466 91.0756 911.905 92.4304C914.768 93.9162 917.271 95.9515 919.256 98.4063C921.241 100.861 922.663 103.681 923.432 106.686C923.917 108.71 923.706 110.828 922.829 112.731C921.952 114.633 920.456 116.219 918.558 117.257C916.661 118.295 914.463 118.731 912.286 118.5C910.109 118.269 908.066 117.384 906.458 115.974V115.974ZM960.292 158.598C958.539 159.871 956.43 160.628 954.227 160.773C952.024 160.918 949.825 160.445 947.904 159.414C942.114 156.207 936.968 152.055 932.704 147.15C930.252 144.725 928.884 141.496 928.884 138.138C928.884 134.78 930.252 131.552 932.704 129.126C937.34 124.326 947.169 124.014 951.754 129.126C954.512 131.873 957.052 134.809 959.354 137.91C961.387 140.937 963.085 144.154 964.421 147.51C964.99 149.533 964.905 151.671 964.178 153.647C963.451 155.624 962.115 157.349 960.342 158.598H960.292Z" fill="#FFDE66"/>
</g>
</g>
<g style="mix-blend-mode:multiply" opacity="0.33">
<g style="mix-blend-mode:multiply" opacity="0.33">
<g style="mix-blend-mode:multiply" opacity="0.45">
<path d="M667.668 244.566L667.491 244.902C667.537 244.784 667.597 244.672 667.668 244.566Z" fill="#FABD3C"/>
<path d="M667.693 244.542L669.315 241.398L673.115 233.766L669.645 240.746C669.831 240.397 670.176 240.231 670.176 240.414C670.053 240.847 669.968 241.288 669.923 241.734C669.292 242.31 668.746 242.964 668.301 243.678L667.693 244.542Z" fill="#FABD3C"/>
<path d="M880.848 232.662C881.127 232.518 880.975 232.806 881.127 232.806C881.127 232.974 880.873 233.094 880.848 233.214V232.662Z" fill="#FABD3C"/>
<path d="M722.565 242.838C721.299 241.878 722.464 240.15 723.832 241.326H723.705C723.778 241.498 723.803 241.684 723.78 241.868C723.756 242.051 723.685 242.227 723.571 242.377C723.458 242.528 723.306 242.649 723.13 242.729C722.955 242.81 722.76 242.847 722.565 242.838Z" fill="#FABD3C"/>
<path d="M758.836 300.92C758.875 301.258 758.843 301.6 758.741 301.926C758.562 302.011 758.362 302.052 758.162 302.044C757.961 302.037 757.766 301.981 757.594 301.883C757.422 301.785 757.279 301.647 757.179 301.483C757.078 301.318 757.023 301.132 757.019 300.942C757.014 300.771 757.054 300.602 757.136 300.449C757.218 300.297 757.338 300.166 757.486 300.068C757.634 299.971 757.806 299.91 757.985 299.89C758.164 299.871 758.346 299.894 758.513 299.958C758.687 300.255 758.796 300.583 758.836 300.92Z" fill="#FABD3C"/>
<path d="M772.675 320.382L772.193 319.686L772.675 319.974V320.382Z" fill="#FABD3C"/>
<path d="M783.239 329.286C783.248 329.276 783.257 329.266 783.266 329.256C783.323 329.174 783.441 329.094 783.441 329.094C783.847 328.686 784.632 328.518 785.063 328.062V328.086C785.62 329.142 783.973 328.854 783.441 329.094C783.378 329.143 783.32 329.197 783.266 329.256C783.253 329.274 783.243 329.292 783.239 329.31V329.286Z" fill="#FABD3C"/>
<path d="M794.841 352.854C793.625 354.294 794.385 355.878 795.703 357.246V357.27C791.852 355.974 788.939 357.438 785.772 358.35L786.051 359.166C785.417 358.278 783.492 357.726 782.884 356.91C780.021 358.686 776.449 352.158 773.257 352.95C773.123 351.37 772.395 349.889 771.205 348.774C769.948 347.506 768.804 346.141 767.785 344.694L767.608 344.886C766.104 342.641 765.56 339.937 766.088 337.326C766.74 335.043 766.895 332.659 766.544 330.318C769.66 331.758 769.939 328.23 773.46 329.886L774.347 327.486C775.689 328.302 774.043 329.982 776.449 330.462C777.311 330.558 777.589 329.574 777.589 328.782C778.603 331.902 781.288 329.79 782.96 329.934C783.927 331.754 785.333 333.332 787.064 334.542C788.928 335.719 790.69 337.035 792.333 338.478C792.055 340.878 794.689 343.278 795.855 345.678C793.347 344.382 794.892 347.262 795.221 348.246C797.248 348.006 799.528 349.878 800.668 350.814L797.805 349.758C796.817 350.598 794.867 350.454 794.993 352.038C795.388 352.122 795.748 352.315 796.028 352.593C796.307 352.87 796.494 353.22 796.564 353.598C795.918 353.54 795.311 353.278 794.841 352.854Z" fill="#FABD3C"/>
<path d="M792.46 337.734C792.424 337.965 792.424 338.199 792.46 338.43C792.789 338.334 792.46 337.926 792.46 337.734Z" fill="#FABD3C"/>
<path d="M786.076 359.07L786.093 359.114C786.281 359.322 786.383 359.587 786.38 359.862L786.093 359.114C786.079 359.099 786.065 359.085 786.051 359.07H786.076Z" fill="#FABD3C"/>
<path d="M677.32 311.478H677.143L677.396 309.63H677.573L677.32 311.478Z" fill="#FABD3C"/>
<path d="M691.887 316.758C691.659 317.118 690.848 316.974 690.24 316.47H690.139C690.012 315.246 691.405 316.134 691.887 316.758Z" fill="#FABD3C"/>
<path d="M802.821 351.942C802.831 351.95 802.84 351.957 802.849 351.965C803.256 352.049 803.627 352.25 803.911 352.542C803.935 352.561 803.959 352.581 803.982 352.6C804.891 352.898 805.816 353.085 806.292 354.078C805.456 354.171 804.763 353.247 803.982 352.6C803.925 352.581 803.867 352.562 803.809 352.542H803.911C803.523 352.412 803.163 352.216 802.849 351.965C802.806 351.956 802.763 351.948 802.72 351.942H802.821Z" fill="#FABD3C"/>
<path d="M800.617 354.678L799.781 354.102L800.389 354.078L800.617 354.678Z" fill="#FABD3C"/>
<path d="M819.845 354.318C820.099 353.886 820.884 353.19 821.441 354.102H821.34C821.695 355.638 820.327 355.014 819.845 354.318Z" fill="#FABD3C"/>
<path d="M810.168 355.83L810.827 355.974L811.941 356.646L810.168 355.83Z" fill="#FABD3C"/>
<path d="M837.3 396.15C834.406 394.993 831.702 393.449 829.269 391.566H829.168C828.341 390.38 832.226 389.232 829.518 387.38C829.343 387.281 829.173 387.169 828.994 387.059C828.725 386.91 828.413 386.756 828.053 386.598C828.422 386.72 828.719 386.889 828.994 387.059C829.191 387.168 829.365 387.275 829.518 387.38C829.867 387.577 830.237 387.726 830.739 387.726C829.295 385.518 835.704 388.542 832.765 386.022C833.928 385.948 835.097 386.029 836.236 386.262C837.503 386.454 838.82 386.742 840.213 386.982C843.357 387.644 846.623 387.586 849.739 386.814C849.004 387.558 850.828 388.182 852.956 388.326C855.084 388.47 857.465 388.038 857.465 387.342C861.189 389.958 867.345 389.766 869.879 391.782C867.596 393.01 865.226 394.084 862.785 394.998C860.733 395.934 859.72 396.75 862.785 397.398C856.883 398.214 847.56 398.022 848.472 399.558C844.641 398.764 840.9 397.623 837.3 396.15Z" fill="#FABD3C"/>
<path d="M708.049 391.062C708.632 393.222 708.455 393.894 709.316 396.654H709.215C707.847 397.926 705.339 394.686 704.072 396.006C702.408 394.453 700.859 392.793 699.436 391.038C698.392 389.63 697.819 387.958 697.789 386.238C698.068 385.086 699.689 385.71 700.449 385.23C701.817 385.23 703.109 386.382 704.351 387.63C705.453 388.894 706.693 390.044 708.049 391.062Z" fill="#FABD3C"/>
<path d="M869.448 385.278C868.612 385.662 867.776 386.07 866.915 386.406H866.813C867.345 386.07 867.877 385.686 868.46 385.278H869.448Z" fill="#FABD3C"/>
<path d="M761.629 409.446C762.237 408.798 762.44 407.31 763.707 407.526C766.037 408.294 768.571 408.726 770.015 410.766C770.572 411.846 770.42 412.494 770.876 413.358C769.331 414.438 768.013 415.542 764.416 413.142C763.656 412.062 761.427 410.958 761.629 409.446Z" fill="#FABD3C"/>
<path d="M810.244 423.678C809.685 423.564 809.106 423.564 808.547 423.678V423.558C805.841 421.324 803.724 418.522 802.365 415.374L802.948 415.902C804.594 415.76 806.253 415.99 807.787 416.574C809.83 417.22 811.911 417.757 814.019 418.182C818.401 421.086 821.821 422.382 824.481 424.662C827.141 426.942 823.367 426.582 819.136 425.646C816.856 425.166 814.703 424.59 812.777 424.158C811.944 423.95 811.098 423.79 810.244 423.678Z" fill="#FABD3C"/>
<path d="M887.31 284.353C886.96 284.113 886.68 283.793 886.497 283.422V283.302C887.257 282.27 888.271 283.638 888.499 284.79C888.07 284.743 887.661 284.592 887.31 284.353Z" fill="#FABD3C"/>
<path d="M873.856 280.398L874.185 278.622L874.869 277.998L873.856 280.398Z" fill="#FABD3C"/>
<path d="M851.259 271.422C851.257 271.419 851.254 271.416 851.252 271.413C851.204 271.521 851.124 271.615 851.022 271.682C850.916 271.753 850.789 271.792 850.659 271.794C850.529 271.797 850.401 271.763 850.291 271.697C850.182 271.63 850.095 271.535 850.043 271.422C850.11 271.328 850.201 271.251 850.307 271.198C850.413 271.145 850.531 271.117 850.651 271.117C850.771 271.117 850.889 271.145 850.995 271.198C851.097 271.249 851.186 271.323 851.252 271.413C851.254 271.408 851.257 271.403 851.259 271.398V271.422Z" fill="#FABD3C"/>
<path d="M939.925 291.918C939.926 291.914 939.927 291.909 939.927 291.905C939.036 291.961 937.645 289.316 936.733 288.102C935.923 285.558 937.037 285.558 937.975 285.558C938.841 286.549 939.456 287.715 939.773 288.966C940.038 289.925 940.09 290.926 939.927 291.905C939.952 291.904 939.977 291.9 940.001 291.894L939.925 291.918Z" fill="#FABD3C"/>
<path d="M896.884 268.59C896.453 268.734 896.58 268.47 896.453 268.326L896.58 268.062L896.884 268.59Z" fill="#FABD3C"/>
<path d="M896.453 265.782L896.656 265.638L896.453 266.454C896.073 266.31 896.453 265.902 896.453 265.782Z" fill="#FABD3C"/>
<path d="M906.08 264.606C905.339 265.376 904.314 265.849 903.217 265.926C902.508 265.374 899.468 264.918 901.849 263.838L901.571 262.35C903.724 262.686 904.028 261.846 906.257 261.846C905.852 262.71 907.372 263.07 906.08 264.606Z" fill="#FABD3C"/>
<path d="M900.557 264.246L901.089 264.102L901.039 264.246H900.557Z" fill="#FABD3C"/>
<path d="M907.549 255.798C906.865 255.918 906.384 255.678 906.536 255.222L906.46 255.246C907.853 253.926 908.765 255.39 907.549 255.798Z" fill="#FABD3C"/>
<path d="M903.977 255.438C903.775 255.198 903.268 255.054 903.775 254.598V254.622C904.94 254.118 904.991 255.174 903.977 255.438Z" fill="#FABD3C"/>
<path d="M910.336 253.614C910.209 253.398 909.348 253.71 909.981 253.062V253.086C911.071 252.678 910.437 253.302 910.336 253.614Z" fill="#FABD3C"/>
<path d="M922.876 248.262C923.205 248.742 923.864 248.934 925.257 248.694C926.017 247.614 923.585 248.646 922.876 248.262Z" fill="#FABD3C"/>
<path d="M925.384 247.662C925.713 247.518 926.22 247.326 925.713 247.662H925.384C925.384 247.662 925.257 247.614 925.384 247.566V247.662Z" fill="#FABD3C"/>
<path d="M922.445 244.134C923.129 243.822 923.661 243.99 922.977 244.302V244.326C922.597 244.326 922.648 244.182 922.445 244.134Z" fill="#FABD3C"/>
<path d="M773.865 178.614C774.801 178.239 775.833 178.138 776.829 178.326V178.302C778.02 179.838 775.157 180.87 773.941 181.518C773.257 181.278 772.548 181.062 771.788 180.846C771.89 180.331 772.136 179.852 772.502 179.459C772.868 179.066 773.339 178.774 773.865 178.614Z" fill="#FABD3C"/>
<path d="M826.964 148.854C828.484 150.534 823.24 149.31 823.696 147.678V147.654C824.147 147.179 825.638 148.066 826.921 148.829L826.964 148.854Z" fill="#FABD3C"/>
<path d="M102.557 333.102C101.392 334.182 100.201 335.838 98.8586 335.838L98.7329 335.772C97.3 335.025 95.8026 334.245 96.1226 332.286C97.4146 329.646 97.5159 327.582 100.581 326.742C103.647 325.902 105.091 330.054 102.557 333.102Z" fill="#FABD3C"/>
<path d="M75.7039 333.198C78.4399 332.478 78.3132 335.718 78.4399 338.766C78.5666 341.814 78.8959 344.502 81.6826 342.51C80.7735 343.37 80.1176 344.441 79.7799 345.615C79.4421 346.79 79.4343 348.028 79.7572 349.206C78.5491 352.182 77.5753 355.238 76.8439 358.35C73.9306 361.086 70.8146 356.598 69.2439 358.158C69.2522 356.879 69.3708 355.603 69.5986 354.342C69.866 353.006 70.1568 351.604 70.4261 350.305L70.4599 350.142C71.0426 347.55 71.2959 345.366 69.8013 344.982C70.1707 340.5 72.2724 336.304 75.7039 333.198Z" fill="#FABD3C"/>
<path d="M58.7812 415.566C58.8262 415.641 58.8713 415.719 58.9164 415.797C61.1221 417.633 64.989 421.722 65.0386 423.438C62.0379 422.786 60.4222 418.423 58.9164 415.797C58.8706 415.759 58.8256 415.722 58.7812 415.686V415.566Z" fill="#FABD3C"/>
<path d="M248.072 438.318C249.288 437.718 250.301 438.534 249.567 439.566V439.734C247.591 441.366 245.792 440.31 248.072 438.318Z" fill="#FABD3C"/>
<path d="M307.463 369.74C307.392 369.955 307.277 370.154 307.124 370.326V370.494C306.44 370.974 305.756 370.638 305.528 369.486C305.619 369.149 305.786 368.836 306.018 368.566C306.25 368.297 306.541 368.078 306.871 367.926C307.057 368.066 307.211 368.24 307.325 368.437C307.439 368.634 307.51 368.851 307.533 369.075C307.557 369.299 307.533 369.525 307.463 369.74Z" fill="#FABD3C"/>
<path d="M312.216 343.038L312.52 342.726L312.216 343.638V343.038Z" fill="#FABD3C"/>
<path d="M313.381 327.246H313.128C313.128 327.246 313.305 327.294 313.381 327.246Z" fill="#FABD3C"/>
<path d="M311.304 326.334C311.937 326.454 312.545 327.078 313.128 327.198C312.571 326.862 311.887 325.182 311.304 326.334Z" fill="#FABD3C"/>
<path d="M316.396 313.494C316.178 313.599 315.949 313.679 315.712 313.734C315.864 313.614 316.041 313.182 316.396 313.35C316.384 313.397 316.384 313.447 316.396 313.494Z" fill="#FABD3C"/>
<path d="M338.715 309.75L338.081 310.182C338.144 310.068 338.233 309.969 338.343 309.894C338.453 309.819 338.581 309.77 338.715 309.75Z" fill="#FABD3C"/>
<path d="M338.765 316.614C338.616 317.406 338.54 318.209 338.537 319.014C338.582 319.856 338.891 320.667 339.424 321.342C336.308 323.91 336.815 327.774 335.244 331.902H335.497C334.956 333.433 334.095 334.846 332.964 336.054C333.648 337.038 334.383 337.998 333.648 338.91C332.837 338.766 331.393 338.838 330.608 337.854C328.126 338.851 325.904 340.35 324.097 342.246C323.363 338.43 320.373 340.374 319.537 336.03L317.131 336.678C316.979 334.902 319.259 335.358 318.296 332.838C317.865 331.998 316.928 332.406 316.219 332.838C318.271 329.934 314.927 328.782 314.091 327.174C315.083 325.057 315.609 322.77 315.636 320.454C315.712 319.182 315.915 318.03 315.915 316.782C315.965 316.158 316.041 315.414 316.117 314.934C316.193 314.454 316.32 313.974 316.447 313.494C318.701 312.486 319.436 309.318 321.235 307.494C321.209 309.342 322.324 308.478 323.185 307.686C321.615 306.702 319.715 304.782 318.727 307.062C318.043 305.19 316.421 302.166 315.003 303.006C314.821 299.708 315.137 296.403 315.94 293.19C316.675 292.23 320.399 293.694 319.715 290.55C320.069 291.15 319.588 291.63 320.069 292.11C321.412 290.55 321.665 294.318 322.603 292.11C324.933 293.622 324.3 296.958 327.669 298.758C326.377 298.758 326.58 300.438 327.239 301.302L327.543 301.11V301.518C327.647 301.639 327.788 301.726 327.946 301.769C328.105 301.812 328.273 301.808 328.429 301.758C327.408 302.934 326.556 304.233 325.896 305.622C326.128 305.814 326.413 305.941 326.717 305.988C327.022 306.035 327.334 305.999 327.619 305.886C327.505 305.582 327.514 305.249 327.645 304.952C327.777 304.655 328.02 304.415 328.328 304.278C328.532 304.747 328.532 305.273 328.328 305.742C328.859 305.875 329.418 305.875 329.949 305.742L329.316 305.166L330.253 305.526V305.646C331.025 305.32 331.646 304.74 332.001 304.014C332.584 306.99 335.219 308.646 337.524 310.542L338.081 310.158C337.651 310.878 338.056 312.294 337.651 312.918C339.171 313.59 338.993 314.934 338.765 316.614Z" fill="#FABD3C"/>
<path d="M350.875 446.118L348.468 447.486V447.198L350.875 445.83V446.118Z" fill="#FABD3C"/>
<path d="M352.749 427.158C353.053 426.126 352.876 425.166 352.42 425.19C351.913 426.102 351.66 428.286 352.749 427.158Z" fill="#FABD3C"/>
<path d="M321.26 285.126C321.817 284.406 322.248 283.158 320.728 283.71C319.917 284.43 320.779 285.126 321.26 285.126Z" fill="#FABD3C"/>
<path d="M325.212 293.286V292.71L325.237 292.782C325.249 292.728 325.261 292.676 325.273 292.627C325.327 292.299 325.405 291.968 325.465 291.654C325.443 292.013 325.362 292.261 325.273 292.627C325.237 292.85 325.212 293.072 325.212 293.286Z" fill="#FABD3C"/>
<path d="M358.525 294.582C358.069 295.23 357.613 297.846 355.08 297.63L355.105 297.702C354.591 297.745 354.075 297.648 353.617 297.422C353.159 297.196 352.778 296.851 352.52 296.428C352.262 296.004 352.137 295.52 352.16 295.031C352.182 294.543 352.352 294.07 352.648 293.67C353.104 292.398 354.827 292.422 355.992 292.854C357.157 293.286 357.208 295.038 358.525 294.582Z" fill="#FABD3C"/>
<path d="M363.516 273.39C363.212 275.67 360.755 279.822 364.2 279.03L364.327 279.102C363.646 279.706 363.003 280.347 362.401 281.022C361.793 281.91 361.54 283.038 362.528 283.614L359.184 284.742C358.035 285.183 356.836 285.497 355.612 285.678C354.594 285.549 353.294 283.107 351.838 283.745C351.791 283.77 351.743 283.793 351.694 283.818C351.565 283.892 351.436 283.991 351.305 284.118C351.403 283.97 351.55 283.889 351.694 283.818C351.742 283.79 351.79 283.766 351.838 283.745C352.006 283.654 352.141 283.545 352.141 283.302C350.216 282.99 352.648 281.334 350.52 281.574C350.452 281.071 350.494 280.561 350.642 280.074C350.79 279.587 351.042 279.134 351.381 278.742C351.765 278.256 352.042 277.701 352.194 277.112C352.346 276.522 352.371 275.909 352.268 275.31C353.104 276.414 354.599 275.358 354.599 274.494C354.665 274.361 354.688 274.213 354.666 274.068C354.643 273.923 354.576 273.787 354.472 273.678C357.892 274.158 360.704 272.454 363.516 273.39Z" fill="#FABD3C"/>
<path d="M277.129 334.518C278.649 332.454 279.359 332.19 281.183 329.43L281.208 329.406C283.108 329.838 281.74 334.566 283.589 335.046C282.373 341.694 281.917 345.318 278.903 347.718C277.763 348.222 277.357 346.23 276.521 345.822C274.976 343.11 277.129 337.998 277.129 334.518Z" fill="#FABD3C"/>
<path d="M358.728 268.878L358.12 270.294L358.221 269.094L358.728 268.878Z" fill="#FABD3C"/>
<path d="M395.411 320.478C395.412 320.471 395.414 320.464 395.415 320.456C394.96 320.52 395.135 321.12 393.663 320.742C392.775 320.501 391.924 320.155 391.129 319.71C390.699 319.062 390.04 317.982 390.699 317.982C391.357 317.982 391.965 318.198 392.447 318.198C394.103 319.006 395.56 319.72 395.415 320.456C395.422 320.456 395.429 320.455 395.436 320.454L395.411 320.478Z" fill="#FABD3C"/>
<path d="M380.743 303.75C382.212 303.726 382.465 303.27 384.188 304.038L384.213 304.014C387.253 305.286 384.999 306.582 386.747 308.166C384.962 307.763 383.21 307.241 381.503 306.606H381.781C380.616 305.55 381.072 304.71 380.743 303.75Z" fill="#FABD3C"/>
<path d="M284.679 305.382C284.121 305.166 282.88 304.71 283.716 304.878L283.741 304.854C284.914 305.13 286.065 305.483 287.187 305.91C287.604 306.022 288.011 306.167 288.403 306.342C287.82 306.15 285.92 305.814 284.679 305.382Z" fill="#FABD3C"/>
<path d="M388.9 214.566C388.292 214.566 387.456 213.894 387.127 214.422C386.529 211.404 385.63 208.447 384.441 205.59C383.295 203.565 382.621 201.331 382.465 199.038C385.956 201.992 388.294 205.974 389.103 210.342C390.015 213.87 389.508 214.566 388.9 214.566Z" fill="#FABD3C"/>
<path d="M404.759 233.43C403.315 236.406 403.112 229.806 402.884 225.222L402.909 225.126C403.011 221.79 403.517 220.806 403.973 220.518C404.852 222.394 405.325 224.418 405.367 226.47C405.466 228.805 405.262 231.142 404.759 233.43Z" fill="#FABD3C"/>
<path d="M388.748 197.91C387.253 194.982 388.849 196.806 389.052 196.638H389.077C390.724 198.462 392.599 203.526 391.053 202.494C390.033 201.092 389.255 199.544 388.748 197.91Z" fill="#FABD3C"/>
<path d="M293.165 181.926C294.486 181.667 295.694 181.04 296.636 180.126C294.787 180.054 292.051 180.942 293.165 181.926Z" fill="#FABD3C"/>
<path d="M280.245 195.894H277.712L276.952 195.198L280.245 195.894Z" fill="#FABD3C"/>
<path d="M268.378 220.098C268.299 220.203 268.188 220.283 268.06 220.326C267.528 220.326 267.401 219.75 268.06 219.15C268.188 219.193 268.299 219.273 268.378 219.378C268.456 219.483 268.498 219.609 268.498 219.738C268.498 219.867 268.456 219.993 268.378 220.098Z" fill="#FABD3C"/>
<path d="M268.921 173.646L270.34 173.022L270.239 173.118C270.264 173.526 269.707 173.55 269.428 173.646H268.921Z" fill="#FABD3C"/>
<path d="M263.779 174.678H265.273L265.172 174.726C264.716 175.158 264.083 174.966 263.931 174.87L263.779 174.678Z" fill="#FABD3C"/>
<path d="M126.827 226.086C125.636 227.19 124.293 228.486 124.673 229.11C126.193 229.926 129.031 224.838 126.827 226.086Z" fill="#FABD3C"/>
<path d="M120.341 274.014C120.595 272.958 120.949 271.926 121.279 270.918C121.127 272.022 121.127 273.126 120.975 274.206L120.341 274.014Z" fill="#FABD3C"/>
</g>
</g>
</g>
</g>
<path d="M899.314 254.094C897.414 244.854 883.557 222.894 874.893 218.334C866.229 213.774 838.919 209.526 833.878 205.206C821.845 194.862 815.055 174.006 831.345 173.286C846.545 172.71 859.211 159.822 859.743 154.566C860.275 149.31 865.114 136.326 833.878 112.326C842.643 131.526 844.594 144.174 838.945 156.39C833.295 168.606 795.093 172.278 802.059 183.822C805.226 189.078 802.667 214.206 807.278 218.43C820.603 230.67 848.267 237.846 848.166 242.958C848.065 248.07 841.225 271.062 831.598 271.398C821.971 271.734 814.954 265.446 813.865 260.262C813.495 258.602 813.476 256.889 813.809 255.222C814.142 253.555 814.82 251.967 815.805 250.55C816.79 249.133 818.061 247.915 819.546 246.966C821.03 246.017 822.698 245.357 824.454 245.022C816.55 234.318 792.838 241.398 790.862 247.206C788.886 253.014 790.457 276.894 800.995 285.342C811.534 293.79 823.213 291.078 836.943 292.35C850.674 293.622 857.21 302.358 869.193 296.358C881.175 290.358 901.898 266.718 899.314 254.094Z" fill="#61376B"/>
<g style="mix-blend-mode:multiply" opacity="0.48">
<g style="mix-blend-mode:multiply" opacity="0.48">
<path d="M899.313 254.095C897.413 244.855 883.556 222.895 874.892 218.335C874.335 218.047 873.727 217.759 873.043 217.471C873.528 219.648 874.562 221.682 876.058 223.399C878.16 225.799 880.795 227.887 882.923 230.335C885.481 233.505 887.301 237.152 888.266 241.035C889.231 244.919 889.318 248.953 888.521 252.871C886.84 260.708 883.004 267.985 877.4 273.967C872.562 279.439 865.874 284.455 858.35 283.927C862.389 278.589 865.112 272.461 866.318 265.993C867.524 259.526 867.181 252.884 865.316 246.559C862.987 253.36 859.94 259.921 856.222 266.143C852.459 272.38 846.8 277.398 839.983 280.543C827.975 285.655 812.876 281.767 804.086 272.479C800.539 268.498 797.9 263.866 796.334 258.872C794.769 253.878 794.312 248.632 794.991 243.463C793.322 244.24 791.975 245.524 791.166 247.111C789.164 252.919 790.76 276.799 801.299 285.247C811.838 293.695 823.516 290.983 837.247 292.255C850.978 293.527 857.514 302.263 869.496 296.263C881.479 290.263 901.897 266.719 899.313 254.095Z" fill="#84529C"/>
</g>
<g style="mix-blend-mode:multiply" opacity="0.48">
<path d="M807.353 218.334C813.332 223.83 822.198 228.294 830.153 232.038C826.961 229.638 823.82 227.046 820.83 224.382C816.591 221.156 813.395 216.864 811.609 211.998C809.962 205.878 812.521 199.302 811.051 193.158C810.443 190.494 809.101 188.046 808.316 185.406C807.823 184.124 807.631 182.756 807.753 181.396C807.876 180.037 808.31 178.719 809.025 177.534C811.204 174.534 815.536 174.006 819.158 172.854C824.189 171.239 828.476 168.026 831.293 163.758L831.647 163.11C818.981 170.31 796.637 174.654 802.109 183.726C805.301 188.982 802.742 214.11 807.353 218.334Z" fill="#84529C"/>
</g>
</g>
<path d="M130.878 438.726C132.576 430.566 144.964 411.222 152.69 407.142C160.417 403.062 178.252 397.734 182.736 393.918C193.502 384.774 199.608 369.51 185.117 368.958C171.513 368.454 166.801 355.446 166.294 350.79C165.788 346.134 161.912 328.542 189.348 313.398C181.52 330.366 179.772 341.55 184.737 352.326C189.702 363.102 223.928 366.366 217.67 376.566C214.833 381.198 217.138 403.422 213.009 407.142C205.029 414.342 191.248 419.646 183.09 423.678C179.088 425.646 179.442 434.142 179.468 435.678C179.468 440.19 182.685 453.678 191.298 453.99C199.912 454.302 206.169 448.71 207.03 444.126C207.355 442.654 207.367 441.135 207.066 439.658C206.766 438.18 206.158 436.774 205.279 435.522C204.4 434.269 203.266 433.194 201.945 432.36C200.623 431.526 199.14 430.949 197.581 430.662C204.624 421.206 225.802 427.47 227.576 432.606C229.349 437.742 227.93 458.838 218.532 466.206C209.133 473.574 198.696 471.294 186.434 472.422C174.173 473.55 168.346 481.254 157.605 475.95C146.864 470.646 128.573 449.862 130.878 438.726Z" fill="#61376B"/>
<g style="mix-blend-mode:multiply" opacity="0.48">
<g style="mix-blend-mode:multiply" opacity="0.48">
<path d="M130.879 438.726C132.576 430.566 144.964 411.222 152.691 407.142C153.197 406.878 153.755 406.638 154.363 406.374C153.927 408.303 152.996 410.1 151.652 411.606C149.777 413.79 147.421 415.566 145.547 417.75C143.246 420.528 141.602 423.743 140.728 427.176C139.854 430.609 139.769 434.179 140.48 437.646C141.982 444.588 145.41 451.025 150.411 456.294C154.743 461.094 160.721 465.534 167.435 465.078C163.83 460.382 161.396 454.972 160.317 449.256C159.237 443.541 159.54 437.667 161.203 432.078C163.28 438.087 166.005 443.878 169.335 449.358C172.704 454.9 177.752 459.357 183.825 462.15C189.315 464.177 195.325 464.574 201.058 463.288C206.791 462.002 211.976 459.094 215.923 454.95C219.104 451.447 221.479 447.354 222.897 442.932C224.314 438.511 224.743 433.858 224.156 429.27C225.637 429.95 226.833 431.083 227.551 432.486C229.349 437.622 227.905 458.718 218.507 466.086C209.108 473.454 198.671 471.174 186.409 472.302C174.148 473.43 168.321 481.134 157.58 475.83C146.839 470.526 128.573 449.862 130.879 438.726Z" fill="#84529C"/>
</g>
<g style="mix-blend-mode:multiply" opacity="0.48">
<path d="M213.035 407.118C206.887 412.034 200.017 416.076 192.642 419.118C195.504 416.958 198.291 414.726 200.976 412.374C204.749 409.529 207.602 405.737 209.21 401.43C210.679 396.03 208.399 390.222 209.691 384.774C210.248 382.374 211.464 380.238 212.224 377.934C212.666 376.802 212.838 375.59 212.728 374.387C212.619 373.184 212.231 372.019 211.591 370.974C209.666 368.334 205.79 367.854 202.522 366.846C198.048 365.423 194.229 362.584 191.704 358.806L191.4 358.23C202.623 364.686 222.662 368.43 217.772 376.446C214.859 381.126 217.164 403.398 213.035 407.118Z" fill="#84529C"/>
</g>
</g>
<path d="M124.672 790.303C125.231 787.584 124.959 784.769 123.887 782.191" stroke="#268E26" stroke-width="0.63" stroke-linecap="round" stroke-linejoin="round"/>
<path d="M123.076 790.878C123.076 790.878 122.214 784.614 118.541 783.942" stroke="white" stroke-width="0.63" stroke-linecap="round" stroke-linejoin="round"/>
<path d="M121.126 791.047C121.126 791.047 119.302 785.767 115.604 786.247" stroke="#0032D0" stroke-width="0.63" stroke-linecap="round" stroke-linejoin="round"/>
<path d="M127.28 791.311C127.28 791.311 126.672 784.663 130.32 782.719" stroke="#D30000" stroke-width="0.63" stroke-linecap="round" stroke-linejoin="round"/>
<path d="M128.927 787.999L119.072 790.231C119.452 791.743 128.8 827.479 162.139 844.951C184.027 856.399 210.83 857.167 241.812 847.231C334.304 817.567 448.026 841.855 449.166 842.095L451.446 832.759C446.708 831.703 333.823 807.607 238.646 838.135C210.5 847.159 186.484 846.631 167.206 836.575C137.718 821.215 129.028 788.335 128.927 787.999Z" fill="#2B232D"/>
<path d="M119.071 790.231C119.04 789.832 118.911 789.444 118.696 789.098C118.481 788.753 118.184 788.459 117.83 788.24C120.363 788.744 120.363 789.247 120.363 789.247L121.377 786.247L122.415 788.647C122.415 788.647 124.569 785.264 126.646 784.688C126.499 785.683 126.499 786.692 126.646 787.688L130.218 785.047C129.715 785.376 129.318 785.83 129.072 786.36C128.826 786.89 128.74 787.474 128.825 788.047C128.825 790.447 127.811 791.48 127.153 791.696C125.521 792.002 123.871 792.218 122.213 792.344C122.035 792.248 119.071 790.231 119.071 790.231Z" fill="#2B232D"/>
<g style="mix-blend-mode:multiply" opacity="0.5">
<path d="M244.471 844.734C213.489 854.67 186.686 853.902 164.798 842.334C138.071 828.342 126.798 802.59 123.125 792.15C122.745 791.046 122.441 790.134 122.238 789.414C122.035 788.694 121.782 787.806 121.731 787.638C121.705 787.253 121.574 786.88 121.351 786.558L120.465 789.15C120.465 789.15 120.465 789.006 120.059 788.814C119.359 788.479 118.606 788.252 117.83 788.142C118.179 788.366 118.472 788.662 118.686 789.006C118.901 789.35 119.032 789.735 119.071 790.134C119.477 791.646 128.825 827.382 162.138 844.854C184.026 856.302 210.829 857.07 241.811 847.134C334.303 817.494 448.05 841.758 449.19 842.022L449.899 839.118C434.573 836.166 330.351 817.182 244.471 844.734Z" fill="#140716"/>
</g>
<path d="M101.947 767.526C106.576 768.942 110.485 771.936 112.917 775.926" stroke="white" stroke-width="0.63" stroke-linecap="round" stroke-linejoin="round"/>
<path d="M115.123 761.791C115.123 761.791 115.123 771.079 117.834 775.087" stroke="white" stroke-width="0.63" stroke-linecap="round" stroke-linejoin="round"/>
<path d="M129.131 762.246C129.131 762.246 122.949 768.246 123.076 774.774" stroke="white" stroke-width="0.63" stroke-linecap="round" stroke-linejoin="round"/>
<path d="M764.59 846.727L764.463 837.127C831.698 836.359 879.831 818.479 896.576 788.047C906.456 770.071 904.176 748.639 890.192 729.271C857.436 683.671 778.726 723.847 777.966 724.255L773.101 715.855C776.648 714.007 860.704 671.215 898.578 723.871C914.69 746.263 917.223 771.271 905.57 792.487C894.676 812.359 861.895 845.719 764.59 846.727Z" fill="#2B232D"/>
<g style="mix-blend-mode:multiply" opacity="0.5">
<g style="mix-blend-mode:multiply" opacity="0.5">
<path d="M900.022 800.958C884.974 820.542 849.152 845.862 764.59 846.822L764.463 837.222H767.478V843.27C846.999 842.31 883.428 819.918 900.022 800.958Z" fill="#140716"/>
</g>
<g style="mix-blend-mode:multiply" opacity="0.5">
<path d="M777.965 724.326L773.076 715.902C773.482 715.71 774.85 715.014 777.028 714.006L780.904 720.726C781.715 720.318 860.4 680.214 893.131 725.742C907.09 745.11 909.395 766.542 899.515 784.518C897.405 788.354 894.856 791.96 891.915 795.27C893.663 792.983 895.23 790.576 896.602 788.07C906.507 770.094 904.202 748.662 890.243 729.294C857.436 683.838 778.751 723.942 777.965 724.326Z" fill="#140716"/>
</g>
</g>
<path d="M660.724 612.63C654.948 637.038 621.001 644.934 522.252 643.518C423.452 644.934 389.556 637.038 383.805 612.63C378.08 581.214 392.064 546.39 414.053 508.038C420.429 496.788 425.752 485.031 429.963 472.902C433.129 463.854 435.612 455.166 437.563 447.342C438.753 442.542 439.665 438.054 440.451 433.998C440.957 431.166 441.413 428.574 441.793 426.222C441.793 425.694 441.971 425.19 442.021 424.662C442.224 423.486 442.376 422.262 442.528 421.326C442.68 420.39 442.781 419.31 442.883 418.446C443.415 414.198 443.567 411.774 443.567 411.774L454.967 411.414L460.033 411.222L471.611 410.838L511.815 409.47C511.815 409.014 511.815 408.75 511.815 408.75L522.353 409.134L532.892 408.75C532.892 408.75 532.892 409.014 532.892 409.47L591.361 411.462L598.48 411.702H601.013C601.013 411.702 601.013 412.23 601.14 413.142C601.14 413.598 601.14 414.198 601.292 414.894C601.419 416.214 601.596 417.942 601.849 420.054C601.849 420.894 602.052 421.806 602.179 422.79C602.533 425.718 602.989 429.15 603.572 433.014C603.775 434.286 603.977 435.63 604.205 436.998C604.661 439.862 605.193 442.91 605.801 446.142C607.22 453.846 609.044 462.534 611.349 471.846C611.349 472.134 611.527 472.47 611.603 472.782C612.025 474.51 612.481 476.262 612.971 478.038C615.504 487.638 618.569 497.646 622.217 507.918C635.213 544.326 666.272 582.486 660.724 612.63Z" fill="#61376B"/>
<path d="M378.131 289.255C373.774 278.935 372.482 267.127 370.531 249.007C367.669 222.223 366.275 200.023 364.983 186.343C363.311 168.751 373.495 172.207 380.766 175.015C393.787 180.055 412.204 191.815 421.578 198.271C436.17 208.231 459.071 236.503 458.463 249.607C443.972 266.887 417.828 284.575 378.131 289.255Z" fill="#61376B"/>
<g style="mix-blend-mode:multiply" opacity="0.5">
<path d="M458.464 249.607C457.754 250.455 457.02 251.295 456.26 252.127C451.421 237.727 433.004 216.127 420.59 207.583C411.242 201.175 392.724 189.367 379.778 184.327C374.433 182.263 367.593 179.839 364.933 185.599C363.59 168.799 373.572 172.231 380.766 175.015C393.788 180.055 412.205 191.815 421.578 198.271C436.17 208.327 459.046 236.527 458.464 249.607Z" fill="#61376B"/>
</g>
<path d="M390.672 287.263C387.48 279.319 388.595 268.951 386.796 255.151C384.136 234.703 382.565 217.807 381.324 207.367C379.728 193.951 386.568 196.831 391.457 199.159C400.223 203.335 412.763 212.791 419.147 217.879C429.103 225.823 449.141 249.295 449.116 259.231C440.021 271.999 416.816 284.719 390.672 287.263Z" fill="#A62E3A"/>
<g style="mix-blend-mode:multiply" opacity="0.35">
<path d="M448.939 257.551C442.544 248.285 434.953 239.812 426.341 232.327C419.957 227.239 407.417 217.784 398.652 213.632C393.763 211.232 386.923 208.399 388.519 221.815C389.76 232.255 391.305 249.175 393.991 269.599C394.827 276.031 395.029 281.599 395.333 286.735C393.788 286.975 392.217 287.167 390.672 287.311C387.48 279.367 388.595 268.999 386.796 255.175C384.136 234.752 382.565 217.855 381.324 207.415C379.728 194 386.568 196.88 391.457 199.208C400.248 203.36 412.763 212.84 419.172 217.928C428.571 225.416 447.039 246.847 448.939 257.551Z" fill="#A62E3A"/>
</g>
<path d="M597.748 232.735C603.372 254.335 673.089 292.735 682.843 284.719C689.911 278.983 690.797 244.567 691.051 235.807C691.836 208.951 688.213 190.207 690.747 180.127C693.28 170.047 685.021 160.351 667.009 170.887C648.997 181.423 617.457 204.031 597.748 232.735Z" fill="#3D243E"/>
<path d="M597.748 232.735C603.372 254.335 673.089 292.735 682.843 284.719C689.911 278.983 690.797 244.567 691.051 235.807C691.836 208.951 688.213 190.207 690.747 180.127C693.28 170.047 685.021 160.351 667.009 170.887C648.997 181.423 617.457 204.031 597.748 232.735Z" fill="#3D243E"/>
<path d="M597.748 232.735C603.372 254.335 673.089 292.735 682.843 284.719C689.911 278.983 690.797 244.567 691.051 235.807C691.836 208.951 688.213 190.207 690.747 180.127C693.28 170.047 685.021 160.351 667.009 170.887C648.997 181.423 617.457 204.031 597.748 232.735Z" fill="#61376B"/>
<g style="mix-blend-mode:multiply" opacity="0.5">
<path d="M682.841 284.717C681.356 285.669 679.537 286.031 677.774 285.725C682.233 274.445 682.841 248.789 683.094 241.397C683.879 214.541 680.282 195.797 682.79 185.741C685.298 175.685 677.065 165.941 659.053 176.477C654.999 178.877 650.287 181.829 645.17 185.333C652.126 180.164 659.373 175.357 666.881 170.933C684.893 160.397 693.126 170.093 690.618 180.173C688.11 190.253 691.707 208.973 690.922 235.853C690.795 244.565 689.909 278.981 682.841 284.717Z" fill="#61376B"/>
</g>
<path d="M605.195 244.471C608.539 257.311 654.443 285.391 660.27 280.663C664.475 277.231 672.937 249.031 674.887 229.303C676.534 213.367 673.19 202.135 674.71 196.135C676.23 190.135 671.29 184.351 660.549 190.615C649.807 196.879 616.925 227.359 605.195 244.471Z" fill="#A62E3A"/>
<g style="mix-blend-mode:multiply" opacity="0.35">
<path d="M674.887 229.302C672.835 249.054 664.475 277.302 660.27 280.662C659.876 280.954 659.4 281.13 658.902 281.166C663.093 268.479 666.011 255.445 667.617 242.238C669.263 226.302 665.919 215.07 667.414 209.046C668.909 203.022 664.019 197.262 653.278 203.55C644.538 208.662 620.953 229.95 606.209 246.894C605.785 246.129 605.446 245.325 605.195 244.494C616.925 227.382 649.833 196.926 660.574 190.638C671.315 184.35 676.205 190.134 674.71 196.158C673.215 202.182 676.559 213.366 674.887 229.302Z" fill="#A62E3A"/>
</g>
<path d="M705.083 346.47C705.744 362.514 701.19 378.364 692.036 391.878C686.391 400.225 679.476 407.738 671.516 414.174C669.946 415.446 668.375 416.694 666.728 417.894C665.082 419.094 663.46 420.294 661.662 421.422C660.395 422.262 659.128 423.126 657.786 423.822C656.443 424.518 655.252 425.454 653.808 426.222C649.654 428.67 645.372 430.926 640.964 432.99L640.23 433.302L638.684 433.926L637.595 434.31L636.582 434.646C635.534 434.982 634.394 435.318 633.162 435.654L630.628 436.302L628.551 436.806L627.183 437.118L623.256 437.934L618.19 438.87C615.935 439.302 613.579 439.686 611.122 440.07L608.867 440.406L604.839 440.982H604.535H604.256L600.735 441.462L596.428 442.014H595.896H595.719L589.234 442.758L585.408 443.19L581.71 443.55L578.822 443.838L573.147 444.366L568.207 444.774L565.674 444.966L558.074 445.518L553.007 445.854L546.065 446.262L542.924 446.43L540.163 446.55L535.578 446.742L531.854 446.886L527.293 447.006H524.076H520.124C499.806 447.648 479.467 446.66 459.324 444.054L456.791 443.67L454.435 443.358L448.355 442.614H448.152L447.24 442.494L443.288 442.062L439.108 441.582L435.055 441.102L431.458 440.622H431.002C429.659 440.43 428.316 440.238 426.974 439.998C425.631 439.758 424.288 439.566 422.946 439.302L419.095 438.486H418.841C417.727 438.222 416.612 437.958 415.498 437.646L415.016 437.526C406.833 435.305 399.046 431.94 391.912 427.542C390.747 426.822 389.582 426.078 388.467 425.31C387.352 424.542 386.288 423.75 385.224 422.91C383.958 421.998 382.691 421.014 381.526 419.982L380.841 419.382C376.055 415.297 371.71 410.771 367.871 405.87C365.51 402.853 363.601 399.541 362.196 396.03C356.015 380.982 357.738 362.43 359.511 347.214C360.347 339.894 361.512 332.67 362.652 325.398C364.764 311.337 369.554 297.757 376.788 285.318C379.983 279.867 383.751 274.737 388.036 270.006C389.727 268.112 391.52 266.301 393.407 264.582C398.011 260.259 403.109 256.435 408.607 253.182C417.109 248.354 426.024 244.212 435.258 240.798L439.007 239.382C441.844 238.326 444.758 237.318 447.722 236.358C449.571 235.758 451.471 235.158 453.396 234.606C468.429 230.16 483.838 226.948 499.452 225.006V225.006C513.561 223.249 527.783 222.447 542.012 222.606C548.852 222.606 555.718 222.798 562.558 223.086C575.679 223.501 588.748 224.873 601.647 227.19V227.19C606.587 228.133 611.474 229.311 616.29 230.718C617.607 231.078 618.823 231.486 620.216 231.894C633.505 236.062 645.84 242.577 656.569 251.094C659.39 253.366 662.134 255.822 664.803 258.462C665.588 259.23 666.348 260.022 667.108 260.862C667.108 260.862 667.108 260.862 667.235 260.982C667.362 261.102 667.767 261.558 668.02 261.87C668.274 262.182 668.679 262.566 668.983 262.926C669.794 263.79 670.554 264.678 671.339 265.614C672.175 266.598 672.986 267.582 673.872 268.638L675.139 270.294L675.544 270.822C676.051 271.494 676.507 272.19 677.014 272.886C677.52 273.582 677.976 274.23 678.432 274.926C678.888 275.622 678.99 275.718 679.243 276.126L679.952 277.158L680.712 278.406C681.32 279.366 681.928 280.302 682.511 281.286L683.752 283.398C686.083 287.382 688.186 291.27 690.111 295.062C691.606 298.038 692.974 300.966 694.215 303.822C694.848 305.262 695.431 306.678 696.014 308.094C696.596 309.51 697.128 310.902 697.635 312.27C698.142 313.638 698.623 315.054 699.079 316.398C699.535 317.742 700.143 319.758 700.624 321.414C701.106 323.07 701.562 324.702 701.942 326.334C702.727 329.55 703.335 332.718 703.816 335.79C703.816 336.462 704.019 337.11 704.095 337.806C704.095 338.454 704.272 339.15 704.323 339.822V340.374V340.95C704.323 341.238 704.323 341.502 704.323 341.766V342.606C704.779 343.934 705.032 345.222 705.083 346.47Z" fill="#61376B"/>
<path d="M497.985 338.863L497.275 331.663C497.047 327.847 494.387 327.439 492.943 331.375L492.513 333.151C491.499 338.407 489.523 339.847 483.722 338.839L377.322 323.935C372.838 323.047 372.838 330.847 376.207 331.135L489.979 346.063C494.438 346.783 498.01 344.503 497.985 338.863Z" fill="#1D111E"/>
<path d="M493.524 346.639C488.761 422.046 369.137 410.646 378.181 331.519L493.524 346.639Z" fill="#FABD3C"/>
<g style="mix-blend-mode:multiply" opacity="0.9">
<path d="M493.094 351.031C484.176 420.439 372.836 409.447 377.827 335.095C382.362 397.423 476.171 406.999 493.094 351.031Z" fill="#FABD3C"/>
</g>
<path d="M477.288 343.975C473.868 398.287 387.71 390.079 394.22 333.103L477.288 343.975Z" fill="#1D111E"/>
<path d="M408.887 347.358C393.687 352.542 387.227 363.006 393.864 364.494C400.501 365.982 411.116 355.062 413.472 352.926C418.26 348.582 416.968 344.622 408.887 347.358Z" fill="white"/>
<path d="M412.786 362.814C402.323 366.342 397.966 373.518 402.526 374.502C407.086 375.486 414.306 368.07 415.927 366.606C419.195 363.63 418.308 360.942 412.786 362.814Z" fill="white"/>
<path d="M667.641 330.51L553.919 345.414C546.775 346.278 544.039 344.094 544.419 336.822C544.419 335.358 544.977 330.942 544.977 330.942C545.255 326.55 548.701 328.398 549.258 330.654C550.297 338.55 555.389 338.718 560.607 337.998L667.007 323.118C672.733 322.422 673.062 329.958 667.641 330.51Z" fill="#1D111E"/>
<path d="M548.955 346.086C553.718 421.47 673.342 410.07 664.298 330.966L548.955 346.086Z" fill="#FABD3C"/>
<g style="mix-blend-mode:multiply" opacity="0.9">
<path d="M550.297 355.926C570.209 408.102 661.13 397.23 664.677 335.454C668.578 406.95 564.154 418.974 550.297 355.926Z" fill="#FABD3C"/>
</g>
<path d="M565.141 343.422C568.586 397.71 654.745 389.502 648.234 332.526L565.141 343.422Z" fill="#1D111E"/>
<path d="M633.569 346.806C648.895 351.99 655.229 362.454 648.591 363.918C641.954 365.382 631.339 354.486 628.983 352.35C624.195 348.006 625.487 344.046 633.569 346.806Z" fill="white"/>
<path d="M629.667 362.239C640.13 365.791 644.462 372.943 639.927 373.951C635.392 374.959 628.147 367.495 626.526 366.031C623.258 363.079 624.119 360.367 629.667 362.239Z" fill="white"/>
<path d="M532.36 366.222C530.992 363.03 509.788 363.03 507.61 367.062C505.912 370.206 514.652 381.27 519.972 381.246C524.076 381.126 534.184 370.422 532.36 366.222Z" fill="#A62E3A"/>
<g style="mix-blend-mode:multiply" opacity="0.28">
<path d="M520 381.247C515.769 381.247 509.41 374.335 507.789 369.895C510.474 373.351 514.35 376.591 517.238 376.567C520.532 376.567 527.676 369.607 529.449 364.687C531.02 365.071 531.982 365.575 532.362 366.223C534.186 370.423 524.078 381.127 520 381.247Z" fill="#A62E3A"/>
</g>
<g style="mix-blend-mode:multiply" opacity="0.5">
<path d="M593.518 425.982H593.796C595.646 426.342 597.799 426.702 600.155 427.062L604.816 427.758L613.683 429.054L620.27 430.11C626.565 431.067 632.791 432.389 638.915 434.07V434.07C641.08 434.677 643.197 435.431 645.248 436.326C650.467 438.726 655.787 441.702 661.588 441.366C664.679 441.198 667.719 440.046 670.784 440.454C674.888 440.982 678.232 444.174 682.362 444.582C685.63 444.87 688.847 443.358 692.115 443.598C694.349 444.007 696.556 444.536 698.727 445.182C702.831 445.926 708.075 445.014 710.279 448.35C711.14 449.622 711.267 451.23 712.077 452.526C712.823 453.618 713.876 454.491 715.118 455.046C721.122 458.094 728.418 457.278 735.156 456.39C737.006 456.15 739.184 455.67 739.919 453.99C740.158 453.194 740.078 452.342 739.695 451.598C739.311 450.853 738.651 450.27 737.842 449.958C736.181 449.415 734.362 449.51 732.775 450.222M760.819 390.342C757.728 389.862 754.106 387.798 754.714 384.894C754.966 384.079 755.47 383.353 756.16 382.81C756.851 382.267 757.697 381.931 758.59 381.846C760.38 381.735 762.174 382.014 763.834 382.662C767.988 384.006 772.675 386.886 772.219 391.038C772.025 392.158 771.541 393.215 770.812 394.115C770.083 395.015 769.13 395.731 768.039 396.198C765.848 397.118 763.511 397.686 761.123 397.878C755.119 398.694 748.228 399.246 743.82 395.31C742.718 393.977 741.36 392.854 739.818 391.998C736.398 390.726 733.079 393.942 730.875 396.798C728.671 399.654 725.124 402.702 721.805 401.142C719.551 400.086 718.867 397.398 717.322 395.526C716.132 394.139 714.472 393.187 712.623 392.832C710.774 392.478 708.853 392.743 707.188 393.582C705.896 394.278 704.832 395.286 703.515 395.982C702.887 396.355 702.155 396.541 701.414 396.516C700.673 396.49 699.958 396.254 699.36 395.838C698.883 395.305 698.467 394.726 698.119 394.11C697.414 393.306 696.504 392.686 695.476 392.308C694.447 391.93 693.334 391.807 692.242 391.95H692.064C689.954 392.274 687.894 392.847 685.934 393.654C681.566 395.062 677.059 396.043 672.482 396.582C668.834 397.038 665.135 397.326 661.436 397.59C658.548 397.83 655.66 398.022 652.823 398.31C631.568 400.35 617.838 408.15 596.912 404.19L760.819 390.342ZM755.828 427.926C758.46 428.182 761.111 427.672 763.428 426.462C764.525 425.823 765.324 424.813 765.663 423.636C766.002 422.459 765.855 421.204 765.252 420.126C764.306 419.093 763.022 418.392 761.604 418.134C754.316 416.185 746.526 416.842 739.716 419.982C737.297 421.467 734.565 422.434 731.711 422.814C727.784 422.814 724.364 419.982 720.438 419.814C716.511 419.646 713.623 421.758 710.304 422.886C707.343 423.854 704.175 424.115 701.082 423.646C697.989 423.177 695.066 421.993 692.571 420.198C690.95 418.998 689.202 417.462 687.175 417.798C686.452 417.965 685.771 418.267 685.174 418.686C681.779 420.894 678.739 424.086 674.66 424.566C671.678 424.656 668.719 424.046 666.047 422.79C664.78 422.334 663.514 421.878 661.968 421.47C659.435 420.726 656.471 420.03 653.355 419.406C650.822 418.878 648.086 418.398 645.274 417.966C629.371 415.47 613.255 414.401 597.14 414.774L755.828 427.926Z" stroke="#1D111E" stroke-width="0.68" stroke-linecap="round" stroke-linejoin="round"/>
</g>
<g style="mix-blend-mode:screen" opacity="0.65">
<path d="M522 365.526C517.799 364.553 513.361 365.2 509.663 367.326C509.03 367.734 509.232 368.958 510.094 368.982C511.967 368.845 513.819 368.515 515.616 367.998C517.629 367.695 519.66 367.511 521.696 367.446C522.684 367.374 523.014 365.814 522 365.526Z" fill="#A62E3A"/>
</g>
<path style="mix-blend-mode:color-dodge" d="M430.8 434.718C454.375 434.718 473.487 422.297 473.487 406.974C473.487 391.652 454.375 379.23 430.8 379.23C407.225 379.23 388.113 391.652 388.113 406.974C388.113 422.297 407.225 434.718 430.8 434.718Z" fill="url(#paint0_radial)"/>
<path style="mix-blend-mode:color-dodge" d="M619.382 430.087C642.957 430.087 662.069 417.665 662.069 402.343C662.069 387.02 642.957 374.599 619.382 374.599C595.807 374.599 576.695 387.02 576.695 402.343C576.695 417.665 595.807 430.087 619.382 430.087Z" fill="url(#paint1_radial)"/>
<g style="mix-blend-mode:screen" opacity="0.43">
<path d="M487.419 333.558C477.438 333.558 467.33 330.582 457.602 328.614C448.254 326.718 438.804 324.39 429.304 323.262C427.987 323.118 427.81 325.062 429 325.398C438.982 328.326 449.52 329.958 459.73 332.022L474.398 334.999C478.679 335.863 483.442 337.398 487.774 336.078C488.073 335.982 488.328 335.789 488.495 335.535C488.662 335.28 488.73 334.978 488.688 334.681C488.646 334.383 488.497 334.109 488.265 333.904C488.034 333.7 487.735 333.578 487.419 333.558V333.558Z" fill="#3D243E"/>
</g>
<g style="mix-blend-mode:screen" opacity="0.43">
<path d="M665.614 318.727C647.298 319.231 628.88 322.831 610.792 325.279L582.926 329.047C577.859 329.743 553.336 335.191 553.539 326.647C553.539 325.207 551.006 324.799 550.803 326.311C549.511 334.687 561.088 334.303 566.788 333.895C577.504 333.127 588.17 331.231 598.784 329.791C620.976 326.767 643.219 323.023 665.588 321.535C667.514 321.439 667.564 318.727 665.614 318.727Z" fill="#3D243E"/>
</g>
<path d="M492.941 232.494C500.972 221.622 521.112 205.95 526.609 210.03C528.104 211.35 521.061 217.422 520.099 221.814C527.699 216.75 544.799 205.014 544.621 209.958C544.799 212.358 541.125 217.038 539.377 220.59C543.38 217.038 562.177 206.622 562.937 211.734C563.621 216.878 563.216 222.099 561.747 227.094L520.605 231.894L492.941 232.494Z" fill="#61376B"/>
<g style="mix-blend-mode:multiply" opacity="0.5">
<path d="M705.083 346.471C705.744 362.516 701.19 378.366 692.036 391.879C686.391 400.227 679.476 407.739 671.516 414.175C669.946 415.447 668.375 416.695 666.728 417.895C665.082 419.095 663.435 420.295 661.662 421.399C660.395 422.263 659.128 423.103 657.811 423.943C656.494 424.783 655.278 425.575 653.834 426.343C649.679 428.775 645.398 431.023 640.99 433.087L640.255 433.423L638.71 434.047L637.62 434.431L636.607 434.767C635.56 435.103 634.42 435.439 633.187 435.775L630.654 436.423L628.576 436.927L627.208 437.239L623.282 438.055L618.215 438.991C615.276 439.519 612.16 440.023 608.867 440.527L604.839 441.103H604.535H604.18L600.659 441.583L596.352 442.135H595.82H595.643L589.158 442.879L585.332 443.311L581.634 443.671L578.746 443.959L573.071 444.487L568.131 444.895L565.598 445.087L557.998 445.639L552.931 445.975L545.99 446.383L542.848 446.551L540.087 446.671L535.502 446.863L531.778 447.007L527.218 447.127H524H520.048C499.73 447.769 479.391 446.782 459.248 444.175L454.41 443.479L448.33 442.735H448.127L443.263 442.183L439.083 441.703L435.03 441.223L431.432 440.743H430.976C429.634 440.551 428.291 440.359 426.948 440.119C425.606 439.879 424.263 439.687 422.92 439.423L419.07 438.607H418.816C417.702 438.343 416.587 438.079 415.472 437.767L414.991 437.647C406.808 435.427 399.021 432.062 391.887 427.663C390.722 426.943 389.556 426.199 388.442 425.431C387.327 424.663 386.187 423.871 385.098 423.031C391.777 425.995 398.825 428.148 406.074 429.439V429.439C412.28 430.783 419.475 432.031 427.43 433.159C429.963 433.543 432.75 433.903 435.536 434.263C439.691 434.791 443.998 435.271 448.456 435.727H449.394C452.915 436.063 456.538 436.399 460.211 436.687C501.555 440.047 552.095 440.071 594.047 432.727L596.023 432.367C599.798 431.695 603.471 430.951 607.068 430.135C608.386 429.847 609.602 429.559 610.97 429.223L613.199 428.671C624.124 426.078 634.71 422.343 644.764 417.535C650.594 414.743 656.047 411.294 661.003 407.263V407.263C665.066 403.886 668.797 400.167 672.15 396.151C701.764 360.559 690.339 312.151 680.231 285.271C679.75 284.023 679.268 282.871 678.812 281.671C676.592 276.058 674.055 270.562 671.212 265.207C672.048 266.191 672.859 267.175 673.746 268.231L675.012 269.887L675.418 270.415C675.924 271.087 676.38 271.783 676.887 272.479C677.394 273.175 677.85 273.823 678.306 274.519C678.762 275.215 678.863 275.311 679.116 275.719L679.826 276.751L680.586 277.999C681.194 278.959 681.802 279.895 682.384 280.879L683.626 282.991C685.956 286.975 688.059 290.863 689.984 294.655C691.479 297.631 692.847 300.559 694.088 303.415C694.722 304.855 695.304 306.271 695.887 307.687C696.47 309.103 697.002 310.495 697.508 311.863C698.015 313.231 698.496 314.647 698.927 315.991C699.358 317.335 700.016 319.351 700.498 321.007C700.979 322.663 701.435 324.295 701.815 325.927C702.6 329.143 703.208 332.311 703.69 335.383C703.69 336.055 703.892 336.703 703.968 337.399C703.968 338.047 704.146 338.743 704.196 339.415V339.967C704.209 340.159 704.209 340.351 704.196 340.543V341.359V342.199C704.737 343.799 705.032 345.223 705.083 346.471Z" fill="#61376B"/>
</g>
<g style="mix-blend-mode:multiply" opacity="0.5">
<path d="M331.797 450.295C330.21 449.583 328.391 449.488 326.73 450.031C325.917 450.338 325.253 450.921 324.869 451.667C324.485 452.412 324.408 453.267 324.653 454.063C325.362 455.719 327.541 456.199 329.416 456.463C336.154 457.351 343.45 458.167 349.429 455.119C350.683 454.572 351.746 453.698 352.494 452.599C353.305 451.303 353.432 449.695 354.268 448.423C356.497 445.087 361.868 446.023 365.82 445.255C368 444.612 370.215 444.083 372.457 443.671C375.725 443.431 378.942 444.943 382.21 444.655C386.34 444.247 389.684 441.055 393.788 440.527C396.853 440.119 399.893 441.271 402.984 441.439C407.44 441.368 411.803 440.211 415.65 438.079L419.222 436.399C420.866 435.663 422.558 435.029 424.289 434.503C425.378 434.167 426.493 433.831 427.684 433.519C435.249 431.685 442.91 430.227 450.636 429.151L455.702 428.383L458.793 427.927C463.429 427.279 467.609 426.631 470.902 426.007M467.381 404.119C446.43 408.079 432.7 400.279 411.47 398.239C404.757 397.591 397.968 397.327 391.204 396.439C386.799 395.898 382.462 394.941 378.258 393.583C376.239 392.739 374.109 392.158 371.925 391.855C370.836 391.712 369.726 391.835 368.702 392.213C367.678 392.591 366.772 393.212 366.073 394.015C365.725 394.631 365.308 395.21 364.832 395.743C364.453 396.041 364.006 396.251 363.526 396.355C363.047 396.459 362.548 396.455 362.07 396.343C361.574 396.268 361.094 396.113 360.652 395.887C359.36 395.215 358.27 394.207 357.004 393.487C355.336 392.657 353.418 392.397 351.572 392.751C349.726 393.105 348.065 394.052 346.87 395.431C345.35 397.303 344.641 399.991 342.386 401.047C339.093 402.607 335.546 399.511 333.342 396.703C331.138 393.895 327.82 390.703 324.374 391.903C322.728 392.527 321.689 394.063 320.372 395.215C315.989 399.151 309.073 398.599 303.094 397.783C300.706 397.594 298.368 397.026 296.178 396.103C295.087 395.632 294.134 394.916 293.401 394.017C292.668 393.117 292.178 392.062 291.973 390.943C291.542 386.791 296.204 383.911 300.384 382.567C302.042 381.917 303.837 381.638 305.628 381.751C306.517 381.838 307.359 382.174 308.045 382.717C308.731 383.26 309.23 383.985 309.478 384.799C310.112 387.703 306.489 389.767 303.398 390.247L467.381 404.119ZM467.381 414.727C449.901 413.911 414.738 416.767 398.424 422.767L396.498 423.487C394.396 424.331 392.113 424.692 389.836 424.543C386.39 424.135 383.68 421.783 380.842 419.743C380.336 419.383 379.829 419.023 379.297 418.687C378.702 418.263 378.021 417.961 377.296 417.799C375.294 417.439 373.521 418.975 371.9 420.199C369.407 421.998 366.483 423.184 363.389 423.653C360.295 424.122 357.127 423.859 354.166 422.887C350.772 421.759 347.554 419.647 344.033 419.815C340.512 419.983 336.686 422.863 332.734 422.815C329.888 422.435 327.164 421.469 324.754 419.983C317.944 416.846 310.155 416.188 302.866 418.135C301.446 418.386 300.159 419.088 299.218 420.127C298.613 421.202 298.463 422.455 298.797 423.632C299.131 424.808 299.924 425.821 301.017 426.463C303.337 427.665 305.986 428.176 308.617 427.927L467.381 414.727Z" stroke="#1D111E" stroke-width="0.68" stroke-linecap="round" stroke-linejoin="round"/>
</g>
<g style="mix-blend-mode:multiply" opacity="0.5">
<path d="M604.18 441.126C601.721 438.175 599.091 435.354 596.302 432.678C595.567 431.958 594.807 431.262 594.047 430.566C591.013 427.773 587.807 425.153 584.446 422.718C572.6 413.685 558.739 407.324 543.913 404.118C543.533 405.654 542.975 406.854 542.19 407.094C540.518 407.574 538.035 405.198 536.085 402.942C526.72 401.955 517.241 402.771 508.218 405.342C507.002 407.142 505.685 408.606 504.367 408.486C503.785 408.486 503.253 407.886 502.746 407.118C500.197 408.074 497.702 409.156 495.273 410.358C489.739 413.072 484.496 416.287 479.617 419.958C478.603 420.702 477.615 421.47 476.627 422.358C468.565 429.027 461.03 436.247 454.081 443.958C447.139 451.422 440.021 458.862 433.814 466.878C433.724 466.973 433.647 467.077 433.586 467.19C434.65 462.87 440.375 447.342 441.186 443.694C441.186 443.694 443.719 442.806 443.719 442.782C442.098 442.614 445.341 442.974 443.719 442.782C445.442 440.574 447.215 438.414 449.065 436.254L450.205 434.934C451.497 433.47 452.738 432.03 454.157 430.59L456.107 428.55C457.982 426.654 459.882 424.782 461.858 422.982C465.253 419.807 468.821 416.803 472.549 413.982L473.917 412.926C481.405 407.299 489.684 402.687 498.515 399.222C495.247 396.51 495.45 394.422 495.45 394.422L548.878 392.022C548.95 393.399 548.626 394.767 547.941 395.982C558.41 398.358 568.432 402.244 577.657 407.502C587.719 413.13 596.902 420.061 604.941 428.094C605.245 428.358 605.523 428.646 605.802 428.934C606.081 429.222 607.069 430.206 607.677 430.854C610.007 433.254 612.211 435.846 614.238 438.414C618.498 437.024 623.073 436.743 627.487 437.598L623.56 438.414L618.494 439.35C616.239 439.782 613.883 440.166 611.401 440.55L609.146 440.886L605.118 441.462H604.814L604.18 441.126Z" fill="#61376B"/>
</g>
<path d="M819.261 881.286H229.4C220.209 881.286 211.394 877.827 204.895 871.67C198.395 865.513 194.744 857.162 194.744 848.454H853.917C853.917 857.162 850.266 865.513 843.767 871.67C837.268 877.827 828.453 881.286 819.261 881.286V881.286Z" fill="#5E2600"/>
<path d="M834.766 525.127V813.991C834.766 826.441 829.545 838.382 820.252 847.185C810.959 855.989 798.356 860.935 785.214 860.935H263.347C256.843 860.935 250.403 859.721 244.394 857.363C238.385 855.005 232.925 851.549 228.326 847.192C223.727 842.836 220.079 837.663 217.59 831.971C215.101 826.278 213.82 820.177 213.82 814.015V525.127C213.82 518.965 215.101 512.864 217.59 507.171C220.079 501.479 223.727 496.306 228.326 491.95C232.925 487.593 238.385 484.136 244.394 481.779C250.403 479.421 256.843 478.207 263.347 478.207H785.214C791.72 478.204 798.163 479.415 804.175 481.772C810.186 484.128 815.649 487.584 820.251 491.941C824.852 496.298 828.503 501.472 830.993 507.166C833.484 512.86 834.766 518.963 834.766 525.127V525.127Z" fill="#5E2600"/>
<path d="M780.247 490.639H268.413C249.483 490.639 234.137 505.177 234.137 523.111V815.983C234.137 833.916 249.483 848.455 268.413 848.455H780.247C799.178 848.455 814.523 833.916 814.523 815.983V523.111C814.523 505.177 799.178 490.639 780.247 490.639Z" fill="#FFC33B"/>
<g style="mix-blend-mode:multiply">
<path d="M814.523 513.343V815.983C814.506 821.021 813.255 825.986 810.868 830.488C808.481 834.991 805.023 838.906 800.767 841.927C805.172 836.389 807.587 829.66 807.658 822.727V519.967C807.661 516.984 807.044 514.031 805.84 511.275C804.637 508.519 802.872 506.014 800.646 503.905C798.42 501.797 795.777 500.124 792.868 498.984C789.958 497.845 786.841 497.26 783.692 497.263H261.42C254.036 497.257 246.847 499.514 240.926 503.695C244.119 499.642 248.267 496.352 253.038 494.085C257.81 491.819 263.075 490.639 268.412 490.639H790.558C793.706 490.636 796.824 491.221 799.733 492.36C802.642 493.5 805.285 495.173 807.511 497.281C809.737 499.39 811.502 501.895 812.706 504.651C813.909 507.407 814.526 510.36 814.523 513.343V513.343Z" fill="#FFD47D"/>
</g>
<g style="mix-blend-mode:multiply" opacity="0.78">
<g style="mix-blend-mode:multiply" opacity="0.78">
<path d="M841.225 848.454C788.701 849.846 736.185 850.782 683.677 851.262C657.432 851.598 631.161 851.646 604.916 851.862L526.155 852.03L447.368 851.838C421.123 851.646 394.852 851.574 368.607 851.238C316.082 850.758 263.566 849.83 211.059 848.454H841.225Z" fill="#E17022"/>
</g>
</g>
<g style="mix-blend-mode:multiply" opacity="0.2">
<g style="mix-blend-mode:multiply" opacity="0.2">
<path d="M722.208 526.135H318.192C312.817 526.135 307.662 528.158 303.862 531.758C300.061 535.359 297.926 540.243 297.926 545.335V801.631C297.926 806.723 300.061 811.606 303.862 815.207C307.662 818.808 312.817 820.831 318.192 820.831H722.208C727.583 820.831 732.738 818.808 736.539 815.207C740.34 811.606 742.475 806.723 742.475 801.631V545.287C742.462 540.203 740.321 535.332 736.521 531.741C732.722 528.151 727.575 526.135 722.208 526.135V526.135Z" fill="#E4640A"/>
</g>
<g style="mix-blend-mode:multiply" opacity="0.2">
<path d="M325.539 554.431C328.421 554.431 330.758 552.217 330.758 549.487C330.758 546.756 328.421 544.543 325.539 544.543C322.657 544.543 320.32 546.756 320.32 549.487C320.32 552.217 322.657 554.431 325.539 554.431Z" fill="black"/>
</g>
<g style="mix-blend-mode:multiply" opacity="0.2">
<path d="M350.189 554.431C353.072 554.431 355.408 552.217 355.408 549.487C355.408 546.756 353.072 544.543 350.189 544.543C347.307 544.543 344.971 546.756 344.971 549.487C344.971 552.217 347.307 554.431 350.189 554.431Z" fill="black"/>
</g>
<g style="mix-blend-mode:multiply" opacity="0.2">
<path d="M374.863 554.431C377.745 554.431 380.082 552.217 380.082 549.487C380.082 546.756 377.745 544.543 374.863 544.543C371.981 544.543 369.645 546.756 369.645 549.487C369.645 552.217 371.981 554.431 374.863 554.431Z" fill="black"/>
</g>
</g>
<path d="M750.659 537.462V793.926C750.659 799.018 748.524 803.901 744.723 807.502C740.922 811.103 735.767 813.126 730.392 813.126H326.452C321.077 813.126 315.922 811.103 312.122 807.502C308.321 803.901 306.186 799.018 306.186 793.926V537.462C306.186 532.37 308.321 527.486 312.122 523.885C315.922 520.285 321.077 518.262 326.452 518.262H730.468C735.83 518.281 740.965 520.312 744.75 523.911C748.534 527.509 750.659 532.382 750.659 537.462Z" fill="white"/>
<path d="M750.659 537.462V565.038H306.236V537.462C306.236 532.37 308.372 527.486 312.172 523.885C315.973 520.285 321.128 518.262 326.503 518.262H730.468C735.83 518.281 740.966 520.312 744.75 523.911C748.534 527.509 750.659 532.382 750.659 537.462Z" fill="#E4640A"/>
<path d="M333.799 546.607C336.681 546.607 339.017 544.393 339.017 541.663C339.017 538.932 336.681 536.719 333.799 536.719C330.917 536.719 328.58 538.932 328.58 541.663C328.58 544.393 330.917 546.607 333.799 546.607Z" fill="white"/>
<path d="M358.447 546.607C361.329 546.607 363.666 544.393 363.666 541.663C363.666 538.932 361.329 536.719 358.447 536.719C355.565 536.719 353.229 538.932 353.229 541.663C353.229 544.393 355.565 546.607 358.447 546.607Z" fill="white"/>
<path d="M383.096 546.607C385.978 546.607 388.314 544.393 388.314 541.663C388.314 538.932 385.978 536.719 383.096 536.719C380.213 536.719 377.877 538.932 377.877 541.663C377.877 544.393 380.213 546.607 383.096 546.607Z" fill="white"/>
<path d="M446.261 684.927C445.443 684.927 444.707 684.64 444.053 684.068C443.48 683.413 443.194 682.677 443.194 681.859V667.992H405.029C404.129 667.992 403.393 667.706 402.82 667.133C402.248 666.56 401.961 665.824 401.961 664.924V653.266C401.961 652.039 402.411 650.771 403.311 649.462L439.021 601.113C440.167 599.722 441.68 599.026 443.562 599.026H461.478C462.378 599.026 463.114 599.313 463.687 599.885C464.26 600.458 464.546 601.194 464.546 602.094V649.708H475.345C476.326 649.708 477.104 650.035 477.676 650.689C478.249 651.262 478.535 651.957 478.535 652.776V664.924C478.535 665.824 478.249 666.56 477.676 667.133C477.104 667.706 476.367 667.992 475.467 667.992H464.546V681.859C464.546 682.677 464.26 683.413 463.687 684.068C463.114 684.64 462.378 684.927 461.478 684.927H446.261ZM443.684 650.567V621.606L423.068 650.567H443.684ZM523.893 686.154C512.603 686.072 504.054 683.086 498.245 677.196C492.437 671.224 489.287 663.411 488.796 653.757C488.633 649.34 488.551 645.413 488.551 641.977C488.551 638.459 488.633 634.409 488.796 629.828C489.124 623.692 490.596 618.252 493.214 613.507C495.914 608.68 499.841 604.876 504.995 602.094C510.149 599.231 516.448 597.799 523.893 597.799C534.937 597.881 543.445 600.867 549.417 606.758C555.39 612.648 558.621 620.338 559.112 629.828C559.276 634.409 559.357 638.459 559.357 641.977C559.357 645.413 559.276 649.34 559.112 653.757C558.539 663.411 555.349 671.224 549.54 677.196C543.732 683.086 535.183 686.072 523.893 686.154ZM523.893 668.36C527.901 668.36 530.888 667.051 532.851 664.433C534.896 661.734 536.001 657.97 536.164 653.144C536.328 650.771 536.41 646.967 536.41 641.731C536.41 636.495 536.328 632.773 536.164 630.564C536.001 625.901 534.937 622.22 532.974 619.52C531.01 616.82 527.983 615.429 523.893 615.348C519.884 615.429 516.857 616.82 514.812 619.52C512.848 622.22 511.785 625.901 511.621 630.564C511.54 632.773 511.499 636.495 511.499 641.731C511.499 646.967 511.54 650.771 511.621 653.144C512.03 663.288 516.121 668.36 523.893 668.36ZM613.436 684.927C612.618 684.927 611.882 684.64 611.227 684.068C610.655 683.413 610.368 682.677 610.368 681.859V667.992H572.204C571.304 667.992 570.568 667.706 569.995 667.133C569.423 666.56 569.136 665.824 569.136 664.924V653.266C569.136 652.039 569.586 650.771 570.486 649.462L606.196 601.113C607.341 599.722 608.855 599.026 610.736 599.026H628.653C629.553 599.026 630.289 599.313 630.862 599.885C631.434 600.458 631.721 601.194 631.721 602.094V649.708H642.52C643.501 649.708 644.278 650.035 644.851 650.689C645.424 651.262 645.71 651.957 645.71 652.776V664.924C645.71 665.824 645.424 666.56 644.851 667.133C644.278 667.706 643.542 667.992 642.642 667.992H631.721V681.859C631.721 682.677 631.434 683.413 630.862 684.068C630.289 684.64 629.553 684.927 628.653 684.927H613.436ZM610.859 650.567V621.606L590.243 650.567H610.859Z" fill="#E4640A"/>
<path d="M404.195 770.927C403.669 770.927 403.223 770.769 402.855 770.454C402.54 770.086 402.382 769.639 402.382 769.114V717.65C402.382 717.072 402.54 716.625 402.855 716.31C403.223 715.942 403.669 715.758 404.195 715.758H436.744C437.269 715.758 437.69 715.942 438.005 716.31C438.373 716.625 438.557 717.072 438.557 717.65V720.645C438.557 721.17 438.399 721.617 438.084 721.985C437.769 722.3 437.322 722.457 436.744 722.457H409.948V739.717H435.01C435.536 739.717 435.956 739.901 436.271 740.269C436.639 740.584 436.823 741.031 436.823 741.609V744.525C436.823 745.05 436.639 745.497 436.271 745.865C435.956 746.18 435.536 746.337 435.01 746.337H409.948V764.228H437.375C437.953 764.228 438.399 764.385 438.714 764.701C439.03 765.016 439.187 765.462 439.187 766.04V769.114C439.187 769.639 439.003 770.086 438.636 770.454C438.32 770.769 437.9 770.927 437.375 770.927H404.195ZM451.99 770.927C451.464 770.927 451.018 770.769 450.65 770.454C450.335 770.086 450.177 769.639 450.177 769.114V717.65C450.177 717.072 450.335 716.625 450.65 716.31C451.018 715.942 451.464 715.758 451.99 715.758H471.22C477.262 715.758 481.991 717.177 485.406 720.014C488.821 722.851 490.529 726.95 490.529 732.309C490.529 736.302 489.531 739.586 487.534 742.16C485.59 744.735 482.832 746.521 479.259 747.52L491.396 768.484C491.554 768.799 491.632 769.088 491.632 769.351C491.632 769.771 491.448 770.139 491.081 770.454C490.765 770.769 490.398 770.927 489.977 770.927H486.194C485.406 770.927 484.776 770.743 484.303 770.375C483.882 770.007 483.488 769.482 483.121 768.799L471.693 748.781H457.901V769.114C457.901 769.639 457.717 770.086 457.349 770.454C456.981 770.769 456.535 770.927 456.009 770.927H451.99ZM470.905 742.082C478.733 742.082 482.648 738.798 482.648 732.23C482.648 725.662 478.733 722.379 470.905 722.379H457.901V742.082H470.905ZM503.633 770.927C503.108 770.927 502.661 770.769 502.293 770.454C501.978 770.086 501.821 769.639 501.821 769.114V717.65C501.821 717.072 501.978 716.625 502.293 716.31C502.661 715.942 503.108 715.758 503.633 715.758H522.863C528.906 715.758 533.634 717.177 537.05 720.014C540.465 722.851 542.172 726.95 542.172 732.309C542.172 736.302 541.174 739.586 539.178 742.16C537.233 744.735 534.475 746.521 530.902 747.52L543.039 768.484C543.197 768.799 543.276 769.088 543.276 769.351C543.276 769.771 543.092 770.139 542.724 770.454C542.409 770.769 542.041 770.927 541.621 770.927H537.838C537.05 770.927 536.419 770.743 535.946 770.375C535.526 770.007 535.132 769.482 534.764 768.799L523.336 748.781H509.544V769.114C509.544 769.639 509.36 770.086 508.993 770.454C508.625 770.769 508.178 770.927 507.653 770.927H503.633ZM522.548 742.082C530.377 742.082 534.291 738.798 534.291 732.23C534.291 725.662 530.377 722.379 522.548 722.379H509.544V742.082H522.548ZM573.248 771.715C566.365 771.715 561.032 769.928 557.249 766.356C553.518 762.73 551.548 757.292 551.338 750.042C551.285 748.465 551.259 746.232 551.259 743.343C551.259 740.453 551.285 738.246 551.338 736.722C551.548 729.629 553.597 724.244 557.485 720.566C561.373 716.835 566.627 714.97 573.248 714.97C579.815 714.97 585.043 716.835 588.931 720.566C592.819 724.244 594.868 729.629 595.079 736.722C595.184 739.77 595.236 741.976 595.236 743.343C595.236 744.656 595.184 746.889 595.079 750.042C594.868 757.292 592.872 762.73 589.089 766.356C585.358 769.928 580.078 771.715 573.248 771.715ZM573.248 765.016C577.398 765.016 580.709 763.755 583.178 761.233C585.647 758.711 586.987 754.849 587.197 749.648C587.302 746.495 587.355 744.393 587.355 743.343C587.355 742.187 587.302 740.085 587.197 737.038C586.987 731.836 585.621 727.974 583.099 725.452C580.63 722.93 577.346 721.669 573.248 721.669C569.097 721.669 565.761 722.93 563.239 725.452C560.769 727.974 559.429 731.836 559.219 737.038C559.167 738.561 559.14 740.663 559.14 743.343C559.14 745.97 559.167 748.071 559.219 749.648C559.429 754.849 560.769 758.711 563.239 761.233C565.761 763.755 569.097 765.016 573.248 765.016ZM608.536 770.927C608.011 770.927 607.564 770.769 607.197 770.454C606.881 770.086 606.724 769.639 606.724 769.114V717.65C606.724 717.072 606.881 716.625 607.197 716.31C607.564 715.942 608.011 715.758 608.536 715.758H627.766C633.809 715.758 638.537 717.177 641.953 720.014C645.368 722.851 647.075 726.95 647.075 732.309C647.075 736.302 646.077 739.586 644.081 742.16C642.137 744.735 639.378 746.521 635.805 747.52L647.942 768.484C648.1 768.799 648.179 769.088 648.179 769.351C648.179 769.771 647.995 770.139 647.627 770.454C647.312 770.769 646.944 770.927 646.524 770.927H642.741C641.953 770.927 641.322 770.743 640.849 770.375C640.429 770.007 640.035 769.482 639.667 768.799L628.239 748.781H614.447V769.114C614.447 769.639 614.263 770.086 613.896 770.454C613.528 770.769 613.081 770.927 612.556 770.927H608.536ZM627.451 742.082C635.28 742.082 639.194 738.798 639.194 732.23C639.194 725.662 635.28 722.379 627.451 722.379H614.447V742.082H627.451Z" fill="#E4640A"/>
<g style="mix-blend-mode:multiply" opacity="0.5">
<path d="M420.436 478.158H431.355C428.821 482.718 426.415 487.206 424.211 491.55L421.956 496.062C419.093 501.87 416.281 507.63 413.545 513.39C406.503 528.174 399.967 542.958 394.596 558.006C393.026 562.446 391.506 566.91 390.138 571.422C390.025 572.041 389.957 572.667 389.935 573.294C389.923 573.446 389.923 573.598 389.935 573.75V574.83C389.935 574.974 389.935 575.118 389.935 575.262C389.935 575.406 389.935 575.814 389.935 576.054V576.366C389.976 576.586 390.035 576.803 390.112 577.014C390.101 577.078 390.101 577.143 390.112 577.206C390.268 577.649 390.518 578.058 390.847 578.406V578.406L390.644 578.262C389.704 577.653 388.799 576.996 387.934 576.294C387.934 576.294 387.934 576.294 387.756 576.294L389.631 581.094C388.841 580.708 388.184 580.117 387.736 579.391C387.287 578.664 387.066 577.831 387.097 576.99C386.937 577.494 386.81 578.007 386.718 578.526C386.521 577.591 386.115 576.707 385.527 575.934L386.059 581.838C384.159 580.47 384.387 577.542 384.792 575.598C384.594 575.638 384.416 575.74 384.286 575.886C384.286 575.886 382.766 576.942 382.208 576.894L380.435 581.094C380.476 579.344 380.991 577.634 381.93 576.126C381.778 575.262 381.322 573.966 380.612 573.726C379.447 575.526 377.471 577.83 374.963 577.926L379.042 574.134C376.99 574.998 376.204 574.446 376.204 574.446C378.383 573.654 380.435 569.862 380.435 569.862C388.389 543.27 400.397 517.974 413.064 492.294C415.42 487.686 417.801 482.982 420.436 478.158Z" fill="#61376B"/>
</g>
<g style="mix-blend-mode:multiply" opacity="0.5">
<path d="M656.518 489.63L655.859 490.038C655.519 490.24 655.14 490.376 654.743 490.439C654.347 490.501 653.942 490.488 653.551 490.401C653.16 490.314 652.791 490.154 652.465 489.932C652.14 489.709 651.864 489.427 651.654 489.102L646.79 481.734L634.959 488.742L639.798 496.11C640.016 496.43 640.164 496.789 640.233 497.164C640.303 497.539 640.292 497.923 640.202 498.294C640.113 498.666 639.946 499.016 639.711 499.325C639.476 499.634 639.178 499.896 638.835 500.094L638.177 500.502C637.836 500.704 637.457 500.84 637.061 500.903C636.664 500.965 636.259 500.952 635.868 500.865C635.477 500.778 635.108 500.618 634.782 500.396C634.457 500.173 634.181 499.891 633.971 499.566L629.107 492.198L621.659 496.59C621.064 496.944 620.401 497.183 619.708 497.293C619.015 497.404 618.306 497.384 617.621 497.234C616.937 497.085 616.29 496.809 615.718 496.423C615.146 496.036 614.66 495.547 614.287 494.982L603.571 478.758L603.166 478.158H652.845L652.642 478.278L657.506 485.646C657.719 485.969 657.863 486.328 657.929 486.704C657.994 487.079 657.981 487.463 657.889 487.833C657.797 488.204 657.629 488.553 657.393 488.862C657.158 489.17 656.86 489.431 656.518 489.63V489.63Z" fill="#61376B"/>
</g>
<path d="M383.731 566.55C381.931 568.732 380.824 571.354 380.539 574.11" stroke="#268E26" stroke-width="0.63" stroke-linecap="round" stroke-linejoin="round"/>
<path d="M385.425 566.719C385.425 566.719 383.196 572.671 386.16 574.855" stroke="white" stroke-width="0.63" stroke-linecap="round" stroke-linejoin="round"/>
<path d="M387.254 567.415C387.254 567.415 386.342 572.911 389.787 574.111" stroke="#0032D0" stroke-width="0.63" stroke-linecap="round" stroke-linejoin="round"/>
<path d="M381.906 564.511C381.906 564.511 379.246 570.703 375.066 570.871" stroke="#D30000" stroke-width="0.63" stroke-linecap="round" stroke-linejoin="round"/>
<path d="M614.011 431.215C589.742 400.639 543.483 375.199 499.201 391.615C489.987 395.109 481.359 399.855 473.589 405.703C444.05 427.591 425.81 459.703 413.194 485.239C400.578 510.775 388.519 536.215 380.565 562.807C380.565 562.807 378.513 566.575 376.334 567.391C376.334 567.391 377.297 568.063 379.957 566.695C381.401 565.903 382.135 568.879 382.135 569.671C382.135 570.463 384.415 568.879 384.415 568.879C384.415 568.879 385.631 567.271 386.949 571.495C387.303 569.551 387.683 568.759 388.266 569.335C388.849 569.911 391.306 571.495 391.306 571.495C391.306 571.495 389.355 570.295 390.267 564.439C398.019 538.807 409.723 514.159 422.086 489.103C434.246 464.503 451.751 433.591 479.669 412.903C486.708 407.608 494.515 403.3 502.849 400.111C542.419 385.447 584.27 408.799 606.386 436.687C608.919 439.975 611.453 443.503 613.986 447.175L622.194 442.375C619.483 438.439 616.773 434.695 614.011 431.215Z" fill="#2B232D"/>
<g style="mix-blend-mode:multiply" opacity="0.5">
<path d="M622.041 442.35L613.833 447.15C611.299 443.478 608.766 439.95 606.233 436.662C584.117 408.774 542.266 385.422 502.721 400.11C494.368 403.267 486.55 407.569 479.515 412.878C451.649 433.566 434.093 464.478 421.933 489.078C409.57 514.11 397.891 538.757 390.114 564.413C389.329 569.429 390.646 571.038 391.051 571.422C390.722 571.182 389.759 570.558 389.025 570.006C388.987 569.334 388.987 568.661 389.025 567.989C389.225 564.253 389.94 560.558 391.153 556.997C392.166 553.805 393.23 550.661 394.319 547.517C396.549 541.229 399.006 534.989 401.565 528.797C404.123 522.605 406.935 516.366 409.773 510.222C412.61 504.078 415.625 497.814 418.614 491.67C419.754 489.39 420.869 487.086 422.009 484.782C434.169 460.182 451.674 429.294 479.591 408.606C486.625 403.29 494.443 398.98 502.797 395.814C542.342 381.15 584.193 404.502 606.309 432.39C608.842 435.678 611.375 439.206 613.909 442.854L620.065 439.23L622.041 442.35Z" fill="#140716"/>
</g>
<path d="M544.673 389.622C544.673 389.622 544.547 399.486 542.14 400.182C539.075 401.07 533.197 392.31 533.197 392.31L544.673 389.622Z" fill="white"/>
<path d="M499.605 391.662C499.605 391.662 501.733 401.262 504.292 401.55C507.459 401.862 511.436 392.166 511.436 392.166L499.605 391.662Z" fill="white"/>
<path d="M493.348 385.927C493.348 385.927 502.189 404.335 520.961 390.055C531.094 400.879 549.258 393.775 548.549 384.631" fill="#61376B"/>
<path d="M626.078 477.884L629.387 475.926C629.723 475.727 630.129 475.662 630.515 475.747C630.902 475.832 631.237 476.058 631.447 476.377L639.808 489.058C640.239 489.711 640.378 490.5 640.195 491.25C640.012 492.001 639.521 492.651 638.832 493.059L638.295 493.377C637.605 493.785 636.773 493.917 635.981 493.744C635.189 493.57 634.502 493.106 634.071 492.453L625.71 479.771C625.51 479.47 625.437 479.109 625.505 478.759C625.573 478.41 625.778 478.097 626.078 477.884V477.884Z" fill="white"/>
<g style="mix-blend-mode:multiply" opacity="0.5">
<path d="M613.048 478.158H603.066L597.518 469.734C594.071 464.498 592.851 458.217 594.107 452.162C595.363 446.106 599 440.729 604.282 437.118C604.738 439.982 605.27 443.03 605.878 446.262C607.297 453.966 609.121 462.654 611.426 471.966C611.426 472.254 611.604 472.59 611.68 472.902C612.119 474.63 612.575 476.382 613.048 478.158Z" fill="#61376B"/>
</g>
<path d="M645.737 466.26L645.092 466.641C643.656 467.491 643.219 469.282 644.116 470.643L651.645 482.062C652.542 483.422 654.433 483.836 655.869 482.987L656.514 482.605C657.949 481.755 658.386 479.964 657.489 478.604L649.96 467.184C649.063 465.824 647.172 465.41 645.737 466.26Z" fill="white"/>
<path d="M656.902 468.798L620.878 490.11C619.88 490.698 618.676 490.887 617.531 490.635C616.386 490.383 615.394 489.711 614.772 488.766L600.408 466.998C598.61 464.284 597.395 461.261 596.834 458.102C596.272 454.943 596.374 451.709 597.134 448.588C597.894 445.466 599.298 442.517 601.264 439.91C603.23 437.304 605.72 435.09 608.591 433.398V433.398C611.455 431.694 614.646 430.543 617.981 430.011C621.316 429.479 624.728 429.576 628.024 430.296C631.319 431.016 634.431 432.346 637.183 434.208C639.934 436.071 642.271 438.43 644.058 441.15L658.396 462.918C658.713 463.395 658.926 463.927 659.022 464.483C659.119 465.039 659.097 465.608 658.957 466.156C658.818 466.704 658.564 467.22 658.211 467.674C657.858 468.127 657.413 468.509 656.902 468.798Z" fill="#6BB1A2"/>
<g style="mix-blend-mode:multiply" opacity="0.3">
<path d="M612.034 431.814C607.395 435.585 604.334 440.803 603.405 446.526C602.476 452.249 603.739 458.098 606.967 463.014L623.662 488.334L620.673 490.086C620.199 490.369 619.671 490.561 619.119 490.65C618.567 490.739 618.001 490.724 617.455 490.606C616.909 490.488 616.393 490.269 615.937 489.962C615.48 489.654 615.093 489.264 614.795 488.814L600.431 467.022C596.847 461.53 595.696 454.92 597.229 448.628C598.761 442.336 602.852 436.872 608.614 433.422C609.692 432.775 610.838 432.236 612.034 431.814V431.814Z" fill="#583929"/>
</g>
<defs>
<radialGradient id="paint0_radial" cx="0" cy="0" r="1" gradientUnits="userSpaceOnUse" gradientTransform="translate(430.751 404.608) rotate(-1.75269) scale(38.6313 25.2553)">
<stop offset="0.17" stop-color="#662346"/>
<stop offset="1" stop-color="#662346" stop-opacity="0"/>
</radialGradient>
<radialGradient id="paint1_radial" cx="0" cy="0" r="1" gradientUnits="userSpaceOnUse" gradientTransform="translate(35875.2 9332.22) rotate(-1.75269) scale(1301.88 583.904)">
<stop offset="0.17" stop-color="#662346"/>
<stop offset="1" stop-color="#662346" stop-opacity="0"/>
</radialGradient>
</defs>
</svg>
