<svg width="1900" height="1200" viewBox="0 0 1900 1200" fill="none" xmlns="http://www.w3.org/2000/svg">
<path d="M1900 0H0V1200H1900V0Z" fill="#FCB82F"/>
<g style="mix-blend-mode:multiply" opacity="0.58">
<path d="M949.975 1132.18C1182.13 1132.18 1370.33 1118.45 1370.33 1101.53C1370.33 1084.6 1182.13 1070.88 949.975 1070.88C717.819 1070.88 529.619 1084.6 529.619 1101.53C529.619 1118.45 717.819 1132.18 949.975 1132.18Z" fill="#F0B33B"/>
</g>
<g opacity="0.5">
<g style="mix-blend-mode:screen" opacity="0.5">
<g style="mix-blend-mode:screen" opacity="0.5">
<path d="M774.11 252.888C829.236 225.168 899.561 220.368 960.766 231.96C1041.17 247.176 1081.1 245.712 1161.51 260.928C1208.93 269.904 1250.48 327.6 1294.18 347.184C1346.67 370.728 1357.38 391.992 1387.28 439.176C1396.88 454.344 1432.88 501.216 1434.93 518.76C1438.6 548.592 1430.98 565.248 1434.75 595.056C1439.03 629.112 1442.66 650.064 1447.01 684.12C1453.32 733.44 1422.26 759.096 1424.77 808.728C1425.86 829.944 1411.09 857.928 1408.79 879.048C1407.06 894.864 1342.36 935.304 1332.79 948.312C1290.05 1005.91 1292.61 1019.04 1224.84 1048.01C1196.04 1060.32 1186.06 1085.4 1154.84 1090.13C1127.66 1094.26 1099.9 1092.36 1072.49 1090.01C1018.17 1085.33 984.884 1100.95 931.076 1092.58C885.476 1085.38 826.55 1090.18 780.317 1092.58C758.758 1093.63 722.354 1086.19 701.201 1081.97C682.53 1078.22 631.99 1057.97 615.6 1048.58C580.412 1028.66 544.489 993.384 529.112 957.384C524.045 945.528 522.576 893.472 486.045 844.32C452.529 799.296 458.812 799.872 446.804 702.48C440.04 647.76 453.416 577.68 486.932 532.56C509.25 502.584 517.661 474.72 522.221 438.288C523.944 424.68 521.132 410.784 523.412 397.224C530.125 357.576 575.218 336.408 614.612 321.624C654.005 306.84 692.005 289.656 732.158 277.536C762.254 268.44 751.386 264.336 774.11 252.888ZM502.182 425.208C499.649 409.968 473.53 410.616 470.364 425.208C469.274 430.248 464.436 435.744 461.852 440.448C458.474 446.592 454.902 452.624 451.136 458.544C443.89 469.872 436.164 480.72 430.59 492.912C426.638 501.6 426.537 511.128 434.061 518.256C440.369 524.232 453.162 527.088 460.813 521.52C476.342 510.168 489.82 496.848 497.977 479.64C502.264 471.197 505.079 462.151 506.312 452.856C507.553 442.392 503.88 435.144 502.182 425.208V425.208ZM629.178 286.968C629.178 296.976 621.578 302.16 612.433 305.184C605.876 307.151 598.891 307.465 592.166 306.096C585.529 305.016 582.844 295.368 588.037 291.312C592.85 287.592 596.473 284.52 600.982 281.424C601.543 281.025 602.126 280.656 602.73 280.32C604.839 278.545 607.303 277.19 609.976 276.336C613.418 275.34 617.097 275.34 620.54 276.336C622.993 276.995 625.158 278.384 626.714 280.299C628.269 282.214 629.134 284.552 629.178 286.968V286.968ZM674.322 272.856C673.283 274.409 672.132 275.893 670.877 277.296C668.585 279.27 665.762 280.607 662.72 281.16C660.761 281.699 658.676 281.666 656.738 281.065C654.799 280.463 653.097 279.322 651.855 277.79C650.612 276.257 649.887 274.405 649.773 272.476C649.659 270.546 650.163 268.629 651.218 266.976C652.562 264.806 654.741 263.215 657.298 262.536C660.376 261.8 663.589 261.735 666.697 262.344C668.626 262.995 670.457 263.883 672.144 264.984C673.523 265.764 674.524 267.026 674.932 268.498C675.339 269.97 675.12 271.535 674.322 272.856V272.856ZM438.469 839.472C430.236 836.016 425.093 825.672 422.357 817.872C419.906 810.514 418.6 802.858 418.481 795.144C418 778.968 445.233 775.2 448.501 791.304C449.501 796.567 451.293 801.666 453.821 806.448C457.418 813.192 461.421 818.76 462.257 826.488C463.6 839.064 448.222 843.6 438.469 839.472V839.472ZM483.816 865.872C483.854 867.593 483.427 869.295 482.574 870.816C481.424 873.597 479.317 875.931 476.596 877.44C474.085 878.795 471.206 879.413 468.325 879.216C465.443 879.02 462.687 878.017 460.408 876.336C457.286 874.271 455.006 871.256 453.948 867.792C453.486 865.859 453.215 863.891 453.137 861.912C453.137 858.092 454.738 854.43 457.589 851.729C460.439 849.029 464.306 847.512 468.337 847.512C472.199 847.503 475.919 848.888 478.742 851.384C481.565 853.881 483.279 857.301 483.537 860.952C483.731 861.958 483.841 862.977 483.866 864C483.931 864.654 483.931 865.313 483.866 865.968L483.816 865.872ZM1474.02 651.792C1473.97 653.434 1473.31 655.006 1472.15 656.228C1470.99 657.45 1469.41 658.243 1467.69 658.464C1465.97 658.686 1464.23 658.323 1462.76 657.439C1461.3 656.556 1460.22 655.209 1459.71 653.64C1453.2 637.152 1451.45 619.512 1447.39 602.376C1445.65 595.008 1457.53 589.416 1460.92 596.976C1469.03 614.568 1476.2 632.544 1474.02 651.888V651.792ZM1463.4 717.6V717.72V717.6ZM1481.52 711.456C1481.23 715.273 1479.42 718.843 1476.45 721.44C1475.69 722.127 1474.78 722.644 1473.78 722.954C1472.78 723.263 1471.72 723.357 1470.68 723.228C1469.64 723.099 1468.64 722.751 1467.76 722.209C1466.87 721.667 1466.13 720.945 1465.58 720.096C1466.57 721.368 1463.61 717.576 1463.53 717.696C1462.78 716.422 1462.22 715.057 1461.86 713.64C1461.52 712.059 1461.33 710.452 1461.3 708.84C1461.3 708.384 1461.3 707.928 1461.3 707.472C1461.3 707.016 1461.3 707.16 1461.3 706.92C1460.69 704.542 1461.06 702.033 1462.34 699.905C1463.61 697.777 1465.7 696.191 1468.17 695.472C1470.68 694.855 1473.35 695.19 1475.6 696.404C1477.86 697.618 1479.52 699.616 1480.25 701.976C1481.18 705.08 1481.61 708.301 1481.52 711.528V711.456ZM1402.98 920.496C1388.29 939.528 1374 955.8 1352.95 968.712C1347.45 972.096 1340.59 965.4 1344.01 960.24C1357.41 939.864 1374.92 926.64 1396.17 914.064C1400.22 911.736 1406 916.8 1403.01 920.568L1402.98 920.496ZM1282.25 314.736C1267.27 315.84 1255.72 305.568 1246.35 295.8C1236.55 285.455 1228.04 274.067 1221.02 261.864C1213.42 248.832 1233 238.488 1241.74 250.368C1249.25 260.487 1257.97 269.749 1267.73 277.968C1277 285.888 1286.93 292.368 1290.73 304.368C1291.05 305.593 1291.07 306.87 1290.79 308.104C1290.52 309.338 1289.95 310.496 1289.13 311.493C1288.32 312.49 1287.27 313.299 1286.08 313.861C1284.89 314.422 1283.58 314.721 1282.25 314.736V314.736ZM1324.93 342.048C1322.2 339.528 1319.59 336.888 1316.85 334.344C1316.85 334.344 1315.76 333.384 1315.56 333.168C1314.51 332.482 1313.51 331.729 1312.57 330.912C1311.29 329.679 1310.3 328.208 1309.66 326.592C1308.69 325.018 1308.42 323.149 1308.89 321.386C1309.37 319.624 1310.55 318.106 1312.19 317.16C1310.87 318.192 1311.23 317.952 1313.23 316.44C1314.11 315.919 1315.09 315.584 1316.12 315.456C1318.24 314.952 1320.46 314.952 1322.58 315.456C1325.31 316.123 1327.94 317.149 1330.38 318.504C1333.24 319.989 1335.75 322.025 1337.73 324.48C1339.72 326.934 1341.14 329.754 1341.91 332.76C1342.39 334.784 1342.18 336.902 1341.3 338.804C1340.43 340.706 1338.93 342.292 1337.03 343.33C1335.14 344.368 1332.94 344.804 1330.76 344.573C1328.58 344.342 1326.54 343.457 1324.93 342.048V342.048ZM1378.77 384.672C1377.01 385.945 1374.9 386.701 1372.7 386.846C1370.5 386.991 1368.3 386.519 1366.38 385.488C1360.59 382.28 1355.44 378.128 1351.18 373.224C1348.73 370.798 1347.36 367.57 1347.36 364.212C1347.36 360.854 1348.73 357.625 1351.18 355.2C1355.81 350.4 1365.64 350.088 1370.23 355.2C1372.99 357.947 1375.53 360.883 1377.83 363.984C1379.86 367.01 1381.56 370.227 1382.9 373.584C1383.46 375.606 1383.38 377.744 1382.65 379.721C1381.93 381.697 1380.59 383.422 1378.82 384.672H1378.77Z" fill="#FFDE66"/>
</g>
</g>
<g style="mix-blend-mode:multiply" opacity="0.33">
<g style="mix-blend-mode:multiply" opacity="0.33">
<g style="mix-blend-mode:multiply" opacity="0.45">
<path d="M1086.14 470.639L1085.97 470.975C1086.01 470.858 1086.07 470.745 1086.14 470.639Z" fill="#FABD3C"/>
<path d="M1086.17 470.615L1087.79 467.471L1091.59 459.839L1088.12 466.819C1088.31 466.47 1088.65 466.304 1088.65 466.487C1088.53 466.92 1088.44 467.361 1088.4 467.807C1087.77 468.383 1087.22 469.037 1086.78 469.751L1086.17 470.615Z" fill="#FABD3C"/>
<path d="M1299.32 458.735C1299.6 458.591 1299.45 458.879 1299.6 458.879C1299.6 459.047 1299.35 459.167 1299.32 459.287V458.735Z" fill="#FABD3C"/>
<path d="M1141.04 468.911C1139.77 467.951 1140.94 466.223 1142.31 467.399H1142.18C1142.25 467.571 1142.28 467.757 1142.25 467.941C1142.23 468.125 1142.16 468.3 1142.05 468.45C1141.93 468.601 1141.78 468.722 1141.61 468.802C1141.43 468.883 1141.23 468.92 1141.04 468.911Z" fill="#FABD3C"/>
<path d="M1177.31 526.994C1177.35 527.331 1177.32 527.673 1177.22 527.999C1177.04 528.084 1176.84 528.125 1176.64 528.117C1176.44 528.11 1176.24 528.054 1176.07 527.956C1175.9 527.858 1175.75 527.72 1175.65 527.556C1175.55 527.391 1175.5 527.205 1175.49 527.015C1175.49 526.844 1175.53 526.675 1175.61 526.523C1175.69 526.37 1175.81 526.239 1175.96 526.142C1176.11 526.044 1176.28 525.983 1176.46 525.964C1176.64 525.944 1176.82 525.968 1176.99 526.031C1177.16 526.329 1177.27 526.656 1177.31 526.994Z" fill="#FABD3C"/>
<path d="M1191.15 546.455L1190.67 545.759L1191.15 546.047V546.455Z" fill="#FABD3C"/>
<path d="M1201.71 555.359C1201.72 555.349 1201.73 555.339 1201.74 555.329C1201.8 555.247 1201.92 555.167 1201.92 555.167C1202.32 554.759 1203.11 554.591 1203.54 554.135V554.159C1204.09 555.215 1202.45 554.927 1201.92 555.167C1201.85 555.217 1201.79 555.271 1201.74 555.329C1201.73 555.347 1201.72 555.366 1201.71 555.383V555.359Z" fill="#FABD3C"/>
<path d="M1213.32 578.927C1212.1 580.367 1212.86 581.951 1214.18 583.319V583.343C1210.33 582.047 1207.41 583.511 1204.25 584.423L1204.53 585.239C1203.89 584.351 1201.97 583.799 1201.36 582.983C1198.5 584.759 1194.92 578.231 1191.73 579.023C1191.6 577.444 1190.87 575.962 1189.68 574.847C1188.42 573.579 1187.28 572.215 1186.26 570.767L1186.08 570.959C1184.58 568.715 1184.03 566.011 1184.56 563.399C1185.21 561.117 1185.37 558.732 1185.02 556.391C1188.13 557.831 1188.41 554.303 1191.93 555.959L1192.82 553.559C1194.16 554.375 1192.52 556.055 1194.92 556.535C1195.79 556.631 1196.06 555.647 1196.06 554.855C1197.08 557.975 1199.76 555.863 1201.43 556.007C1202.4 557.827 1203.81 559.406 1205.54 560.615C1207.4 561.792 1209.16 563.109 1210.81 564.551C1210.53 566.951 1213.16 569.351 1214.33 571.751C1211.82 570.455 1213.37 573.335 1213.7 574.319C1215.72 574.079 1218 575.951 1219.14 576.887L1216.28 575.831C1215.29 576.671 1213.34 576.527 1213.47 578.111C1213.86 578.195 1214.22 578.388 1214.5 578.666C1214.78 578.944 1214.97 579.293 1215.04 579.671C1214.39 579.614 1213.79 579.352 1213.32 578.927Z" fill="#FABD3C"/>
<path d="M1210.93 563.807C1210.9 564.038 1210.9 564.272 1210.93 564.503C1211.26 564.407 1210.93 563.999 1210.93 563.807Z" fill="#FABD3C"/>
<path d="M1204.55 585.143L1204.57 585.188C1204.76 585.395 1204.86 585.661 1204.85 585.935L1204.57 585.188C1204.55 585.173 1204.54 585.158 1204.53 585.143H1204.55Z" fill="#FABD3C"/>
<path d="M1095.79 537.551H1095.62L1095.87 535.703H1096.05L1095.79 537.551Z" fill="#FABD3C"/>
<path d="M1110.36 542.831C1110.13 543.191 1109.32 543.047 1108.71 542.543H1108.61C1108.49 541.319 1109.88 542.207 1110.36 542.831Z" fill="#FABD3C"/>
<path d="M1221.3 578.015C1221.31 578.023 1221.31 578.03 1221.32 578.038C1221.73 578.122 1222.1 578.323 1222.39 578.615C1222.41 578.634 1222.43 578.654 1222.46 578.674C1223.37 578.972 1224.29 579.158 1224.77 580.151C1223.93 580.244 1223.24 579.321 1222.46 578.674C1222.4 578.655 1222.34 578.635 1222.28 578.615H1222.39C1222 578.485 1221.64 578.29 1221.32 578.038C1221.28 578.029 1221.24 578.021 1221.19 578.015H1221.3Z" fill="#FABD3C"/>
<path d="M1219.09 580.751L1218.26 580.175L1218.86 580.151L1219.09 580.751Z" fill="#FABD3C"/>
<path d="M1238.32 580.391C1238.57 579.959 1239.36 579.263 1239.92 580.175H1239.81C1240.17 581.711 1238.8 581.087 1238.32 580.391Z" fill="#FABD3C"/>
<path d="M1228.64 581.903L1229.3 582.047L1230.42 582.719L1228.64 581.903Z" fill="#FABD3C"/>
<path d="M1255.77 622.223C1252.88 621.066 1250.18 619.522 1247.74 617.639H1247.64C1246.82 616.454 1250.7 615.305 1247.99 613.453C1247.82 613.354 1247.65 613.243 1247.47 613.132C1247.2 612.983 1246.89 612.829 1246.53 612.671C1246.9 612.793 1247.19 612.962 1247.47 613.132C1247.67 613.241 1247.84 613.348 1247.99 613.453C1248.34 613.65 1248.71 613.799 1249.21 613.799C1247.77 611.591 1254.18 614.615 1251.24 612.095C1252.4 612.021 1253.57 612.102 1254.71 612.335C1255.98 612.527 1257.29 612.815 1258.69 613.055C1261.83 613.717 1265.1 613.66 1268.21 612.887C1267.48 613.631 1269.3 614.255 1271.43 614.399C1273.56 614.543 1275.94 614.111 1275.94 613.415C1279.66 616.031 1285.82 615.839 1288.35 617.855C1286.07 619.083 1283.7 620.158 1281.26 621.071C1279.21 622.007 1278.19 622.823 1281.26 623.471C1275.36 624.287 1266.03 624.095 1266.95 625.631C1263.12 624.837 1259.37 623.696 1255.77 622.223Z" fill="#FABD3C"/>
<path d="M1126.52 617.135C1127.11 619.295 1126.93 619.967 1127.79 622.727H1127.69C1126.32 623.999 1123.81 620.759 1122.55 622.079C1120.88 620.527 1119.33 618.867 1117.91 617.111C1116.87 615.704 1116.29 614.031 1116.26 612.311C1116.54 611.159 1118.16 611.783 1118.92 611.303C1120.29 611.303 1121.58 612.455 1122.83 613.703C1123.93 614.967 1125.17 616.117 1126.52 617.135Z" fill="#FABD3C"/>
<path d="M1287.92 611.351C1287.09 611.735 1286.25 612.143 1285.39 612.479H1285.29C1285.82 612.143 1286.35 611.759 1286.93 611.351H1287.92Z" fill="#FABD3C"/>
<path d="M1180.1 635.519C1180.71 634.871 1180.91 633.383 1182.18 633.599C1184.51 634.367 1187.05 634.799 1188.49 636.839C1189.05 637.919 1188.89 638.567 1189.35 639.431C1187.81 640.511 1186.49 641.615 1182.89 639.215C1182.13 638.135 1179.9 637.031 1180.1 635.519Z" fill="#FABD3C"/>
<path d="M1228.72 649.751C1228.16 649.637 1227.58 649.637 1227.02 649.751V649.631C1224.32 647.397 1222.2 644.595 1220.84 641.447L1221.42 641.975C1223.07 641.833 1224.73 642.063 1226.26 642.647C1228.31 643.294 1230.39 643.83 1232.49 644.255C1236.88 647.159 1240.3 648.455 1242.96 650.735C1245.62 653.015 1241.84 652.655 1237.61 651.719C1235.33 651.239 1233.18 650.663 1231.25 650.231C1230.42 650.023 1229.57 649.863 1228.72 649.751Z" fill="#FABD3C"/>
<path d="M1305.78 510.426C1305.43 510.186 1305.15 509.866 1304.97 509.495V509.375C1305.73 508.343 1306.75 509.711 1306.97 510.863C1306.54 510.816 1306.14 510.665 1305.78 510.426Z" fill="#FABD3C"/>
<path d="M1292.33 506.471L1292.66 504.695L1293.34 504.071L1292.33 506.471Z" fill="#FABD3C"/>
<path d="M1269.73 497.495C1269.73 497.492 1269.73 497.489 1269.73 497.486C1269.68 497.595 1269.6 497.688 1269.5 497.755C1269.39 497.826 1269.26 497.865 1269.13 497.867C1269 497.87 1268.88 497.836 1268.77 497.77C1268.66 497.704 1268.57 497.608 1268.52 497.495C1268.58 497.401 1268.68 497.324 1268.78 497.271C1268.89 497.218 1269.01 497.19 1269.13 497.19C1269.25 497.19 1269.36 497.218 1269.47 497.271C1269.57 497.323 1269.66 497.396 1269.73 497.486C1269.73 497.481 1269.73 497.476 1269.73 497.471V497.495Z" fill="#FABD3C"/>
<path d="M1358.4 517.991C1358.4 517.987 1358.4 517.983 1358.4 517.978C1357.51 518.034 1356.12 515.389 1355.21 514.175C1354.4 511.631 1355.51 511.631 1356.45 511.631C1357.32 512.622 1357.93 513.788 1358.25 515.039C1358.51 515.999 1358.56 516.999 1358.4 517.978C1358.43 517.977 1358.45 517.973 1358.48 517.967L1358.4 517.991Z" fill="#FABD3C"/>
<path d="M1315.36 494.663C1314.93 494.807 1315.05 494.543 1314.93 494.399L1315.05 494.135L1315.36 494.663Z" fill="#FABD3C"/>
<path d="M1314.93 491.855L1315.13 491.711L1314.93 492.527C1314.55 492.383 1314.93 491.975 1314.93 491.855Z" fill="#FABD3C"/>
<path d="M1324.55 490.679C1323.81 491.45 1322.79 491.922 1321.69 491.999C1320.98 491.447 1317.94 490.991 1320.32 489.911L1320.05 488.423C1322.2 488.759 1322.5 487.919 1324.73 487.919C1324.33 488.783 1325.85 489.143 1324.55 490.679Z" fill="#FABD3C"/>
<path d="M1319.03 490.319L1319.56 490.175L1319.51 490.319H1319.03Z" fill="#FABD3C"/>
<path d="M1326.02 481.871C1325.34 481.991 1324.86 481.751 1325.01 481.295L1324.93 481.319C1326.33 479.999 1327.24 481.463 1326.02 481.871Z" fill="#FABD3C"/>
<path d="M1322.45 481.511C1322.25 481.271 1321.74 481.127 1322.25 480.671V480.695C1323.41 480.191 1323.47 481.247 1322.45 481.511Z" fill="#FABD3C"/>
<path d="M1328.81 479.687C1328.68 479.471 1327.82 479.783 1328.46 479.135V479.159C1329.55 478.751 1328.91 479.375 1328.81 479.687Z" fill="#FABD3C"/>
<path d="M1341.35 474.335C1341.68 474.815 1342.34 475.007 1343.73 474.767C1344.49 473.687 1342.06 474.719 1341.35 474.335Z" fill="#FABD3C"/>
<path d="M1343.86 473.735C1344.19 473.591 1344.69 473.399 1344.19 473.735H1343.86C1343.86 473.735 1343.73 473.687 1343.86 473.639V473.735Z" fill="#FABD3C"/>
<path d="M1340.92 470.207C1341.6 469.895 1342.14 470.063 1341.45 470.375V470.399C1341.07 470.399 1341.12 470.255 1340.92 470.207Z" fill="#FABD3C"/>
<path d="M1192.34 404.687C1193.28 404.312 1194.31 404.212 1195.3 404.399V404.375C1196.49 405.911 1193.63 406.943 1192.42 407.591C1191.73 407.351 1191.02 407.135 1190.26 406.919C1190.36 406.404 1190.61 405.925 1190.98 405.532C1191.34 405.139 1191.81 404.847 1192.34 404.687Z" fill="#FABD3C"/>
<path d="M1245.44 374.927C1246.96 376.607 1241.71 375.383 1242.17 373.751V373.727C1242.62 373.253 1244.11 374.139 1245.4 374.902L1245.44 374.927Z" fill="#FABD3C"/>
<path d="M521.032 559.175C519.867 560.255 518.676 561.911 517.333 561.911L517.207 561.846C515.775 561.099 514.277 560.318 514.597 558.359C515.889 555.719 515.991 553.655 519.056 552.815C522.121 551.975 523.565 556.127 521.032 559.175Z" fill="#FABD3C"/>
<path d="M494.179 559.271C496.915 558.551 496.788 561.791 496.915 564.839C497.041 567.887 497.371 570.575 500.157 568.583C499.248 569.444 498.592 570.514 498.254 571.689C497.917 572.863 497.909 574.101 498.232 575.279C497.024 578.255 496.05 581.311 495.319 584.423C492.405 587.159 489.289 582.671 487.719 584.231C487.727 582.952 487.845 581.676 488.073 580.415C488.341 579.079 488.631 577.677 488.901 576.378L488.935 576.215C489.517 573.623 489.771 571.439 488.276 571.055C488.645 566.573 490.747 562.377 494.179 559.271Z" fill="#FABD3C"/>
<path d="M477.256 641.639C477.301 641.715 477.346 641.792 477.391 641.871C479.597 643.706 483.464 647.795 483.513 649.511C480.512 648.859 478.897 644.496 477.391 641.871C477.345 641.832 477.3 641.795 477.256 641.759V641.639Z" fill="#FABD3C"/>
<path d="M666.547 664.391C667.763 663.791 668.776 664.607 668.041 665.639V665.807C666.065 667.439 664.267 666.383 666.547 664.391Z" fill="#FABD3C"/>
<path d="M725.937 595.813C725.867 596.028 725.752 596.227 725.599 596.399V596.567C724.915 597.047 724.231 596.711 724.003 595.559C724.094 595.223 724.261 594.909 724.493 594.639C724.725 594.37 725.016 594.152 725.345 593.999C725.531 594.139 725.686 594.313 725.8 594.51C725.914 594.708 725.984 594.925 726.008 595.148C726.032 595.372 726.008 595.598 725.937 595.813Z" fill="#FABD3C"/>
<path d="M730.691 569.111L730.995 568.799L730.691 569.711V569.111Z" fill="#FABD3C"/>
<path d="M731.856 553.319H731.603C731.603 553.319 731.78 553.367 731.856 553.319Z" fill="#FABD3C"/>
<path d="M729.779 552.407C730.412 552.527 731.02 553.151 731.603 553.271C731.045 552.935 730.361 551.255 729.779 552.407Z" fill="#FABD3C"/>
<path d="M734.871 539.567C734.653 539.672 734.424 539.752 734.187 539.807C734.339 539.687 734.516 539.255 734.871 539.423C734.859 539.471 734.859 539.52 734.871 539.567Z" fill="#FABD3C"/>
<path d="M757.189 535.823L756.556 536.255C756.618 536.141 756.708 536.042 756.818 535.967C756.928 535.892 757.055 535.843 757.189 535.823Z" fill="#FABD3C"/>
<path d="M757.24 542.687C757.091 543.479 757.014 544.283 757.012 545.087C757.057 545.929 757.366 546.74 757.899 547.415C754.783 549.983 755.289 553.847 753.719 557.975H753.972C753.431 559.507 752.569 560.919 751.439 562.127C752.123 563.111 752.857 564.071 752.123 564.983C751.312 564.839 749.868 564.911 749.083 563.927C746.6 564.924 744.378 566.423 742.572 568.319C741.837 564.503 738.848 566.447 738.012 562.103L735.605 562.751C735.453 560.975 737.733 561.431 736.771 558.911C736.34 558.071 735.403 558.479 734.693 558.911C736.745 556.007 733.401 554.855 732.565 553.247C733.558 551.13 734.084 548.844 734.111 546.527C734.187 545.255 734.389 544.103 734.389 542.855C734.44 542.231 734.516 541.487 734.592 541.007C734.668 540.527 734.795 540.047 734.921 539.567C737.176 538.559 737.911 535.391 739.709 533.567C739.684 535.415 740.799 534.551 741.66 533.759C740.089 532.775 738.189 530.855 737.201 533.135C736.517 531.263 734.896 528.239 733.477 529.079C733.296 525.782 733.611 522.476 734.415 519.263C735.149 518.303 738.873 519.767 738.189 516.623C738.544 517.223 738.063 517.703 738.544 518.183C739.887 516.623 740.14 520.391 741.077 518.183C743.408 519.695 742.775 523.031 746.144 524.831C744.852 524.831 745.055 526.511 745.713 527.375L746.017 527.183V527.591C746.122 527.712 746.263 527.799 746.421 527.842C746.579 527.885 746.748 527.881 746.904 527.831C745.882 529.007 745.03 530.307 744.371 531.695C744.603 531.888 744.887 532.015 745.192 532.061C745.497 532.108 745.809 532.073 746.093 531.959C745.979 531.656 745.989 531.323 746.12 531.025C746.251 530.728 746.495 530.488 746.803 530.351C747.007 530.82 747.007 531.346 746.803 531.815C747.334 531.949 747.893 531.949 748.424 531.815L747.791 531.239L748.728 531.599V531.719C749.5 531.393 750.121 530.813 750.476 530.087C751.059 533.063 753.693 534.719 755.999 536.615L756.556 536.231C756.125 536.951 756.531 538.367 756.125 538.991C757.645 539.663 757.468 541.007 757.24 542.687Z" fill="#FABD3C"/>
<path d="M769.349 672.191L766.943 673.559V673.271L769.349 671.903V672.191Z" fill="#FABD3C"/>
<path d="M771.224 653.231C771.528 652.199 771.351 651.239 770.895 651.263C770.388 652.175 770.135 654.359 771.224 653.231Z" fill="#FABD3C"/>
<path d="M739.735 511.199C740.292 510.479 740.723 509.231 739.203 509.783C738.392 510.503 739.253 511.199 739.735 511.199Z" fill="#FABD3C"/>
<path d="M743.687 519.359V518.783L743.712 518.855C743.724 518.801 743.736 518.75 743.748 518.7C743.801 518.372 743.88 518.041 743.94 517.727C743.918 518.087 743.836 518.334 743.748 518.7C743.712 518.923 743.687 519.145 743.687 519.359Z" fill="#FABD3C"/>
<path d="M777 520.655C776.544 521.303 776.088 523.919 773.555 523.703L773.58 523.775C773.066 523.818 772.549 523.721 772.091 523.495C771.633 523.27 771.253 522.925 770.995 522.501C770.737 522.078 770.612 521.593 770.634 521.105C770.657 520.616 770.826 520.144 771.123 519.743C771.579 518.471 773.301 518.495 774.467 518.927C775.632 519.359 775.683 521.111 777 520.655Z" fill="#FABD3C"/>
<path d="M781.991 499.463C781.687 501.743 779.229 505.895 782.675 505.103L782.801 505.175C782.12 505.779 781.477 506.42 780.876 507.095C780.268 507.983 780.015 509.111 781.003 509.687L777.659 510.815C776.51 511.256 775.311 511.57 774.087 511.751C773.069 511.623 771.769 509.181 770.312 509.818C770.266 509.843 770.217 509.866 770.168 509.891C770.04 509.965 769.91 510.064 769.78 510.191C769.878 510.043 770.025 509.963 770.168 509.891C770.216 509.863 770.264 509.839 770.312 509.818C770.481 509.727 770.616 509.618 770.616 509.375C768.691 509.063 771.123 507.407 768.995 507.647C768.927 507.145 768.968 506.634 769.117 506.147C769.265 505.66 769.516 505.207 769.856 504.815C770.24 504.329 770.516 503.775 770.669 503.185C770.821 502.595 770.846 501.982 770.743 501.383C771.579 502.487 773.073 501.431 773.073 500.567C773.139 500.435 773.163 500.286 773.14 500.141C773.118 499.996 773.05 499.86 772.947 499.751C776.367 500.231 779.179 498.527 781.991 499.463Z" fill="#FABD3C"/>
<path d="M695.604 560.591C697.124 558.527 697.833 558.263 699.657 555.503L699.683 555.479C701.583 555.911 700.215 560.639 702.064 561.119C700.848 567.767 700.392 571.391 697.377 573.791C696.237 574.295 695.832 572.303 694.996 571.895C693.451 569.183 695.604 564.071 695.604 560.591Z" fill="#FABD3C"/>
<path d="M777.203 494.951L776.595 496.367L776.696 495.167L777.203 494.951Z" fill="#FABD3C"/>
<path d="M813.885 546.551C813.887 546.544 813.888 546.537 813.89 546.53C813.435 546.593 813.61 547.194 812.137 546.815C811.25 546.575 810.399 546.228 809.604 545.783C809.173 545.135 808.515 544.055 809.173 544.055C809.832 544.055 810.44 544.271 810.921 544.271C812.577 545.079 814.034 545.793 813.89 546.53C813.897 546.529 813.904 546.528 813.911 546.527L813.885 546.551Z" fill="#FABD3C"/>
<path d="M799.217 529.823C800.687 529.799 800.94 529.343 802.663 530.111L802.688 530.087C805.728 531.359 803.473 532.655 805.221 534.239C803.437 533.836 801.685 533.315 799.977 532.679H800.256C799.091 531.623 799.547 530.783 799.217 529.823Z" fill="#FABD3C"/>
<path d="M703.153 531.455C702.596 531.239 701.355 530.783 702.191 530.951L702.216 530.927C703.389 531.203 704.54 531.556 705.661 531.983C706.078 532.095 706.485 532.24 706.877 532.415C706.295 532.223 704.395 531.887 703.153 531.455Z" fill="#FABD3C"/>
<path d="M807.375 440.639C806.767 440.639 805.931 439.967 805.601 440.495C805.004 437.477 804.105 434.52 802.916 431.663C801.769 429.639 801.095 427.404 800.94 425.111C804.43 428.066 806.769 432.048 807.577 436.415C808.489 439.943 807.983 440.639 807.375 440.639Z" fill="#FABD3C"/>
<path d="M823.233 459.503C821.789 462.479 821.587 455.879 821.359 451.295L821.384 451.199C821.485 447.863 821.992 446.879 822.448 446.591C823.326 448.468 823.8 450.491 823.841 452.543C823.94 454.878 823.736 457.216 823.233 459.503Z" fill="#FABD3C"/>
<path d="M807.223 423.983C805.728 421.055 807.324 422.879 807.527 422.711H807.552C809.199 424.535 811.073 429.599 809.528 428.567C808.507 427.165 807.729 425.618 807.223 423.983Z" fill="#FABD3C"/>
<path d="M711.64 407.999C712.96 407.74 714.169 407.114 715.111 406.199C713.261 406.127 710.525 407.015 711.64 407.999Z" fill="#FABD3C"/>
<path d="M698.72 421.967H696.187L695.427 421.271L698.72 421.967Z" fill="#FABD3C"/>
<path d="M686.852 446.171C686.774 446.276 686.663 446.356 686.535 446.399C686.003 446.399 685.876 445.823 686.535 445.223C686.663 445.266 686.774 445.346 686.852 445.451C686.931 445.557 686.973 445.682 686.973 445.811C686.973 445.94 686.931 446.066 686.852 446.171Z" fill="#FABD3C"/>
<path d="M687.396 399.719L688.815 399.095L688.713 399.191C688.739 399.599 688.181 399.623 687.903 399.719H687.396Z" fill="#FABD3C"/>
<path d="M682.253 400.751H683.748L683.647 400.799C683.191 401.231 682.557 401.039 682.405 400.943L682.253 400.751Z" fill="#FABD3C"/>
<path d="M545.301 452.159C544.111 453.263 542.768 454.559 543.148 455.183C544.668 455.999 547.505 450.911 545.301 452.159Z" fill="#FABD3C"/>
<path d="M538.816 500.087C539.069 499.031 539.424 497.999 539.753 496.991C539.601 498.095 539.601 499.199 539.449 500.279L538.816 500.087Z" fill="#FABD3C"/>
</g>
</g>
</g>
</g>
<path d="M1317.79 480.167C1315.89 470.927 1302.03 448.967 1293.37 444.407C1284.7 439.847 1257.39 435.599 1252.35 431.279C1240.32 420.935 1233.53 400.079 1249.82 399.359C1265.02 398.783 1277.69 385.895 1278.22 380.639C1278.75 375.383 1283.59 362.399 1252.35 338.399C1261.12 357.599 1263.07 370.247 1257.42 382.463C1251.77 394.679 1213.57 398.351 1220.53 409.895C1223.7 415.151 1221.14 440.279 1225.75 444.503C1239.08 456.743 1266.74 463.919 1266.64 469.031C1266.54 474.143 1259.7 497.135 1250.07 497.471C1240.45 497.807 1233.43 491.519 1232.34 486.335C1231.97 484.675 1231.95 482.962 1232.28 481.296C1232.62 479.629 1233.3 478.041 1234.28 476.624C1235.26 475.207 1236.54 473.988 1238.02 473.039C1239.5 472.091 1241.17 471.43 1242.93 471.095C1235.02 460.391 1211.31 467.471 1209.34 473.279C1207.36 479.087 1208.93 502.967 1219.47 511.415C1230.01 519.863 1241.69 517.151 1255.42 518.423C1269.15 519.695 1275.68 528.431 1287.67 522.431C1299.65 516.431 1320.37 492.791 1317.79 480.167Z" fill="#61376B"/>
<g style="mix-blend-mode:multiply" opacity="0.48">
<g style="mix-blend-mode:multiply" opacity="0.48">
<path d="M1317.79 480.168C1315.89 470.928 1302.03 448.968 1293.37 444.408C1292.81 444.12 1292.2 443.832 1291.52 443.544C1292 445.722 1293.04 447.756 1294.53 449.472C1296.63 451.872 1299.27 453.96 1301.4 456.408C1303.96 459.578 1305.78 463.225 1306.74 467.109C1307.71 470.993 1307.79 475.026 1307 478.944C1305.31 486.781 1301.48 494.058 1295.87 500.04C1291.04 505.512 1284.35 510.528 1276.82 510C1280.86 504.663 1283.59 498.534 1284.79 492.066C1286 485.599 1285.66 478.957 1283.79 472.632C1281.46 479.433 1278.41 485.994 1274.7 492.216C1270.93 498.453 1265.28 503.471 1258.46 506.616C1246.45 511.728 1231.35 507.84 1222.56 498.552C1219.01 494.572 1216.37 489.939 1214.81 484.945C1213.24 479.952 1212.79 474.705 1213.47 469.536C1211.8 470.314 1210.45 471.598 1209.64 473.184C1207.64 478.992 1209.23 502.872 1219.77 511.32C1230.31 519.768 1241.99 517.056 1255.72 518.328C1269.45 519.6 1275.99 528.336 1287.97 522.336C1299.95 516.336 1320.37 492.792 1317.79 480.168Z" fill="#84529C"/>
</g>
<g style="mix-blend-mode:multiply" opacity="0.48">
<path d="M1225.83 444.408C1231.81 449.904 1240.67 454.368 1248.63 458.112C1245.44 455.712 1242.29 453.12 1239.3 450.456C1235.07 447.229 1231.87 442.937 1230.08 438.072C1228.44 431.952 1231 425.376 1229.53 419.232C1228.92 416.568 1227.58 414.12 1226.79 411.48C1226.3 410.197 1226.11 408.829 1226.23 407.469C1226.35 406.11 1226.78 404.792 1227.5 403.608C1229.68 400.608 1234.01 400.08 1237.63 398.928C1242.66 397.312 1246.95 394.099 1249.77 389.832L1250.12 389.184C1237.46 396.384 1215.11 400.728 1220.58 409.8C1223.78 415.056 1221.22 440.184 1225.83 444.408Z" fill="#84529C"/>
</g>
</g>
<path d="M549.353 664.8C551.05 656.64 563.438 637.296 571.165 633.216C578.892 629.136 596.726 623.808 601.21 619.992C611.977 610.848 618.082 595.584 603.592 595.032C589.988 594.528 585.276 581.52 584.769 576.864C584.262 572.208 580.386 554.616 607.822 539.472C599.994 556.44 598.246 567.624 603.212 578.4C608.177 589.176 642.402 592.44 636.145 602.64C633.308 607.272 635.613 629.496 631.484 633.216C623.504 640.416 609.722 645.72 601.565 649.752C597.562 651.72 597.917 660.216 597.942 661.752C597.942 666.264 601.16 679.752 609.773 680.064C618.386 680.376 624.644 674.784 625.505 670.2C625.829 668.727 625.842 667.208 625.541 665.731C625.24 664.254 624.633 662.848 623.754 661.595C622.874 660.342 621.741 659.267 620.42 658.433C619.098 657.599 617.615 657.022 616.056 656.736C623.098 647.28 644.277 653.544 646.05 658.68C647.824 663.816 646.405 684.912 637.006 692.28C627.608 699.648 617.17 697.368 604.909 698.496C592.648 699.624 586.821 707.328 576.08 702.024C565.338 696.72 547.048 675.936 549.353 664.8Z" fill="#61376B"/>
<g style="mix-blend-mode:multiply" opacity="0.48">
<g style="mix-blend-mode:multiply" opacity="0.48">
<path d="M549.353 664.799C551.051 656.639 563.439 637.295 571.165 633.215C571.672 632.951 572.229 632.711 572.837 632.447C572.401 634.376 571.47 636.173 570.127 637.679C568.252 639.863 565.896 641.639 564.021 643.823C561.72 646.602 560.077 649.816 559.203 653.249C558.328 656.682 558.244 660.253 558.955 663.719C560.457 670.661 563.884 677.098 568.885 682.367C573.217 687.167 579.196 691.607 585.909 691.151C582.304 686.455 579.871 681.046 578.791 675.33C577.712 669.614 578.015 663.74 579.677 658.151C581.755 664.161 584.48 669.951 587.809 675.431C591.179 680.973 596.227 685.43 602.3 688.223C607.789 690.25 613.8 690.647 619.533 689.361C625.266 688.075 630.45 685.167 634.397 681.023C637.578 677.52 639.954 673.427 641.371 669.006C642.789 664.584 643.218 659.931 642.631 655.343C644.112 656.023 645.307 657.156 646.025 658.559C647.824 663.695 646.38 684.791 636.981 692.159C627.583 699.527 617.145 697.247 604.884 698.375C592.623 699.503 586.796 707.207 576.055 701.903C565.313 696.599 547.048 675.935 549.353 664.799Z" fill="#84529C"/>
</g>
<g style="mix-blend-mode:multiply" opacity="0.48">
<path d="M631.51 633.192C625.362 638.107 618.492 642.149 611.116 645.192C613.979 643.032 616.766 640.8 619.451 638.448C623.223 635.602 626.076 631.81 627.684 627.504C629.154 622.104 626.874 616.296 628.166 610.848C628.723 608.448 629.939 606.312 630.699 604.008C631.14 602.875 631.312 601.664 631.203 600.461C631.093 599.258 630.705 598.092 630.066 597.048C628.14 594.408 624.264 593.928 620.996 592.92C616.523 591.496 612.703 588.657 610.179 584.88L609.875 584.304C621.098 590.76 641.136 594.504 636.247 602.52C633.334 607.2 635.639 629.472 631.51 633.192Z" fill="#84529C"/>
</g>
</g>
<path d="M543.147 1016.38C543.706 1013.66 543.433 1010.84 542.361 1008.26" stroke="#268E26" stroke-width="0.63" stroke-linecap="round" stroke-linejoin="round"/>
<path d="M541.55 1016.95C541.55 1016.95 540.689 1010.69 537.016 1010.02" stroke="white" stroke-width="0.63" stroke-linecap="round" stroke-linejoin="round"/>
<path d="M539.601 1017.12C539.601 1017.12 537.777 1011.84 534.078 1012.32" stroke="#0032D0" stroke-width="0.63" stroke-linecap="round" stroke-linejoin="round"/>
<path d="M545.755 1017.38C545.755 1017.38 545.147 1010.74 548.795 1008.79" stroke="#D30000" stroke-width="0.63" stroke-linecap="round" stroke-linejoin="round"/>
<path d="M547.402 1014.07L537.547 1016.3C537.927 1017.82 547.275 1053.55 580.614 1071.02C602.502 1082.47 629.304 1083.24 660.287 1073.3C752.779 1043.64 866.5 1067.93 867.64 1068.17L869.92 1058.83C865.183 1057.78 752.298 1033.68 657.12 1064.21C628.975 1073.23 604.959 1072.7 585.68 1062.65C556.192 1047.29 547.503 1014.41 547.402 1014.07Z" fill="#2B232D"/>
<path d="M537.546 1016.3C537.514 1015.9 537.386 1015.52 537.17 1015.17C536.955 1014.83 536.659 1014.53 536.305 1014.31C538.838 1014.82 538.838 1015.32 538.838 1015.32L539.851 1012.32L540.89 1014.72C540.89 1014.72 543.043 1011.34 545.121 1010.76C544.974 1011.75 544.974 1012.76 545.121 1013.76L548.693 1011.12C548.19 1011.45 547.793 1011.9 547.547 1012.43C547.301 1012.96 547.215 1013.55 547.299 1014.12C547.299 1016.52 546.286 1017.55 545.627 1017.77C543.995 1018.07 542.346 1018.29 540.687 1018.42C540.51 1018.32 537.546 1016.3 537.546 1016.3Z" fill="#2B232D"/>
<g style="mix-blend-mode:multiply" opacity="0.5">
<path d="M662.946 1070.81C631.963 1080.74 605.161 1079.97 583.273 1068.41C556.546 1054.41 545.273 1028.66 541.599 1018.22C541.219 1017.12 540.915 1016.21 540.713 1015.49C540.51 1014.77 540.257 1013.88 540.206 1013.71C540.18 1013.33 540.049 1012.95 539.826 1012.63L538.939 1015.22C538.939 1015.22 538.939 1015.08 538.534 1014.89C537.833 1014.55 537.081 1014.33 536.305 1014.21C536.654 1014.44 536.946 1014.73 537.161 1015.08C537.375 1015.42 537.507 1015.81 537.546 1016.21C537.951 1017.72 547.299 1053.45 580.613 1070.93C602.501 1082.37 629.303 1083.14 660.286 1073.21C752.778 1043.57 866.525 1067.83 867.665 1068.09L868.374 1065.19C853.047 1062.24 748.826 1043.25 662.946 1070.81Z" fill="#140716"/>
</g>
<path d="M520.422 993.6C525.05 995.016 528.959 998.009 531.391 1002" stroke="white" stroke-width="0.63" stroke-linecap="round" stroke-linejoin="round"/>
<path d="M533.598 987.864C533.598 987.864 533.598 997.152 536.308 1001.16" stroke="white" stroke-width="0.63" stroke-linecap="round" stroke-linejoin="round"/>
<path d="M547.605 988.319C547.605 988.319 541.424 994.319 541.551 1000.85" stroke="white" stroke-width="0.63" stroke-linecap="round" stroke-linejoin="round"/>
<path d="M1183.06 1072.8L1182.94 1063.2C1250.17 1062.43 1298.31 1044.55 1315.05 1014.12C1324.93 996.144 1322.65 974.712 1308.67 955.344C1275.91 909.744 1197.2 949.92 1196.44 950.328L1191.58 941.928C1195.12 940.08 1279.18 897.288 1317.05 949.944C1333.16 972.336 1335.7 997.344 1324.04 1018.56C1313.15 1038.43 1280.37 1071.79 1183.06 1072.8Z" fill="#2B232D"/>
<g style="mix-blend-mode:multiply" opacity="0.5">
<g style="mix-blend-mode:multiply" opacity="0.5">
<path d="M1318.5 1027.03C1303.45 1046.62 1267.63 1071.94 1183.06 1072.9L1182.94 1063.3H1185.95V1069.34C1265.47 1068.38 1301.9 1045.99 1318.5 1027.03Z" fill="#140716"/>
</g>
<g style="mix-blend-mode:multiply" opacity="0.5">
<path d="M1196.44 950.4L1191.55 941.976C1191.96 941.784 1193.32 941.088 1195.5 940.08L1199.38 946.8C1200.19 946.392 1278.87 906.288 1311.61 951.816C1325.56 971.184 1327.87 992.616 1317.99 1010.59C1315.88 1014.43 1313.33 1018.03 1310.39 1021.34C1312.14 1019.06 1313.7 1016.65 1315.08 1014.14C1324.98 996.168 1322.68 974.736 1308.72 955.368C1275.91 909.912 1197.23 950.016 1196.44 950.4Z" fill="#140716"/>
</g>
</g>
<path d="M1079.2 838.703C1073.42 863.111 1039.48 871.007 940.727 869.591C841.927 871.007 808.031 863.111 802.28 838.703C796.555 807.287 810.539 772.463 832.528 734.111C838.903 722.862 844.227 711.105 848.437 698.975C851.604 689.927 854.087 681.239 856.037 673.415C857.228 668.615 858.14 664.127 858.925 660.071C859.432 657.239 859.888 654.647 860.268 652.295C860.268 651.767 860.445 651.263 860.496 650.735C860.699 649.559 860.851 648.335 861.003 647.399C861.155 646.463 861.256 645.383 861.357 644.519C861.889 640.271 862.041 637.847 862.041 637.847L873.441 637.487L878.508 637.295L890.085 636.911L930.289 635.543C930.289 635.087 930.289 634.823 930.289 634.823L940.828 635.207L951.367 634.823C951.367 634.823 951.367 635.087 951.367 635.543L1009.84 637.535L1016.95 637.775H1019.49C1019.49 637.775 1019.49 638.303 1019.61 639.215C1019.61 639.671 1019.61 640.271 1019.77 640.967C1019.89 642.287 1020.07 644.015 1020.32 646.127C1020.32 646.967 1020.53 647.879 1020.65 648.863C1021.01 651.791 1021.46 655.223 1022.05 659.087C1022.25 660.359 1022.45 661.703 1022.68 663.071C1023.14 665.935 1023.67 668.983 1024.28 672.215C1025.69 679.919 1027.52 688.607 1029.82 697.919C1029.82 698.207 1030 698.543 1030.08 698.855C1030.5 700.583 1030.96 702.335 1031.45 704.111C1033.98 713.711 1037.04 723.719 1040.69 733.991C1053.69 770.399 1084.75 808.559 1079.2 838.703Z" fill="#61376B"/>
<path d="M796.606 515.328C792.248 505.008 790.956 493.2 789.006 475.08C786.143 448.296 784.75 426.096 783.458 412.416C781.786 394.824 791.97 398.28 799.24 401.088C812.262 406.128 830.679 417.888 840.052 424.344C854.644 434.304 877.546 462.576 876.938 475.68C862.447 492.96 836.303 510.648 796.606 515.328Z" fill="#61376B"/>
<g style="mix-blend-mode:multiply" opacity="0.5">
<path d="M876.938 475.68C876.229 476.528 875.494 477.368 874.734 478.2C869.896 463.8 851.478 442.2 839.065 433.656C829.717 427.248 811.198 415.44 798.253 410.4C792.908 408.336 786.068 405.912 783.408 411.672C782.065 394.872 792.046 398.304 799.241 401.088C812.262 406.128 830.68 417.888 840.053 424.344C854.645 434.4 877.521 462.6 876.938 475.68Z" fill="#61376B"/>
</g>
<path d="M809.147 513.336C805.955 505.392 807.069 495.024 805.271 481.224C802.611 460.776 801.04 443.88 799.799 433.44C798.203 420.024 805.043 422.904 809.932 425.232C818.697 429.408 831.237 438.864 837.621 443.952C847.577 451.896 867.616 475.368 867.591 485.304C858.496 498.072 835.291 510.792 809.147 513.336Z" fill="#A62E3A"/>
<g style="mix-blend-mode:multiply" opacity="0.35">
<path d="M867.413 483.625C861.018 474.359 853.427 465.885 844.816 458.401C838.432 453.313 825.892 443.857 817.127 439.705C812.237 437.305 805.397 434.473 806.993 447.889C808.235 458.329 809.78 475.249 812.465 495.673C813.301 502.105 813.504 507.673 813.808 512.809C812.263 513.049 810.692 513.241 809.147 513.385C805.955 505.441 807.069 495.073 805.271 481.249C802.611 460.825 801.04 443.929 799.799 433.489C798.203 420.073 805.043 422.953 809.932 425.281C818.723 429.433 831.237 438.913 837.647 444.001C847.045 451.489 865.513 472.921 867.413 483.625Z" fill="#A62E3A"/>
</g>
<path d="M1016.22 458.808C1021.85 480.408 1091.56 518.808 1101.32 510.792C1108.39 505.056 1109.27 470.64 1109.53 461.88C1110.31 435.024 1106.69 416.28 1109.22 406.2C1111.75 396.12 1103.5 386.424 1085.48 396.96C1067.47 407.496 1035.93 430.104 1016.22 458.808Z" fill="#3D243E"/>
<path d="M1016.22 458.808C1021.85 480.408 1091.56 518.808 1101.32 510.792C1108.39 505.056 1109.27 470.64 1109.53 461.88C1110.31 435.024 1106.69 416.28 1109.22 406.2C1111.75 396.12 1103.5 386.424 1085.48 396.96C1067.47 407.496 1035.93 430.104 1016.22 458.808Z" fill="#3D243E"/>
<path d="M1016.22 458.808C1021.85 480.408 1091.56 518.808 1101.32 510.792C1108.39 505.056 1109.27 470.64 1109.53 461.88C1110.31 435.024 1106.69 416.28 1109.22 406.2C1111.75 396.12 1103.5 386.424 1085.48 396.96C1067.47 407.496 1035.93 430.104 1016.22 458.808Z" fill="#61376B"/>
<g style="mix-blend-mode:multiply" opacity="0.5">
<path d="M1101.32 510.791C1099.83 511.743 1098.01 512.104 1096.25 511.799C1100.71 500.519 1101.32 474.863 1101.57 467.471C1102.35 440.615 1098.76 421.871 1101.26 411.815C1103.77 401.759 1095.54 392.015 1077.53 402.551C1073.47 404.951 1068.76 407.903 1063.64 411.407C1070.6 406.237 1077.85 401.43 1085.36 397.007C1103.37 386.471 1111.6 396.167 1109.09 406.247C1106.58 416.327 1110.18 435.047 1109.4 461.927C1109.27 470.639 1108.38 505.055 1101.32 510.791Z" fill="#61376B"/>
</g>
<path d="M1023.67 470.544C1027.01 483.384 1072.92 511.464 1078.74 506.736C1082.95 503.304 1091.41 475.104 1093.36 455.376C1095.01 439.44 1091.66 428.208 1093.18 422.208C1094.7 416.208 1089.76 410.424 1079.02 416.688C1068.28 422.952 1035.4 453.432 1023.67 470.544Z" fill="#A62E3A"/>
<g style="mix-blend-mode:multiply" opacity="0.35">
<path d="M1093.36 455.376C1091.31 475.128 1082.95 503.375 1078.74 506.735C1078.35 507.028 1077.88 507.203 1077.38 507.24C1081.57 494.552 1084.49 481.518 1086.09 468.312C1087.74 452.376 1084.39 441.144 1085.89 435.12C1087.38 429.095 1082.49 423.335 1071.75 429.623C1063.01 434.735 1039.43 456.024 1024.68 472.968C1024.26 472.202 1023.92 471.398 1023.67 470.568C1035.4 453.456 1068.31 423 1079.05 416.712C1089.79 410.424 1094.68 416.207 1093.18 422.231C1091.69 428.255 1095.03 439.44 1093.36 455.376Z" fill="#A62E3A"/>
</g>
<path d="M1123.56 572.543C1124.22 588.587 1119.66 604.437 1110.51 617.951C1104.87 626.298 1097.95 633.811 1089.99 640.247C1088.42 641.519 1086.85 642.767 1085.2 643.967C1083.56 645.167 1081.93 646.367 1080.14 647.495C1078.87 648.335 1077.6 649.199 1076.26 649.895C1074.92 650.591 1073.73 651.527 1072.28 652.295C1068.13 654.743 1063.85 656.999 1059.44 659.063L1058.7 659.375L1057.16 659.999L1056.07 660.383L1055.06 660.719C1054.01 661.055 1052.87 661.391 1051.64 661.727L1049.1 662.375L1047.03 662.879L1045.66 663.191L1041.73 664.007L1036.66 664.943C1034.41 665.375 1032.05 665.759 1029.6 666.143L1027.34 666.479L1023.31 667.055H1023.01H1022.73L1019.21 667.535L1014.9 668.087H1014.37H1014.19L1007.71 668.831L1003.88 669.263L1000.18 669.623L997.296 669.911L991.621 670.439L986.681 670.847L984.148 671.039L976.548 671.591L971.481 671.927L964.54 672.335L961.399 672.503L958.637 672.623L954.052 672.815L950.328 672.959L945.768 673.079H942.551H938.599C918.281 673.721 897.941 672.733 877.799 670.127L875.265 669.743L872.909 669.431L866.829 668.687H866.627L865.715 668.567L861.763 668.135L857.583 667.655L853.529 667.175L849.932 666.695H849.476C848.133 666.503 846.791 666.311 845.448 666.071C844.105 665.831 842.763 665.639 841.42 665.375L837.569 664.559H837.316C836.201 664.295 835.087 664.031 833.972 663.719L833.491 663.599C825.308 661.379 817.521 658.013 810.387 653.615C809.221 652.895 808.056 652.151 806.941 651.383C805.827 650.615 804.763 649.823 803.699 648.983C802.432 648.071 801.165 647.087 800 646.055L799.316 645.455C794.529 641.37 790.184 636.844 786.345 631.943C783.985 628.926 782.075 625.615 780.671 622.103C774.489 607.055 776.212 588.503 777.985 573.287C778.821 565.967 779.987 558.743 781.127 551.471C783.239 537.41 788.029 523.83 795.263 511.391C798.457 505.94 802.226 500.81 806.511 496.079C808.202 494.185 809.994 492.374 811.881 490.655C816.486 486.332 821.584 482.508 827.081 479.255C835.584 474.428 844.498 470.285 853.732 466.871L857.481 465.455C860.319 464.399 863.232 463.391 866.196 462.431C868.045 461.831 869.945 461.231 871.871 460.679C886.904 456.233 902.313 453.021 917.927 451.079V451.079C932.035 449.322 946.258 448.52 960.487 448.679C967.327 448.679 974.192 448.871 981.032 449.159C994.154 449.574 1007.22 450.946 1020.12 453.263V453.263C1025.06 454.207 1029.95 455.384 1034.76 456.791C1036.08 457.151 1037.3 457.559 1038.69 457.967C1051.98 462.136 1064.31 468.65 1075.04 477.167C1077.86 479.439 1080.61 481.895 1083.28 484.535C1084.06 485.303 1084.82 486.095 1085.58 486.935C1085.58 486.935 1085.58 486.935 1085.71 487.055C1085.84 487.175 1086.24 487.631 1086.49 487.943C1086.75 488.255 1087.15 488.639 1087.46 488.999C1088.27 489.863 1089.03 490.751 1089.81 491.687C1090.65 492.671 1091.46 493.655 1092.35 494.711L1093.61 496.367L1094.02 496.895C1094.53 497.567 1094.98 498.263 1095.49 498.959C1095.99 499.655 1096.45 500.303 1096.91 500.999C1097.36 501.695 1097.46 501.791 1097.72 502.199L1098.43 503.231L1099.19 504.479C1099.79 505.439 1100.4 506.375 1100.99 507.359L1102.23 509.471C1104.56 513.455 1106.66 517.343 1108.59 521.135C1110.08 524.111 1111.45 527.039 1112.69 529.895C1113.32 531.335 1113.91 532.751 1114.49 534.167C1115.07 535.583 1115.6 536.975 1116.11 538.343C1116.62 539.711 1117.1 541.127 1117.55 542.471C1118.01 543.815 1118.62 545.831 1119.1 547.487C1119.58 549.143 1120.04 550.775 1120.42 552.407C1121.2 555.623 1121.81 558.791 1122.29 561.863C1122.29 562.535 1122.49 563.183 1122.57 563.879C1122.57 564.527 1122.75 565.223 1122.8 565.895V566.447V567.023C1122.8 567.311 1122.8 567.575 1122.8 567.839V568.679C1123.25 570.007 1123.51 571.295 1123.56 572.543Z" fill="#61376B"/>
<path d="M916.459 564.936L915.75 557.736C915.522 553.92 912.862 553.512 911.418 557.448L910.987 559.224C909.974 564.48 907.998 565.92 902.196 564.912L795.797 550.008C791.313 549.12 791.313 556.92 794.682 557.208L908.454 572.136C912.912 572.856 916.484 570.576 916.459 564.936Z" fill="#1D111E"/>
<path d="M911.999 572.712C907.236 648.12 787.612 636.72 796.656 557.592L911.999 572.712Z" fill="#FABD3C"/>
<g style="mix-blend-mode:multiply" opacity="0.9">
<path d="M911.568 577.104C902.651 646.512 791.311 635.52 796.301 561.168C800.836 623.496 894.646 633.072 911.568 577.104Z" fill="#FABD3C"/>
</g>
<path d="M895.763 570.048C892.343 624.36 806.184 616.152 812.695 559.176L895.763 570.048Z" fill="#1D111E"/>
<path d="M827.361 573.431C812.161 578.615 805.701 589.079 812.339 590.567C818.976 592.055 829.591 581.135 831.947 578.999C836.735 574.655 835.443 570.695 827.361 573.431Z" fill="white"/>
<path d="M831.26 588.888C820.798 592.416 816.44 599.592 821 600.576C825.56 601.56 832.78 594.144 834.402 592.68C837.67 589.704 836.783 587.016 831.26 588.888Z" fill="white"/>
<path d="M1086.12 556.583L972.394 571.487C965.25 572.351 962.514 570.167 962.894 562.895C962.894 561.431 963.451 557.015 963.451 557.015C963.73 552.623 967.175 554.471 967.733 556.727C968.771 564.623 973.863 564.791 979.082 564.071L1085.48 549.191C1091.21 548.495 1091.54 556.031 1086.12 556.583Z" fill="#1D111E"/>
<path d="M967.43 572.159C972.192 647.543 1091.82 636.143 1082.77 557.039L967.43 572.159Z" fill="#FABD3C"/>
<g style="mix-blend-mode:multiply" opacity="0.9">
<path d="M968.771 581.999C988.684 634.175 1079.6 623.303 1083.15 561.527C1087.05 633.023 982.629 645.047 968.771 581.999Z" fill="#FABD3C"/>
</g>
<path d="M983.615 569.496C987.061 623.784 1073.22 615.576 1066.71 558.6L983.615 569.496Z" fill="#1D111E"/>
<path d="M1052.04 572.879C1067.37 578.063 1073.7 588.527 1067.07 589.991C1060.43 591.455 1049.81 580.559 1047.46 578.423C1042.67 574.079 1043.96 570.119 1052.04 572.879Z" fill="white"/>
<path d="M1048.14 588.312C1058.6 591.864 1062.94 599.016 1058.4 600.024C1053.87 601.032 1046.62 593.568 1045 592.104C1041.73 589.152 1042.59 586.44 1048.14 588.312Z" fill="white"/>
<path d="M950.835 592.295C949.467 589.103 928.263 589.103 926.084 593.135C924.387 596.279 933.127 607.343 938.447 607.319C942.551 607.199 952.659 596.495 950.835 592.295Z" fill="#A62E3A"/>
<g style="mix-blend-mode:multiply" opacity="0.28">
<path d="M938.474 607.32C934.244 607.32 927.885 600.408 926.264 595.968C928.949 599.424 932.825 602.664 935.713 602.64C939.006 602.64 946.15 595.68 947.924 590.76C949.494 591.144 950.457 591.648 950.837 592.296C952.661 596.496 942.553 607.2 938.474 607.32Z" fill="#A62E3A"/>
</g>
<g style="mix-blend-mode:multiply" opacity="0.5">
<path d="M1011.99 652.055H1012.27C1014.12 652.415 1016.27 652.776 1018.63 653.136L1023.29 653.831L1032.16 655.127L1038.74 656.183C1045.04 657.14 1051.27 658.462 1057.39 660.143V660.143C1059.56 660.751 1061.67 661.505 1063.72 662.399C1068.94 664.799 1074.26 667.775 1080.06 667.439C1083.15 667.271 1086.19 666.119 1089.26 666.527C1093.36 667.055 1096.71 670.247 1100.84 670.655C1104.1 670.943 1107.32 669.431 1110.59 669.671C1112.82 670.081 1115.03 670.609 1117.2 671.255C1121.31 671.999 1126.55 671.087 1128.75 674.423C1129.61 675.695 1129.74 677.303 1130.55 678.599C1131.3 679.691 1132.35 680.564 1133.59 681.119C1139.6 684.167 1146.89 683.351 1153.63 682.463C1155.48 682.223 1157.66 681.743 1158.39 680.063C1158.63 679.267 1158.55 678.415 1158.17 677.671C1157.79 676.927 1157.13 676.343 1156.32 676.031C1154.66 675.488 1152.84 675.583 1151.25 676.295M1179.29 616.415C1176.2 615.935 1172.58 613.872 1173.19 610.968C1173.44 610.152 1173.94 609.426 1174.64 608.883C1175.33 608.34 1176.17 608.005 1177.06 607.92C1178.85 607.808 1180.65 608.087 1182.31 608.735C1186.46 610.079 1191.15 612.96 1190.69 617.112C1190.5 618.231 1190.02 619.288 1189.29 620.188C1188.56 621.089 1187.6 621.804 1186.51 622.271C1184.32 623.191 1181.99 623.759 1179.6 623.952C1173.59 624.768 1166.7 625.319 1162.29 621.383C1161.19 620.05 1159.83 618.927 1158.29 618.071C1154.87 616.799 1151.55 620.015 1149.35 622.871C1147.15 625.727 1143.6 628.775 1140.28 627.215C1138.03 626.159 1137.34 623.471 1135.8 621.599C1134.61 620.212 1132.95 619.26 1131.1 618.905C1129.25 618.551 1127.33 618.816 1125.66 619.655C1124.37 620.351 1123.31 621.359 1121.99 622.055C1121.36 622.429 1120.63 622.615 1119.89 622.589C1119.15 622.563 1118.43 622.327 1117.83 621.912C1117.36 621.378 1116.94 620.799 1116.59 620.183C1115.89 619.38 1114.98 618.759 1113.95 618.381C1112.92 618.003 1111.81 617.88 1110.72 618.024H1110.54C1108.43 618.348 1106.37 618.92 1104.41 619.727C1100.04 621.135 1095.53 622.116 1090.96 622.655C1087.31 623.111 1083.61 623.399 1079.91 623.663C1077.02 623.903 1074.13 624.095 1071.3 624.383C1050.04 626.423 1036.31 634.223 1015.39 630.263L1179.29 616.415ZM1174.3 653.999C1176.93 654.256 1179.59 653.745 1181.9 652.536C1183 651.897 1183.8 650.886 1184.14 649.709C1184.48 648.532 1184.33 647.277 1183.73 646.199C1182.78 645.167 1181.5 644.465 1180.08 644.208C1172.79 642.258 1165 642.916 1158.19 646.055C1155.77 647.541 1153.04 648.507 1150.19 648.887C1146.26 648.887 1142.84 646.055 1138.91 645.887C1134.99 645.719 1132.1 647.831 1128.78 648.959C1125.82 649.927 1122.65 650.188 1119.56 649.719C1116.46 649.25 1113.54 648.066 1111.05 646.271C1109.42 645.071 1107.68 643.535 1105.65 643.871C1104.93 644.038 1104.25 644.34 1103.65 644.759C1100.25 646.967 1097.21 650.159 1093.13 650.639C1090.15 650.729 1087.19 650.119 1084.52 648.863C1083.25 648.407 1081.99 647.951 1080.44 647.543C1077.91 646.799 1074.95 646.104 1071.83 645.48C1069.3 644.952 1066.56 644.471 1063.75 644.039C1047.85 641.543 1031.73 640.475 1015.61 640.847L1174.3 653.999Z" stroke="#1D111E" stroke-width="0.68" stroke-linecap="round" stroke-linejoin="round"/>
</g>
<g style="mix-blend-mode:screen" opacity="0.65">
<path d="M940.475 591.599C936.273 590.626 931.836 591.274 928.138 593.399C927.504 593.807 927.707 595.031 928.568 595.055C930.442 594.918 932.293 594.588 934.091 594.071C936.104 593.769 938.134 593.584 940.171 593.519C941.159 593.447 941.488 591.887 940.475 591.599Z" fill="#A62E3A"/>
</g>
<path style="mix-blend-mode:color-dodge" d="M849.275 660.792C872.85 660.792 891.961 648.37 891.961 633.048C891.961 617.725 872.85 605.304 849.275 605.304C825.699 605.304 806.588 617.725 806.588 633.048C806.588 648.37 825.699 660.792 849.275 660.792Z" fill="url(#paint0_radial)"/>
<path style="mix-blend-mode:color-dodge" d="M1037.86 656.16C1061.43 656.16 1080.54 643.738 1080.54 628.416C1080.54 613.093 1061.43 600.672 1037.86 600.672C1014.28 600.672 995.17 613.093 995.17 628.416C995.17 643.738 1014.28 656.16 1037.86 656.16Z" fill="url(#paint1_radial)"/>
<g style="mix-blend-mode:screen" opacity="0.43">
<path d="M905.894 559.632C895.912 559.632 885.804 556.656 876.076 554.688C866.728 552.792 857.279 550.464 847.779 549.336C846.462 549.192 846.284 551.136 847.475 551.472C857.456 554.4 867.995 556.032 878.204 558.096L892.872 561.072C897.154 561.936 901.916 563.472 906.248 562.152C906.548 562.055 906.803 561.863 906.969 561.608C907.136 561.353 907.204 561.051 907.163 560.754C907.121 560.457 906.971 560.182 906.74 559.978C906.509 559.773 906.209 559.651 905.894 559.632V559.632Z" fill="#3D243E"/>
</g>
<g style="mix-blend-mode:screen" opacity="0.43">
<path d="M1084.09 544.8C1065.77 545.304 1047.35 548.904 1029.27 551.352L1001.4 555.12C996.334 555.816 971.811 561.264 972.014 552.72C972.014 551.28 969.48 550.872 969.278 552.384C967.986 560.76 979.563 560.376 985.263 559.968C995.979 559.2 1006.64 557.304 1017.26 555.864C1039.45 552.84 1061.69 549.096 1084.06 547.608C1085.99 547.512 1086.04 544.8 1084.09 544.8Z" fill="#3D243E"/>
</g>
<path d="M911.416 458.567C919.447 447.695 939.587 432.023 945.084 436.103C946.579 437.423 939.536 443.495 938.573 447.887C946.173 442.823 963.273 431.087 963.096 436.031C963.273 438.431 959.6 443.111 957.852 446.663C961.855 443.111 980.652 432.695 981.412 437.807C982.095 442.951 981.691 448.173 980.221 453.167L939.08 457.967L911.416 458.567Z" fill="#61376B"/>
<g style="mix-blend-mode:multiply" opacity="0.5">
<path d="M1123.56 572.544C1124.22 588.589 1119.66 604.439 1110.51 617.952C1104.87 626.3 1097.95 633.813 1089.99 640.248C1088.42 641.52 1086.85 642.768 1085.2 643.968C1083.56 645.168 1081.91 646.368 1080.14 647.472C1078.87 648.336 1077.6 649.176 1076.29 650.016C1074.97 650.856 1073.75 651.648 1072.31 652.416C1068.15 654.848 1063.87 657.096 1059.46 659.16L1058.73 659.496L1057.18 660.12L1056.09 660.504L1055.08 660.84C1054.03 661.176 1052.89 661.512 1051.66 661.848L1049.13 662.496L1047.05 663L1045.68 663.312L1041.76 664.128L1036.69 665.064C1033.75 665.592 1030.63 666.096 1027.34 666.6L1023.31 667.176H1023.01H1022.65L1019.13 667.656L1014.83 668.208H1014.29H1014.12L1007.63 668.952L1003.81 669.384L1000.11 669.744L997.22 670.032L991.546 670.56L986.606 670.968L984.072 671.16L976.472 671.712L971.406 672.048L964.464 672.456L961.323 672.624L958.562 672.744L953.976 672.936L950.252 673.08L945.692 673.2H942.475H938.523C918.205 673.842 897.865 672.855 877.723 670.248L872.884 669.552L866.804 668.808H866.602L861.738 668.256L857.558 667.776L853.504 667.296L849.907 666.816H849.451C848.108 666.624 846.766 666.432 845.423 666.192C844.08 665.952 842.738 665.76 841.395 665.496L837.544 664.68H837.291C836.176 664.416 835.062 664.152 833.947 663.84L833.466 663.72C825.283 661.5 817.496 658.135 810.362 653.736C809.196 653.016 808.031 652.272 806.916 651.504C805.802 650.736 804.662 649.944 803.572 649.104C810.252 652.068 817.299 654.221 824.548 655.512V655.512C830.755 656.856 837.95 658.104 845.904 659.232C848.438 659.616 851.224 659.976 854.011 660.336C858.166 660.864 862.472 661.344 866.931 661.8H867.868C871.39 662.136 875.012 662.472 878.686 662.76C920.03 666.12 970.57 666.144 1012.52 658.8L1014.5 658.44C1018.27 657.768 1021.95 657.024 1025.54 656.208C1026.86 655.92 1028.08 655.632 1029.44 655.296L1031.67 654.744C1042.6 652.152 1053.19 648.417 1063.24 643.608C1069.07 640.817 1074.52 637.368 1079.48 633.336V633.336C1083.54 629.96 1087.27 626.24 1090.62 622.224C1120.24 586.632 1108.81 538.224 1098.71 511.344C1098.22 510.096 1097.74 508.944 1097.29 507.744C1095.07 502.131 1092.53 496.635 1089.69 491.28C1090.52 492.264 1091.33 493.248 1092.22 494.304L1093.49 495.96L1093.89 496.488C1094.4 497.16 1094.85 497.856 1095.36 498.552C1095.87 499.248 1096.32 499.896 1096.78 500.592C1097.24 501.288 1097.34 501.384 1097.59 501.792L1098.3 502.824L1099.06 504.072C1099.67 505.032 1100.28 505.968 1100.86 506.952L1102.1 509.064C1104.43 513.048 1106.53 516.936 1108.46 520.728C1109.95 523.704 1111.32 526.632 1112.56 529.488C1113.2 530.928 1113.78 532.344 1114.36 533.76C1114.94 535.176 1115.48 536.568 1115.98 537.936C1116.49 539.304 1116.97 540.72 1117.4 542.064C1117.83 543.408 1118.49 545.424 1118.97 547.08C1119.45 548.736 1119.91 550.368 1120.29 552C1121.07 555.216 1121.68 558.384 1122.16 561.456C1122.16 562.128 1122.37 562.776 1122.44 563.472C1122.44 564.12 1122.62 564.816 1122.67 565.488V566.04C1122.68 566.232 1122.68 566.424 1122.67 566.616V567.432V568.272C1123.21 569.872 1123.51 571.296 1123.56 572.544Z" fill="#61376B"/>
</g>
<g style="mix-blend-mode:multiply" opacity="0.5">
<path d="M750.272 676.368C748.684 675.656 746.865 675.561 745.205 676.104C744.392 676.411 743.728 676.995 743.344 677.74C742.96 678.486 742.883 679.34 743.128 680.136C743.837 681.792 746.016 682.272 747.89 682.536C754.629 683.424 761.925 684.24 767.904 681.192C769.157 680.645 770.22 679.771 770.969 678.672C771.78 677.376 771.906 675.768 772.742 674.496C774.972 671.16 780.342 672.096 784.294 671.328C786.474 670.685 788.69 670.156 790.932 669.744C794.2 669.504 797.417 671.016 800.685 670.728C804.814 670.32 808.158 667.128 812.262 666.6C815.328 666.192 818.368 667.344 821.458 667.512C825.915 667.441 830.277 666.284 834.125 664.152L837.697 662.472C839.34 661.736 841.033 661.103 842.764 660.576C843.853 660.24 844.968 659.904 846.158 659.592C853.723 657.758 861.384 656.3 869.11 655.224L874.177 654.456L877.268 654C881.904 653.352 886.084 652.704 889.377 652.08M885.856 630.192C864.905 634.152 851.174 626.352 829.945 624.312C823.232 623.664 816.442 623.4 809.678 622.512C805.274 621.971 800.937 621.014 796.733 619.656C794.714 618.812 792.583 618.231 790.4 617.928C789.311 617.785 788.201 617.908 787.177 618.286C786.152 618.664 785.247 619.285 784.548 620.088C784.199 620.704 783.783 621.283 783.306 621.816C782.928 622.114 782.481 622.324 782.001 622.428C781.521 622.532 781.023 622.528 780.545 622.416C780.048 622.341 779.569 622.187 779.126 621.96C777.834 621.288 776.745 620.28 775.478 619.56C773.811 618.73 771.893 618.47 770.046 618.824C768.2 619.178 766.54 620.125 765.345 621.504C763.825 623.376 763.116 626.064 760.861 627.12C757.568 628.68 754.021 625.584 751.817 622.776C749.613 619.968 746.294 616.776 742.849 617.976C741.202 618.6 740.164 620.136 738.846 621.288C734.464 625.224 727.548 624.672 721.569 623.856C719.181 623.667 716.843 623.099 714.653 622.176C713.562 621.705 712.609 620.989 711.876 620.09C711.143 619.191 710.653 618.136 710.448 617.016C710.017 612.864 714.678 609.984 718.858 608.64C720.517 607.99 722.311 607.711 724.102 607.824C724.992 607.911 725.834 608.247 726.52 608.79C727.206 609.334 727.705 610.059 727.953 610.872C728.586 613.776 724.964 615.84 721.873 616.32L885.856 630.192ZM885.856 640.8C868.376 639.984 833.213 642.84 816.898 648.84L814.973 649.56C812.871 650.404 810.588 650.766 808.31 650.616C804.865 650.208 802.154 647.856 799.317 645.816C798.81 645.456 798.304 645.096 797.772 644.76C797.177 644.336 796.495 644.034 795.77 643.872C793.769 643.512 791.996 645.048 790.374 646.272C787.882 648.071 784.958 649.258 781.864 649.727C778.77 650.196 775.602 649.932 772.641 648.96C769.246 647.832 766.029 645.72 762.508 645.888C758.986 646.056 755.161 648.936 751.209 648.888C748.362 648.509 745.638 647.542 743.229 646.056C736.419 642.919 728.629 642.261 721.341 644.208C719.921 644.459 718.634 645.162 717.693 646.2C717.088 647.276 716.937 648.528 717.271 649.705C717.605 650.882 718.399 651.894 719.492 652.536C721.811 653.739 724.461 654.249 727.092 654L885.856 640.8Z" stroke="#1D111E" stroke-width="0.68" stroke-linecap="round" stroke-linejoin="round"/>
</g>
<g style="mix-blend-mode:multiply" opacity="0.5">
<path d="M1022.66 667.2C1020.2 664.248 1017.57 661.428 1014.78 658.752C1014.04 658.032 1013.28 657.336 1012.52 656.64C1009.49 653.847 1006.28 651.226 1002.92 648.792C991.074 639.758 977.213 633.397 962.387 630.192C962.007 631.728 961.45 632.928 960.664 633.168C958.992 633.648 956.51 631.272 954.559 629.016C945.194 628.028 935.716 628.844 926.692 631.416C925.476 633.216 924.159 634.68 922.842 634.56C922.259 634.56 921.727 633.96 921.221 633.192C918.671 634.147 916.177 635.229 913.747 636.432C908.213 639.145 902.97 642.36 898.091 646.032C897.078 646.776 896.09 647.544 895.102 648.432C887.04 655.101 879.504 662.32 872.555 670.032C865.614 677.496 858.495 684.936 852.289 692.952C852.198 693.046 852.122 693.151 852.061 693.264C853.125 688.944 858.85 673.416 859.661 669.768C859.661 669.768 862.194 668.88 862.194 668.856C860.573 668.688 863.815 669.048 862.194 668.856C863.917 666.648 865.69 664.488 867.539 662.328L868.679 661.008C869.971 659.544 871.213 658.104 872.631 656.664L874.582 654.624C876.457 652.728 878.357 650.856 880.333 649.056C883.727 645.88 887.296 642.876 891.023 640.056L892.391 639C899.88 633.373 908.159 628.76 916.99 625.296C913.722 622.584 913.925 620.496 913.925 620.496L967.353 618.096C967.424 619.472 967.1 620.84 966.415 622.056C976.885 624.432 986.907 628.317 996.131 633.576C1006.19 639.203 1015.38 646.134 1023.42 654.168C1023.72 654.432 1024 654.72 1024.28 655.008C1024.56 655.296 1025.54 656.28 1026.15 656.928C1028.48 659.328 1030.69 661.92 1032.71 664.488C1036.97 663.098 1041.55 662.816 1045.96 663.672L1042.04 664.488L1036.97 665.424C1034.71 665.856 1032.36 666.24 1029.88 666.624L1027.62 666.96L1023.59 667.536H1023.29L1022.66 667.2Z" fill="#61376B"/>
</g>
<path d="M1237.74 1107.36H647.875C638.683 1107.36 629.869 1103.9 623.369 1097.74C616.87 1091.59 613.219 1083.23 613.219 1074.53H1272.39C1272.39 1083.23 1268.74 1091.59 1262.24 1097.74C1255.74 1103.9 1246.93 1107.36 1237.74 1107.36V1107.36Z" fill="#5E2600"/>
<path d="M1253.24 751.2V1040.06C1253.24 1052.51 1248.02 1064.45 1238.73 1073.26C1229.43 1082.06 1216.83 1087.01 1203.69 1087.01H681.822C675.318 1087.01 668.877 1085.79 662.869 1083.44C656.86 1081.08 651.4 1077.62 646.801 1073.27C642.202 1068.91 638.554 1063.74 636.065 1058.04C633.576 1052.35 632.295 1046.25 632.295 1040.09V751.2C632.295 745.039 633.576 738.937 636.065 733.245C638.554 727.552 642.202 722.38 646.801 718.023C651.4 713.666 656.86 710.21 662.869 707.852C668.877 705.494 675.318 704.28 681.822 704.28H1203.69C1210.19 704.277 1216.64 705.488 1222.65 707.845C1228.66 710.201 1234.12 713.657 1238.73 718.014C1243.33 722.372 1246.98 727.545 1249.47 733.239C1251.96 738.933 1253.24 745.037 1253.24 751.2V751.2Z" fill="#5E2600"/>
<path d="M1198.72 716.712H686.887C667.957 716.712 652.611 731.25 652.611 749.184V1042.06C652.611 1059.99 667.957 1074.53 686.887 1074.53H1198.72C1217.65 1074.53 1233 1059.99 1233 1042.06V749.184C1233 731.25 1217.65 716.712 1198.72 716.712Z" fill="#FFC33B"/>
<g style="mix-blend-mode:multiply">
<path d="M1233 739.416V1042.06C1232.98 1047.09 1231.73 1052.06 1229.34 1056.56C1226.96 1061.06 1223.5 1064.98 1219.24 1068C1223.65 1062.46 1226.06 1055.73 1226.13 1048.8V746.04C1226.14 743.058 1225.52 740.104 1224.31 737.348C1223.11 734.592 1221.35 732.088 1219.12 729.979C1216.89 727.87 1214.25 726.198 1211.34 725.058C1208.43 723.918 1205.32 723.333 1202.17 723.336H679.895C672.51 723.331 665.321 725.587 659.4 729.768C662.594 725.716 666.741 722.425 671.513 720.159C676.285 717.892 681.549 716.712 686.887 716.712H1209.03C1212.18 716.709 1215.3 717.294 1218.21 718.434C1221.12 719.574 1223.76 721.246 1225.99 723.355C1228.21 725.464 1229.98 727.968 1231.18 730.724C1232.38 733.48 1233 736.433 1233 739.416V739.416Z" fill="#FFD47D"/>
</g>
<g style="mix-blend-mode:multiply" opacity="0.78">
<g style="mix-blend-mode:multiply" opacity="0.78">
<path d="M1259.7 1074.53C1207.18 1075.92 1154.66 1076.86 1102.15 1077.34C1075.91 1077.67 1049.64 1077.72 1023.39 1077.94L944.629 1078.1L865.843 1077.91C839.597 1077.72 813.327 1077.65 787.081 1077.31C734.557 1076.83 682.041 1075.9 629.533 1074.53H1259.7Z" fill="#E17022"/>
</g>
</g>
<g style="mix-blend-mode:multiply" opacity="0.2">
<g style="mix-blend-mode:multiply" opacity="0.2">
<path d="M1140.68 752.208H736.667C731.292 752.208 726.137 754.231 722.336 757.832C718.536 761.432 716.4 766.316 716.4 771.408V1027.7C716.4 1032.8 718.536 1037.68 722.336 1041.28C726.137 1044.88 731.292 1046.9 736.667 1046.9H1140.68C1146.06 1046.9 1151.21 1044.88 1155.01 1041.28C1158.81 1037.68 1160.95 1032.8 1160.95 1027.7V771.36C1160.94 766.276 1158.8 761.405 1155 757.815C1151.2 754.224 1146.05 752.208 1140.68 752.208V752.208Z" fill="#E4640A"/>
</g>
<g style="mix-blend-mode:multiply" opacity="0.2">
<path d="M744.014 780.504C746.896 780.504 749.232 778.291 749.232 775.56C749.232 772.83 746.896 770.616 744.014 770.616C741.131 770.616 738.795 772.83 738.795 775.56C738.795 778.291 741.131 780.504 744.014 780.504Z" fill="black"/>
</g>
<g style="mix-blend-mode:multiply" opacity="0.2">
<path d="M768.664 780.504C771.546 780.504 773.883 778.291 773.883 775.56C773.883 772.83 771.546 770.616 768.664 770.616C765.782 770.616 763.445 772.83 763.445 775.56C763.445 778.291 765.782 780.504 768.664 780.504Z" fill="black"/>
</g>
<g style="mix-blend-mode:multiply" opacity="0.2">
<path d="M793.338 780.504C796.22 780.504 798.557 778.291 798.557 775.56C798.557 772.83 796.22 770.616 793.338 770.616C790.456 770.616 788.119 772.83 788.119 775.56C788.119 778.291 790.456 780.504 793.338 780.504Z" fill="black"/>
</g>
</g>
<path d="M1169.13 763.535V1020C1169.13 1025.09 1167 1029.97 1163.2 1033.58C1159.4 1037.18 1154.24 1039.2 1148.87 1039.2H744.927C739.552 1039.2 734.397 1037.18 730.596 1033.58C726.795 1029.97 724.66 1025.09 724.66 1020V763.535C724.66 758.443 726.795 753.559 730.596 749.958C734.397 746.358 739.552 744.335 744.927 744.335H1148.94C1154.3 744.354 1159.44 746.385 1163.22 749.984C1167.01 753.582 1169.13 758.455 1169.13 763.535Z" fill="white"/>
<path d="M1169.13 763.535V791.111H724.711V763.535C724.711 758.443 726.846 753.559 730.647 749.958C734.448 746.358 739.603 744.335 744.978 744.335H1148.94C1154.3 744.354 1159.44 746.385 1163.22 749.984C1167.01 753.582 1169.13 758.455 1169.13 763.535Z" fill="#E4640A"/>
<path d="M752.273 772.68C755.156 772.68 757.492 770.466 757.492 767.736C757.492 765.006 755.156 762.792 752.273 762.792C749.391 762.792 747.055 765.006 747.055 767.736C747.055 770.466 749.391 772.68 752.273 772.68Z" fill="white"/>
<path d="M776.922 772.68C779.804 772.68 782.14 770.466 782.14 767.736C782.14 765.006 779.804 762.792 776.922 762.792C774.04 762.792 771.703 765.006 771.703 767.736C771.703 770.466 774.04 772.68 776.922 772.68Z" fill="white"/>
<path d="M801.57 772.68C804.452 772.68 806.789 770.466 806.789 767.736C806.789 765.006 804.452 762.792 801.57 762.792C798.688 762.792 796.352 765.006 796.352 767.736C796.352 770.466 798.688 772.68 801.57 772.68Z" fill="white"/>
<path d="M864.736 911C863.918 911 863.182 910.714 862.527 910.141C861.954 909.487 861.668 908.75 861.668 907.932V894.065H823.504C822.604 894.065 821.868 893.779 821.295 893.206C820.722 892.634 820.436 891.897 820.436 890.998V879.34C820.436 878.112 820.886 876.844 821.786 875.535L857.496 827.186C858.641 825.795 860.155 825.1 862.036 825.1H879.953C880.853 825.1 881.589 825.386 882.161 825.959C882.734 826.531 883.02 827.268 883.02 828.168V875.781H893.819C894.801 875.781 895.578 876.108 896.151 876.763C896.724 877.335 897.01 878.031 897.01 878.849V890.998C897.01 891.897 896.724 892.634 896.151 893.206C895.578 893.779 894.842 894.065 893.942 894.065H883.02V907.932C883.02 908.75 882.734 909.487 882.161 910.141C881.589 910.714 880.853 911 879.953 911H864.736ZM862.159 876.64V847.679L841.543 876.64H862.159ZM942.367 912.227C931.078 912.145 922.529 909.159 916.72 903.269C910.912 897.297 907.762 889.484 907.271 879.83C907.107 875.413 907.026 871.486 907.026 868.05C907.026 864.532 907.107 860.482 907.271 855.901C907.598 849.765 909.071 844.325 911.689 839.58C914.388 834.753 918.315 830.949 923.469 828.168C928.623 825.304 934.923 823.873 942.367 823.873C953.412 823.954 961.92 826.94 967.892 832.831C973.864 838.721 977.096 846.411 977.587 855.901C977.75 860.482 977.832 864.532 977.832 868.05C977.832 871.486 977.75 875.413 977.587 879.83C977.014 889.484 973.823 897.297 968.015 903.269C962.206 909.159 953.657 912.145 942.367 912.227ZM942.367 894.434C946.376 894.434 949.362 893.125 951.326 890.507C953.371 887.807 954.475 884.044 954.639 879.217C954.803 876.844 954.884 873.04 954.884 867.804C954.884 862.569 954.803 858.846 954.639 856.637C954.475 851.974 953.412 848.293 951.448 845.593C949.485 842.893 946.458 841.503 942.367 841.421C938.359 841.503 935.332 842.893 933.287 845.593C931.323 848.293 930.26 851.974 930.096 856.637C930.014 858.846 929.973 862.569 929.973 867.804C929.973 873.04 930.014 876.844 930.096 879.217C930.505 889.361 934.595 894.434 942.367 894.434ZM1031.91 911C1031.09 911 1030.36 910.714 1029.7 910.141C1029.13 909.487 1028.84 908.75 1028.84 907.932V894.065H990.679C989.779 894.065 989.042 893.779 988.47 893.206C987.897 892.634 987.611 891.897 987.611 890.998V879.34C987.611 878.112 988.061 876.844 988.961 875.535L1024.67 827.186C1025.82 825.795 1027.33 825.1 1029.21 825.1H1047.13C1048.03 825.1 1048.76 825.386 1049.34 825.959C1049.91 826.531 1050.2 827.268 1050.2 828.168V875.781H1060.99C1061.98 875.781 1062.75 876.108 1063.33 876.763C1063.9 877.335 1064.18 878.031 1064.18 878.849V890.998C1064.18 891.897 1063.9 892.634 1063.33 893.206C1062.75 893.779 1062.02 894.065 1061.12 894.065H1050.2V907.932C1050.2 908.75 1049.91 909.487 1049.34 910.141C1048.76 910.714 1048.03 911 1047.13 911H1031.91ZM1029.33 876.64V847.679L1008.72 876.64H1029.33Z" fill="#E4640A"/>
<path d="M822.669 997C822.144 997 821.697 996.842 821.33 996.527C821.014 996.159 820.857 995.713 820.857 995.187V943.723C820.857 943.145 821.014 942.699 821.33 942.383C821.697 942.015 822.144 941.832 822.669 941.832H855.219C855.744 941.832 856.164 942.015 856.48 942.383C856.847 942.699 857.031 943.145 857.031 943.723V946.718C857.031 947.243 856.874 947.69 856.558 948.058C856.243 948.373 855.797 948.531 855.219 948.531H828.423V965.79H853.485C854.01 965.79 854.431 965.974 854.746 966.342C855.114 966.657 855.297 967.104 855.297 967.682V970.598C855.297 971.123 855.114 971.57 854.746 971.938C854.431 972.253 854.01 972.411 853.485 972.411H828.423V990.301H855.849C856.427 990.301 856.874 990.459 857.189 990.774C857.504 991.089 857.662 991.536 857.662 992.114V995.187C857.662 995.713 857.478 996.159 857.11 996.527C856.795 996.842 856.375 997 855.849 997H822.669ZM870.464 997C869.939 997 869.492 996.842 869.125 996.527C868.809 996.159 868.652 995.713 868.652 995.187V943.723C868.652 943.145 868.809 942.699 869.125 942.383C869.492 942.015 869.939 941.832 870.464 941.832H889.695C895.737 941.832 900.466 943.25 903.881 946.087C907.296 948.925 909.004 953.023 909.004 958.382C909.004 962.375 908.005 965.659 906.009 968.234C904.065 970.808 901.306 972.595 897.733 973.593L909.87 994.557C910.028 994.872 910.107 995.161 910.107 995.424C910.107 995.844 909.923 996.212 909.555 996.527C909.24 996.842 908.872 997 908.452 997H904.669C903.881 997 903.25 996.816 902.777 996.448C902.357 996.081 901.963 995.555 901.595 994.872L890.167 974.854H876.375V995.187C876.375 995.713 876.191 996.159 875.824 996.527C875.456 996.842 875.009 997 874.484 997H870.464ZM889.379 968.155C897.208 968.155 901.122 964.871 901.122 958.303C901.122 951.736 897.208 948.452 889.379 948.452H876.375V968.155H889.379ZM922.108 997C921.582 997 921.136 996.842 920.768 996.527C920.453 996.159 920.295 995.713 920.295 995.187V943.723C920.295 943.145 920.453 942.699 920.768 942.383C921.136 942.015 921.582 941.832 922.108 941.832H941.338C947.38 941.832 952.109 943.25 955.524 946.087C958.939 948.925 960.647 953.023 960.647 958.382C960.647 962.375 959.649 965.659 957.652 968.234C955.708 970.808 952.95 972.595 949.377 973.593L961.514 994.557C961.672 994.872 961.75 995.161 961.75 995.424C961.75 995.844 961.566 996.212 961.199 996.527C960.883 996.842 960.516 997 960.095 997H956.312C955.524 997 954.894 996.816 954.421 996.448C954 996.081 953.606 995.555 953.239 994.872L941.811 974.854H928.019V995.187C928.019 995.713 927.835 996.159 927.467 996.527C927.099 996.842 926.653 997 926.127 997H922.108ZM941.023 968.155C948.851 968.155 952.766 964.871 952.766 958.303C952.766 951.736 948.851 948.452 941.023 948.452H928.019V968.155H941.023ZM991.722 997.788C984.839 997.788 979.506 996.002 975.723 992.429C971.993 988.804 970.023 983.366 969.813 976.115C969.76 974.539 969.734 972.306 969.734 969.416C969.734 966.526 969.76 964.319 969.813 962.796C970.023 955.703 972.072 950.317 975.96 946.639C979.848 942.909 985.102 941.043 991.722 941.043C998.29 941.043 1003.52 942.909 1007.41 946.639C1011.29 950.317 1013.34 955.703 1013.55 962.796C1013.66 965.843 1013.71 968.05 1013.71 969.416C1013.71 970.729 1013.66 972.962 1013.55 976.115C1013.34 983.366 1011.35 988.804 1007.56 992.429C1003.83 996.002 998.553 997.788 991.722 997.788ZM991.722 991.089C995.873 991.089 999.183 989.828 1001.65 987.306C1004.12 984.784 1005.46 980.922 1005.67 975.721C1005.78 972.568 1005.83 970.467 1005.83 969.416C1005.83 968.26 1005.78 966.158 1005.67 963.111C1005.46 957.909 1004.1 954.047 1001.57 951.525C999.104 949.003 995.821 947.743 991.722 947.743C987.572 947.743 984.235 949.003 981.713 951.525C979.244 954.047 977.904 957.909 977.694 963.111C977.641 964.635 977.615 966.736 977.615 969.416C977.615 972.043 977.641 974.145 977.694 975.721C977.904 980.922 979.244 984.784 981.713 987.306C984.235 989.828 987.572 991.089 991.722 991.089ZM1027.01 997C1026.49 997 1026.04 996.842 1025.67 996.527C1025.36 996.159 1025.2 995.713 1025.2 995.187V943.723C1025.2 943.145 1025.36 942.699 1025.67 942.383C1026.04 942.015 1026.49 941.832 1027.01 941.832H1046.24C1052.28 941.832 1057.01 943.25 1060.43 946.087C1063.84 948.925 1065.55 953.023 1065.55 958.382C1065.55 962.375 1064.55 965.659 1062.56 968.234C1060.61 970.808 1057.85 972.595 1054.28 973.593L1066.42 994.557C1066.57 994.872 1066.65 995.161 1066.65 995.424C1066.65 995.844 1066.47 996.212 1066.1 996.527C1065.79 996.842 1065.42 997 1065 997H1061.22C1060.43 997 1059.8 996.816 1059.32 996.448C1058.9 996.081 1058.51 995.555 1058.14 994.872L1046.71 974.854H1032.92V995.187C1032.92 995.713 1032.74 996.159 1032.37 996.527C1032 996.842 1031.56 997 1031.03 997H1027.01ZM1045.93 968.155C1053.75 968.155 1057.67 964.871 1057.67 958.303C1057.67 951.736 1053.75 948.452 1045.93 948.452H1032.92V968.155H1045.93Z" fill="#E4640A"/>
<g style="mix-blend-mode:multiply" opacity="0.5">
<path d="M838.911 704.231H849.829C847.296 708.791 844.889 713.279 842.685 717.623L840.431 722.136C837.568 727.944 834.756 733.703 832.02 739.463C824.977 754.247 818.441 769.032 813.071 784.08C811.5 788.52 809.98 792.984 808.612 797.496C808.5 798.114 808.432 798.74 808.409 799.368C808.397 799.519 808.397 799.672 808.409 799.824V800.903C808.409 801.047 808.409 801.192 808.409 801.336C808.409 801.48 808.409 801.887 808.409 802.127V802.44C808.45 802.66 808.51 802.876 808.587 803.087C808.575 803.151 808.575 803.216 808.587 803.28C808.743 803.723 808.993 804.131 809.321 804.48V804.48L809.119 804.336C808.178 803.726 807.273 803.069 806.408 802.368C806.408 802.368 806.408 802.368 806.231 802.368L808.105 807.168C807.316 806.781 806.659 806.19 806.21 805.464C805.762 804.737 805.54 803.905 805.572 803.063C805.411 803.567 805.284 804.08 805.192 804.599C804.996 803.665 804.59 802.781 804.001 802.008L804.533 807.911C802.633 806.543 802.861 803.615 803.267 801.671C803.069 801.712 802.891 801.813 802.76 801.959C802.76 801.959 801.24 803.016 800.683 802.968L798.909 807.168C798.951 805.418 799.465 803.707 800.404 802.199C800.252 801.335 799.796 800.039 799.087 799.799C797.921 801.599 795.945 803.903 793.438 803.999L797.516 800.208C795.464 801.072 794.679 800.519 794.679 800.519C796.857 799.727 798.909 795.936 798.909 795.936C806.864 769.344 818.872 744.047 831.539 718.367C833.895 713.759 836.276 709.055 838.911 704.231Z" fill="#61376B"/>
</g>
<g style="mix-blend-mode:multiply" opacity="0.5">
<path d="M1074.99 715.704L1074.33 716.112C1073.99 716.313 1073.61 716.45 1073.22 716.512C1072.82 716.574 1072.42 716.561 1072.03 716.474C1071.63 716.387 1071.27 716.228 1070.94 716.005C1070.61 715.782 1070.34 715.5 1070.13 715.175L1065.26 707.808L1053.43 714.816L1058.27 722.184C1058.49 722.504 1058.64 722.862 1058.71 723.237C1058.78 723.612 1058.77 723.996 1058.68 724.368C1058.59 724.739 1058.42 725.089 1058.19 725.398C1057.95 725.708 1057.65 725.969 1057.31 726.168L1056.65 726.576C1056.31 726.778 1055.93 726.914 1055.54 726.976C1055.14 727.038 1054.73 727.025 1054.34 726.938C1053.95 726.851 1053.58 726.692 1053.26 726.469C1052.93 726.246 1052.66 725.964 1052.45 725.64L1047.58 718.272L1040.13 722.664C1039.54 723.017 1038.88 723.256 1038.18 723.366C1037.49 723.477 1036.78 723.457 1036.1 723.307C1035.41 723.158 1034.76 722.882 1034.19 722.496C1033.62 722.11 1033.13 721.62 1032.76 721.056L1022.05 704.831L1021.64 704.231H1071.32L1071.12 704.351L1075.98 711.719C1076.19 712.042 1076.34 712.401 1076.4 712.777C1076.47 713.152 1076.46 713.536 1076.36 713.907C1076.27 714.277 1076.1 714.627 1075.87 714.935C1075.63 715.244 1075.34 715.505 1074.99 715.704V715.704Z" fill="#61376B"/>
</g>
<path d="M802.206 792.623C800.406 794.805 799.299 797.427 799.014 800.183" stroke="#268E26" stroke-width="0.63" stroke-linecap="round" stroke-linejoin="round"/>
<path d="M803.9 792.792C803.9 792.792 801.671 798.744 804.635 800.928" stroke="white" stroke-width="0.63" stroke-linecap="round" stroke-linejoin="round"/>
<path d="M805.728 793.488C805.728 793.488 804.816 798.984 808.262 800.184" stroke="#0032D0" stroke-width="0.63" stroke-linecap="round" stroke-linejoin="round"/>
<path d="M800.381 790.584C800.381 790.584 797.721 796.776 793.541 796.944" stroke="#D30000" stroke-width="0.63" stroke-linecap="round" stroke-linejoin="round"/>
<path d="M1032.49 657.288C1008.22 626.712 961.958 601.272 917.675 617.688C908.462 621.182 899.834 625.928 892.063 631.776C862.525 653.664 844.285 685.776 831.669 711.312C819.053 736.848 806.994 762.288 799.039 788.88C799.039 788.88 796.987 792.648 794.809 793.464C794.809 793.464 795.771 794.136 798.431 792.768C799.875 791.976 800.61 794.952 800.61 795.744C800.61 796.536 802.89 794.952 802.89 794.952C802.89 794.952 804.106 793.344 805.423 797.568C805.778 795.624 806.158 794.832 806.741 795.408C807.323 795.984 809.781 797.568 809.781 797.568C809.781 797.568 807.83 796.368 808.742 790.512C816.494 764.88 828.198 740.232 840.561 715.176C852.721 690.576 870.226 659.664 898.143 638.976C905.183 633.681 912.989 629.373 921.323 626.184C960.894 611.52 1002.74 634.872 1024.86 662.76C1027.39 666.048 1029.93 669.576 1032.46 673.248L1040.67 668.448C1037.96 664.512 1035.25 660.768 1032.49 657.288Z" fill="#2B232D"/>
<g style="mix-blend-mode:multiply" opacity="0.5">
<path d="M1040.52 668.423L1032.31 673.223C1029.77 669.551 1027.24 666.023 1024.71 662.735C1002.59 634.847 960.741 611.495 921.195 626.183C912.843 629.341 905.024 633.642 897.99 638.951C870.123 659.639 852.567 690.551 840.407 715.151C828.044 740.183 816.366 764.831 808.588 790.487C807.803 795.503 809.12 797.111 809.526 797.495C809.196 797.255 808.234 796.631 807.499 796.079C807.461 795.407 807.461 794.734 807.499 794.063C807.699 790.326 808.415 786.631 809.627 783.071C810.64 779.879 811.704 776.735 812.794 773.591C815.023 767.303 817.481 761.063 820.039 754.871C822.598 748.679 825.41 742.439 828.247 736.295C831.084 730.151 834.099 723.887 837.088 717.743C838.228 715.463 839.343 713.159 840.483 710.855C852.643 686.255 870.148 655.367 898.066 634.679C905.1 629.363 912.918 625.054 921.271 621.887C960.817 607.223 1002.67 630.575 1024.78 658.463C1027.32 661.751 1029.85 665.279 1032.38 668.927L1038.54 665.303L1040.52 668.423Z" fill="#140716"/>
</g>
<path d="M963.148 615.695C963.148 615.695 963.021 625.559 960.615 626.255C957.549 627.143 951.672 618.383 951.672 618.383L963.148 615.695Z" fill="white"/>
<path d="M918.08 617.735C918.08 617.735 920.208 627.335 922.767 627.623C925.933 627.935 929.911 618.239 929.911 618.239L918.08 617.735Z" fill="white"/>
<path d="M911.822 611.999C911.822 611.999 920.664 630.407 939.436 616.127C949.569 626.951 967.733 619.847 967.024 610.703" fill="#61376B"/>
<path d="M1044.55 703.957L1047.86 701.999C1048.2 701.8 1048.6 701.736 1048.99 701.82C1049.38 701.905 1049.71 702.131 1049.92 702.45L1058.28 715.131C1058.71 715.784 1058.85 716.573 1058.67 717.323C1058.49 718.074 1058 718.725 1057.31 719.133L1056.77 719.45C1056.08 719.858 1055.25 719.99 1054.46 719.817C1053.66 719.644 1052.98 719.179 1052.55 718.526L1044.18 705.845C1043.98 705.544 1043.91 705.182 1043.98 704.833C1044.05 704.483 1044.25 704.17 1044.55 703.957V703.957Z" fill="white"/>
<g style="mix-blend-mode:multiply" opacity="0.5">
<path d="M1031.52 704.231H1021.54L1015.99 695.807C1012.55 690.572 1011.33 684.29 1012.58 678.235C1013.84 672.18 1017.47 666.802 1022.76 663.191C1023.21 666.055 1023.74 669.103 1024.35 672.335C1025.77 680.039 1027.6 688.727 1029.9 698.039C1029.9 698.327 1030.08 698.663 1030.15 698.975C1030.59 700.703 1031.05 702.455 1031.52 704.231Z" fill="#61376B"/>
</g>
<path d="M1064.21 692.333L1063.57 692.714C1062.13 693.564 1061.69 695.356 1062.59 696.716L1070.12 708.135C1071.02 709.495 1072.91 709.909 1074.34 709.06L1074.99 708.678C1076.42 707.829 1076.86 706.037 1075.96 704.677L1068.43 693.258C1067.54 691.897 1065.65 691.483 1064.21 692.333Z" fill="white"/>
<path d="M1075.37 694.871L1039.35 716.183C1038.35 716.771 1037.15 716.96 1036 716.708C1034.86 716.456 1033.87 715.784 1033.24 714.839L1018.88 693.071C1017.08 690.357 1015.87 687.334 1015.31 684.175C1014.74 681.016 1014.85 677.783 1015.61 674.661C1016.37 671.539 1017.77 668.59 1019.74 665.984C1021.7 663.377 1024.19 661.164 1027.06 659.471V659.471C1029.93 657.767 1033.12 656.617 1036.45 656.084C1039.79 655.552 1043.2 655.649 1046.5 656.369C1049.79 657.089 1052.9 658.419 1055.66 660.281C1058.41 662.144 1060.74 664.503 1062.53 667.223L1076.87 688.991C1077.19 689.468 1077.4 690 1077.5 690.556C1077.59 691.113 1077.57 691.681 1077.43 692.229C1077.29 692.777 1077.04 693.293 1076.68 693.747C1076.33 694.201 1075.89 694.583 1075.37 694.871Z" fill="#6BB1A2"/>
<g style="mix-blend-mode:multiply" opacity="0.3">
<path d="M1030.51 657.888C1025.87 661.658 1022.81 666.876 1021.88 672.599C1020.95 678.322 1022.21 684.171 1025.44 689.088L1042.14 714.408L1039.15 716.16C1038.67 716.443 1038.15 716.634 1037.59 716.723C1037.04 716.813 1036.48 716.798 1035.93 716.68C1035.38 716.561 1034.87 716.342 1034.41 716.035C1033.96 715.727 1033.57 715.337 1033.27 714.888L1018.91 693.096C1015.32 687.604 1014.17 680.993 1015.7 674.701C1017.24 668.41 1021.33 662.945 1027.09 659.496C1028.17 658.848 1029.31 658.309 1030.51 657.888V657.888Z" fill="#583929"/>
</g>
<defs>
<radialGradient id="paint0_radial" cx="0" cy="0" r="1" gradientUnits="userSpaceOnUse" gradientTransform="translate(849.226 630.681) rotate(-1.75269) scale(38.6313 25.2553)">
<stop offset="0.17" stop-color="#662346"/>
<stop offset="1" stop-color="#662346" stop-opacity="0"/>
</radialGradient>
<radialGradient id="paint1_radial" cx="0" cy="0" r="1" gradientUnits="userSpaceOnUse" gradientTransform="translate(36293.7 9558.29) rotate(-1.75269) scale(1301.88 583.904)">
<stop offset="0.17" stop-color="#662346"/>
<stop offset="1" stop-color="#662346" stop-opacity="0"/>
</radialGradient>
</defs>
</svg>
