<svg width="1900" height="1201" viewBox="0 0 1900 1201" fill="none" xmlns="http://www.w3.org/2000/svg">
<rect width="1900" height="1200" fill="white"/>
<path fill-rule="evenodd" clip-rule="evenodd" d="M1145.68 0H0L0 425.83C20.964 381.442 48.281 340.909 81.265 306.834C151.126 234.663 246.836 192.864 342.091 197.625C404.83 200.638 465 222.947 525.057 245.215C542.175 251.562 559.285 257.905 576.442 263.798C654.644 290.711 736.32 308.706 818.08 304.041C899.841 299.376 982.029 270.717 1045.09 212.542C1102.02 160.013 1141.57 81.7911 1145.68 0Z" fill="#FFB69D"/>
<path fill-rule="evenodd" clip-rule="evenodd" d="M1899.93 229C1842.94 238.502 1790.79 270.27 1738.37 302.203C1686.82 333.604 1635.01 365.165 1578.09 375.871C1523.58 386.121 1468.78 376.522 1413.76 366.886C1376.27 360.32 1338.67 353.735 1301 353.401C1188.44 352.449 1070.15 418.876 1027.71 535.289C1016.35 566.439 1010.71 599.601 1005.08 632.764C999.496 665.591 993.917 698.42 982.786 729.301C970.557 762.631 952.232 792.754 928.979 817.749C905.726 842.743 878.055 862.061 847.732 874.468C806.274 891.117 761.883 894.021 717.505 896.924C672.292 899.882 627.094 902.839 585.027 920.329C496.561 957.113 439.127 1049.74 385.221 1136.67C383.686 1139.15 382.155 1141.61 380.625 1144.08C368.986 1162.83 356.829 1181.76 344 1200.16H1899.93V229Z" fill="#FFB69D"/>
</svg>
