<svg width="1060" height="1009" viewBox="0 0 1060 1009" fill="none" xmlns="http://www.w3.org/2000/svg">
<path d="M916.364 6.072C916.032 6.072 915.71 6.028 915.398 5.94C915.09 5.848 914.842 5.73 914.654 5.586L914.984 4.854C915.164 4.986 915.378 5.092 915.626 5.172C915.874 5.252 916.122 5.292 916.37 5.292C916.646 5.292 916.85 5.252 916.982 5.172C917.114 5.088 917.18 4.978 917.18 4.842C917.18 4.742 917.14 4.66 917.06 4.596C916.984 4.528 916.884 4.474 916.76 4.434C916.64 4.394 916.476 4.35 916.268 4.302C915.948 4.226 915.686 4.15 915.482 4.074C915.278 3.998 915.102 3.876 914.954 3.708C914.81 3.54 914.738 3.316 914.738 3.036C914.738 2.792 914.804 2.572 914.936 2.376C915.068 2.176 915.266 2.018 915.53 1.902C915.798 1.786 916.124 1.728 916.508 1.728C916.776 1.728 917.038 1.76 917.294 1.824C917.55 1.888 917.774 1.98 917.966 2.1L917.666 2.838C917.278 2.618 916.89 2.508 916.502 2.508C916.23 2.508 916.028 2.552 915.896 2.64C915.768 2.728 915.704 2.844 915.704 2.988C915.704 3.132 915.778 3.24 915.926 3.312C916.078 3.38 916.308 3.448 916.616 3.516C916.936 3.592 917.198 3.668 917.402 3.744C917.606 3.82 917.78 3.94 917.924 4.104C918.072 4.268 918.146 4.49 918.146 4.77C918.146 5.01 918.078 5.23 917.942 5.43C917.81 5.626 917.61 5.782 917.342 5.898C917.074 6.014 916.748 6.072 916.364 6.072ZM918.811 1.8H919.783V6H918.811V1.8ZM923.617 3.834H924.505V5.538C924.277 5.71 924.013 5.842 923.713 5.934C923.413 6.026 923.111 6.072 922.807 6.072C922.371 6.072 921.979 5.98 921.631 5.796C921.283 5.608 921.009 5.35 920.809 5.022C920.613 4.69 920.515 4.316 920.515 3.9C920.515 3.484 920.613 3.112 920.809 2.784C921.009 2.452 921.285 2.194 921.637 2.01C921.989 1.822 922.385 1.728 922.825 1.728C923.193 1.728 923.527 1.79 923.827 1.914C924.127 2.038 924.379 2.218 924.583 2.454L923.959 3.03C923.659 2.714 923.297 2.556 922.873 2.556C922.605 2.556 922.367 2.612 922.159 2.724C921.951 2.836 921.789 2.994 921.673 3.198C921.557 3.402 921.499 3.636 921.499 3.9C921.499 4.16 921.557 4.392 921.673 4.596C921.789 4.8 921.949 4.96 922.153 5.076C922.361 5.188 922.597 5.244 922.861 5.244C923.141 5.244 923.393 5.184 923.617 5.064V3.834ZM929.26 1.8V6H928.462L926.368 3.45V6H925.408V1.8H926.212L928.3 4.35V1.8H929.26ZM933.819 6.072C933.219 6.072 932.751 5.906 932.415 5.574C932.083 5.242 931.917 4.768 931.917 4.152V1.8H932.889V4.116C932.889 4.868 933.201 5.244 933.825 5.244C934.129 5.244 934.361 5.154 934.521 4.974C934.681 4.79 934.761 4.504 934.761 4.116V1.8H935.721V4.152C935.721 4.768 935.553 5.242 935.217 5.574C934.885 5.906 934.419 6.072 933.819 6.072ZM938.5 1.8C938.872 1.8 939.194 1.862 939.466 1.986C939.742 2.11 939.954 2.286 940.102 2.514C940.25 2.742 940.324 3.012 940.324 3.324C940.324 3.632 940.25 3.902 940.102 4.134C939.954 4.362 939.742 4.538 939.466 4.662C939.194 4.782 938.872 4.842 938.5 4.842H937.654V6H936.682V1.8H938.5ZM938.446 4.05C938.738 4.05 938.96 3.988 939.112 3.864C939.264 3.736 939.34 3.556 939.34 3.324C939.34 3.088 939.264 2.908 939.112 2.784C938.96 2.656 938.738 2.592 938.446 2.592H937.654V4.05H938.446Z" fill="white"/>
<path opacity="0.3" d="M1041.68 481.303V938.644C1041.68 958.162 1029.33 966.033 1014.07 956.226L450.395 593.401C435.136 583.562 422.781 559.791 422.781 540.272V82.9317C422.781 63.413 435.136 55.5421 450.395 65.349L1014.07 428.174C1029.33 438.013 1041.68 461.785 1041.68 481.303Z" fill="white"/>
<path opacity="0.3" d="M1017.28 496.854V954.321C1017.28 973.84 1004.9 981.711 989.67 971.904L425.999 609.078C410.74 599.24 398.385 575.468 398.385 555.95V98.4824C398.385 78.932 410.74 71.0928 425.999 80.8997L989.67 443.725C1004.9 453.532 1017.28 477.335 1017.28 496.854Z" fill="white"/>
<path d="M990.212 513.073V970.571C990.212 990.09 977.828 997.929 962.598 988.122L398.927 625.297C383.668 615.458 371.312 591.687 371.312 572.168V114.701C371.312 95.1825 383.668 87.3116 398.927 97.1503L962.598 459.976C977.828 469.782 990.212 493.554 990.212 513.073Z" fill="#3B9C56"/>
<path d="M600.651 539.223L529.766 584.83V465.687L600.651 420.048V539.223Z" fill="#FF8460"/>
<g style="mix-blend-mode:multiply" opacity="0.2">
<path d="M600.651 539.223L529.766 584.83V465.687L600.651 420.048V539.223Z" fill="#441F69"/>
</g>
<path d="M990.211 513.073V535.987L371.283 137.616V114.701C371.283 95.1825 383.638 87.3116 398.897 97.1503L962.569 459.976C977.828 469.783 990.211 493.554 990.211 513.073Z" fill="#FF8460"/>
<path d="M406.896 133.52C406.896 137.678 404.277 139.328 401.032 137.234C399.32 136.001 397.894 134.336 396.87 132.372C395.846 130.409 395.253 128.203 395.139 125.935C395.139 121.777 397.786 120.127 401.032 122.19C402.739 123.433 404.159 125.106 405.178 127.074C406.197 129.043 406.785 131.251 406.896 133.52Z" fill="white"/>
<path d="M428.645 147.483C428.645 151.641 425.998 153.323 422.753 151.228C421.047 149.993 419.626 148.325 418.607 146.362C417.588 144.399 416.999 142.195 416.889 139.93C416.889 135.772 419.508 134.09 422.753 136.185C424.46 137.423 425.882 139.09 426.905 141.052C427.929 143.015 428.525 145.217 428.645 147.483Z" fill="white"/>
<path d="M450.367 161.483C450.367 165.64 447.748 167.322 444.503 165.228C442.79 163.997 441.363 162.332 440.339 160.368C439.314 158.404 438.722 156.197 438.61 153.929C438.61 149.771 441.229 148.089 444.503 150.184C446.209 151.42 447.63 153.087 448.649 155.05C449.668 157.014 450.257 159.218 450.367 161.483Z" fill="white"/>
<path d="M960.177 484.354L943.095 473.338C942.748 473.072 942.458 472.723 942.246 472.317C942.035 471.911 941.907 471.457 941.871 470.989C941.871 470.1 942.412 469.751 943.095 470.195L960.177 481.211C960.535 481.464 960.832 481.81 961.046 482.219C961.259 482.628 961.38 483.088 961.401 483.56C961.401 484.449 960.86 484.798 960.177 484.354Z" fill="white"/>
<path d="M960.177 491.145L943.095 480.129C942.748 479.863 942.458 479.514 942.246 479.108C942.035 478.702 941.907 478.248 941.871 477.78C941.871 476.891 942.412 476.542 943.095 476.987L960.177 488.002C960.535 488.256 960.832 488.602 961.046 489.01C961.259 489.419 961.38 489.879 961.401 490.351C961.401 491.304 960.86 491.653 960.177 491.145Z" fill="white"/>
<path d="M960.177 498.062L943.095 487.047C942.748 486.781 942.458 486.432 942.246 486.026C942.035 485.619 941.907 485.166 941.871 484.698C941.871 483.809 942.412 483.46 943.095 483.904L960.177 494.92C960.535 495.173 960.832 495.519 961.046 495.928C961.259 496.337 961.38 496.797 961.401 497.269C961.401 498.158 960.86 498.507 960.177 498.062Z" fill="white"/>
<path d="M937.459 943.944L851.286 888.498C841.38 882.15 833.352 865.012 833.352 850.412C833.352 835.686 841.38 828.926 851.286 835.305L937.459 890.751C947.366 897.099 955.366 914.237 955.366 928.837C955.366 943.563 947.366 950.323 937.459 943.944Z" fill="#83DEE1"/>
<path d="M876.856 867.231C877.139 867.519 877.361 867.839 877.521 868.194C877.681 868.543 877.761 868.899 877.761 869.263C877.761 869.778 877.591 870.066 877.252 870.129C876.918 870.189 876.428 870.012 875.782 869.598L873.223 867.959V862.083L875.641 863.632C876.244 864.018 876.706 864.451 877.026 864.931C877.351 865.413 877.514 865.889 877.514 866.359C877.514 866.645 877.455 866.862 877.337 867.01C877.224 867.162 877.064 867.235 876.856 867.231ZM874.361 863.836V865.221L875.499 865.95C875.782 866.131 875.996 866.21 876.142 866.186C876.289 866.162 876.362 866.035 876.362 865.806C876.362 865.577 876.289 865.359 876.142 865.154C875.996 864.942 875.782 864.746 875.499 864.565L874.361 863.836ZM875.697 868.52C875.999 868.713 876.225 868.799 876.376 868.778C876.531 868.76 876.609 868.628 876.609 868.382C876.609 867.895 876.305 867.457 875.697 867.068L874.361 866.212V867.664L875.697 868.52ZM880.826 872.931C880.119 872.478 879.568 871.892 879.172 871.174C878.781 870.459 878.586 869.671 878.586 868.809V865.518L879.731 866.252V869.492C879.731 870.544 880.098 871.306 880.833 871.777C881.191 872.006 881.465 872.056 881.653 871.925C881.842 871.788 881.936 871.448 881.936 870.905V867.665L883.067 868.39V871.68C883.067 872.542 882.869 873.078 882.473 873.289C882.082 873.503 881.533 873.384 880.826 872.931ZM886.504 874.386V876.468L885.359 875.734V873.636L883.444 868.631L884.659 869.41L885.981 872.867L887.303 871.104L888.427 871.824L886.504 874.386Z" fill="white"/>
<path d="M613.631 673.061L395.082 532.399C394.003 531.626 393.106 530.578 392.462 529.342C391.819 528.106 391.448 526.717 391.381 525.29C391.381 522.687 393.032 521.64 395.082 522.941L613.574 663.603C614.653 664.376 615.55 665.424 616.194 666.66C616.837 667.897 617.208 669.285 617.275 670.713C617.332 673.315 615.681 674.363 613.631 673.061Z" fill="white"/>
<path d="M473.284 297.795L395.082 247.49C394.003 246.717 393.106 245.67 392.462 244.433C391.819 243.197 391.448 241.808 391.381 240.381C391.381 237.779 393.032 236.731 395.082 238.033L473.227 288.337C474.301 289.116 475.195 290.165 475.838 291.4C476.481 292.635 476.854 294.021 476.928 295.446C476.985 298.049 475.305 299.096 473.284 297.795Z" fill="white"/>
<path d="M520.341 346.607L395.082 265.993C394.005 265.218 393.108 264.17 392.465 262.934C391.822 261.698 391.45 260.31 391.381 258.884C391.381 256.281 393.032 255.202 395.082 256.535L520.341 337.149C521.415 337.928 522.309 338.977 522.952 340.212C523.595 341.447 523.968 342.833 524.042 344.259C524.099 346.893 522.448 347.94 520.341 346.607Z" fill="white"/>
<path d="M581.462 671.54L395.082 551.635C394.008 550.856 393.114 549.807 392.471 548.572C391.828 547.337 391.455 545.951 391.381 544.525C391.381 541.891 393.032 540.844 395.082 542.177L581.405 662.082C582.479 662.861 583.373 663.91 584.016 665.145C584.659 666.38 585.032 667.766 585.106 669.192C585.163 671.826 583.512 672.873 581.462 671.54Z" fill="white"/>
<path d="M504.399 641.165L395.082 570.833C394.005 570.058 393.108 569.01 392.465 567.775C391.822 566.539 391.45 565.151 391.381 563.724C391.381 561.122 393.032 560.043 395.082 561.376L504.342 631.675C505.419 632.457 506.316 633.511 506.959 634.752C507.602 635.993 507.973 637.385 508.043 638.816C508.1 641.419 506.448 642.466 504.399 641.165Z" fill="white"/>
<path d="M537.594 681.726L395.253 590.035C394.176 589.26 393.279 588.212 392.636 586.976C391.993 585.741 391.621 584.353 391.552 582.926C391.552 580.324 393.203 579.276 395.253 580.577L537.594 672.268C538.67 673.043 539.567 674.091 540.21 675.327C540.854 676.563 541.225 677.951 541.294 679.377C541.294 681.98 539.643 683.059 537.594 681.726Z" fill="white"/>
<path d="M951.692 859.011L809.351 767.352C808.274 766.57 807.378 765.516 806.734 764.275C806.091 763.035 805.72 761.642 805.65 760.211C805.65 757.609 807.302 756.561 809.351 757.863L951.692 849.553C952.757 850.339 953.644 851.391 954.281 852.625C954.918 853.859 955.289 855.241 955.364 856.663C955.364 859.297 953.713 860.344 951.692 859.011Z" fill="white"/>
<path d="M951.693 831.973L851.029 767.005C849.956 766.218 849.064 765.162 848.421 763.923C847.779 762.683 847.404 761.293 847.328 759.864C847.328 757.262 849.008 756.214 851.029 757.515L951.693 822.515C952.761 823.297 953.65 824.348 954.287 825.582C954.925 826.817 955.294 828.201 955.365 829.624C955.365 832.227 953.714 833.274 951.693 831.973Z" fill="white"/>
<path d="M563.556 326.106L407.807 225.846C400.776 221.371 395.082 209.279 395.082 198.869C395.082 188.459 400.776 183.698 407.75 188.173L563.499 288.433C570.474 292.94 576.168 305.001 576.168 315.411C576.225 325.821 570.531 330.613 563.556 326.106Z" fill="#FFC845"/>
<path d="M460.74 237.401L460.172 236.076C460.102 236.037 460.047 236.005 460.007 235.979L459.356 235.562V236.514L458.98 236.273V233.145L460.007 233.803C460.348 234.022 460.616 234.29 460.812 234.609C461.008 234.928 461.105 235.258 461.105 235.597C461.105 235.838 461.055 236.012 460.955 236.117C460.855 236.223 460.712 236.255 460.526 236.213L461.15 237.663L460.74 237.401ZM459.996 235.592C460.234 235.745 460.416 235.8 460.541 235.758C460.666 235.717 460.729 235.582 460.729 235.356C460.729 235.13 460.666 234.917 460.541 234.717C460.416 234.515 460.234 234.337 459.996 234.185L459.356 233.775V235.182L459.996 235.592ZM462.891 238.814C462.627 238.645 462.389 238.424 462.176 238.15C461.965 237.876 461.8 237.579 461.679 237.26C461.559 236.939 461.499 236.627 461.499 236.323C461.499 236.019 461.559 235.785 461.679 235.621C461.8 235.454 461.966 235.37 462.18 235.37C462.393 235.366 462.631 235.449 462.894 235.617C463.1 235.749 463.288 235.911 463.459 236.104C463.629 236.294 463.775 236.508 463.895 236.746L463.65 236.87C463.452 236.496 463.205 236.214 462.909 236.025C462.714 235.899 462.537 235.838 462.379 235.841C462.221 235.844 462.097 235.909 462.007 236.036C461.919 236.161 461.875 236.337 461.875 236.564C461.875 236.79 461.919 237.024 462.007 237.265C462.097 237.504 462.221 237.727 462.379 237.932C462.537 238.138 462.714 238.303 462.909 238.428C463.203 238.616 463.45 238.65 463.65 238.528L463.895 238.966C463.775 239.05 463.628 239.078 463.455 239.05C463.284 239.024 463.096 238.946 462.891 238.814ZM466.696 238.089V241.217L466.32 240.975V239.582L464.808 238.613V240.007L464.432 239.766V236.638L464.808 236.879V238.224L466.32 239.193V237.848L466.696 238.089Z" fill="white"/>
<path d="M411.253 215.975C409.137 214.444 407.375 212.379 406.109 209.948C404.843 207.516 404.108 204.786 403.965 201.979C403.965 196.837 407.239 194.774 411.253 197.345C413.367 198.878 415.128 200.943 416.394 203.375C417.66 205.806 418.395 208.535 418.541 211.341C418.541 216.483 415.267 218.578 411.253 215.975ZM411.253 200.487C408.605 198.773 406.442 200.17 406.442 203.661C406.538 205.517 407.024 207.323 407.86 208.932C408.695 210.541 409.857 211.91 411.253 212.928C413.929 214.642 416.092 213.277 416.092 209.755C415.997 207.894 415.509 206.085 414.668 204.475C413.827 202.865 412.657 201.498 411.253 200.487Z" fill="white"/>
<path d="M420.705 227.211C420.359 226.957 420.068 226.621 419.851 226.227L414.584 216.323C414.1 215.402 414.071 214.418 414.584 214.069C415.096 213.72 415.836 214.228 416.32 215.148L421.587 225.053C422.1 225.973 422.1 226.989 421.587 227.307C421.446 227.379 421.289 227.408 421.134 227.392C420.979 227.375 420.831 227.313 420.705 227.211Z" fill="white"/>
<path opacity="0.3" d="M940.873 696.575C967.491 679.228 967.224 623.506 940.277 572.117C913.33 520.728 869.908 493.132 843.291 510.479C816.673 527.826 816.94 583.548 843.887 634.937C870.834 686.326 914.256 713.922 940.873 696.575Z" fill="white"/>
<path d="M943.495 636.563C943.495 600.255 920.464 555.98 892.081 537.699C863.699 519.418 840.668 534.049 840.668 570.389C840.668 606.729 863.67 650.972 892.081 669.253C920.492 687.534 943.495 672.903 943.495 636.563Z" fill="#FFC845"/>
<path d="M909.872 594.417C909.872 607.112 901.816 612.286 891.852 605.875C886.613 602.087 882.25 596.974 879.119 590.952C875.988 584.929 874.176 578.167 873.832 571.216C873.832 558.521 881.888 553.379 891.852 559.79C897.09 563.571 901.453 568.678 904.585 574.696C907.716 580.713 909.528 587.471 909.872 594.417Z" fill="white"/>
<path d="M891.852 600.223C876.052 590.067 863.384 598.224 863.384 618.409C863.384 619.234 863.384 620.06 863.384 620.885C871.782 630.65 881.364 639.057 891.852 645.863C900.542 651.852 910.223 655.835 920.32 657.574C920.32 656.812 920.32 656.019 920.32 655.225C920.434 635.008 907.652 610.411 891.852 600.223Z" fill="white"/>
<path d="M324.879 425.92L529.765 557.79L600.594 420.144L395.708 288.273L324.879 425.92Z" fill="#FF8460"/>
<path d="M514.477 547.953L529.764 557.791L600.592 420.144L585.305 410.305L514.477 547.953Z" fill="#FFC845"/>
<path d="M482.879 527.608L498.166 537.479L568.995 399.8L553.707 389.961L482.879 527.608Z" fill="#FFC845"/>
<path d="M451.277 507.297L466.565 517.136L537.394 379.489L522.106 369.618L451.277 507.297Z" fill="#FFC845"/>
<path d="M419.68 486.953L434.967 496.791L505.795 359.144L490.508 349.305L419.68 486.953Z" fill="#FFC845"/>
<path d="M388.08 466.609L403.367 476.448L474.196 338.801L458.908 328.962L388.08 466.609Z" fill="#FFC845"/>
<path d="M356.479 446.265L371.767 456.104L442.596 318.456L427.308 308.618L356.479 446.265Z" fill="#FFC845"/>
<path d="M324.879 425.921L340.166 435.76L410.995 298.112L395.708 288.273L324.879 425.921Z" fill="#FFC845"/>
<path d="M434.938 496.757V523.1C435.089 526.044 435.857 528.908 437.182 531.461C438.508 534.013 440.353 536.183 442.568 537.795L443.593 538.461C447.806 541.159 451.251 539.001 451.251 533.573V507.262" fill="#FF8460"/>
<path d="M466.566 517.103V543.445C466.716 546.39 467.485 549.254 468.81 551.807C470.136 554.359 471.981 556.529 474.196 558.14L475.221 558.775C479.434 561.505 482.879 559.315 482.879 553.919V527.608" fill="#FF8460"/>
<path d="M371.768 456.229V482.54C371.912 485.49 372.681 488.36 374.012 490.914C375.343 493.468 377.199 495.634 379.426 497.235L380.422 497.902C384.664 500.631 388.081 498.441 388.081 493.046V466.703" fill="#FF8460"/>
<path d="M403.367 476.415V502.757C403.517 505.702 404.286 508.566 405.611 511.119C406.936 513.671 408.781 515.841 410.997 517.452L412.022 518.119C416.263 520.817 419.68 518.658 419.68 513.263V486.92" fill="#FF8460"/>
<path d="M498.166 537.445V563.756C498.312 566.702 499.078 569.568 500.404 572.121C501.73 574.674 503.577 576.843 505.796 578.451L506.82 579.117C511.034 581.847 514.45 579.657 514.45 574.261V547.95" fill="#FF8460"/>
<path d="M340.167 435.759V462.07C340.311 465.02 341.08 467.889 342.412 470.444C343.743 472.998 345.598 475.164 347.825 476.765L348.821 477.431C353.063 480.161 356.479 477.971 356.479 472.575V446.264" fill="#FF8460"/>
<path d="M324.879 425.919V452.23C325.023 455.18 325.792 458.05 327.124 460.604C328.455 463.158 330.31 465.324 332.537 466.925C336.75 469.655 340.167 467.465 340.167 462.069V435.758" fill="#FFC845"/>
<path d="M356.479 446.263V472.574C356.625 475.52 357.392 478.385 358.718 480.939C360.043 483.492 361.89 485.661 364.109 487.269C368.351 489.998 371.767 487.808 371.767 482.413V456.229" fill="#FFC845"/>
<path d="M388.08 466.576V492.919C388.23 495.863 388.999 498.727 390.324 501.28C391.649 503.832 393.494 506.002 395.709 507.614C399.951 510.343 403.367 508.153 403.367 502.758V476.415" fill="#FFC845"/>
<path d="M419.68 486.919V513.358C419.83 516.302 420.598 519.166 421.924 521.719C423.249 524.271 425.094 526.441 427.309 528.053C431.551 530.75 434.967 528.592 434.967 523.197V496.854" fill="#FFC845"/>
<path d="M451.277 507.264V533.575C451.423 536.525 452.19 539.395 453.515 541.954C454.841 544.512 456.688 546.687 458.907 548.302C463.149 550.999 466.566 548.841 466.566 543.446V517.103" fill="#FFC845"/>
<path d="M482.879 527.607V553.919C483.024 556.864 483.791 559.73 485.117 562.283C486.443 564.837 488.29 567.006 490.509 568.613C494.722 571.343 498.167 569.153 498.167 563.757V537.446" fill="#FFC845"/>
<path d="M514.449 547.952V574.263C514.6 577.211 515.372 580.077 516.703 582.631C518.033 585.184 519.885 587.351 522.107 588.958C526.321 591.687 529.765 589.497 529.765 584.102V557.791" fill="#FFC845"/>
<g style="mix-blend-mode:multiply" opacity="0.2">
<g style="mix-blend-mode:multiply" opacity="0.2">
<path d="M434.937 496.758V523.101C435.087 526.045 435.855 528.909 437.181 531.462C438.506 534.014 440.351 536.184 442.566 537.796L443.591 538.462C447.804 541.16 451.249 539.002 451.249 533.574V507.263" fill="#441F69"/>
</g>
<g style="mix-blend-mode:multiply" opacity="0.2">
<path d="M466.564 517.104V543.446C466.714 546.391 467.483 549.255 468.808 551.807C470.134 554.36 471.979 556.53 474.194 558.141L475.219 558.776C479.432 561.505 482.877 559.316 482.877 553.92V527.609" fill="#441F69"/>
</g>
<g style="mix-blend-mode:multiply" opacity="0.2">
<path d="M371.766 456.23V482.541C371.91 485.491 372.679 488.361 374.01 490.915C375.341 493.469 377.197 495.635 379.424 497.236L380.42 497.903C384.662 500.632 388.078 498.442 388.078 493.047V466.704" fill="#441F69"/>
</g>
<g style="mix-blend-mode:multiply" opacity="0.2">
<path d="M403.365 476.417V502.759C403.515 505.704 404.284 508.568 405.609 511.121C406.935 513.673 408.779 515.843 410.995 517.454L412.02 518.121C416.262 520.819 419.678 518.66 419.678 513.265V486.922" fill="#441F69"/>
</g>
<g style="mix-blend-mode:multiply" opacity="0.2">
<path d="M498.164 537.445V563.756C498.31 566.702 499.076 569.568 500.402 572.121C501.728 574.675 503.575 576.843 505.794 578.451L506.819 579.118C511.032 581.847 514.449 579.657 514.449 574.262V547.951" fill="#441F69"/>
</g>
<g style="mix-blend-mode:multiply" opacity="0.2">
<path d="M340.167 435.761V462.072C340.311 465.022 341.08 467.892 342.412 470.446C343.743 473.001 345.598 475.167 347.825 476.767L348.822 477.434C353.063 480.163 356.48 477.973 356.48 472.578V446.267" fill="#441F69"/>
</g>
<g style="mix-blend-mode:multiply" opacity="0.2">
<path d="M324.879 425.919V452.23C325.023 455.18 325.792 458.05 327.124 460.604C328.455 463.158 330.31 465.324 332.537 466.925C336.75 469.655 340.167 467.465 340.167 462.069V435.758" fill="#441F69"/>
</g>
<g style="mix-blend-mode:multiply" opacity="0.2">
<path d="M356.478 446.267V472.578C356.623 475.524 357.39 478.39 358.716 480.943C360.041 483.496 361.889 485.665 364.107 487.273C368.349 490.002 371.765 487.812 371.765 482.417V456.233" fill="#441F69"/>
</g>
<g style="mix-blend-mode:multiply" opacity="0.2">
<path d="M388.078 466.576V492.919C388.228 495.864 388.997 498.728 390.322 501.28C391.647 503.833 393.492 506.003 395.708 507.614C399.95 510.344 403.366 508.154 403.366 502.758V476.415" fill="#441F69"/>
</g>
<g style="mix-blend-mode:multiply" opacity="0.2">
<path d="M419.678 486.922V513.361C419.828 516.305 420.596 519.169 421.922 521.722C423.247 524.274 425.092 526.444 427.308 528.055C431.55 530.753 434.966 528.595 434.966 523.199V496.857" fill="#441F69"/>
</g>
<g style="mix-blend-mode:multiply" opacity="0.2">
<path d="M451.276 507.264V533.575C451.422 536.525 452.189 539.395 453.514 541.954C454.84 544.512 456.687 546.687 458.906 548.302C463.148 550.999 466.564 548.841 466.564 543.446V517.103" fill="#441F69"/>
</g>
<g style="mix-blend-mode:multiply" opacity="0.2">
<path d="M482.879 527.608V553.92C483.024 556.865 483.791 559.731 485.117 562.284C486.443 564.838 488.29 567.006 490.508 568.614C494.722 571.344 498.166 569.154 498.166 563.758V537.447" fill="#441F69"/>
</g>
<g style="mix-blend-mode:multiply" opacity="0.2">
<path d="M514.447 547.954V574.265C514.598 577.213 515.37 580.079 516.701 582.633C518.031 585.186 519.883 587.353 522.106 588.96C526.319 591.689 529.764 589.499 529.764 584.104V557.793" fill="#441F69"/>
</g>
</g>
<g style="mix-blend-mode:multiply" opacity="0.2">
<path d="M653.261 948.132L794.662 893.574L725.456 849.458L653.261 948.132Z" fill="#441F69"/>
</g>
<path d="M749.824 762.404L653.26 824.547L556.668 762.372L653.232 700.229L749.824 762.404Z" fill="#FF8460"/>
<path d="M705.329 791.064L698.411 795.507L601.791 733.333L608.709 728.889L705.329 791.064Z" fill="#FFC845"/>
<path d="M653.26 948.131L556.668 885.956V762.37L653.26 824.544V948.131Z" fill="#FF8460"/>
<path d="M643.382 847.935L566.518 798.456L556.668 762.37L653.26 824.544L643.382 847.935Z" fill="#FFC845"/>
<path d="M579.755 847.364L565.834 835.24L567.343 825.211L581.292 837.335L579.755 847.364Z" fill="white"/>
<path d="M638.428 903.828L609.107 889.196L607 864.218L636.35 878.849L638.428 903.828Z" fill="white"/>
<path d="M749.853 885.958L653.261 948.132V824.545L749.853 762.403V885.958Z" fill="#FF8460"/>
<g style="mix-blend-mode:multiply" opacity="0.2">
<path d="M749.853 885.958L653.261 948.132V824.545L749.853 762.403V885.958Z" fill="#441F69"/>
</g>
<path d="M740.003 798.457L663.111 847.936L653.261 824.546L749.853 762.403L740.003 798.457Z" fill="#FFC845"/>
<g style="mix-blend-mode:multiply" opacity="0.2">
<path d="M422.611 957.781L564.012 903.255L494.778 859.107L422.611 957.781Z" fill="#441F69"/>
</g>
<path d="M519.175 772.051L422.611 834.226L325.99 772.02L422.583 709.877L519.175 772.051Z" fill="#FF8460"/>
<path d="M474.651 800.711L467.733 805.154L371.142 742.979L378.059 738.536L474.651 800.711Z" fill="#FFC845"/>
<path d="M422.583 957.78L325.99 895.606V772.019L422.583 834.225V957.78Z" fill="#FF8460"/>
<path d="M412.733 857.584L335.869 808.105L325.99 772.019L422.583 834.225L412.733 857.584Z" fill="#FFC845"/>
<path d="M349.107 857.012L335.186 844.888L336.694 834.859L350.615 846.983L349.107 857.012Z" fill="white"/>
<path d="M407.778 913.473L378.456 898.842L376.35 873.864L405.671 888.495L407.778 913.473Z" fill="white"/>
<path d="M519.204 895.605L422.611 957.779V834.224L519.204 772.05V895.605Z" fill="#FF8460"/>
<g style="mix-blend-mode:multiply" opacity="0.2">
<path d="M519.204 895.605L422.611 957.779V834.224L519.204 772.05V895.605Z" fill="#441F69"/>
</g>
<path d="M509.325 808.104L432.461 857.583L422.611 834.224L519.204 772.05L509.325 808.104Z" fill="#FFC845"/>
<path d="M266.008 568.804L266.947 751.899C266.647 758.288 265.001 764.508 262.142 770.055C259.283 775.602 255.292 780.321 250.492 783.827L17.5934 935.66C12.6968 938.834 8.28426 938.993 5.23815 936.676C3.74151 935.325 2.56454 933.586 1.8102 931.611C1.05585 929.636 0.747147 927.485 0.911006 925.346L0 742.219C0.27811 735.803 1.91391 729.551 4.7737 723.974C7.6335 718.398 11.6361 713.655 16.4547 710.132L249.354 558.299C258.435 552.491 265.951 557.093 266.008 568.804Z" fill="#FF6B01"/>
<path d="M260.456 556.713L268.428 561.443L264.442 568.236L251.26 561.03L260.456 556.713Z" fill="#6C5BC6"/>
<path d="M5.23828 936.675L14.3768 942.104L18.7326 936.675C18.7326 936.675 7.91437 928.643 5.23828 936.675Z" fill="#6C5BC6"/>
<path d="M273.466 573.246L274.405 756.372C274.106 762.765 272.458 768.989 269.593 774.537C266.729 780.085 262.73 784.801 257.922 788.3L24.9947 940.133C15.8279 946.1 8.36931 941.466 8.31237 929.787L7.40137 746.692C7.68579 740.295 9.32511 734.064 12.1851 728.509C15.0452 722.954 19.0446 718.233 23.856 714.732L256.726 562.899C265.95 556.933 273.409 561.566 273.466 573.246Z" fill="#3B9C56"/>
<path d="M70.2313 778.018L44.4391 794.871C38.2615 798.869 33.2227 795.759 33.1942 787.888L33.0234 754.976C33.2211 750.667 34.3299 746.472 36.2595 742.732C38.189 738.992 40.8846 735.814 44.126 733.458L69.9181 716.637C76.0957 712.606 81.1346 715.716 81.3054 723.587L81.4762 756.499C81.2605 760.822 80.1289 765.025 78.1743 768.766C76.2196 772.506 73.4976 775.677 70.2313 778.018Z" fill="#3ED0B5"/>
<path d="M274.036 688.168L274.406 756.373C274.108 762.766 272.459 768.989 269.595 774.538C266.731 780.086 262.732 784.802 257.923 788.301L24.996 940.134C15.8292 946.101 8.37057 941.467 8.31364 929.788L7.91504 861.583L274.036 688.168Z" fill="#FF6B01"/>
<path d="M230.763 744.28L38.1477 869.835C35.6425 871.485 33.5928 870.216 33.5928 867.01C33.671 865.258 34.1193 863.552 34.9009 862.03C35.6825 860.508 36.7754 859.213 38.0908 858.251L230.706 732.695C233.211 731.077 235.261 732.346 235.261 735.52C235.187 737.273 234.741 738.981 233.959 740.504C233.177 742.027 232.081 743.321 230.763 744.28Z" fill="#FFC845"/>
<path d="M186.609 801.472L38.2903 898.145C35.7851 899.796 33.7354 898.526 33.7354 895.321C33.8136 893.569 34.2618 891.863 35.0434 890.34C35.825 888.818 36.9179 887.523 38.2333 886.561L186.552 789.888C189.057 788.237 191.107 789.507 191.107 792.712C191.029 794.464 190.581 796.17 189.799 797.693C189.017 799.215 187.924 800.51 186.609 801.472Z" fill="#FFC845"/>
<path d="M234.749 631.262C243.289 625.708 250.234 630.024 250.291 640.784C249.999 646.733 248.458 652.523 245.793 657.688C243.129 662.854 239.414 667.249 234.948 670.523C226.409 676.109 219.463 671.792 219.406 661.001C219.699 655.051 221.24 649.261 223.904 644.096C226.569 638.931 230.284 634.535 234.749 631.262Z" fill="#3ED0B5"/>
<path d="M195.634 656.462C204.175 650.908 211.121 655.193 211.178 665.984C210.899 671.958 209.362 677.775 206.692 682.964C204.021 688.153 200.291 692.567 195.805 695.85C187.265 701.404 180.29 697.087 180.262 686.328C180.524 680.35 182.054 674.526 184.727 669.334C187.399 664.143 191.137 659.731 195.634 656.462Z" fill="#FFC845"/>
<path d="M273.978 674.299L7.94353 847.714L7.91504 838.224L273.921 664.81L273.978 674.299Z" fill="#301C41"/>
<g style="mix-blend-mode:multiply" opacity="0.2">
<path d="M774.137 664.08L679.281 603.017C672.449 598.637 666.926 586.863 666.926 576.707V460.483C666.926 450.359 672.449 445.693 679.281 450.073L774.137 511.137C780.941 515.516 786.492 527.291 786.492 537.447V653.67C786.492 663.795 780.941 668.46 774.137 664.08Z" fill="#441F69"/>
</g>
<path d="M750.08 681.027L655.253 619.995C648.42 615.584 642.897 603.809 642.897 593.653V477.461C642.897 467.305 648.42 462.64 655.253 467.019L750.08 528.083C756.912 532.463 762.464 544.269 762.464 554.393V670.617C762.464 680.773 756.912 685.438 750.08 681.027Z" fill="#FFC845"/>
<path d="M745.469 585.371L726.424 541.732L717.143 535.765C709.172 540.906 696.191 532.591 688.192 517.135L678.94 511.168L659.866 530.211L672.961 553.855L680.733 551.475L678.94 602.256L687.48 609.778C696.641 618.194 706.992 624.855 718.111 629.487L726.652 632.819L724.83 579.69L732.601 592.068L745.469 585.371Z" fill="white"/>
<path d="M960.718 242.413C956.239 239.213 950.97 237.669 945.658 238.002C939.794 215.245 925.304 192.489 908.365 181.572C887.156 167.924 869.791 177.826 868.51 203.598C865.036 198.221 860.62 193.686 855.528 190.268C842.547 181.889 832.014 188.586 832.014 205.216C832.014 221.847 842.547 242.064 855.528 250.443C856.67 251.165 857.849 251.811 859.058 252.379L960.86 317.886C977.144 328.359 990.353 319.98 990.353 299.129C990.353 278.277 977.002 252.887 960.718 242.413Z" fill="#FFC845"/>
<path d="M944.033 253.459C939.564 250.261 934.303 248.717 929.001 249.047C923.108 226.291 908.647 203.535 891.708 192.617C870.471 178.97 853.105 188.872 851.71 214.644C848.214 209.289 843.802 204.759 838.729 201.314C825.719 192.935 815.186 199.632 815.186 216.262C815.186 232.893 825.719 253.11 838.729 261.489C839.862 262.229 841.041 262.876 842.259 263.425L944.033 328.932C960.316 339.437 973.526 331.026 973.526 310.175C973.526 289.323 960.316 263.933 944.033 253.459Z" fill="#FF8460"/>
<g style="mix-blend-mode:multiply" opacity="0.2">
<path d="M246.876 871.995C252.997 875.93 210.636 909.572 152.277 947.15C93.9172 984.727 41.6499 1011.99 35.5578 1008.05C29.4656 1004.12 71.7976 970.477 130.157 932.9C188.517 895.322 240.784 867.996 246.876 871.995Z" fill="#441F69"/>
</g>
<path d="M663.053 172.909C662.645 164.954 660.565 157.218 656.979 150.326C653.394 143.434 648.405 137.58 642.414 133.235C653.801 140.567 663.053 134.695 663.053 120.127C663.451 128.08 665.528 135.815 669.115 142.704C672.701 149.592 677.696 155.439 683.692 159.769C672.276 152.437 663.053 158.309 663.053 172.909Z" fill="#FF6B01"/>
<path d="M608.052 161.609C607.829 157.059 606.645 152.632 604.597 148.689C602.549 144.746 599.695 141.398 596.267 138.916C602.786 143.106 608.052 139.741 608.052 131.395C608.294 135.958 609.501 140.392 611.574 144.336C613.647 148.28 616.527 151.621 619.98 154.087C613.347 149.897 608.052 153.262 608.052 161.609Z" fill="#FF6B01"/>
<path d="M1050.56 353.082C1050.39 349.658 1049.5 346.328 1047.95 343.362C1046.41 340.395 1044.26 337.876 1041.68 336.007C1046.58 339.181 1050.56 336.642 1050.56 330.39C1050.74 333.808 1051.64 337.133 1053.18 340.094C1054.72 343.055 1056.87 345.569 1059.45 347.433C1054.55 344.291 1050.56 346.798 1050.56 353.082Z" fill="#FF6B01"/>
<path d="M356.479 669.126C356.249 664.574 355.06 660.147 353.007 656.204C350.954 652.261 348.096 648.913 344.664 646.434C351.183 650.623 356.479 647.259 356.479 638.912C356.71 643.468 357.9 647.899 359.953 651.846C362.005 655.794 364.862 659.148 368.293 661.636C361.774 657.415 356.479 660.779 356.479 669.126Z" fill="#432DB6"/>
<path d="M941.843 158.815C941.614 154.263 940.424 149.836 938.371 145.893C936.319 141.95 933.46 138.603 930.028 136.123C936.548 140.312 941.843 136.948 941.843 128.601C942.074 133.157 943.264 137.588 945.317 141.535C947.369 145.483 950.226 148.837 953.657 151.325C947.138 147.104 941.843 150.468 941.843 158.815Z" fill="#FF6B01"/>
<path d="M1005.47 397.452C1005.25 392.903 1004.06 388.476 1002.01 384.533C999.966 380.59 997.112 377.241 993.684 374.76C1000.2 378.949 1005.47 375.585 1005.47 367.238C1005.7 371.794 1006.89 376.225 1008.94 380.173C1011 384.12 1013.85 387.474 1017.28 389.962C1010.76 385.741 1005.47 389.105 1005.47 397.452Z" fill="#FF6B01"/>
</svg>
