<svg width="861" height="723" viewBox="0 0 861 723" fill="none" xmlns="http://www.w3.org/2000/svg">
<path fill-rule="evenodd" clip-rule="evenodd" d="M860.051 224.378C811.874 224.945 763.936 217.887 719.105 198.715C670.875 178.097 628.525 144.514 586.164 110.921C544.537 77.9101 502.899 44.8907 455.659 24.1584C415.87 6.70602 373.289 -1.44538 330.557 0.209838C287.825 1.86506 245.854 13.2916 207.247 33.7806C168.64 54.2696 134.222 83.3839 106.127 119.317C78.0319 155.251 56.8595 197.237 43.9233 242.672C23.2253 315.394 24.6537 392.247 26.0846 469.232C27.3932 539.64 28.7039 610.159 13.0923 677.73C9.59431 692.866 5.20685 707.715 0 722.194H860.051V224.378Z" fill="#FD9875"/>
</svg>
