<svg width="1200" height="400" viewBox="0 0 1200 400" fill="none" xmlns="http://www.w3.org/2000/svg">
<rect x="5" y="5" width="1190" height="390" rx="65" fill="#EA5B2A" stroke="#FFD700" stroke-width="10"/>
<path d="M210.668 316.926C194.82 319.124 182.126 316.343 172.587 308.582C163.016 300.623 156.891 288.25 154.214 271.462L152.325 259.611L183.229 255.325L185.496 269.545C187.638 282.976 194.355 288.908 205.647 287.342C211.194 286.572 215.102 284.415 217.371 280.871C219.808 277.101 220.443 271.562 219.278 264.254C217.892 255.564 214.698 248.235 209.697 242.267C204.664 236.101 196.058 229.119 183.881 221.32C168.52 211.338 157.409 201.978 150.548 193.24C143.656 184.304 139.25 173.812 137.328 161.764C134.714 145.371 136.859 132.154 143.762 122.112C150.633 111.873 161.993 105.655 177.842 103.456C193.492 101.286 206.003 104.194 215.376 112.18C224.916 119.941 231.024 132.215 233.701 149.003L235.071 157.595L204.167 161.881L202.466 151.216C201.333 144.106 199.127 139.163 195.85 136.387C192.541 133.415 188.212 132.299 182.863 133.041C171.967 134.552 167.575 141.924 169.685 155.157C170.882 162.662 173.981 169.399 178.982 175.367C184.182 181.307 192.87 188.177 205.048 195.976C220.607 205.931 231.734 215.39 238.428 224.353C245.122 233.316 249.508 244.315 251.587 257.351C254.295 274.336 252.115 287.962 245.045 298.229C238.174 308.468 226.715 314.701 210.668 316.926Z" fill="#FFD700"/>
<path d="M329.683 303.184C313.557 304.729 300.71 301.338 291.142 293.014C281.574 284.689 275.871 272.177 274.032 255.478L261.948 145.741C260.109 129.042 262.966 115.71 270.52 105.746C278.074 95.7811 289.914 90.0265 306.04 88.4819C322.166 86.9374 335.013 90.3275 344.581 98.6523C354.149 106.977 359.852 119.489 361.691 136.188L373.776 245.925C375.615 262.624 372.757 275.956 365.203 285.92C357.65 295.885 345.81 301.64 329.683 303.184ZM326.4 273.364C337.748 272.277 342.666 264.875 341.156 251.158L328.612 137.247C327.101 123.53 320.672 117.215 309.324 118.302C297.976 119.389 293.057 126.791 294.568 140.508L307.112 254.419C308.622 268.136 315.051 274.451 326.4 273.364Z" fill="#FFD700"/>
<path d="M505.328 292.018C489.538 292.554 477.269 288.467 468.523 279.759C459.977 271.044 455.385 258.492 454.746 242.105L450.351 129.391C449.712 113.003 453.314 100.174 461.159 90.9025C469.203 81.6246 481.121 76.7179 496.912 76.1824C512.703 75.6468 524.871 79.7366 533.417 88.4519C542.163 97.1603 546.856 109.708 547.495 126.096L548.36 148.279L517.178 149.337L516.231 125.055C515.724 112.065 509.974 105.756 498.98 106.129C487.987 106.502 482.743 113.183 483.25 126.174L487.82 243.384C488.319 256.175 494.065 262.383 505.059 262.011C516.053 261.638 521.3 255.056 520.801 242.266L519.551 210.19L550.733 209.133L551.89 238.81C552.529 255.198 548.826 268.03 540.782 277.308C532.937 286.579 521.119 291.483 505.328 292.018Z" fill="#FFD700"/>
<path d="M579.33 77.1251L612.328 77.4696L611.436 162.965L646.834 163.334L647.727 77.8391L680.725 78.1836L678.533 288.172L645.534 287.828L646.521 193.333L611.123 192.963L610.136 287.458L577.138 287.114L579.33 77.1251Z" fill="#FFD700"/>
<path d="M718.839 79.4568L808.716 84.1648L806.912 114.111L749.99 111.129L746.654 166.528L791.892 168.898L790.088 198.844L744.85 196.474L740.972 260.858L797.894 263.839L796.091 293.785L706.214 289.077L718.839 79.4568Z" fill="#FFD700"/>
<path d="M866.405 88.8898L910.907 93.0896L922.302 305.078L889.448 301.977L887.973 259.957L887.908 260.553L850.574 257.03L840.167 297.326L809.703 294.451L866.405 88.8898ZM887.1 231.853L883.662 127.278L883.065 127.221L857.531 229.063L887.1 231.853Z" fill="#FFD700"/>
<path d="M974.9 99.9577L1023.04 106.601C1039.29 108.843 1050.79 114.87 1057.53 124.682C1064.27 134.494 1066.31 147.795 1063.65 164.585L1060.41 185.029C1057.74 201.819 1051.66 214 1042.16 221.57C1032.66 229.14 1019.78 231.805 1003.54 229.563L988.082 227.431L974.685 311.875L941.995 307.364L974.9 99.9577ZM1008.24 199.934C1013.59 200.672 1017.78 199.737 1020.83 197.13C1024.07 194.549 1026.26 189.704 1027.39 182.593L1031.29 158C1032.42 150.889 1031.83 145.661 1029.53 142.315C1027.42 138.997 1023.69 136.969 1018.34 136.23L1002.89 134.098L992.783 197.801L1008.24 199.934Z" fill="#FFD700"/>
<path d="M255 342H945" stroke="#FFD700" stroke-width="10" stroke-linecap="round"/>
</svg>
