<svg width="1200" height="400" viewBox="0 0 1200 400" fill="none" xmlns="http://www.w3.org/2000/svg">
<rect x="5" y="5" width="1190" height="390" rx="65" fill="#EA5B2A" stroke="#FFD700" stroke-width="10"/>
<path d="M210.668 316.926C194.82 319.124 182.126 316.342 172.587 308.581C163.016 300.622 156.891 288.249 154.214 271.461L152.325 259.611L183.229 255.325L185.496 269.545C187.638 282.975 194.355 288.907 205.647 287.341C211.194 286.572 215.102 284.415 217.371 280.87C219.808 277.1 220.443 271.562 219.278 264.254C217.892 255.564 214.698 248.235 209.697 242.266C204.664 236.101 196.058 229.119 183.881 221.32C168.52 211.338 157.409 201.978 150.548 193.239C143.656 184.303 139.25 173.812 137.328 161.764C134.714 145.371 136.859 132.154 143.762 122.112C150.633 111.873 161.993 105.654 177.842 103.456C193.492 101.285 206.003 104.193 215.376 112.179C224.916 119.94 231.024 132.215 233.701 149.003L235.071 157.594L204.167 161.881L202.466 151.215C201.333 144.105 199.127 139.162 195.85 136.387C192.541 133.414 188.212 132.299 182.863 133.04C171.967 134.552 167.575 141.924 169.685 155.156C170.882 162.662 173.981 169.398 178.982 175.366C184.182 181.307 192.87 188.177 205.048 195.976C220.607 205.93 231.734 215.389 238.428 224.352C245.122 233.316 249.508 244.315 251.587 257.35C254.295 274.336 252.115 287.962 245.045 298.228C238.174 308.468 226.715 314.7 210.668 316.926Z" fill="#FFD700"/>
<path d="M329.683 303.185C313.557 304.729 300.71 301.339 291.142 293.014C281.574 284.689 275.871 272.177 274.032 255.478L261.948 145.742C260.109 129.043 262.966 115.711 270.52 105.746C278.074 95.7815 289.914 90.027 306.04 88.4824C322.166 86.9379 335.013 90.328 344.581 98.6528C354.149 106.978 359.852 119.49 361.691 136.189L373.776 245.925C375.615 262.624 372.757 275.956 365.203 285.921C357.65 295.885 345.81 301.64 329.683 303.185ZM326.4 273.365C337.748 272.278 342.666 264.876 341.156 251.159L328.612 137.247C327.101 123.53 320.672 117.215 309.324 118.302C297.976 119.389 293.057 126.791 294.568 140.508L307.112 254.42C308.622 268.137 315.051 274.452 326.4 273.365Z" fill="#FFD700"/>
<path d="M505.328 292.018C489.538 292.554 477.269 288.467 468.523 279.759C459.977 271.044 455.385 258.492 454.746 242.105L450.351 129.391C449.712 113.003 453.314 100.174 461.159 90.9025C469.203 81.6246 481.121 76.7179 496.912 76.1824C512.703 75.6468 524.871 79.7366 533.417 88.4519C542.163 97.1603 546.856 109.708 547.495 126.096L548.36 148.279L517.178 149.337L516.231 125.055C515.724 112.065 509.974 105.756 498.98 106.129C487.987 106.502 482.743 113.183 483.25 126.174L487.82 243.384C488.319 256.175 494.065 262.383 505.059 262.011C516.053 261.638 521.3 255.056 520.801 242.266L519.551 210.19L550.733 209.133L551.89 238.81C552.529 255.198 548.826 268.03 540.782 277.308C532.937 286.579 521.119 291.483 505.328 292.018Z" fill="#FFD700"/>
<path d="M579.33 77.1251L612.328 77.4696L611.436 162.965L646.834 163.334L647.727 77.8391L680.725 78.1836L678.533 288.172L645.534 287.828L646.521 193.333L611.123 192.963L610.136 287.458L577.138 287.114L579.33 77.1251Z" fill="#FFD700"/>
<path d="M718.839 79.4568L808.716 84.1648L806.912 114.111L749.99 111.129L746.654 166.528L791.892 168.898L790.088 198.844L744.85 196.474L740.972 260.858L797.894 263.839L796.091 293.785L706.214 289.077L718.839 79.4568Z" fill="#FFD700"/>
<path d="M866.405 88.8894L910.907 93.0891L922.302 305.077L889.448 301.977L887.973 259.956L887.908 260.553L850.574 257.029L840.167 297.326L809.703 294.451L866.405 88.8894ZM887.1 231.852L883.662 127.277L883.065 127.221L857.531 229.062L887.1 231.852Z" fill="#FFD700"/>
<path d="M974.9 99.9572L1023.04 106.6C1039.29 108.842 1050.79 114.869 1057.53 124.681C1064.27 134.493 1066.31 147.795 1063.65 164.585L1060.41 185.029C1057.74 201.819 1051.66 213.999 1042.16 221.57C1032.66 229.14 1019.78 231.804 1003.54 229.563L988.082 227.43L974.685 311.874L941.995 307.363L974.9 99.9572ZM1008.24 199.933C1013.59 200.671 1017.78 199.737 1020.83 197.129C1024.07 194.549 1026.26 189.703 1027.39 182.592L1031.29 158C1032.42 150.889 1031.83 145.66 1029.53 142.315C1027.42 138.996 1023.69 136.968 1018.34 136.23L1002.89 134.097L992.783 197.801L1008.24 199.933Z" fill="#FFD700"/>
<path d="M255 342H945" stroke="#FFD700" stroke-width="10" stroke-linecap="round"/>
</svg>
