<svg width="3000" height="2025" viewBox="0 0 3000 2025" fill="none" xmlns="http://www.w3.org/2000/svg">
<path d="M3000 0H0V2025H3000V0Z" fill="#FCB82F"/>
<path d="M1500 1697.53C2199.93 1697.53 2767.34 1678.19 2767.34 1654.34C2767.34 1630.49 2199.93 1611.15 1500 1611.15C800.068 1611.15 232.66 1630.49 232.66 1654.34C232.66 1678.19 800.068 1697.53 1500 1697.53Z" fill="#FFA463"/>
<path d="M1533.96 1677.63C2184.97 1677.63 2712.71 1655.14 2712.71 1627.4C2712.71 1599.66 2184.97 1577.17 1533.96 1577.17C882.955 1577.17 355.211 1599.66 355.211 1627.4C355.211 1655.14 882.955 1677.63 1533.96 1677.63Z" fill="#FC6800"/>
<path d="M2457.77 1633.7C2515.37 1633.7 2552.96 1575.25 2553.04 1507.86C2553.75 933.13 2434.04 340.47 1700.73 303.02C843.409 259.24 522.509 442.54 424.459 1281.75C402.669 1468.2 347.309 1637 688.999 1633.7H2457.77Z" fill="#FFEBDC"/>
<path d="M1079.08 1555.87C1079.08 1555.87 1087.52 1453.62 990.81 1435.87C894.1 1418.12 644.32 1250.16 547.15 1274.19C506.24 1284.3 544.09 1399.77 519.38 1461.53C498.56 1513.53 392 1612.93 469.32 1633.8H1090.65L1079.08 1555.87Z" fill="#FFDABF"/>
<path opacity="0.42" d="M687.359 1302.83C687.359 1302.83 615.219 1513.48 682.609 1585.43C749.999 1657.38 885.209 1685.53 885.209 1685.53H1090.65V1338.53L687.359 1302.88" fill="#EEA672"/>
<path d="M1028.49 1392C1028.49 1392 1178.89 1376.78 1245.75 1352.27C1312.61 1327.76 1212.32 1632.9 1212.32 1632.9H965.67L1028.49 1392Z" fill="#89503D"/>
<path d="M1046.59 1448.39C1046.59 1537.39 957.349 1576.46 856.839 1576.46C756.329 1576.46 682.609 1537.37 682.609 1448.39C682.609 1359.41 773.109 1250.11 873.609 1250.11C974.109 1250.11 1046.59 1359.42 1046.59 1448.39Z" fill="#9E5C46"/>
<path d="M1008.93 1331.15C1008.93 1331.15 1027.72 1611.38 709.32 1525.86C709.32 1525.86 736.85 1638.17 883.84 1605.01C1030.83 1571.85 1075.04 1502.91 1073.93 1453.94C1072.82 1404.97 1008.93 1331.15 1008.93 1331.15" fill="#8A4F3D"/>
<path d="M903.001 1253.54C873.734 1245.9 843.663 1241.78 813.421 1241.24C805.341 1241.1 797.071 1241.24 789.511 1244.11C788.271 1244.58 786.931 1245.26 786.511 1246.53C785.891 1248.6 788.211 1250.31 790.251 1251.04C793.44 1252.17 796.807 1252.72 800.191 1252.66L768.021 1255.66C758.931 1256.51 748.851 1257.87 743.021 1264.92C741.571 1266.69 740.621 1269.65 742.461 1271.03C743.306 1271.53 744.28 1271.77 745.261 1271.71L766.151 1272.51C751.085 1275.27 736.846 1281.43 724.511 1290.51C723.171 1291.51 721.761 1292.66 721.411 1294.3C720.621 1298 725.411 1300.19 729.131 1300.78C752.401 1304.43 776.131 1302.39 799.591 1300.33C818.591 1298.67 837.701 1297 856.321 1292.74C865.721 1290.59 875.321 1287.63 882.571 1281.31C889.821 1274.99 894.321 1264.57 891.151 1255.46" fill="#9E5C46"/>
<path d="M776.061 1456.63C776.061 1456.63 801.361 1472.84 814.801 1446.35C814.801 1446.35 801.361 1461 776.061 1456.63Z" fill="#231F20"/>
<path d="M922.4 1435.82C922.4 1435.82 939.51 1458 965.67 1439.82C965.67 1439.8 945.27 1447.26 922.4 1435.82Z" fill="#231F20"/>
<path d="M915.23 1422.07C927.34 1408.34 1000.91 1422.67 1028.49 1428.62C1028.28 1390.13 1004.43 1355.52 957.82 1366.01C936.12 1370.89 916.25 1383.33 894.97 1390.01C892.775 1387.79 890.252 1385.92 887.49 1384.46C883.55 1382.17 879.55 1379.98 875.49 1377.9C873.49 1376.9 870.98 1375.9 869.06 1377.06C867.4 1378.06 866.99 1380.45 867.59 1382.31C868.33 1384.13 869.464 1385.77 870.91 1387.1C864.408 1381.01 857.381 1375.51 849.91 1370.66C848.96 1370.05 847.79 1369.42 846.76 1369.88C846.25 1370.14 845.847 1370.57 845.62 1371.09C844.45 1373.41 845.54 1376.2 846.9 1378.41C849.286 1382.27 852.475 1385.56 856.25 1388.08C850.152 1384.3 843.804 1380.94 837.25 1378.02C832.17 1375.76 826.82 1373.75 821.25 1373.72C820.14 1373.72 818.8 1373.93 818.34 1374.95C818.215 1375.41 818.204 1375.89 818.309 1376.35C818.414 1376.82 818.63 1377.25 818.94 1377.61C822.04 1382.34 827.22 1385.22 832.33 1387.61L834.04 1388.42C838.247 1390.36 842.54 1392.12 846.92 1393.7C826.49 1392.04 806.59 1388.25 786.72 1388.89C772.49 1389.34 758.27 1392.06 743.88 1399.46C715.78 1413.91 702.88 1438.82 706.46 1466.63C729.56 1452.44 796.28 1419.09 820.64 1435.33C845.64 1452.02 768.22 1512.04 743.16 1530.57C812.37 1589.63 949.78 1565.89 1005.03 1494.03C940.1 1490.8 901.3 1437.85 915.23 1422.07Z" fill="#ECC18F"/>
<path d="M912.219 1521.68C914.637 1525.33 915.557 1529.78 914.789 1534.09C914.65 1535.01 914.286 1535.89 913.729 1536.64C913.181 1537.2 912.516 1537.62 911.783 1537.89C911.05 1538.16 910.266 1538.26 909.489 1538.19C907.309 1538.08 905.223 1537.26 903.543 1535.87C901.863 1534.47 900.68 1532.57 900.169 1530.45C899.649 1528.09 899.669 1525.04 897.449 1524.09C896.739 1523.83 895.969 1523.77 895.229 1523.93C891.759 1524.54 889.099 1527.74 885.589 1528.01C881.089 1528.35 877.649 1523.81 873.209 1523.01C871.895 1522.93 870.593 1522.7 869.329 1522.33C868.109 1521.81 867.129 1520.33 867.739 1519.19C868.349 1518.05 869.739 1518 870.919 1517.97C877.634 1517.82 884.325 1517.1 890.919 1515.82C893.919 1515.23 896.919 1514.4 899.919 1513.75C900.854 1513.52 901.828 1513.49 902.773 1513.68C903.718 1513.86 904.611 1514.25 905.389 1514.82C908.121 1516.6 910.448 1518.94 912.219 1521.68V1521.68Z" fill="#FCB82F"/>
<path d="M891.059 1514.13C888.059 1514.62 884.929 1514.79 881.879 1515.13L877.279 1515.45C876.539 1515.53 875.779 1515.58 875.029 1515.61C872.889 1509.83 872.379 1501.04 872.409 1493.68C884.839 1492.37 894.249 1484.57 893.589 1475.9C892.919 1466.99 881.889 1460.56 868.949 1461.54C856.009 1462.52 846.069 1470.54 846.739 1479.43C847.329 1487.25 855.899 1493.15 866.739 1493.82C866.739 1500.94 867.239 1509.41 869.149 1515.82C864.149 1515.98 859.209 1516 854.219 1515.82C848.019 1515.66 841.809 1515.31 835.449 1514.82C841.283 1517.46 847.455 1519.27 853.789 1520.21C860.124 1521.23 866.549 1521.6 872.959 1521.29C876.169 1521.21 879.359 1520.77 882.539 1520.4C884.119 1520.1 885.709 1519.83 887.279 1519.51C888.059 1519.34 888.859 1519.22 889.629 1519.02L891.959 1518.38C898.162 1516.76 904.104 1514.27 909.609 1510.99C903.259 1512.13 897.219 1513.46 891.059 1514.13Z" fill="#352F31"/>
<path d="M785.35 1409.05C782.087 1409.37 778.856 1409.96 775.69 1410.82C772.53 1411.69 768.99 1413.62 767.38 1416.62C765.63 1419.89 766.92 1422.79 770.87 1422.86C786.56 1423.15 802.16 1420.86 817.87 1421.34C819.426 1421.47 820.991 1421.37 822.52 1421.06C831.98 1418.61 819.94 1412.43 816.31 1411.59C806.55 1409.35 795.65 1408 785.35 1409.05Z" fill="#9E5C46"/>
<path d="M925 1392.31C921.74 1392.62 918.512 1393.21 915.35 1394.07C912.19 1394.95 908.64 1396.87 907.04 1399.88C905.29 1403.14 906.58 1406.04 910.53 1406.11C926.22 1406.4 941.81 1404.11 957.53 1404.6C959.082 1404.73 960.645 1404.63 962.17 1404.32C971.64 1401.86 959.6 1395.68 955.96 1394.85C946.15 1392.61 935.26 1391.28 925 1392.31Z" fill="#9E5C46"/>
<path d="M839.56 1250.11C834.5 1248.85 829.42 1247.69 824.32 1246.62C819.261 1245.51 814.147 1244.67 809 1244.1C807.72 1243.98 806.45 1243.89 805.2 1243.88C804.014 1243.84 802.827 1243.95 801.67 1244.21C801.298 1244.27 800.95 1244.43 800.67 1244.68C800.67 1244.74 800.67 1244.68 800.67 1244.76C800.67 1244.84 800.67 1244.76 800.67 1244.94L800.75 1245.28C801.045 1246.2 801.658 1246.99 802.48 1247.51C804.502 1248.72 806.773 1249.45 809.12 1249.64C811.591 1249.95 814.085 1250.02 816.57 1249.87C817.054 1249.83 817.534 1249.99 817.903 1250.3C818.272 1250.62 818.502 1251.07 818.54 1251.55C818.579 1252.03 818.423 1252.51 818.108 1252.88C817.793 1253.25 817.344 1253.48 816.86 1253.52V1253.52C810.04 1254.19 803.18 1254.9 796.39 1255.82C789.6 1256.74 782.8 1257.74 776.16 1259.17C772.9 1259.83 769.694 1260.73 766.57 1261.87C765.857 1262.16 765.163 1262.49 764.49 1262.87C763.974 1263.13 763.499 1263.47 763.08 1263.87C762.96 1263.93 762.88 1264.45 762.89 1264.36C762.9 1264.27 762.89 1264.36 762.89 1264.36C762.89 1264.36 762.89 1264.36 762.89 1264.42C762.952 1264.46 763.009 1264.51 763.06 1264.57C763.16 1264.62 763.257 1264.68 763.35 1264.75C764.675 1265.31 766.084 1265.65 767.52 1265.75C769.151 1265.92 770.79 1266 772.43 1265.99C775.792 1265.97 779.15 1265.77 782.49 1265.39V1265.39C783.026 1265.34 783.563 1265.49 783.995 1265.81C784.428 1266.13 784.727 1266.6 784.834 1267.13C784.94 1267.66 784.848 1268.2 784.574 1268.67C784.3 1269.13 783.864 1269.48 783.35 1269.64C776.16 1271.75 768.98 1274.03 761.89 1276.49C754.787 1278.81 747.828 1281.56 741.05 1284.71C739.416 1285.49 737.842 1286.39 736.34 1287.4C735.668 1287.85 735.059 1288.39 734.53 1289C734.376 1289.18 734.263 1289.39 734.2 1289.62C734.2 1289.7 734.2 1289.74 734.32 1289.93C734.559 1290.16 734.832 1290.34 735.13 1290.48C735.48 1290.66 735.95 1290.82 736.35 1290.99L737.61 1291.49C738.04 1291.64 738.48 1291.75 738.91 1291.89L740.23 1292.27L741.57 1292.55L742.92 1292.82L744.29 1293C751.757 1293.76 759.299 1293.18 766.56 1291.28C762.987 1292.56 759.305 1293.51 755.56 1294.13C751.784 1294.78 747.946 1295 744.12 1294.79L742.68 1294.69C742.2 1294.69 741.68 1294.56 741.24 1294.5L739.79 1294.29L738.37 1293.97C737.89 1293.86 737.37 1293.76 736.94 1293.63L735.54 1293.16C735.06 1292.99 734.62 1292.88 734.12 1292.65C733.549 1292.41 733.025 1292.07 732.57 1291.65C732.271 1291.36 732.037 1291.02 731.882 1290.63C731.727 1290.25 731.654 1289.83 731.67 1289.42C731.728 1288.7 731.984 1288.01 732.41 1287.42C733.059 1286.56 733.826 1285.79 734.69 1285.14C736.273 1283.96 737.944 1282.9 739.69 1281.97C743.07 1280.11 746.55 1278.55 750.05 1277.04C753.55 1275.53 757.05 1274.14 760.62 1272.8C767.74 1270.16 774.89 1267.71 782.13 1265.41L783.03 1269.65C779.519 1270.08 775.987 1270.32 772.45 1270.36C770.641 1270.38 768.831 1270.31 767.03 1270.13C765.019 1269.98 763.05 1269.48 761.22 1268.63L760.42 1268.13C760.139 1267.91 759.868 1267.68 759.61 1267.43C759.336 1267.12 759.095 1266.79 758.89 1266.43C758.677 1266.05 758.525 1265.63 758.44 1265.2C758.35 1264.79 758.323 1264.37 758.36 1263.95C758.38 1263.58 758.447 1263.21 758.56 1262.85C758.749 1262.12 759.09 1261.44 759.56 1260.85C760.33 1260 761.244 1259.3 762.26 1258.77C763.107 1258.32 763.982 1257.92 764.88 1257.58C768.24 1256.36 771.69 1255.41 775.2 1254.73C782.07 1253.31 788.94 1252.34 795.84 1251.58C802.74 1250.82 809.61 1250.17 816.55 1249.77L816.79 1253.43C814.059 1253.5 811.328 1253.32 808.63 1252.89C805.765 1252.53 803.025 1251.5 800.63 1249.89C799.294 1248.91 798.339 1247.5 797.93 1245.89C797.822 1245.42 797.775 1244.95 797.79 1244.47C797.843 1243.84 798.095 1243.25 798.51 1242.78C799.167 1242.09 800.031 1241.64 800.97 1241.49C802.371 1241.23 803.8 1241.16 805.22 1241.27C806.58 1241.36 807.91 1241.51 809.22 1241.71C814.404 1242.59 819.533 1243.77 824.58 1245.25C829.647 1246.74 834.64 1248.36 839.56 1250.11Z" fill="#ECC18F"/>
<path d="M1117.2 1632.86C1117.2 1632.86 1143.2 1378.39 1165.52 1350.86C1187.84 1323.33 1538.33 1263.33 1673.64 1250.15C2234.44 1195.54 2684.54 1618.96 2583.94 1631.51C2551.67 1635.51 2371.2 1632.9 2371.2 1632.9L1117.2 1632.86Z" fill="#FFDBC2"/>
<path d="M1427.71 1389.86C1432.22 1389.8 1436.54 1388.01 1439.77 1384.86C1442.77 1381.86 1444.95 1377.05 1444.77 1372.8C1444.57 1368.39 1443.12 1363.8 1439.77 1360.8C1438.19 1359.21 1436.31 1357.95 1434.24 1357.09C1432.17 1356.22 1429.95 1355.78 1427.71 1355.78C1425.47 1355.78 1423.25 1356.22 1421.18 1357.09C1419.11 1357.95 1417.23 1359.21 1415.65 1360.8C1412.65 1363.8 1410.47 1368.6 1410.65 1372.8C1410.85 1377.21 1412.3 1381.8 1415.65 1384.86C1418.89 1388 1423.2 1389.79 1427.71 1389.86Z" fill="#FCB82F"/>
<path d="M1518 1507C1522.51 1506.94 1526.83 1505.15 1530.06 1502C1533.06 1499 1535.24 1494.19 1535.06 1489.94C1534.86 1485.54 1533.41 1480.94 1530.06 1477.94C1528.48 1476.35 1526.6 1475.09 1524.53 1474.23C1522.46 1473.36 1520.24 1472.92 1518 1472.92C1515.76 1472.92 1513.54 1473.36 1511.47 1474.23C1509.4 1475.09 1507.52 1476.35 1505.94 1477.94C1502.94 1480.94 1500.76 1485.75 1500.94 1489.94C1501.14 1494.35 1502.59 1498.94 1505.94 1502C1509.18 1505.14 1513.49 1506.93 1518 1507V1507Z" fill="#FCB82F"/>
<path d="M1635.13 1319.09C1639.64 1319.03 1643.96 1317.24 1647.19 1314.09C1650.37 1310.88 1652.16 1306.55 1652.19 1302.03C1651.99 1297.62 1650.55 1293.03 1647.19 1290.03C1645.61 1288.44 1643.73 1287.18 1641.66 1286.32C1639.59 1285.46 1637.38 1285.02 1635.13 1285.02C1632.89 1285.02 1630.68 1285.46 1628.61 1286.32C1626.54 1287.18 1624.66 1288.44 1623.08 1290.03C1620.08 1293.03 1617.89 1297.84 1618.08 1302.03C1618.28 1306.44 1619.73 1311.03 1623.08 1314.09C1626.31 1317.23 1630.62 1319.02 1635.13 1319.09V1319.09Z" fill="#FCB82F"/>
<path d="M1564.36 1402.06C1568.87 1402 1573.19 1400.21 1576.42 1397.06C1579.6 1393.85 1581.39 1389.52 1581.42 1385C1581.23 1380.59 1579.78 1376 1576.42 1373C1574.84 1371.41 1572.96 1370.15 1570.89 1369.29C1568.82 1368.43 1566.61 1367.99 1564.37 1367.99C1562.12 1367.99 1559.91 1368.43 1557.84 1369.29C1555.77 1370.15 1553.89 1371.41 1552.31 1373C1549.31 1376 1547.12 1380.81 1547.31 1385C1547.5 1389.41 1548.95 1394 1552.31 1397.06C1555.53 1400.19 1559.82 1401.97 1564.31 1402.06H1564.36Z" fill="#FCB82F"/>
<path d="M1508.24 1292.25C1512.75 1292.19 1517.07 1290.4 1520.3 1287.25C1523.3 1284.25 1525.48 1279.44 1525.3 1275.19C1525.1 1270.78 1523.65 1266.19 1520.3 1263.19C1518.72 1261.6 1516.84 1260.34 1514.77 1259.48C1512.7 1258.61 1510.48 1258.17 1508.24 1258.17C1506 1258.17 1503.78 1258.61 1501.71 1259.48C1499.64 1260.34 1497.76 1261.6 1496.18 1263.19C1493.18 1266.14 1491 1270.99 1491.18 1275.19C1491.38 1279.6 1492.82 1284.19 1496.18 1287.25C1499.42 1290.39 1503.73 1292.18 1508.24 1292.25V1292.25Z" fill="#FCB82F"/>
<path d="M1249.57 1397.18C1254.08 1397.12 1258.4 1395.33 1261.63 1392.18C1264.58 1389.18 1266.81 1384.37 1266.63 1380.12C1266.43 1375.71 1264.99 1371.12 1261.63 1368.07C1260.05 1366.48 1258.17 1365.22 1256.1 1364.36C1254.04 1363.5 1251.82 1363.06 1249.58 1363.06C1247.34 1363.06 1245.12 1363.5 1243.05 1364.36C1240.98 1365.22 1239.1 1366.48 1237.52 1368.07C1234.52 1371.07 1232.33 1375.88 1232.52 1380.12C1232.72 1384.53 1234.17 1389.12 1237.52 1392.18C1240.74 1395.31 1245.03 1397.09 1249.52 1397.18H1249.57Z" fill="#FCB82F"/>
<path d="M1335 1541.16C1339.51 1541.1 1343.83 1539.31 1347.06 1536.16C1350.06 1533.16 1352.24 1528.36 1352.06 1524.11C1351.86 1519.7 1350.41 1515.11 1347.06 1512.05C1343.86 1508.85 1339.52 1507.06 1335 1507.06C1330.48 1507.06 1326.14 1508.85 1322.94 1512.05C1319.94 1515.05 1317.76 1519.86 1317.94 1524.11C1318.14 1528.52 1319.59 1533.11 1322.94 1536.16C1326.18 1539.3 1330.49 1541.09 1335 1541.16V1541.16Z" fill="#FCB82F"/>
<path d="M1327.66 1433.79C1332.17 1433.73 1336.49 1431.94 1339.72 1428.79C1342.72 1425.79 1344.9 1420.98 1344.72 1416.79C1344.52 1412.38 1343.07 1407.79 1339.72 1404.73C1336.52 1401.53 1332.18 1399.74 1327.66 1399.74C1323.14 1399.74 1318.8 1401.53 1315.6 1404.73C1312.65 1407.73 1310.42 1412.54 1310.6 1416.79C1310.8 1421.2 1312.25 1425.79 1315.6 1428.79C1318.84 1431.93 1323.15 1433.72 1327.66 1433.79V1433.79Z" fill="#FCB82F"/>
<path d="M1188.56 1507C1193.07 1506.94 1197.39 1505.15 1200.62 1502C1203.8 1498.79 1205.59 1494.46 1205.62 1489.94C1205.43 1485.54 1203.98 1480.94 1200.62 1477.94C1199.04 1476.35 1197.16 1475.09 1195.09 1474.23C1193.03 1473.37 1190.81 1472.93 1188.57 1472.93C1186.33 1472.93 1184.11 1473.37 1182.04 1474.23C1179.97 1475.09 1178.09 1476.35 1176.51 1477.94C1173.51 1480.94 1171.32 1485.75 1171.51 1489.94C1171.71 1494.35 1173.16 1498.94 1176.51 1502C1179.73 1505.13 1184.02 1506.92 1188.51 1507H1188.56Z" fill="#FCB82F"/>
<path d="M1213 1602.16C1217.49 1602.09 1221.79 1600.3 1225 1597.16C1228 1594.16 1230.19 1589.35 1230 1585.1C1229.81 1580.85 1228.35 1576.1 1225 1573.1C1221.8 1569.91 1217.47 1568.11 1212.95 1568.11C1208.43 1568.11 1204.09 1569.91 1200.89 1573.1C1197.89 1576.1 1195.71 1580.91 1195.89 1585.1C1196.08 1589.51 1197.53 1594.1 1200.89 1597.16C1204.13 1600.3 1208.44 1602.09 1212.95 1602.16H1213Z" fill="#FCB82F"/>
<path d="M1454.77 1597.52C1459.28 1597.46 1463.6 1595.67 1466.83 1592.52C1470.01 1589.31 1471.8 1584.98 1471.83 1580.46C1471.64 1576.05 1470.19 1571.46 1466.83 1568.4C1463.63 1565.21 1459.3 1563.41 1454.78 1563.41C1450.25 1563.41 1445.92 1565.21 1442.72 1568.4C1439.72 1571.4 1437.53 1576.21 1437.72 1580.46C1437.92 1584.87 1439.37 1589.46 1442.72 1592.52C1445.94 1595.65 1450.23 1597.44 1454.72 1597.52H1454.77Z" fill="#FCB82F"/>
<path d="M1424.82 1477.72C1429.33 1477.66 1433.65 1475.87 1436.88 1472.72C1440.04 1469.52 1441.84 1465.22 1441.88 1460.72C1441.68 1456.31 1440.24 1451.72 1436.88 1448.66C1433.68 1445.47 1429.35 1443.67 1424.83 1443.67C1420.31 1443.67 1415.97 1445.47 1412.77 1448.66C1409.77 1451.66 1407.58 1456.47 1407.77 1460.72C1407.97 1465.13 1409.42 1469.72 1412.77 1472.72C1415.99 1475.85 1420.28 1477.64 1424.77 1477.72H1424.82Z" fill="#FCB82F"/>
<path d="M1704.36 1511C1708.87 1510.94 1713.19 1509.15 1716.42 1506C1719.42 1503 1721.6 1498.19 1721.42 1494C1721.23 1489.59 1719.78 1485 1716.42 1481.94C1713.22 1478.75 1708.89 1476.95 1704.37 1476.95C1699.84 1476.95 1695.51 1478.75 1692.31 1481.94C1689.31 1484.94 1687.12 1489.75 1687.31 1494C1687.51 1498.41 1688.96 1503 1692.31 1506C1695.53 1509.13 1699.82 1510.91 1704.31 1511H1704.36Z" fill="#FCB82F"/>
<path d="M1767.59 1361.24C1772.1 1361.18 1776.42 1359.39 1779.65 1356.24C1782.83 1353.03 1784.62 1348.7 1784.65 1344.18C1784.46 1339.77 1783.01 1335.18 1779.65 1332.18C1778.07 1330.59 1776.19 1329.33 1774.12 1328.47C1772.05 1327.61 1769.84 1327.17 1767.6 1327.17C1765.36 1327.17 1763.14 1327.61 1761.07 1328.47C1759 1329.33 1757.12 1330.59 1755.54 1332.18C1752.54 1335.13 1750.35 1339.98 1750.54 1344.18C1750.74 1348.59 1752.19 1353.18 1755.54 1356.24C1758.76 1359.37 1763.05 1361.16 1767.54 1361.24H1767.59Z" fill="#FCB82F"/>
<path d="M1647.79 1414.49C1652.3 1414.43 1656.62 1412.64 1659.85 1409.49C1662.85 1406.49 1665.03 1401.68 1664.85 1397.49C1664.65 1393.08 1663.2 1388.49 1659.85 1385.43C1656.65 1382.23 1652.31 1380.44 1647.79 1380.44C1643.27 1380.44 1638.93 1382.23 1635.73 1385.43C1632.73 1388.43 1630.55 1393.24 1630.73 1397.49C1630.93 1401.9 1632.38 1406.49 1635.73 1409.49C1638.97 1412.63 1643.28 1414.42 1647.79 1414.49V1414.49Z" fill="#FCB82F"/>
<path d="M1627.82 1600.85C1632.33 1600.79 1636.65 1599 1639.88 1595.85C1643.05 1592.65 1644.84 1588.35 1644.88 1583.85C1644.69 1579.44 1643.24 1574.85 1639.88 1571.79C1636.68 1568.59 1632.35 1566.8 1627.83 1566.8C1623.31 1566.8 1618.97 1568.59 1615.77 1571.79C1612.77 1574.79 1610.58 1579.6 1610.77 1583.85C1610.97 1588.26 1612.42 1592.85 1615.77 1595.85C1618.99 1598.98 1623.28 1600.77 1627.77 1600.85H1627.82Z" fill="#FCB82F"/>
<path d="M1874.09 1644.11C1878.6 1644.05 1882.91 1642.26 1886.14 1639.11C1889.14 1636.11 1891.33 1631.3 1891.14 1627.05C1890.94 1622.64 1889.49 1618.05 1886.14 1615.05C1884.56 1613.46 1882.68 1612.2 1880.61 1611.34C1878.55 1610.48 1876.33 1610.04 1874.09 1610.04C1871.85 1610.04 1869.63 1610.48 1867.56 1611.34C1865.49 1612.2 1863.61 1613.46 1862.03 1615.05C1858.87 1618.25 1857.07 1622.55 1857.03 1627.05C1857.22 1631.46 1858.67 1636.05 1862.03 1639.11C1865.27 1642.25 1869.58 1644.04 1874.09 1644.11Z" fill="#FCB82F"/>
<path d="M1930.66 1464.41C1935.17 1464.35 1939.49 1462.56 1942.72 1459.41C1945.72 1456.41 1947.9 1451.6 1947.72 1447.36C1947.52 1442.95 1946.07 1438.36 1942.72 1435.3C1939.52 1432.1 1935.18 1430.31 1930.66 1430.31C1926.14 1430.31 1921.8 1432.1 1918.6 1435.3C1915.65 1438.3 1913.42 1443.11 1913.6 1447.36C1913.8 1451.76 1915.25 1456.36 1918.6 1459.41C1921.84 1462.55 1926.15 1464.34 1930.66 1464.41Z" fill="#FCB82F"/>
<path d="M1787.56 1567.57C1792.07 1567.51 1796.39 1565.72 1799.62 1562.57C1802.62 1559.57 1804.8 1554.76 1804.62 1550.51C1804.42 1546.1 1802.98 1541.51 1799.62 1538.45C1796.42 1535.26 1792.09 1533.46 1787.57 1533.46C1783.05 1533.46 1778.71 1535.26 1775.51 1538.45C1772.51 1541.45 1770.32 1546.26 1770.51 1550.51C1770.71 1554.92 1772.16 1559.51 1775.51 1562.57C1778.73 1565.7 1783.02 1567.49 1787.51 1567.57H1787.56Z" fill="#FCB82F"/>
<path d="M1814.18 1457.75C1818.69 1457.69 1823.01 1455.9 1826.24 1452.75C1829.42 1449.54 1831.21 1445.21 1831.24 1440.69C1831.05 1436.28 1829.6 1431.69 1826.24 1428.63C1823.04 1425.43 1818.71 1423.64 1814.19 1423.64C1809.67 1423.64 1805.33 1425.43 1802.13 1428.63C1799.13 1431.63 1796.94 1436.44 1797.13 1440.69C1797.33 1445.1 1798.78 1449.69 1802.13 1452.75C1805.35 1455.88 1809.64 1457.66 1814.13 1457.75H1814.18Z" fill="#FCB82F"/>
<path d="M1924 1271.39C1928.51 1271.34 1932.83 1269.55 1936.06 1266.39C1939.24 1263.18 1941.03 1258.86 1941.06 1254.34C1940.87 1249.93 1939.42 1245.34 1936.06 1242.28C1932.86 1239.09 1928.53 1237.29 1924.01 1237.29C1919.49 1237.29 1915.15 1239.09 1911.95 1242.28C1908.95 1245.28 1906.76 1250.09 1906.95 1254.34C1907.15 1258.75 1908.6 1263.34 1911.95 1266.39C1915.17 1269.52 1919.46 1271.31 1923.95 1271.39H1924Z" fill="#FCB82F"/>
<path d="M1770.92 1288C1775.43 1287.94 1779.75 1286.15 1782.98 1283C1785.98 1280 1788.16 1275.19 1787.98 1271C1787.78 1266.59 1786.34 1262 1782.98 1258.94C1779.78 1255.75 1775.45 1253.95 1770.93 1253.95C1766.41 1253.95 1762.07 1255.75 1758.87 1258.94C1755.87 1261.94 1753.68 1266.75 1753.87 1271C1754.07 1275.41 1755.52 1280 1758.87 1283C1762.1 1286.14 1766.41 1287.93 1770.92 1288V1288Z" fill="#FCB82F"/>
<path d="M2163.61 1481C2168.12 1480.94 2172.44 1479.15 2175.67 1476C2178.85 1472.79 2180.64 1468.46 2180.67 1463.94C2180.47 1459.54 2179.03 1454.94 2175.67 1451.94C2172.47 1448.75 2168.14 1446.95 2163.62 1446.95C2159.1 1446.95 2154.76 1448.75 2151.56 1451.94C2148.56 1454.94 2146.37 1459.75 2146.56 1463.94C2146.76 1468.35 2148.21 1472.94 2151.56 1476C2154.8 1479.14 2159.11 1480.93 2163.61 1481V1481Z" fill="#FCB82F"/>
<path d="M2090.4 1354.59C2094.89 1354.52 2099.19 1352.73 2102.4 1349.59C2105.4 1346.59 2107.59 1341.78 2107.4 1337.59C2107.2 1333.18 2105.75 1328.59 2102.4 1325.53C2099.2 1322.34 2094.87 1320.54 2090.35 1320.54C2085.83 1320.54 2081.49 1322.34 2078.29 1325.53C2075.29 1328.53 2073.11 1333.34 2073.29 1337.59C2073.49 1341.99 2074.93 1346.59 2078.29 1349.59C2081.53 1352.73 2085.84 1354.52 2090.35 1354.59H2090.4Z" fill="#FCB82F"/>
<path d="M1924 1364.57C1928.51 1364.51 1932.83 1362.72 1936.06 1359.57C1939.24 1356.36 1941.03 1352.03 1941.06 1347.51C1940.87 1343.1 1939.42 1338.51 1936.06 1335.45C1932.86 1332.26 1928.53 1330.46 1924.01 1330.46C1919.49 1330.46 1915.15 1332.26 1911.95 1335.45C1908.95 1338.45 1906.76 1343.26 1906.95 1347.51C1907.15 1351.92 1908.6 1356.51 1911.95 1359.57C1915.17 1362.7 1919.46 1364.49 1923.95 1364.57H1924Z" fill="#FCB82F"/>
<path d="M2040.48 1431.13C2044.99 1431.07 2049.31 1429.28 2052.54 1426.13C2055.49 1423.13 2057.72 1418.32 2057.54 1414.08C2057.34 1409.67 2055.89 1405.08 2052.54 1402.02C2049.34 1398.82 2045 1397.03 2040.48 1397.03C2035.96 1397.03 2031.62 1398.82 2028.42 1402.02C2025.42 1405.02 2023.24 1409.83 2023.42 1414.08C2023.62 1418.49 2025.07 1423.08 2028.42 1426.13C2031.66 1429.27 2035.97 1431.06 2040.48 1431.13V1431.13Z" fill="#FCB82F"/>
<path d="M2057.12 1577.55C2061.63 1577.49 2065.95 1575.7 2069.18 1572.55C2072.18 1569.55 2074.36 1564.74 2074.18 1560.49C2073.98 1556.08 2072.53 1551.49 2069.18 1548.49C2067.6 1546.9 2065.72 1545.64 2063.65 1544.78C2061.58 1543.91 2059.36 1543.47 2057.12 1543.47C2054.88 1543.47 2052.66 1543.91 2050.59 1544.78C2048.52 1545.64 2046.64 1546.9 2045.06 1548.49C2042.06 1551.49 2039.88 1556.3 2040.06 1560.49C2040.26 1564.9 2041.71 1569.49 2045.06 1572.55C2048.3 1575.69 2052.61 1577.48 2057.12 1577.55V1577.55Z" fill="#FCB82F"/>
<path d="M1947.3 1570.9C1951.81 1570.84 1956.13 1569.05 1959.36 1565.9C1962.36 1562.9 1964.54 1558.09 1964.36 1553.85C1964.16 1549.44 1962.71 1544.85 1959.36 1541.79C1956.16 1538.59 1951.82 1536.8 1947.3 1536.8C1942.78 1536.8 1938.44 1538.59 1935.24 1541.79C1932.24 1544.79 1930.06 1549.6 1930.24 1553.85C1930.44 1558.26 1931.89 1562.85 1935.24 1565.9C1938.48 1569.04 1942.79 1570.83 1947.3 1570.9V1570.9Z" fill="#FCB82F"/>
<path d="M2196.89 1614.16C2201.4 1614.1 2205.72 1612.31 2208.95 1609.16C2211.95 1606.16 2214.13 1601.35 2213.95 1597.1C2213.75 1592.69 2212.3 1588.1 2208.95 1585.04C2205.75 1581.84 2201.41 1580.05 2196.89 1580.05C2192.37 1580.05 2188.03 1581.84 2184.83 1585.04C2181.88 1588.04 2179.65 1592.85 2179.83 1597.1C2180.03 1601.51 2181.48 1606.1 2184.83 1609.16C2188.07 1612.3 2192.38 1614.09 2196.89 1614.16V1614.16Z" fill="#FCB82F"/>
<path d="M2270.1 1521C2274.61 1520.94 2278.93 1519.15 2282.16 1516C2285.34 1512.79 2287.13 1508.46 2287.16 1503.94C2286.97 1499.53 2285.52 1494.94 2282.16 1491.88C2278.96 1488.68 2274.63 1486.89 2270.11 1486.89C2265.58 1486.89 2261.25 1488.68 2258.05 1491.88C2255.05 1494.88 2252.86 1499.69 2253.05 1503.94C2253.25 1508.35 2254.7 1512.94 2258.05 1516C2261.27 1519.13 2265.56 1520.91 2270.05 1521H2270.1Z" fill="#FCB82F"/>
<path d="M2210.2 1411.16C2214.71 1411.1 2219.03 1409.31 2222.26 1406.16C2225.44 1402.95 2227.23 1398.62 2227.26 1394.1C2227.06 1389.69 2225.62 1385.1 2222.26 1382.04C2219.06 1378.84 2214.73 1377.05 2210.21 1377.05C2205.69 1377.05 2201.35 1378.84 2198.15 1382.04C2195.15 1385.04 2192.96 1389.85 2193.15 1394.1C2193.35 1398.51 2194.8 1403.1 2198.15 1406.16C2201.37 1409.29 2205.66 1411.08 2210.15 1411.16H2210.2Z" fill="#FCB82F"/>
<path d="M2443.15 1544.27C2447.66 1544.21 2451.98 1542.42 2455.21 1539.27C2458.39 1536.06 2460.18 1531.73 2460.21 1527.21C2460.02 1522.81 2458.57 1518.21 2455.21 1515.21C2453.63 1513.62 2451.75 1512.36 2449.68 1511.5C2447.62 1510.64 2445.4 1510.2 2443.16 1510.2C2440.92 1510.2 2438.7 1510.64 2436.63 1511.5C2434.56 1512.36 2432.68 1513.62 2431.1 1515.21C2428.1 1518.21 2425.91 1523.02 2426.1 1527.21C2426.3 1531.62 2427.75 1536.21 2431.1 1539.27C2434.33 1542.41 2438.64 1544.2 2443.15 1544.27V1544.27Z" fill="#FCB82F"/>
<path d="M2343.32 1447.77C2347.81 1447.7 2352.11 1445.91 2355.32 1442.77C2358.32 1439.77 2360.51 1434.96 2360.32 1430.77C2360.12 1426.36 2358.67 1421.77 2355.32 1418.71C2352.12 1415.51 2347.79 1413.72 2343.27 1413.72C2338.75 1413.72 2334.41 1415.51 2331.21 1418.71C2328.03 1421.92 2326.24 1426.25 2326.21 1430.77C2326.41 1435.18 2327.85 1439.77 2331.21 1442.77C2334.45 1445.91 2338.76 1447.7 2343.27 1447.77H2343.32Z" fill="#FCB82F"/>
<path d="M2340 1617.49C2344.51 1617.43 2348.83 1615.64 2352.06 1612.49C2355.01 1609.49 2357.24 1604.69 2357.06 1600.49C2356.86 1596.08 2355.41 1591.49 2352.06 1588.43C2348.86 1585.23 2344.52 1583.44 2340 1583.44C2335.48 1583.44 2331.14 1585.23 2327.94 1588.43C2324.99 1591.43 2322.76 1596.24 2322.94 1600.49C2323.14 1604.9 2324.59 1609.49 2327.94 1612.49C2331.18 1615.63 2335.49 1617.42 2340 1617.49V1617.49Z" fill="#FCB82F"/>
<path d="M2469.78 1617.49C2474.27 1617.42 2478.57 1615.63 2481.78 1612.49C2484.78 1609.49 2486.97 1604.69 2486.78 1600.49C2486.58 1596.08 2485.13 1591.49 2481.78 1588.43C2478.58 1585.24 2474.25 1583.44 2469.73 1583.44C2465.21 1583.44 2460.87 1585.24 2457.67 1588.43C2454.5 1591.64 2452.7 1595.97 2452.67 1600.49C2452.86 1604.9 2454.31 1609.49 2457.67 1612.49C2460.91 1615.63 2465.22 1617.42 2469.73 1617.49H2469.78Z" fill="#FCB82F"/>
<path d="M1328.31 1624.14C1332.82 1624.08 1337.14 1622.29 1340.37 1619.14C1343.55 1615.93 1345.34 1611.6 1345.37 1607.08C1345.18 1602.67 1343.73 1598.08 1340.37 1595.08C1338.79 1593.49 1336.91 1592.23 1334.84 1591.37C1332.78 1590.51 1330.56 1590.07 1328.32 1590.07C1326.08 1590.07 1323.86 1590.51 1321.79 1591.37C1319.72 1592.23 1317.84 1593.49 1316.26 1595.08C1313.26 1598.08 1311.07 1602.89 1311.26 1607.08C1311.46 1611.49 1312.91 1616.08 1316.26 1619.14C1319.48 1622.27 1323.77 1624.06 1328.26 1624.14H1328.31Z" fill="#FCB82F"/>
<path d="M1338.3 1351.26C1342.79 1351.19 1347.09 1349.4 1350.3 1346.26C1353.3 1343.26 1355.49 1338.45 1355.3 1334.26C1355.1 1329.85 1353.65 1325.26 1350.3 1322.2C1347.1 1319.01 1342.77 1317.21 1338.25 1317.21C1333.73 1317.21 1329.39 1319.01 1326.19 1322.2C1323.02 1325.41 1321.22 1329.74 1321.19 1334.26C1321.38 1338.67 1322.83 1343.26 1326.19 1346.26C1329.43 1349.4 1333.74 1351.19 1338.25 1351.26H1338.3Z" fill="#FCB82F"/>
<path opacity="0.42" d="M1236.9 1324.9C1236.9 1324.9 1317.17 1550.24 1549.04 1563.9C1780.91 1577.56 2625.16 1596.18 2625.16 1596.18V1654.3H1058.55L1133.65 1336.81L1236.9 1324.86" fill="#DF955F"/>
<path d="M919.001 1616.38C917.127 1610.93 913.662 1606.17 909.053 1602.72C904.444 1599.26 898.904 1597.27 893.151 1597C865.201 1595.42 803.821 1594.62 765.251 1614.08C714.051 1639.92 665.401 1683.44 688.441 1677.08C711.481 1670.72 776.781 1624.01 806.221 1628.43C835.661 1632.85 911.461 1636.12 918.371 1627.15C920.531 1624.27 920.311 1620.39 919.001 1616.38Z" fill="#ECC18F"/>
<path d="M918.24 1623.15C918.24 1623.15 797.46 1622.95 785.84 1633C774.22 1643.05 707.7 1682.13 716.15 1685.29C724.6 1688.45 792.15 1657.99 805.9 1654.22C819.65 1650.45 925.22 1665.61 928.39 1654.34C931.56 1643.07 918.24 1623.15 918.24 1623.15Z" fill="#ECC18F"/>
<path d="M806.221 1628.35C806.221 1628.35 865.221 1621 885.221 1623.49C885.211 1623.49 845.001 1610.78 806.221 1628.35Z" fill="#E0A870"/>
<path d="M903.001 1594.89L1133.63 1491.5L1117.18 1632.86C1117.18 1632.86 943.251 1664.32 909.571 1662.78C875.891 1661.24 903.001 1594.89 903.001 1594.89Z" fill="#9E5C45"/>
<path d="M872.511 1633.75C872.511 1633.75 1058.7 1619.46 1166.59 1550.18V1654.34L867.211 1677.64L872.511 1633.75Z" fill="#8A4F3D"/>
<path d="M1008.93 1338.48C1008.93 1338.48 903.019 1310.16 839.559 1257.48C775.829 1204.48 995.489 1109.29 1066.26 1119.16C1137.03 1129.03 1171 1339.73 1090.65 1471.38L1046.59 1275.46C1046.59 1275.46 1052 1322.48 1008.93 1338.48Z" fill="#FA6C06"/>
<path opacity="0.42" d="M944 1316.12C944 1316.12 1040.48 1258.99 1046.56 1220.97C1052.64 1182.95 1100.7 1386.71 1088.42 1461.53L1046.56 1334.53L1001.2 1350.77L944 1316.07" fill="#E7A677"/>
<path opacity="0.54" d="M851.879 1197.93C851.879 1197.93 972.879 1287.93 1041.3 1326.53L1001.23 1350.82C1001.23 1350.82 832.359 1289.04 816.619 1249.82C800.879 1210.6 851.879 1197.88 851.879 1197.88" fill="#FCB82F"/>
<path d="M1089.08 1513.53C1103.45 1513.53 1115.1 1501.88 1115.1 1487.51C1115.1 1473.14 1103.45 1461.49 1089.08 1461.49C1074.71 1461.49 1063.06 1473.14 1063.06 1487.51C1063.06 1501.88 1074.71 1513.53 1089.08 1513.53Z" fill="#FCB82F"/>
<path d="M1328.16 651.55H1227.33V606L1328.16 486.14H1376.41V608.61H1401.41V651.55H1376.41V688.79H1328.16V651.55ZM1328.16 608.61V545.92L1274.88 608.61H1328.16Z" fill="#EA5B2A"/>
<path d="M1418.67 588.36C1418.67 550.5 1425.49 524.003 1439.12 508.87C1452.75 493.737 1473.52 486.17 1501.43 486.17C1514.83 486.17 1525.83 487.837 1534.43 491.17C1543.03 494.503 1550.06 498.78 1555.51 504C1560.63 508.877 1564.96 514.517 1568.35 520.72C1571.71 527.194 1574.25 534.064 1575.9 541.17C1579.65 556.377 1581.52 571.987 1581.47 587.65C1581.47 623.79 1575.35 650.243 1563.12 667.01C1550.89 683.777 1529.82 692.157 1499.93 692.15C1483.17 692.15 1469.63 689.483 1459.3 684.15C1448.88 678.723 1440.11 670.605 1433.89 660.64C1429.08 653.307 1425.34 643.273 1422.68 630.54C1419.89 616.656 1418.55 602.521 1418.67 588.36ZM1473.57 588.5C1473.57 613.873 1475.81 631.207 1480.3 640.5C1484.79 649.793 1491.29 654.437 1499.8 654.43C1502.5 654.46 1505.19 653.953 1507.69 652.938C1510.2 651.924 1512.48 650.422 1514.4 648.52C1518.53 644.58 1521.56 638.35 1523.51 629.83C1525.46 621.31 1526.43 608.04 1526.43 590.02C1526.43 563.56 1524.19 545.78 1519.7 536.68C1515.21 527.58 1508.49 523.02 1499.52 523C1490.37 523 1483.75 527.643 1479.68 536.93C1475.61 546.217 1473.57 563.407 1473.57 588.5V588.5Z" fill="#EA5B2A"/>
<path d="M1699.42 651.55H1598.59V606L1699.42 486.14H1747.67V608.61H1772.67V651.55H1747.67V688.79H1699.42V651.55ZM1699.42 608.61V545.92L1646.14 608.61H1699.42Z" fill="#EA5B2A"/>
<path d="M1048.39 751.21C1056.35 749.916 1064.41 749.287 1072.48 749.33C1084.89 749.33 1093.98 752.22 1099.75 757.41C1105.09 762.03 1108.27 769.1 1108.27 777.76C1108.27 786.42 1105.67 793.48 1100.76 798.53C1094.13 805.6 1083.3 809.21 1071.04 809.21C1067.65 809.32 1064.26 809.031 1060.94 808.35V847.3H1048.39V751.21ZM1060.94 798.1C1064.35 798.863 1067.84 799.199 1071.33 799.1C1086.48 799.1 1095.71 791.74 1095.71 778.32C1095.71 765.48 1086.62 759.32 1072.77 759.32C1068.8 759.205 1064.83 759.54 1060.94 760.32V798.1Z" fill="#FF6B01"/>
<path d="M1159.63 847.3L1158.63 838.5H1158.2C1154.31 843.98 1146.8 848.89 1136.85 848.89C1122.71 848.89 1115.49 838.89 1115.49 828.83C1115.49 811.95 1130.49 802.72 1157.49 802.83V801.39C1157.49 795.62 1155.9 785.23 1141.62 785.23C1135.2 785.25 1128.91 787.046 1123.44 790.42L1120.55 782.06C1126.32 778.3 1134.69 775.85 1143.49 775.85C1164.85 775.85 1170.04 790.42 1170.04 804.42V830.53C1169.95 836.133 1170.34 841.733 1171.2 847.27L1159.63 847.3ZM1157.76 811.66C1143.91 811.38 1128.18 813.83 1128.18 827.39C1128.18 835.61 1133.66 839.51 1140.18 839.51C1143.86 839.595 1147.47 838.509 1150.5 836.408C1153.52 834.307 1155.8 831.299 1157 827.82C1157.44 826.531 1157.69 825.182 1157.72 823.82L1157.76 811.66Z" fill="#EA5B2A"/>
<path d="M1250.68 777.47C1250.39 782.47 1250.1 788.15 1250.1 796.66V837.2C1250.1 853.2 1246.93 863.03 1240.1 869.09C1233.32 875.44 1223.51 877.46 1214.71 877.46C1206.34 877.46 1197.11 875.46 1191.48 871.69L1194.66 862.02C1200.86 865.683 1207.94 867.578 1215.14 867.5C1228.14 867.5 1237.65 860.72 1237.65 843.12V835.33H1237.36C1233.47 841.82 1225.96 847.01 1215.14 847.01C1197.83 847.01 1185.42 832.3 1185.42 813.01C1185.42 789.35 1200.86 775.93 1216.87 775.93C1228.99 775.93 1235.63 782.28 1238.66 788.05H1238.95L1239.53 777.52L1250.68 777.47ZM1237.55 805C1237.62 803.05 1237.37 801.101 1236.82 799.23C1234.52 791.87 1228.31 785.81 1219.08 785.81C1206.96 785.81 1198.3 796.05 1198.3 812.21C1198.3 825.92 1205.23 837.32 1218.93 837.32C1222.86 837.297 1226.69 836.026 1229.85 833.69C1233.02 831.354 1235.36 828.073 1236.54 824.32C1237.22 822.125 1237.56 819.838 1237.54 817.54L1237.55 805Z" fill="#EA5B2A"/>
<path d="M1278.24 814.69C1278.52 831.86 1289.49 838.93 1302.24 838.93C1311.33 838.93 1316.81 837.35 1321.57 835.33L1323.73 844.42C1319.26 846.42 1311.62 848.74 1300.51 848.74C1279.01 848.74 1266.17 834.6 1266.17 813.54C1266.17 792.48 1278.57 775.88 1298.92 775.88C1321.71 775.88 1327.77 795.94 1327.77 808.78C1327.75 810.757 1327.61 812.731 1327.34 814.69H1278.24ZM1315.46 805.6C1315.6 797.52 1312.14 784.97 1297.86 784.97C1285.02 784.97 1279.39 796.8 1278.38 805.6H1315.46Z" fill="#FF6B01"/>
<path d="M1374 796.37C1374 789.16 1373.85 783.24 1373.42 777.47H1384.68L1385.4 789.01H1385.69C1389.15 782.37 1397.23 775.88 1408.77 775.88C1418.44 775.88 1433.44 781.65 1433.44 805.6V847.3H1420.75V807.05C1420.75 795.79 1416.56 786.41 1404.59 786.41C1396.22 786.41 1389.73 792.33 1387.59 799.41C1386.98 801.322 1386.69 803.323 1386.73 805.33V847.33H1374V796.37Z" fill="#FF6B01"/>
<path d="M1517.31 811.81C1517.31 837.63 1499.42 848.89 1482.54 848.89C1463.64 848.89 1449.07 835.04 1449.07 812.96C1449.07 789.59 1464.36 775.88 1483.7 775.88C1503.75 775.88 1517.31 790.45 1517.31 811.81ZM1461.91 812.53C1461.91 827.82 1470.71 839.37 1483.12 839.37C1495.24 839.37 1504.33 827.97 1504.33 812.24C1504.33 800.41 1498.41 785.4 1483.41 785.4C1468.41 785.4 1461.91 799.26 1461.91 812.53V812.53Z" fill="#FF6B01"/>
<path d="M1548.62 757.41V777.47H1566.8V787.14H1548.62V824.79C1548.62 833.45 1551.08 838.36 1558.15 838.36C1560.63 838.393 1563.11 838.101 1565.51 837.49L1566.08 847.01C1562.47 848.275 1558.65 848.861 1554.83 848.74C1548.91 848.74 1544.15 846.87 1541.12 843.41C1537.51 839.65 1536.22 833.41 1536.22 825.23V787.14H1525.4V777.47H1536.22V760.73L1548.62 757.41Z" fill="#FF6B01"/>
<path d="M1613 847.3V787.14H1603.19V777.47H1613V774.15C1613 764.34 1615.17 755.39 1621.08 749.77C1625.69 745.484 1631.78 743.153 1638.08 743.27C1641.78 743.25 1645.45 743.929 1648.9 745.27L1647.17 755.08C1644.62 753.971 1641.87 753.432 1639.09 753.5C1628.27 753.5 1625.53 763.02 1625.53 773.7V777.45H1642.41V787.12H1625.53V847.3H1613Z" fill="#FF6B01"/>
<path d="M1715.13 811.81C1715.13 837.63 1697.24 848.89 1680.36 848.89C1661.45 848.89 1646.88 835.04 1646.88 812.96C1646.88 789.59 1662.18 775.88 1681.51 775.88C1701.57 775.88 1715.13 790.45 1715.13 811.81ZM1659.72 812.53C1659.72 827.82 1668.52 839.37 1680.93 839.37C1693.05 839.37 1702.14 827.97 1702.14 812.24C1702.14 800.41 1696.23 785.4 1681.22 785.4C1666.21 785.4 1659.72 799.26 1659.72 812.53Z" fill="#FF6B01"/>
<path d="M1789.58 828.26C1789.58 835.47 1789.72 841.82 1790.16 847.26H1778.9L1778.18 835.86H1777.89C1775.54 839.878 1772.17 843.199 1768.11 845.483C1764.05 847.767 1759.47 848.933 1754.81 848.86C1743.81 848.86 1730.71 842.8 1730.71 818.27V777.47H1743.41V816.14C1743.41 829.41 1747.41 838.36 1758.99 838.36C1767.5 838.36 1773.42 832.44 1775.73 826.81C1776.5 824.732 1776.89 822.534 1776.88 820.32V777.47H1789.58V828.26Z" fill="#FF6B01"/>
<path d="M1810.65 796.37C1810.65 789.16 1810.5 783.24 1810.07 777.47H1821.32L1822 789H1822.29C1825.76 782.36 1833.84 775.87 1845.38 775.87C1855.04 775.87 1870.05 781.64 1870.05 805.59V847.29H1857.35V807.05C1857.35 795.79 1853.17 786.41 1841.19 786.41C1832.83 786.41 1826.33 792.33 1824.19 799.41C1823.58 801.322 1823.28 803.322 1823.32 805.33V847.33H1810.63L1810.65 796.37Z" fill="#FF6B01"/>
<path d="M1951 744.86V829.27C1951 835.47 1951.14 842.54 1951.57 847.27H1940.17L1939.6 835.15H1939.31C1935.41 842.94 1926.9 848.86 1915.5 848.86C1898.62 848.86 1885.63 834.57 1885.63 813.36C1885.49 790.14 1899.92 775.85 1916.94 775.85C1927.62 775.85 1934.83 780.85 1938.01 786.53H1938.3V744.83L1951 744.86ZM1938.3 805.86C1938.32 804.063 1938.12 802.271 1937.72 800.52C1936.81 796.341 1934.5 792.6 1931.16 789.922C1927.83 787.245 1923.68 785.793 1919.4 785.81C1906.27 785.81 1898.48 797.35 1898.48 812.81C1898.48 826.95 1905.4 838.63 1919.11 838.63C1927.62 838.63 1935.41 833.01 1937.72 823.48C1938.14 821.685 1938.34 819.844 1938.3 818V805.86Z" fill="#FF6B01"/>
</svg>
