<svg width="266" height="239" viewBox="0 0 266 239" fill="none" xmlns="http://www.w3.org/2000/svg">
<path d="M209.975 141.411C218.68 87.7802 182.261 37.2469 128.631 28.5414C75.001 19.836 24.468 56.2549 15.7625 109.885C7.05713 163.516 43.4759 214.049 97.1061 222.755C150.736 231.46 201.269 195.041 209.975 141.411Z" fill="white"/>
<g style="mix-blend-mode:multiply" opacity="0.53">
<path d="M209.975 141.411C218.68 87.7802 182.261 37.2469 128.631 28.5414C75.001 19.836 24.468 56.2549 15.7625 109.885C7.05713 163.516 43.4759 214.049 97.1061 222.755C150.736 231.46 201.269 195.041 209.975 141.411Z" fill="#9F69F4"/>
</g>
<path style="mix-blend-mode:multiply" opacity="0.42" d="M209.975 141.411C218.68 87.7802 182.261 37.2469 128.631 28.5414C75.001 19.836 24.468 56.2549 15.7625 109.885C7.05713 163.516 43.4759 214.049 97.1061 222.755C150.736 231.46 201.269 195.041 209.975 141.411Z" fill="url(#paint0_linear)"/>
<path d="M41.9229 115.48L131.114 185.82L265.14 69.2344L41.9229 115.48Z" fill="#FFEBB3"/>
<path d="M208.395 88.168L80.173 146.707L80.6522 194.13L111.619 170.898L94.6845 154.456L208.395 88.168Z" fill="#F0CD6C"/>
<g style="mix-blend-mode:multiply" opacity="0.42">
<path d="M94.753 154.583L207.97 88.5273L88.88 150.585L80.6522 194.133L105.459 165.097L94.753 154.583Z" fill="#D4B257"/>
</g>
<path d="M182.411 201.593C181.863 201.593 169.049 201.402 169.049 185.069C169.046 184.861 168.96 184.663 168.812 184.517C168.663 184.371 168.463 184.289 168.255 184.289C168.048 184.289 167.85 184.371 167.703 184.518C167.557 184.664 167.475 184.862 167.475 185.069C167.475 201.361 154.647 201.593 154.1 201.593C153.897 201.593 153.703 201.672 153.557 201.812C153.412 201.953 153.326 202.144 153.319 202.346C153.308 202.547 153.374 202.744 153.504 202.897C153.634 203.05 153.818 203.147 154.017 203.168C165.079 204.263 167.146 212.614 167.475 216.981V217.146C167.401 218.02 167.401 218.899 167.475 219.774C167.475 219.774 167.475 219.856 167.475 219.897V220.02L167.557 220.157L167.639 220.253L167.762 220.349L167.886 220.417C167.935 220.425 167.986 220.425 168.036 220.417H168.146H168.228H168.337H168.502L168.611 220.349L168.734 220.253L168.817 220.157L168.899 220.02V219.897C168.905 219.856 168.905 219.815 168.899 219.774C168.969 218.927 168.969 218.075 168.899 217.228C169.013 215.412 169.392 213.623 170.021 211.916C171.993 206.741 176.141 203.798 182.342 203.182C182.533 203.148 182.706 203.046 182.827 202.894C182.948 202.742 183.009 202.552 182.999 202.358C182.989 202.164 182.908 201.981 182.772 201.842C182.636 201.704 182.454 201.62 182.26 201.607L182.411 201.593Z" fill="white"/>
<path d="M162.067 233.135C162.067 233.493 161.961 233.842 161.763 234.139C161.564 234.436 161.282 234.668 160.952 234.805C160.622 234.942 160.258 234.977 159.908 234.908C159.557 234.838 159.235 234.666 158.982 234.413C158.73 234.16 158.558 233.838 158.488 233.488C158.418 233.137 158.454 232.774 158.591 232.444C158.727 232.114 158.959 231.831 159.256 231.633C159.553 231.434 159.903 231.328 160.26 231.328C160.74 231.328 161.199 231.519 161.538 231.857C161.877 232.196 162.067 232.656 162.067 233.135V233.135Z" fill="white"/>
<path d="M183.78 215.038C183.78 215.395 183.674 215.744 183.475 216.042C183.277 216.339 182.994 216.57 182.664 216.707C182.334 216.844 181.971 216.88 181.62 216.81C181.27 216.74 180.948 216.568 180.695 216.315C180.442 216.063 180.27 215.741 180.2 215.39C180.131 215.04 180.166 214.676 180.303 214.346C180.44 214.016 180.672 213.734 180.969 213.535C181.266 213.336 181.615 213.23 181.973 213.23C182.451 213.234 182.908 213.426 183.247 213.764C183.585 214.102 183.776 214.559 183.78 215.038V215.038Z" fill="white"/>
<path d="M153.032 214.135C153.032 214.676 152.871 215.205 152.57 215.656C152.27 216.106 151.842 216.457 151.342 216.664C150.841 216.871 150.291 216.926 149.76 216.82C149.229 216.714 148.741 216.454 148.358 216.071C147.975 215.688 147.714 215.2 147.608 214.669C147.503 214.138 147.557 213.587 147.764 213.087C147.971 212.586 148.322 212.159 148.773 211.858C149.223 211.557 149.752 211.396 150.294 211.396C151.02 211.396 151.716 211.685 152.23 212.198C152.743 212.712 153.032 213.408 153.032 214.135Z" fill="white"/>
<path d="M131.1 26.3591C130.553 26.3591 117.739 26.1674 117.739 9.83504C117.735 9.62683 117.65 9.42835 117.501 9.28238C117.353 9.13642 117.153 9.05466 116.945 9.05469C116.738 9.05469 116.539 9.1369 116.393 9.28324C116.247 9.42958 116.164 9.62808 116.164 9.83504C116.164 26.1264 103.337 26.3591 102.789 26.3591C102.587 26.359 102.392 26.4374 102.247 26.5779C102.101 26.7184 102.016 26.9099 102.009 27.1121C101.997 27.3125 102.063 27.5097 102.193 27.6627C102.323 27.8157 102.507 27.9127 102.707 27.9335C113.769 29.0287 115.836 37.3797 116.164 41.7469V41.9111C116.09 42.7857 116.09 43.6651 116.164 44.5397C116.164 44.5397 116.164 44.6218 116.164 44.6629V44.7861L116.246 44.923L116.329 45.0188L116.452 45.1146H116.575C116.625 45.1226 116.676 45.1226 116.726 45.1146H116.835H116.917H117.027C117.081 45.1209 117.137 45.1209 117.191 45.1146H117.301L117.424 45.0188L117.506 44.923L117.588 44.7861V44.6629C117.595 44.622 117.595 44.5805 117.588 44.5397C117.659 43.6923 117.659 42.8406 117.588 41.9933C117.703 40.1776 118.081 38.3883 118.711 36.6815C120.682 31.5066 124.83 28.5632 131.032 27.9472C131.223 27.9138 131.395 27.8116 131.516 27.6599C131.637 27.5081 131.698 27.3174 131.688 27.1236C131.678 26.9298 131.597 26.7464 131.461 26.6081C131.325 26.4698 131.143 26.3861 130.95 26.3728L131.1 26.3591Z" fill="white"/>
<path d="M110.729 57.9008C110.729 58.2583 110.623 58.6076 110.425 58.9048C110.226 59.202 109.944 59.4336 109.614 59.5704C109.284 59.7072 108.92 59.743 108.57 59.6732C108.219 59.6035 107.897 59.4314 107.645 59.1787C107.392 58.926 107.22 58.6039 107.15 58.2534C107.08 57.9029 107.116 57.5395 107.253 57.2093C107.39 56.8791 107.621 56.5969 107.918 56.3983C108.216 56.1997 108.565 56.0938 108.922 56.0938C109.402 56.0937 109.861 56.2841 110.2 56.623C110.539 56.9619 110.729 57.4216 110.729 57.9008Z" fill="white"/>
<path d="M132.442 39.8032C132.442 40.1606 132.336 40.51 132.137 40.8072C131.939 41.1044 131.657 41.336 131.326 41.4727C130.996 41.6095 130.633 41.6453 130.282 41.5756C129.932 41.5059 129.61 41.3338 129.357 41.081C129.104 40.8283 128.932 40.5063 128.862 40.1557C128.793 39.8052 128.828 39.4419 128.965 39.1117C129.102 38.7815 129.334 38.4992 129.631 38.3006C129.928 38.1021 130.277 37.9961 130.635 37.9961C131.113 37.9997 131.571 38.1912 131.909 38.5293C132.247 38.8675 132.438 39.325 132.442 39.8032V39.8032Z" fill="white"/>
<path d="M139.479 65.8677C139.479 66.2251 139.373 66.5745 139.174 66.8716C138.976 67.1688 138.693 67.4004 138.363 67.5372C138.033 67.674 137.67 67.7098 137.319 67.64C136.968 67.5703 136.646 67.3982 136.394 67.1455C136.141 66.8927 135.969 66.5708 135.899 66.2202C135.829 65.8697 135.865 65.5063 136.002 65.1761C136.139 64.8459 136.37 64.5637 136.668 64.3651C136.965 64.1665 137.314 64.0605 137.672 64.0605C138.151 64.0605 138.61 64.2509 138.949 64.5898C139.288 64.9287 139.479 65.3884 139.479 65.8677Z" fill="white"/>
<path d="M101.639 38.9001C101.639 39.4417 101.479 39.9711 101.178 40.4213C100.877 40.8716 100.449 41.2225 99.949 41.4298C99.4487 41.637 98.8981 41.6912 98.367 41.5856C97.8359 41.4799 97.348 41.2192 96.9651 40.8362C96.5822 40.4533 96.3214 39.9654 96.2158 39.4343C96.1101 38.9032 96.1643 38.3527 96.3716 37.8523C96.5788 37.352 96.9297 36.9244 97.38 36.6235C97.8303 36.3227 98.3596 36.1621 98.9012 36.1621C99.6273 36.1621 100.324 36.4506 100.837 36.9641C101.351 37.4775 101.639 38.174 101.639 38.9001Z" fill="white"/>
<path d="M139.26 2.86694C139.26 3.40848 139.099 3.93785 138.798 4.38812C138.497 4.83839 138.07 5.18933 137.569 5.39657C137.069 5.6038 136.518 5.65803 135.987 5.55238C135.456 5.44673 134.968 5.18595 134.585 4.80303C134.203 4.42011 133.942 3.93224 133.836 3.40111C133.73 2.86998 133.785 2.31946 133.992 1.81914C134.199 1.31883 134.55 0.891216 135 0.590357C135.451 0.289497 135.98 0.128906 136.522 0.128906C137.248 0.128906 137.944 0.417375 138.458 0.930857C138.971 1.44434 139.26 2.14077 139.26 2.86694Z" fill="white"/>
<path d="M152.977 20.0056C152.977 20.5471 152.816 21.0765 152.516 21.5268C152.215 21.9771 151.787 22.328 151.287 22.5352C150.787 22.7425 150.236 22.7967 149.705 22.691C149.174 22.5854 148.686 22.3246 148.303 21.9417C147.92 21.5588 147.659 21.0709 147.554 20.5398C147.448 20.0087 147.502 19.4581 147.709 18.9578C147.917 18.4575 148.268 18.0299 148.718 17.729C149.168 17.4282 149.698 17.2676 150.239 17.2676C150.965 17.2676 151.662 17.556 152.175 18.0695C152.689 18.583 152.977 19.2794 152.977 20.0056Z" fill="white"/>
<defs>
<linearGradient id="paint0_linear" x1="146.298" y1="98.2627" x2="-5.88234" y2="222.993" gradientUnits="userSpaceOnUse">
<stop stop-color="white"/>
<stop offset="1" stop-color="#FF6A00"/>
</linearGradient>
</defs>
</svg>
