<svg width="1900" height="1200" viewBox="0 0 1900 1200" fill="none" xmlns="http://www.w3.org/2000/svg">
<g style="mix-blend-mode:multiply" opacity="0.2">
<path d="M562.897 887H557.85V892.101H562.897V887Z" fill="#444444"/>
</g>
<path d="M1900 0H0V1199.97H1900V0Z" fill="white"/>
<path d="M1900 0H0V1199.97H1900V0Z" fill="white"/>
<path d="M949.984 823.387C297.338 826.242 0 406.352 0 406.352V1200H1899.97V406.32C1899.97 406.32 1602.63 820.532 949.984 823.387Z" fill="#FFCB27"/>
<path style="mix-blend-mode:multiply" opacity="0.5" d="M949.984 823.387C297.338 826.242 0 406.352 0 406.352V1200H1899.97V406.32C1899.97 406.32 1602.63 820.532 949.984 823.387Z" fill="url(#paint0_radial)"/>
<path d="M1083.32 1067.32H819.155C817.166 1067.45 815.3 1068.34 813.936 1069.81C812.572 1071.28 811.812 1073.22 811.812 1075.23C811.812 1077.24 812.572 1079.18 813.936 1080.65C815.3 1082.12 817.166 1083.01 819.155 1083.14H1083.32C1085.31 1083.01 1087.17 1082.12 1088.54 1080.65C1089.9 1079.18 1090.66 1077.24 1090.66 1075.23C1090.66 1073.22 1089.9 1071.28 1088.54 1069.81C1087.17 1068.34 1085.31 1067.45 1083.32 1067.32V1067.32Z" fill="#E2B548"/>
<path d="M857.824 860.184H842.49V1062.99H857.824V860.184Z" fill="#E8E8E8"/>
<path d="M1059.86 860.184H1044.52V1062.99H1059.86V860.184Z" fill="#E8E8E8"/>
<path d="M1091.03 879.75H811.348V930.307H1091.03V879.75Z" fill="#FFCD26"/>
<path d="M842.999 879.75L842.491 880.584L813.76 930.34H811.348V879.75H842.999Z" fill="#444444"/>
<path d="M913.697 879.75L884.427 930.34H846.204L857.855 910.226L875.474 879.75H913.697Z" fill="#444444"/>
<path d="M984.333 879.75L955.094 930.34H916.871L946.141 879.75H984.333Z" fill="#444444"/>
<path d="M1055 879.781L1025.76 930.339H987.541L1016.81 879.781H1055Z" fill="#444444"/>
<path d="M1091.03 879.781V930.339H1058.21L1087.48 879.781H1091.03Z" fill="#444444"/>
<path d="M1091.03 970.213H811.348V1020.74H1091.03V970.213Z" fill="#FFCD26"/>
<path d="M842.999 970.213L842.491 971.047L813.76 1020.74H811.348V970.213H842.999Z" fill="#444444"/>
<path d="M913.697 970.213L884.427 1020.74H846.204L857.855 1000.66L875.474 970.213H913.697Z" fill="#444444"/>
<path d="M984.333 970.213L955.094 1020.74H916.871L946.141 970.213H984.333Z" fill="#444444"/>
<path d="M1055 970.213L1025.76 1020.77H987.541L1016.81 970.213H1055Z" fill="#444444"/>
<path d="M1091.03 970.213V1020.77H1058.21L1087.48 970.213H1091.03Z" fill="#444444"/>
<path d="M1069.86 1062.99H1034.49V1073.06H1069.86V1062.99Z" fill="#AEAEAE"/>
<path d="M867.888 1062.99H832.522V1073.09H867.888V1062.99Z" fill="#AEAEAE"/>
<path d="M865.762 851.871C865.692 854.419 864.914 856.896 863.516 859.018C862.118 861.14 860.157 862.821 857.857 863.868C855.469 865.06 852.837 865.665 850.174 865.633C847.512 865.658 844.881 865.054 842.491 863.868C840.202 862.81 838.251 861.126 836.86 859.005C835.469 856.885 834.692 854.414 834.618 851.871C834.618 844.268 841.602 838.141 850.174 838.141C858.746 838.141 865.762 844.268 865.762 851.871Z" fill="#FAA436"/>
<path d="M1067.76 851.871C1067.76 859.474 1060.78 865.633 1052.18 865.633C1043.57 865.633 1036.62 859.474 1036.62 851.871C1036.62 844.268 1043.57 838.141 1052.18 838.141C1060.78 838.141 1067.76 844.3 1067.76 851.871Z" fill="#FAA436"/>
<g style="mix-blend-mode:multiply" opacity="0.3">
<path d="M857.92 930.305V970.18H950.62V1020.71H857.92V1062.95H867.92V1073.06H832.523V1062.95H842.491V1020.74H811.348V970.212H842.491V930.305H811.348V879.748H842.491V863.868C840.202 862.81 838.251 861.126 836.86 859.005C835.468 856.885 834.692 854.414 834.618 851.871C834.618 844.268 841.602 838.141 850.174 838.141C858.745 838.141 865.761 844.268 865.761 851.871C865.692 854.419 864.914 856.896 863.516 859.018C862.118 861.14 860.156 862.821 857.856 863.868V879.748H950.62V930.305H857.92Z" fill="#444444"/>
</g>
<path d="M1478.91 1083.13H1069.92C1068.03 1083.26 1066.26 1084.1 1064.97 1085.5C1063.67 1086.9 1062.95 1088.74 1062.95 1090.66C1062.95 1092.57 1063.67 1094.41 1064.97 1095.81C1066.26 1097.21 1068.03 1098.05 1069.92 1098.18H1478.91C1479.93 1098.25 1480.95 1098.1 1481.91 1097.75C1482.88 1097.41 1483.76 1096.86 1484.5 1096.16C1485.25 1095.45 1485.84 1094.6 1486.25 1093.65C1486.65 1092.71 1486.86 1091.69 1486.86 1090.66C1486.86 1089.62 1486.65 1088.6 1486.25 1087.66C1485.84 1086.71 1485.25 1085.86 1484.5 1085.15C1483.76 1084.45 1482.88 1083.91 1481.91 1083.56C1480.95 1083.21 1479.93 1083.07 1478.91 1083.13V1083.13Z" fill="#E2B548"/>
<path d="M1396.09 855.56L1334.28 648.839L1333.8 647.268H1212.56L1213.04 648.839L1218.81 668.087L1232.69 714.635L1236.18 726.247L1253.61 784.568L1257.13 796.213L1267.93 832.335L1273.67 851.582L1345.96 1093.3H1357.45L1348.47 1063.11H1446.66L1455.71 1093.3H1467.2L1396.09 855.56ZM1227.58 658.88H1325.77L1328.53 668.055L1342.44 714.667H1244.24L1227.58 658.88ZM1247.7 726.247H1345.93L1363.36 784.568H1265.16L1247.7 726.247ZM1279.45 832.302L1273.74 813.055L1268.66 796.181H1366.88L1383.33 851.133H1373.8C1363.48 851.133 1349.77 851.133 1336.05 851.133L1285.26 851.422L1279.45 832.302ZM1288.63 863.067C1325.17 862.81 1373.64 862.586 1386.82 862.874L1403.77 919.591H1305.55L1288.63 863.067ZM1309.04 931.204H1407.14L1424.02 987.696H1325.9L1309.04 931.204ZM1344.98 1051.5L1329.39 999.341H1427.8L1443.39 1051.5H1344.98Z" fill="#AEAEAE"/>
<path d="M1213.48 647.236L1213 648.808L1151.26 855.497L1080.15 1093.33H1091.64L1100.69 1063.15H1198.91L1189.89 1093.33H1201.39L1273.8 851.615L1279.55 832.367L1290.34 796.278L1293.83 784.633L1311.26 726.312L1314.75 714.7L1328.66 668.088L1334.4 648.84L1334.88 647.268L1213.48 647.236ZM1202.34 1051.44H1104.18L1119.77 999.277H1217.96L1202.34 1051.44ZM1221.39 987.632H1123.23L1140.11 931.14H1238.34L1221.39 987.632ZM1241.7 919.528H1143.64L1160.53 862.939C1173.73 862.651 1222.21 862.939 1258.72 863.132L1241.7 919.528ZM1273.8 813.12L1268.02 832.367L1262.28 851.615L1211.48 851.326C1197.73 851.326 1184.02 851.326 1173.73 851.326H1164.21L1180.62 796.374H1278.88L1273.8 813.12ZM1282.28 784.601H1183.96L1201.39 726.28H1299.64L1282.28 784.601ZM1303.2 714.668H1204.88L1218.81 668.12L1221.58 658.881H1319.77L1303.2 714.668Z" fill="#E8E8E8"/>
<path d="M1437.61 1111.91H1275.35C1273.31 1111.91 1271.35 1112.73 1269.9 1114.19C1268.45 1115.65 1267.64 1117.64 1267.64 1119.7C1267.64 1121.77 1268.45 1123.75 1269.9 1125.22C1271.35 1126.68 1273.31 1127.5 1275.35 1127.5H1375.2C1376.62 1127.49 1378.02 1127.09 1379.23 1126.33C1380.44 1125.57 1381.42 1124.49 1382.05 1123.2H1437.61C1439.09 1123.2 1440.51 1122.61 1441.56 1121.55C1442.61 1120.49 1443.2 1119.05 1443.2 1117.55C1443.2 1116.06 1442.61 1114.62 1441.56 1113.56C1440.51 1112.5 1439.09 1111.91 1437.61 1111.91V1111.91Z" fill="#E2B548"/>
<path d="M1430.43 1024.2V1113.16C1430.43 1113.87 1430.15 1114.56 1429.65 1115.07C1429.15 1115.57 1428.48 1115.85 1427.77 1115.85H1348.12C1347.41 1115.85 1346.74 1115.56 1346.24 1115.06C1345.74 1114.55 1345.46 1113.87 1345.45 1113.16V1024.2H1430.43Z" fill="#E8E8E8"/>
<path d="M1428.79 1024.17H1425.61C1425.61 1014.12 1421.66 1004.47 1414.62 997.36C1407.58 990.249 1398.04 986.254 1388.09 986.254C1378.13 986.254 1368.59 990.249 1361.55 997.36C1354.52 1004.47 1350.56 1014.12 1350.56 1024.17H1347.39C1347.39 1013.23 1351.69 1002.74 1359.35 995.001C1367 987.264 1377.39 982.918 1388.21 982.918C1399.04 982.918 1409.43 987.264 1417.08 995.001C1424.74 1002.74 1429.04 1013.23 1429.04 1024.17H1428.79Z" fill="#E8E8E8"/>
<path d="M1430.43 1024.2V1041.49C1427.83 1042.2 1424.4 1039.73 1421.29 1039.18C1419.94 1038.99 1418.56 1039.19 1417.31 1039.76C1416.06 1040.33 1415 1041.24 1414.24 1042.39C1412.78 1044.77 1412.78 1048.04 1410.59 1049.77C1409.29 1050.49 1407.82 1050.83 1406.33 1050.75C1404.85 1050.66 1403.42 1050.16 1402.21 1049.29C1399.81 1047.51 1397.04 1046.32 1394.12 1045.79C1392.97 1045.77 1391.82 1045.98 1390.76 1046.42C1389.69 1046.87 1388.73 1047.52 1387.93 1048.36C1387.1 1049.12 1386.4 1050 1385.86 1050.99C1384.39 1054.01 1383.46 1057.27 1383.13 1060.61C1382.69 1063.12 1381.93 1066 1379.54 1067.03C1378.14 1067.53 1376.6 1067.53 1375.2 1067.03C1372.71 1066.26 1370.44 1064.89 1368.6 1063.04C1366.75 1061.19 1365.37 1058.92 1364.59 1056.41C1363.07 1051.31 1363.58 1044.51 1358.66 1042.1C1356.35 1041.41 1353.98 1040.99 1351.58 1040.85C1349.16 1040.4 1346.99 1039.09 1345.45 1037.16V1024.33L1430.43 1024.2Z" fill="#FAA436"/>
<g style="mix-blend-mode:multiply" opacity="0.2">
<path d="M1388.09 982.918V986.286C1378.14 986.295 1368.61 990.289 1361.58 997.392C1354.55 1004.5 1350.6 1014.13 1350.59 1024.17H1347.42C1347.43 1013.26 1351.71 1002.8 1359.33 995.067C1366.95 987.337 1377.29 982.969 1388.09 982.918V982.918Z" fill="#444444"/>
</g>
<g style="mix-blend-mode:multiply" opacity="0.2">
<path d="M1345.45 1024.2H1388.08V1115.98H1348.12C1347.41 1115.97 1346.74 1115.69 1346.24 1115.18C1345.74 1114.68 1345.46 1114 1345.45 1113.29V1024.2Z" fill="#444444"/>
</g>
<path d="M1367.29 1030.36V1118.64C1367.29 1119.35 1367.01 1120.03 1366.52 1120.53C1366.03 1121.03 1365.36 1121.31 1364.66 1121.31H1285.74C1285.04 1121.31 1284.37 1121.03 1283.87 1120.53C1283.38 1120.03 1283.1 1119.35 1283.1 1118.64V1030.36H1367.29Z" fill="#E8E8E8"/>
<path d="M1365.67 1030.36H1362.5C1362.22 1020.59 1358.17 1011.31 1351.23 1004.49C1344.29 997.676 1334.99 993.864 1325.31 993.864C1315.63 993.864 1306.33 997.676 1299.39 1004.49C1292.44 1011.31 1288.4 1020.59 1288.12 1030.36H1284.94C1285.24 1019.72 1289.63 1009.61 1297.19 1002.19C1304.74 994.761 1314.86 990.607 1325.4 990.607C1335.94 990.607 1346.07 994.761 1353.62 1002.19C1361.18 1009.61 1365.57 1019.72 1365.86 1030.36H1365.67Z" fill="#E8E8E8"/>
<path d="M1367.29 1030.36V1047.49C1364.72 1048.2 1361.32 1045.73 1358.24 1045.21C1356.9 1045.02 1355.53 1045.22 1354.29 1045.79C1353.05 1046.36 1352 1047.27 1351.26 1048.42C1349.83 1050.76 1349.83 1053.97 1347.67 1055.7C1346.38 1056.43 1344.91 1056.77 1343.43 1056.69C1341.96 1056.61 1340.53 1056.11 1339.32 1055.26C1336.96 1053.48 1334.22 1052.28 1331.32 1051.76C1330.18 1051.74 1329.05 1051.95 1327.99 1052.4C1326.94 1052.84 1325.99 1053.49 1325.2 1054.32C1324.36 1055.06 1323.67 1055.94 1323.13 1056.92C1321.68 1059.94 1320.76 1063.2 1320.43 1066.55C1320.02 1069.02 1319.26 1071.87 1316.91 1072.96C1315.51 1073.48 1313.97 1073.48 1312.56 1072.96C1310.11 1072.2 1307.87 1070.85 1306.04 1069.02C1304.22 1067.19 1302.86 1064.95 1302.09 1062.47C1300.56 1057.4 1301.07 1050.67 1296.21 1048.26C1293.93 1047.58 1291.57 1047.17 1289.2 1047.04C1286.8 1046.59 1284.64 1045.3 1283.1 1043.39V1030.55L1367.29 1030.36Z" fill="#FFCD26"/>
<g style="mix-blend-mode:multiply" opacity="0.2">
<path d="M1288.02 1030.36H1325.2V1121.31H1285.74C1285.04 1121.31 1284.37 1121.03 1283.87 1120.53C1283.38 1120.03 1283.1 1119.35 1283.1 1118.64V1030.36H1284.75C1284.76 1019.52 1289.02 1009.13 1296.61 1001.47C1304.19 993.809 1314.47 989.501 1325.2 989.492V992.7C1320.31 992.704 1315.47 993.682 1310.95 995.577C1306.44 997.473 1302.34 1000.25 1298.89 1003.75C1295.43 1007.24 1292.7 1011.39 1290.83 1015.96C1288.97 1020.53 1288.01 1025.42 1288.02 1030.36V1030.36Z" fill="#444444"/>
</g>
<path d="M798.044 1073.1H515.722C514.503 1073.02 513.283 1073.2 512.136 1073.62C510.988 1074.04 509.938 1074.7 509.05 1075.54C508.161 1076.39 507.454 1077.41 506.97 1078.54C506.486 1079.67 506.236 1080.89 506.236 1082.13C506.236 1083.36 506.486 1084.58 506.97 1085.71C507.454 1086.84 508.161 1087.87 509.05 1088.71C509.938 1089.56 510.988 1090.21 512.136 1090.63C513.283 1091.05 514.503 1091.23 515.722 1091.16H798.044C799.262 1091.23 800.483 1091.05 801.63 1090.63C802.777 1090.21 803.828 1089.56 804.716 1088.71C805.604 1087.87 806.312 1086.84 806.796 1085.71C807.28 1084.58 807.529 1083.36 807.529 1082.13C807.529 1080.89 807.28 1079.67 806.796 1078.54C806.312 1077.41 805.604 1076.39 804.716 1075.54C803.828 1074.7 802.777 1074.04 801.63 1073.62C800.483 1073.2 799.262 1073.02 798.044 1073.1V1073.1Z" fill="#E2B548"/>
<path d="M612.106 693.113H598.265V1070.14H612.106V693.113Z" fill="#E8E8E8"/>
<path d="M608.995 706.585C653.424 706.585 689.44 670.19 689.44 625.295C689.44 580.4 653.424 544.006 608.995 544.006C564.566 544.006 528.549 580.4 528.549 625.295C528.549 670.19 564.566 706.585 608.995 706.585Z" fill="#FFCD26"/>
<path d="M677.33 636.058C683.218 597.932 657.405 562.201 619.674 556.251C581.944 550.301 546.584 576.385 540.696 614.511C534.808 652.637 560.621 688.368 598.351 694.318C636.082 700.268 671.442 674.184 677.33 636.058Z" fill="#FFCD26"/>
<path d="M608.996 697.187C594.916 697.193 581.15 692.979 569.441 685.079C557.731 677.178 548.603 665.946 543.212 652.803C537.821 639.659 536.409 625.195 539.154 611.241C541.9 597.286 548.679 584.468 558.635 574.407C568.591 564.347 581.276 557.496 595.086 554.722C608.896 551.948 623.209 553.375 636.216 558.823C649.223 564.27 660.339 573.494 668.158 585.326C675.976 597.159 680.146 611.069 680.14 625.296C680.123 644.358 672.622 662.633 659.284 676.112C645.945 689.59 627.859 697.17 608.996 697.187ZM608.996 557.448C595.716 557.448 582.734 561.427 571.692 568.882C560.651 576.338 552.045 586.934 546.963 599.332C541.881 611.73 540.551 625.372 543.142 638.533C545.733 651.694 552.127 663.783 561.518 673.272C570.908 682.761 582.872 689.223 595.897 691.841C608.921 694.459 622.422 693.115 634.691 687.98C646.959 682.845 657.446 674.148 664.824 662.991C672.202 651.833 676.14 638.715 676.14 625.296C676.114 607.31 669.032 590.067 656.446 577.348C643.859 564.63 626.796 557.473 608.996 557.448V557.448Z" fill="#444444"/>
<path d="M656.997 610.028L651.314 604.286C650.724 604.854 649.939 605.172 649.124 605.172C648.308 605.172 647.523 604.854 646.933 604.286L646.171 603.516L647.6 602.072C647.801 601.868 647.915 601.591 647.915 601.302C647.915 601.014 647.801 600.737 647.6 600.532L633.028 585.808C633.028 585.808 622.044 577.531 612.043 583.434L614.869 585.968C618.212 585.823 621.539 586.518 624.552 587.989C625.033 588.225 625.452 588.574 625.774 589.007C626.095 589.44 626.31 589.943 626.4 590.477C626.49 591.01 626.453 591.557 626.291 592.073C626.13 592.589 625.849 593.059 625.472 593.443L624.044 594.886C623.711 595.22 623.446 595.618 623.266 596.055C623.085 596.493 622.993 596.963 622.993 597.437C622.993 597.911 623.085 598.38 623.266 598.818C623.446 599.256 623.711 599.653 624.044 599.987L625.441 601.399L595.694 631.457L595.186 630.944C595.052 630.798 594.89 630.682 594.71 630.602C594.53 630.523 594.335 630.482 594.138 630.482C593.942 630.482 593.747 630.523 593.567 630.602C593.387 630.682 593.225 630.798 593.091 630.944L566.424 657.859C565.644 658.652 565.207 659.724 565.207 660.842C565.207 661.96 565.644 663.032 566.424 663.825L571.44 668.894C572.225 669.681 573.286 670.123 574.392 670.123C575.498 670.123 576.56 669.681 577.345 668.894L604.012 641.947C604.285 641.67 604.438 641.295 604.438 640.905C604.438 640.514 604.285 640.139 604.012 639.862L603.504 639.317L633.218 609.29L636.107 612.177C636.205 612.277 636.321 612.357 636.449 612.411C636.577 612.465 636.715 612.493 636.853 612.493C636.992 612.493 637.13 612.465 637.258 612.411C637.386 612.357 637.502 612.277 637.6 612.177L639.028 610.734L639.79 611.504C640.353 612.1 640.667 612.893 640.667 613.717C640.667 614.541 640.353 615.334 639.79 615.931L645.504 621.673C645.664 621.842 645.857 621.976 646.069 622.068C646.282 622.16 646.511 622.207 646.743 622.207C646.974 622.207 647.203 622.16 647.416 622.068C647.628 621.976 647.821 621.842 647.981 621.673L656.997 612.562C657.328 612.226 657.514 611.77 657.514 611.295C657.514 610.82 657.328 610.365 656.997 610.028Z" fill="#444444"/>
<path d="M608.391 614.198L600.073 622.57L586.549 608.937C583.819 610.003 580.839 610.244 577.976 609.629C575.112 609.014 572.487 607.569 570.422 605.472C566.009 601.013 565.914 593.506 568.009 588.085L577.787 599.826C577.948 600.005 578.144 600.148 578.363 600.246C578.581 600.344 578.818 600.395 579.057 600.395C579.296 600.395 579.533 600.344 579.752 600.246C579.97 600.148 580.166 600.005 580.327 599.826L586.01 594.116C586.184 593.948 586.322 593.746 586.416 593.523C586.511 593.3 586.56 593.059 586.56 592.817C586.56 592.574 586.511 592.333 586.416 592.11C586.322 591.887 586.184 591.685 586.01 591.517L574.39 581.669C579.756 579.52 587.089 579.648 591.565 584.107C593.648 586.189 595.082 588.842 595.691 591.737C596.3 594.633 596.058 597.645 594.994 600.403L608.391 614.198Z" fill="#444444"/>
<path d="M632.518 652.757C632.345 652.922 632.207 653.121 632.113 653.341C632.019 653.562 631.97 653.8 631.97 654.04C631.97 654.28 632.019 654.518 632.113 654.739C632.207 654.959 632.345 655.158 632.518 655.323L644.137 665.204C638.772 667.321 631.439 667.225 626.931 662.766C624.852 660.674 623.422 658.016 622.813 655.117C622.204 652.217 622.444 649.201 623.502 646.437L612.073 634.888L620.391 626.516L631.82 638.064C634.553 636.982 637.541 636.734 640.413 637.35C643.285 637.965 645.915 639.418 647.979 641.529C652.36 645.956 652.487 653.462 650.36 658.884L640.613 647.175C640.461 646.984 640.271 646.828 640.056 646.716C639.841 646.603 639.604 646.538 639.363 646.522C639.121 646.507 638.878 646.543 638.651 646.628C638.424 646.713 638.216 646.844 638.042 647.014L632.518 652.757Z" fill="#444444"/>
<path d="M622.994 1070.14H587.311C585.136 1070.15 583.052 1071.03 581.517 1072.59C579.982 1074.14 579.12 1076.25 579.12 1078.45V1084.67H631.216V1078.45C631.22 1077.36 631.011 1076.27 630.599 1075.26C630.187 1074.25 629.582 1073.34 628.817 1072.56C628.053 1071.79 627.145 1071.18 626.145 1070.76C625.146 1070.35 624.075 1070.14 622.994 1070.14V1070.14Z" fill="#AEAEAE"/>
<g style="mix-blend-mode:multiply" opacity="0.2">
<path d="M605.185 544.071V1084.68H579.089V1078.42C579.093 1077.33 579.31 1076.25 579.727 1075.24C580.144 1074.24 580.753 1073.32 581.52 1072.55C582.286 1071.79 583.195 1071.18 584.194 1070.76C585.193 1070.35 586.263 1070.14 587.343 1070.14H598.264V705.752C578.35 703.065 560.151 692.947 547.248 677.386C534.345 661.825 527.67 641.949 528.538 621.666C529.406 601.384 537.752 582.164 551.937 567.786C566.121 553.409 585.115 544.914 605.185 543.975V544.071Z" fill="#444444"/>
</g>
<path d="M554.486 1089.42H449.722C447.601 1089.56 445.61 1090.5 444.154 1092.07C442.698 1093.63 441.888 1095.7 441.888 1097.85C441.888 1099.99 442.698 1102.06 444.154 1103.62C445.61 1105.19 447.601 1106.13 449.722 1106.27H554.486C555.624 1106.34 556.764 1106.17 557.836 1105.78C558.908 1105.39 559.889 1104.78 560.72 1103.99C561.55 1103.2 562.212 1102.25 562.664 1101.19C563.117 1100.14 563.35 1099 563.35 1097.85C563.35 1096.69 563.117 1095.55 562.664 1094.5C562.212 1093.44 561.55 1092.49 560.72 1091.7C559.889 1090.91 558.908 1090.3 557.836 1089.91C556.764 1089.52 555.624 1089.35 554.486 1089.42V1089.42Z" fill="#E2B548"/>
<path d="M531.947 1051.6L525.343 1025.68L517.057 993.024L511.883 972.012C509.565 962.837 499.914 962.837 497.565 972.012L492.263 992.928L483.978 1025.58L477.406 1051.51L468.993 1084.29H540.232L531.947 1051.6Z" fill="#FFCD26"/>
<path d="M552.486 1084.26H456.738V1098.05H552.486V1084.26Z" fill="#FFCD26"/>
<path d="M540.232 1084.29H468.993L477.279 1051.6H531.947L540.232 1084.29Z" fill="#444444"/>
<path d="M525.342 1025.68H483.85L492.135 993.025H517.057L525.342 1025.68Z" fill="#444444"/>
<g style="mix-blend-mode:multiply" opacity="0.2">
<path d="M504.613 965.244V1098.09H456.707V1084.29H468.993L477.247 1051.67L483.85 1025.75L492.136 993.057L497.438 972.141C497.672 970.335 498.512 968.665 499.818 967.41C501.124 966.155 502.816 965.39 504.613 965.244V965.244Z" fill="#444444"/>
</g>
<path d="M778.552 1061.41H689.217L699.598 1032.16L707.789 1008.9L718.17 979.58L724.836 960.813C725.504 958.955 726.721 957.35 728.323 956.216C729.925 955.081 731.833 954.473 733.789 954.473C735.745 954.473 737.653 955.081 739.255 956.216C740.857 957.35 742.074 958.955 742.742 960.813L749.377 979.58L759.758 1008.9L768.012 1032.16L778.552 1061.41Z" fill="#FAA436"/>
<path d="M793.694 1061.41H673.883V1083.07H793.694V1061.41Z" fill="#FAA436"/>
<path d="M778.393 1061.42H689.217L699.598 1032.16H768.012L778.393 1061.42Z" fill="white"/>
<path d="M759.759 1008.9H707.79L718.171 979.58H749.378L759.759 1008.9Z" fill="white"/>
<g style="mix-blend-mode:multiply" opacity="0.2">
<path d="M733.791 954.658V1082.98H673.79V1061.32H689.124L699.505 1032.07L707.695 1008.81L718.077 979.487L724.743 960.721C725.421 958.872 726.662 957.288 728.289 956.198C729.915 955.109 731.842 954.569 733.791 954.658Z" fill="#444444"/>
</g>
<defs>
<radialGradient id="paint0_radial" cx="0" cy="0" r="1" gradientUnits="userSpaceOnUse" gradientTransform="translate(949.984 802.672) scale(1559.11 1150.09)">
<stop stop-color="white"/>
<stop offset="0.17" stop-color="#FFFDFC"/>
<stop offset="0.3" stop-color="#FFF7F2"/>
<stop offset="0.42" stop-color="#FFEDE1"/>
<stop offset="0.53" stop-color="#FFDECA"/>
<stop offset="0.64" stop-color="#FFCCAB"/>
<stop offset="0.74" stop-color="#FFB586"/>
<stop offset="0.84" stop-color="#FF9A5A"/>
<stop offset="0.93" stop-color="#FF7C28"/>
<stop offset="1" stop-color="#FF6300"/>
</radialGradient>
</defs>
</svg>
