<svg width="207" height="208" viewBox="0 0 207 208" fill="none" xmlns="http://www.w3.org/2000/svg">
<path d="M160.69 1.23007H45.37C33.3714 1.20616 21.8538 5.94557 13.347 14.4074C4.84018 22.8692 0.0397244 34.3615 0 46.3601V161.68C0.00517161 173.728 4.78116 185.284 13.2834 193.82C21.7857 202.356 33.3222 207.177 45.37 207.23H160.69C172.726 207.156 184.244 202.326 192.732 193.793C201.22 185.26 205.99 173.716 206 161.68V46.3601C205.955 34.3735 201.161 22.8934 192.668 14.4344C184.176 5.9755 172.677 1.22734 160.69 1.23007V1.23007Z" fill="#FEFEFE"/>
<path fill-rule="evenodd" clip-rule="evenodd" d="M45.37 0H160.69C172.706 0.0473995 184.216 4.8416 192.712 13.338C201.208 21.8344 206.003 33.3444 206.05 45.36V160.68C206.024 172.712 201.24 184.246 192.742 192.764C184.244 201.283 172.722 206.095 160.69 206.15H45.37C33.3304 206.116 21.7952 201.311 13.2912 192.788C4.78728 184.265 0.00788911 172.72 0 160.68V45.36C0.0316859 33.3378 4.82221 21.8172 13.3242 13.3171C21.8261 4.81701 33.3478 0.0290358 45.37 0V0Z" fill="url(#paint0_linear)"/>
<path fill-rule="evenodd" clip-rule="evenodd" d="M112.94 79.7201V69.7201C112.94 64.9401 116.16 63.8001 118.44 63.8001H132.35V42.5601H113.15C91.8702 42.5601 87.0902 58.3401 87.0902 68.5101V79.7201H74.7402V104.53H87.2003V166.53H112V104.53H130.38L131.21 94.7701L132.66 79.7201H112.94Z" fill="#FEFEFE"/>
<defs>
<linearGradient id="paint0_linear" x1="103.03" y1="13.23" x2="103.03" y2="187.94" gradientUnits="userSpaceOnUse">
<stop stop-color="#4E6ABD"/>
<stop offset="1" stop-color="#3E51A0"/>
</linearGradient>
</defs>
</svg>
