<svg width="512" height="336" viewBox="0 0 512 336" fill="none" xmlns="http://www.w3.org/2000/svg">
<path d="M473.7 0H38.3C17.2 0 0 17.1 0 38.3V297.1C0 318.3 17.2 335.4 38.3 335.4H473.6C494.8 335.4 511.9 318.2 511.9 297.1V38.3C512 17.1 494.8 0 473.7 0Z" fill="#FF4B55"/>
<path d="M260.1 67.7005L283.7 138.501L358.3 139.101C362.5 139.101 364.2 144.5 360.8 146.9L300.8 191.201L323.3 262.3C324.6 266.3 320 269.601 316.6 267.101L256 223.8L195.3 267.201C191.9 269.601 187.4 266.3 188.6 262.4L211.1 191.3L151.1 147.001C147.7 144.501 149.5 139.201 153.6 139.201L228.2 138.601L251.8 67.8005C253.2 63.7005 258.8 63.7005 260.1 67.7005Z" fill="#FFE15A"/>
</svg>
